<?xml version="1.0" encoding="UTF-8"?>
<svg width="97px" height="100px" viewBox="0 0 97 100" version="1.1" xmlns="http://www.w3.org/2000/svg" xmlns:xlink="http://www.w3.org/1999/xlink">
    <!-- Generator: Sketch 50 (54983) - http://www.bohemiancoding.com/sketch -->
    <title>homeic_ad_four</title>
    <desc>Created with Sketch.</desc>
    <defs>
        <linearGradient x1="2165.69748%" y1="-50.758168%" x2="2165.69739%" y2="141.011552%" id="linearGradient-1">
            <stop stop-color="#509AEF" offset="0%"></stop>
            <stop stop-color="#3C6AF0" offset="100%"></stop>
        </linearGradient>
        <linearGradient x1="20.0110019%" y1="79.5197941%" x2="81.4272331%" y2="24.4617049%" id="linearGradient-2">
            <stop stop-color="#509AEF" offset="0%"></stop>
            <stop stop-color="#3C6AF0" offset="100%"></stop>
        </linearGradient>
        <linearGradient x1="9.60382231%" y1="-21.5243949%" x2="85.3454428%" y2="82.9480065%" id="linearGradient-3">
            <stop stop-color="#509AEF" offset="0%"></stop>
            <stop stop-color="#3C6AF0" offset="100%"></stop>
        </linearGradient>
        <linearGradient x1="195.534688%" y1="121.994108%" x2="5.30583658%" y2="26.5245521%" id="linearGradient-4">
            <stop stop-color="#509AEF" stop-opacity="0.402541893" offset="0%"></stop>
            <stop stop-color="#3C6AF0" offset="100%"></stop>
        </linearGradient>
    </defs>
    <g id="Page-1" stroke="none" stroke-width="1" fill="none" fill-rule="evenodd">
        <g id="BTCsale首页-2" transform="translate(-1076.000000, -4315.000000)">
            <g id="3" transform="translate(120.000000, 3796.000000)">
                <g id="Group-11" transform="translate(30.000000, 239.000000)">
                    <g id="4" transform="translate(895.000000, 250.000000)">
                        <g id="Group-9">
                            <g id="homeic_ad_four" transform="translate(31.000000, 30.000000)">
                                <path d="M5.30394516,25.7731959 L5.30394516,75.2919073" id="Path-10" stroke="url(#linearGradient-1)"></path>
                                <path d="M92.7835052,25.7731959 L92.7835052,75.2919073" id="Path-10-Copy" stroke="url(#linearGradient-1)"></path>
                                <path d="M48.4536082,3.09278351 L48.4536082,95.8808598" id="Path-10-Copy-2" stroke="url(#linearGradient-1)"></path>
                                <path d="M88.6913402,85.592268 C88.836701,85.421134 88.9882474,85.2510309 89.1253608,85.078866 C89.294433,84.8685567 89.4490722,84.6551546 89.6078351,84.4417526 C89.7305155,84.2778351 89.8583505,84.1139175 89.9748454,83.9479381 C90.1315464,83.7242268 90.2748454,83.4984536 90.4202062,83.2726804 C90.5212371,83.1159794 90.6284536,82.9592784 90.7243299,82.8005155 C90.8676289,82.564433 90.9964948,82.3273196 91.1274227,82.0891753 C91.2098969,81.9386598 91.2975258,81.7891753 91.3758763,81.6376289 C91.5037113,81.3881443 91.6181443,81.1376289 91.7336082,80.8860825 C91.7975258,80.7448454 91.8676289,80.6056701 91.9274227,80.4634021 C92.0397938,80.2015464 92.137732,79.9365979 92.2356701,79.6726804 C92.2830928,79.5407216 92.336701,79.4097938 92.3810309,79.278866 C92.4748454,79.0025773 92.5552577,78.7262887 92.6336082,78.45 C92.6676289,78.3283505 92.7057732,78.207732 92.736701,78.0860825 C92.8109278,77.7984536 92.8707216,77.5097938 92.9284536,77.221134 C92.9501031,77.1097938 92.9758763,76.9994845 92.9954639,76.8881443 C93.0480412,76.5871134 93.0861856,76.2850515 93.1202062,75.9840206 C93.1325773,75.8840206 93.1459794,75.7860825 93.1562887,75.6871134 C93.1851546,75.3737113 93.2006186,75.0603093 93.2098969,74.7458763 C93.2129897,74.6592784 93.2181443,74.5716495 93.2202062,74.4829897 C93.223299,74.1592784 93.2140206,73.835567 93.1975258,73.5118557 C93.1934021,73.4345361 93.1923711,73.3572165 93.1861856,73.2798969 C93.1645361,72.9458763 93.1274227,72.6118557 93.0830928,72.2778351 C93.0738144,72.2118557 93.0676289,72.1458763 93.0573196,72.0798969 C93.0068041,71.7365979 92.9418557,71.393299 92.8665979,71.0510309 C92.8552577,70.9953608 92.8439175,70.9396907 92.8315464,70.8840206 C92.751134,70.5324742 92.6562887,70.1819588 92.5501031,69.8314433 C92.5356701,69.7860825 92.523299,69.7407216 92.5098969,69.6943299 C92.3975258,69.335567 92.2717526,68.978866 92.1336082,68.6242268 C92.1191753,68.5860825 92.1057732,68.55 92.0913402,68.5128866 C91.9470103,68.1489691 91.7882474,67.7871134 91.6171134,67.4273196 C91.6037113,67.3994845 91.5913402,67.3706186 91.5769072,67.3417526 C91.3995876,66.9737113 91.2068041,66.6087629 91.0016495,66.2448454 C90.9892784,66.2242268 90.9789691,66.2036082 90.9665979,66.1829897 C90.7552577,65.8128866 90.5284536,65.4458763 90.2861856,65.0798969 C90.2779381,65.0664948 90.2696907,65.0530928 90.2604124,65.0396907 C90.0150515,64.6695876 89.7531959,64.3015464 89.4758763,63.9365979 C89.4696907,63.9273196 89.4635052,63.9190722 89.4562887,63.9097938 C89.1758763,63.5407216 88.8789691,63.1747423 88.5665979,62.8128866 C88.5635052,62.807732 88.5593814,62.8036082 88.5562887,62.7994845 C88.2408247,62.4335052 87.9078351,62.0706186 87.5604124,61.7108247 C87.5593814,61.7108247 87.5593814,61.7097938 87.5593814,61.7097938 C85.6037113,59.6912371 83.1542268,57.7902062 80.1861856,56.0768041 C71.5336082,51.0809278 60.1892784,48.5829897 48.8573196,48.5829897 L48.8573196,49.6139175 C60.5119588,49.6139175 71.4542268,52.2262887 79.6707216,56.9695876 C82.1439175,58.3974227 84.2738144,59.9664948 86.0439175,61.6407216 C92.1346392,70.0871134 89.2872165,80.178866 77.4459794,87.0335052 C70.4923711,91.0592784 61.5903093,93.292268 52.4573196,93.75 C51.3160825,93.8149485 50.1707216,93.8458763 49.0253608,93.8438144 C38.6521649,93.8582474 28.2583505,91.5881443 20.3346392,87.0314433 C8.94494845,80.4809278 5.73257732,70.9685567 10.7037113,62.764433 C12.6408247,60.6634021 15.1294845,58.7108247 18.1284536,56.9685567 C26.2892784,52.2252577 37.2026804,49.6139175 48.8552577,49.6139175 L48.8573196,48.5829897 L48.8552577,48.5829897 C37.5263918,48.5829897 26.208866,51.0798969 17.6098969,56.0778351 C16.6614433,56.6283505 15.7748454,57.2015464 14.9325773,57.7891753 C14.9315464,57.7891753 14.9315464,57.7891753 14.9315464,57.7891753 C14.5026804,58.0881443 14.0892784,58.392268 13.6872165,58.6994845 C13.6583505,58.721134 13.6284536,58.7427835 13.6006186,58.764433 C13.2171134,59.0603093 12.8480412,59.3592784 12.4892784,59.6623711 C12.4480412,59.6963918 12.4057732,59.7314433 12.365567,59.7654639 C12.0191753,60.0603093 11.6872165,60.3592784 11.365567,60.6603093 C11.3181443,60.7046392 11.2696907,60.7489691 11.223299,60.793299 C10.9109278,61.0891753 10.6119588,61.3881443 10.322268,61.6891753 C10.2738144,61.7417526 10.2243299,61.793299 10.1748454,61.8438144 C9.89340206,62.1427835 9.62329897,62.4427835 9.36453608,62.7469072 C9.31608247,62.8025773 9.26865979,62.8582474 9.22226804,62.9149485 C8.96865979,63.2170103 8.72536082,63.521134 8.49340206,63.8283505 C8.45010309,63.8860825 8.40680412,63.9438144 8.36453608,64.0015464 C8.13670103,64.3087629 7.91814433,64.6190722 7.71195876,64.9304124 C7.67484536,64.9871134 7.63876289,65.0438144 7.60164948,65.1015464 C7.39752577,65.4159794 7.20371134,65.7314433 7.02226804,66.05 C6.99134021,66.1036082 6.96350515,66.1582474 6.93257732,66.2118557 C6.75319588,66.535567 6.58103093,66.8603093 6.42329897,67.1860825 C6.40164948,67.2314433 6.38206186,67.2778351 6.36041237,67.3231959 C6.20164948,67.6592784 6.05113402,67.9974227 5.91608247,68.3365979 C5.9057732,68.3654639 5.89649485,68.392268 5.88515464,68.421134 C5.0171134,70.6417526 4.66350515,72.9180412 4.82536082,75.1850515 C4.82845361,75.2221649 4.82845361,75.2592784 4.83154639,75.2974227 C4.8542268,75.5902062 4.89340206,75.8840206 4.93360825,76.1768041 C4.94907216,76.2829897 4.95835052,76.3902062 4.97484536,76.4963918 C5.0171134,76.7572165 5.07278351,77.0159794 5.12742268,77.2757732 C5.15731959,77.4149485 5.18309278,77.5541237 5.21608247,77.692268 C5.27381443,77.9324742 5.34391753,78.1716495 5.41298969,78.4108247 C5.45938144,78.5685567 5.50268041,78.7252577 5.55319588,78.8829897 C5.62639175,79.107732 5.70989691,79.3335052 5.79340206,79.5582474 C5.85628866,79.7273196 5.91814433,79.8963918 5.98721649,80.064433 C6.07484536,80.278866 6.17072165,80.492268 6.26762887,80.706701 C6.34907216,80.8840206 6.43051546,81.0603093 6.51814433,81.2365979 C6.62020619,81.4417526 6.72742268,81.6458763 6.83876289,81.85 C6.93773196,82.0324742 7.03876289,82.2149485 7.14494845,82.3953608 C7.26041237,82.593299 7.38103093,82.7902062 7.50474227,82.9860825 C7.62329897,83.1716495 7.74391753,83.3572165 7.87072165,83.5417526 C7.9985567,83.7314433 8.12948454,83.9190722 8.26659794,84.107732 C8.40371134,84.2963918 8.54597938,84.4840206 8.69134021,84.6716495 C8.83360825,84.8530928 8.97587629,85.0345361 9.12536082,85.2149485 C9.28206186,85.4056701 9.44597938,85.593299 9.61092784,85.7819588 C9.76453608,85.9572165 9.91814433,86.1314433 10.08,86.3046392 C10.2562887,86.4953608 10.4428866,86.6840206 10.6294845,86.8726804 C10.794433,87.0396907 10.9583505,87.207732 11.1305155,87.3737113 C11.3294845,87.5654639 11.5397938,87.7541237 11.7480412,87.9438144 C11.923299,88.1025773 12.094433,88.2613402 12.2758763,88.4180412 C12.5006186,88.6118557 12.736701,88.8025773 12.9707216,88.993299 C13.1531959,89.1417526 13.3305155,89.2912371 13.5191753,89.4376289 C13.7748454,89.6365979 14.0428866,89.8314433 14.308866,90.0262887 C14.4913402,90.1613402 14.6686598,90.2963918 14.8562887,90.4293814 C15.1614433,90.6438144 15.4820619,90.8541237 15.8016495,91.064433 C15.9665979,91.1726804 16.123299,91.2840206 16.2913402,91.3912371 C16.7861856,91.706701 17.2954639,92.0159794 17.8212371,92.3201031 C18.8758763,92.9293814 19.9727835,93.4994845 21.1026804,94.0345361 C26.9078351,96.7819588 33.636701,98.5510309 40.6274227,99.3386598 C40.6490722,99.3417526 40.6707216,99.3448454 40.6923711,99.3469072 C41.1676289,99.4005155 41.6449485,99.4427835 42.1212371,99.4871134 C42.3459794,99.507732 42.5696907,99.5335052 42.794433,99.5530928 C44.6851546,99.7097938 46.5903093,99.7902062 48.4954639,99.807732 C48.7140206,99.8087629 48.9336082,99.8159794 49.151134,99.8159794 L49.1531959,99.8159794 C49.5779381,99.8159794 50.0016495,99.8056701 50.4263918,99.7984536 C50.708866,99.793299 50.9923711,99.7943299 51.2748454,99.7871134 C51.5212371,99.7798969 51.7665979,99.7654639 52.0129897,99.7561856 C53.8872165,99.6860825 55.7552577,99.5541237 57.6047423,99.3479381 C57.6284536,99.3448454 57.6521649,99.3417526 57.6769072,99.3386598 C62.5305155,98.7902062 67.2521649,97.7695876 71.6181443,96.2747423 C71.6604124,96.2603093 71.7006186,96.2448454 71.7418557,96.2293814 C73.5892784,95.592268 75.3738144,94.8716495 77.0758763,94.064433 C78.2191753,93.5221649 79.3263918,92.9417526 80.3903093,92.3231959 C80.923299,92.0139175 81.4387629,91.6974227 81.9387629,91.3768041 C82.1047423,91.2695876 82.2573196,91.1592784 82.4202062,91.0520619 C82.7459794,90.8345361 83.0748454,90.6190722 83.3861856,90.3974227 C83.5810309,90.2582474 83.7614433,90.1149485 83.951134,89.9747423 C84.2140206,89.778866 84.4820619,89.5850515 84.7346392,89.3860825 C84.9325773,89.2293814 85.1160825,89.0685567 85.3078351,88.9097938 C85.5336082,88.7221649 85.765567,88.5365979 85.9820619,88.3458763 C86.1758763,88.1757732 86.3562887,88.0005155 86.5428866,87.8273196 C86.7387629,87.6458763 86.9418557,87.464433 87.1294845,87.2798969 C87.3171134,87.0963918 87.4892784,86.9087629 87.6686598,86.7231959 C87.8387629,86.5458763 88.0150515,86.3695876 88.1779381,86.1902062 C88.3573196,85.992268 88.5212371,85.792268 88.6913402,85.592268" id="Fill-5" fill="url(#linearGradient-2)"></path>
                                <path d="M25.0853608,39.5150515 C38.3616495,47.18 59.8936082,47.18 73.0771134,39.5181443 C86.2668041,31.8531959 86.196701,19.3810309 72.9204124,11.7160825 C59.6441237,4.05113402 38.1193814,4.05525773 24.9296907,11.7202062 C11.7461856,19.3820619 11.8101031,31.8501031 25.0853608,39.5150515 M80.1863918,7.49443299 C97.496701,17.4892784 97.5884536,33.7459794 80.3905155,43.7408247 C63.197732,53.7315464 35.1317526,53.7325773 17.8204124,43.737732 C0.515257732,33.7470103 0.417319588,17.4851546 17.6101031,7.49443299 C34.8080412,-2.50041237 62.882268,-2.49628866 80.1863918,7.49443299" id="Fill-1" fill="url(#linearGradient-2)"></path>
                                <path d="M48.8556701,24.9809278 C37.5257732,24.9809278 26.2082474,27.478866 17.6092784,32.4757732 C0.418556701,42.4664948 0.515463918,58.7273196 17.8206186,68.7180412 C26.4762887,73.7159794 37.8216495,76.2149485 49.1525773,76.2149485 C60.4804124,76.2149485 71.7948454,73.7159794 80.3896907,68.7221649 C97.5886598,58.7273196 97.4969072,42.4695876 80.1865979,32.4757732 C71.5329897,27.478866 60.1876289,24.9809278 48.8556701,24.9809278 M48.856701,24.9809278 L48.856701,26.0118557 C60.5113402,26.0118557 71.4536082,28.6242268 79.671134,33.3685567 C87.7402062,38.0273196 92.1896907,44.1695876 92.1979381,50.6634021 C92.2072165,57.1087629 87.8298969,63.2056701 79.8721649,67.8304124 C71.7123711,72.5726804 60.8030928,75.1840206 49.1525773,75.1840206 C37.4989691,75.1840206 26.5546392,72.5706186 18.3360825,67.8252577 C10.2670103,63.1675258 5.8185567,57.0242268 5.80927835,50.5283505 C5.8,44.0829897 10.1752577,37.9881443 18.1278351,33.3664948 C26.2886598,28.6242268 37.2020619,26.0118557 48.8556701,26.0118557 L48.856701,24.9809278" id="Fill-7" fill="url(#linearGradient-3)"></path>
                                <path d="M9.75051546,51.2670103 C9.75051546,53.9597938 7.56804124,56.142268 4.87525773,56.142268 C2.18247423,56.142268 0,53.9597938 0,51.2670103 C0,48.5742268 2.18247423,46.3917526 4.87525773,46.3917526 C7.56804124,46.3917526 9.75051546,48.5742268 9.75051546,51.2670103" id="Fill-9" fill="url(#linearGradient-4)"></path>
                                <g id="Group-13" transform="translate(86.597938, 46.391753)" fill="url(#linearGradient-4)">
                                    <path d="M10.3383505,4.96412371 C10.3383505,7.65690722 8.15587629,9.83938144 5.46309278,9.83938144 C2.77030928,9.83938144 0.587835052,7.65690722 0.587835052,4.96412371 C0.587835052,2.27134021 2.77030928,0.0888659794 5.46309278,0.0888659794 C8.15587629,0.0888659794 10.3383505,2.27134021 10.3383505,4.96412371" id="Fill-11"></path>
                                </g>
                            </g>
                        </g>
                    </g>
                </g>
            </g>
        </g>
    </g>
</svg>