<?xml version="1.0" encoding="UTF-8"?>
<svg width="97px" height="107px" viewBox="0 0 97 107" version="1.1" xmlns="http://www.w3.org/2000/svg" xmlns:xlink="http://www.w3.org/1999/xlink">
    <!-- Generator: Sketch 50 (54983) - http://www.bohemiancoding.com/sketch -->
    <title>homeic_ad_three</title>
    <desc>Created with Sketch.</desc>
    <defs>
        <linearGradient x1="2165.69748%" y1="-50.758168%" x2="2165.69739%" y2="141.011552%" id="linearGradient-1">
            <stop stop-color="#509AEF" offset="0%"></stop>
            <stop stop-color="#3C6AF0" offset="100%"></stop>
        </linearGradient>
        <linearGradient x1="20.0110019%" y1="79.5197941%" x2="81.4272331%" y2="24.4617049%" id="linearGradient-2">
            <stop stop-color="#509AEF" offset="0%"></stop>
            <stop stop-color="#3C6AF0" offset="100%"></stop>
        </linearGradient>
        <linearGradient x1="9.60382231%" y1="-21.5243949%" x2="85.3454428%" y2="82.9480065%" id="linearGradient-3">
            <stop stop-color="#509AEF" offset="0%"></stop>
            <stop stop-color="#3C6AF0" offset="100%"></stop>
        </linearGradient>
        <linearGradient x1="195.534688%" y1="121.994108%" x2="5.30583658%" y2="26.5245521%" id="linearGradient-4">
            <stop stop-color="#509AEF" stop-opacity="0.402541893" offset="0%"></stop>
            <stop stop-color="#3C6AF0" offset="100%"></stop>
        </linearGradient>
    </defs>
    <g id="Page-1" stroke="none" stroke-width="1" fill="none" fill-rule="evenodd">
        <g id="BTCsale首页-2" transform="translate(-182.000000, -4562.000000)">
            <g id="3" transform="translate(120.000000, 3796.000000)">
                <g id="Group-11" transform="translate(30.000000, 239.000000)">
                    <g id="3" transform="translate(0.000000, 500.000000)">
                        <g id="Group-9">
                            <g id="homeic_ad_three" transform="translate(32.000000, 27.000000)">
                                <path d="M4.50779631,30.155399 L4.50779631,79.6741105" id="Path-10" stroke="url(#linearGradient-1)"></path>
                                <path d="M91.8993827,30.8400637 L91.8993827,80.3587752" id="Path-10-Copy" stroke="url(#linearGradient-1)"></path>
                                <path d="M47.4536082,5.49998872 L47.4536082,100.88086" id="Path-10-Copy-2" stroke="url(#linearGradient-1)"></path>
                                <path d="M87.9041004,92.0092784 C88.0494612,91.8381443 88.2010076,91.6680412 88.338121,91.4958763 C88.5071932,91.285567 88.6618323,91.0721649 88.8205952,90.8587629 C88.9432756,90.6948454 89.0711107,90.5309278 89.1876055,90.3649485 C89.3443066,90.1412371 89.4876055,89.9154639 89.6329664,89.6896907 C89.7339973,89.5329897 89.8412138,89.3762887 89.9370901,89.2175258 C90.080389,88.9814433 90.209255,88.7443299 90.3401829,88.5061856 C90.4226571,88.3556701 90.5102859,88.2061856 90.5886365,88.0546392 C90.7164715,87.8051546 90.8309045,87.5546392 90.9463684,87.3030928 C91.0102859,87.1618557 91.080389,87.0226804 91.1401829,86.8804124 C91.252554,86.6185567 91.3504921,86.3536082 91.4484303,86.0896907 C91.495853,85.957732 91.5494612,85.8268041 91.5937911,85.6958763 C91.6876055,85.4195876 91.7680179,85.143299 91.8463684,84.8670103 C91.880389,84.7453608 91.9185334,84.6247423 91.9494612,84.5030928 C92.023688,84.2154639 92.0834818,83.9268041 92.1412138,83.6381443 C92.1628633,83.5268041 92.1886365,83.4164948 92.2082241,83.3051546 C92.2608014,83.0041237 92.2989457,82.7020619 92.3329664,82.4010309 C92.3453375,82.3010309 92.3587396,82.2030928 92.3690488,82.1041237 C92.3979148,81.7907216 92.4133787,81.4773196 92.4226571,81.1628866 C92.4257499,81.0762887 92.4309045,80.9886598 92.4329664,80.9 C92.4360591,80.5762887 92.4267808,80.2525773 92.4102859,79.928866 C92.4061622,79.8515464 92.4051313,79.7742268 92.3989457,79.6969072 C92.3772963,79.3628866 92.3401829,79.028866 92.295853,78.6948454 C92.2865746,78.628866 92.280389,78.5628866 92.2700798,78.4969072 C92.2195643,78.1536082 92.1546158,77.8103093 92.0793581,77.4680412 C92.0680179,77.4123711 92.0566777,77.356701 92.0443066,77.3010309 C91.9638942,76.9494845 91.8690488,76.5989691 91.7628633,76.2484536 C91.7484303,76.2030928 91.7360591,76.157732 91.7226571,76.1113402 C91.6102859,75.7525773 91.4845128,75.3958763 91.3463684,75.0412371 C91.3319354,75.0030928 91.3185334,74.9670103 91.3041004,74.9298969 C91.1597705,74.5659794 91.0010076,74.2041237 90.8298736,73.8443299 C90.8164715,73.8164948 90.8041004,73.7876289 90.7896674,73.7587629 C90.6123478,73.3907216 90.4195643,73.0257732 90.2144097,72.6618557 C90.2020385,72.6412371 90.1917292,72.6206186 90.1793581,72.6 C89.9680179,72.2298969 89.7412138,71.8628866 89.4989457,71.4969072 C89.4906983,71.4835052 89.4824509,71.4701031 89.4731725,71.456701 C89.2278117,71.0865979 88.9659561,70.7185567 88.6886365,70.3536082 C88.6824509,70.3443299 88.6762653,70.3360825 88.6690488,70.3268041 C88.3886365,69.957732 88.0917292,69.5917526 87.7793581,69.2298969 C87.7762653,69.2247423 87.7721416,69.2206186 87.7690488,69.2164948 C87.4535849,68.8505155 87.1205952,68.4876289 86.7731725,68.1278351 C86.7721416,68.1278351 86.7721416,68.1268041 86.7721416,68.1268041 C84.8164715,66.1082474 82.366987,64.2072165 79.3989457,62.4938144 C70.7463684,57.4979381 59.4020385,55 48.0700798,55 L48.0700798,56.0309278 C59.7247189,56.0309278 70.666987,58.643299 78.8834818,63.3865979 C81.3566777,64.814433 83.4865746,66.3835052 85.2566777,68.057732 C91.3473994,76.5041237 88.4999767,86.5958763 76.6587396,93.4505155 C69.7051313,97.4762887 60.8030695,99.7092784 51.6700798,100.16701 C50.5288427,100.231959 49.3834818,100.262887 48.238121,100.260825 C37.8649251,100.275258 27.4711107,98.0051546 19.5473994,93.4484536 C8.15770863,86.8979381 4.9453375,77.385567 9.91647152,69.1814433 C11.8535849,67.0804124 14.3422447,65.1278351 17.3412138,63.385567 C25.5020385,58.642268 36.4154406,56.0309278 48.0680179,56.0309278 L48.0700798,55 L48.0680179,55 C36.7391519,55 25.4216262,57.4969072 16.8226571,62.4948454 C15.8742035,63.0453608 14.9876055,63.6185567 14.1453375,64.2061856 C14.1443066,64.2061856 14.1443066,64.2061856 14.1443066,64.2061856 C13.7154406,64.5051546 13.3020385,64.8092784 12.8999767,65.1164948 C12.8711107,65.1381443 12.8412138,65.1597938 12.8133787,65.1814433 C12.4298736,65.4773196 12.0608014,65.7762887 11.7020385,66.0793814 C11.6608014,66.1134021 11.6185334,66.1484536 11.5783272,66.1824742 C11.2319354,66.4773196 10.8999767,66.7762887 10.5783272,67.0773196 C10.5309045,67.1216495 10.4824509,67.1659794 10.4360591,67.2103093 C10.123688,67.5061856 9.82471894,67.8051546 9.53502822,68.1061856 C9.48657461,68.1587629 9.43709007,68.2103093 9.38760554,68.2608247 C9.10616224,68.5597938 8.83605915,68.8597938 8.57729626,69.1639175 C8.52884265,69.2195876 8.48141997,69.2752577 8.43502822,69.3319588 C8.18141997,69.6340206 7.938121,69.9381443 7.70616224,70.2453608 C7.66286327,70.3030928 7.6195643,70.3608247 7.57729626,70.4185567 C7.34946121,70.7257732 7.13090451,71.0360825 6.92471894,71.3474227 C6.88760554,71.4041237 6.85152306,71.4608247 6.81440966,71.5185567 C6.61028595,71.8329897 6.41647152,72.1484536 6.23502822,72.4670103 C6.20410038,72.5206186 6.17626533,72.5752577 6.1453375,72.628866 C5.96595605,72.9525773 5.7937911,73.2773196 5.63605915,73.6030928 C5.61440966,73.6484536 5.59482203,73.6948454 5.57317255,73.7402062 C5.41440966,74.0762887 5.2638942,74.414433 5.12884265,74.7536082 C5.11853337,74.7824742 5.10925502,74.8092784 5.09791482,74.8381443 C4.22987358,77.0587629 3.87626533,79.3350515 4.038121,81.6020619 C4.04121378,81.6391753 4.04121378,81.6762887 4.04430657,81.714433 C4.06698698,82.0072165 4.10616224,82.3010309 4.14636842,82.5938144 C4.16183234,82.7 4.17111069,82.8072165 4.18760554,82.9134021 C4.22987358,83.1742268 4.28554368,83.4329897 4.34018286,83.6927835 C4.37007976,83.8319588 4.39585296,83.971134 4.42884265,84.1092784 C4.48657461,84.3494845 4.5566777,84.5886598 4.62574987,84.8278351 C4.67214162,84.985567 4.71544059,85.142268 4.76595605,85.3 C4.83915193,85.5247423 4.92265708,85.7505155 5.00616224,85.9752577 C5.06904884,86.1443299 5.13090451,86.3134021 5.19997667,86.4814433 C5.28760554,86.6958763 5.38348183,86.9092784 5.48038904,87.1237113 C5.56183234,87.3010309 5.64327564,87.4773196 5.73090451,87.6536082 C5.83296636,87.8587629 5.94018286,88.0628866 6.05152306,88.2670103 C6.15049213,88.4494845 6.25152306,88.6319588 6.35770863,88.8123711 C6.47317255,89.0103093 6.5937911,89.2072165 6.71750244,89.4030928 C6.83605915,89.5886598 6.9566777,89.7742268 7.08348183,89.9587629 C7.21131688,90.1484536 7.34224471,90.3360825 7.47935811,90.5247423 C7.61647152,90.7134021 7.75873956,90.9010309 7.90410038,91.0886598 C8.04636842,91.2701031 8.18863646,91.4515464 8.338121,91.6319588 C8.49482203,91.8226804 8.65873956,92.0103093 8.82368801,92.1989691 C8.97729626,92.3742268 9.13090451,92.5484536 9.29276018,92.7216495 C9.46904884,92.9123711 9.65564677,93.1010309 9.84224471,93.2896907 C10.0071932,93.456701 10.1711107,93.6247423 10.3432756,93.7907216 C10.5422447,93.9824742 10.752554,94.171134 10.9608014,94.3608247 C11.1360591,94.5195876 11.3071932,94.6783505 11.4886365,94.8350515 C11.7133787,95.028866 11.9494612,95.2195876 12.1834818,95.4103093 C12.3659561,95.5587629 12.5432756,95.7082474 12.7319354,95.8546392 C12.9876055,96.0536082 13.2556468,96.2484536 13.5216262,96.443299 C13.7041004,96.5783505 13.88142,96.7134021 14.0690488,96.8463918 C14.3742035,97.0608247 14.694822,97.271134 15.0144097,97.4814433 C15.1793581,97.5896907 15.3360591,97.7010309 15.5041004,97.8082474 C15.9989457,98.1237113 16.5082241,98.4329897 17.0339973,98.7371134 C18.0886365,99.3463918 19.1855437,99.9164948 20.3154406,100.451546 C26.1205952,103.198969 32.8494612,104.968041 39.8401829,105.75567 C39.8618323,105.758763 39.8834818,105.761856 39.9051313,105.763918 C40.380389,105.817526 40.8577086,105.859794 41.3339973,105.904124 C41.5587396,105.924742 41.7824509,105.950515 42.0071932,105.970103 C43.8979148,106.126804 45.8030695,106.207216 47.7082241,106.224742 C47.9267808,106.225773 48.1463684,106.23299 48.3638942,106.23299 L48.3659561,106.23299 C48.7906983,106.23299 49.2144097,106.22268 49.6391519,106.215464 C49.9216262,106.210309 50.2051313,106.21134 50.4876055,106.204124 C50.7339973,106.196907 50.9793581,106.182474 51.2257499,106.173196 C53.0999767,106.103093 54.9680179,105.971134 56.8175024,105.764948 C56.8412138,105.761856 56.8649251,105.758763 56.8896674,105.75567 C61.7432756,105.207216 66.4649251,104.186598 70.8309045,102.691753 C70.8731725,102.67732 70.9133787,102.661856 70.9546158,102.646392 C72.8020385,102.009278 74.5865746,101.28866 76.2886365,100.481443 C77.4319354,99.9391753 78.5391519,99.3587629 79.6030695,98.7402062 C80.1360591,98.4309278 80.6515231,98.114433 81.1515231,97.7938144 C81.3175024,97.6865979 81.4700798,97.5762887 81.6329664,97.4690722 C81.9587396,97.2515464 82.2876055,97.0360825 82.5989457,96.814433 C82.7937911,96.6752577 82.9742035,96.5319588 83.1638942,96.3917526 C83.4267808,96.1958763 83.694822,96.0020619 83.9473994,95.8030928 C84.1453375,95.6463918 84.3288427,95.485567 84.5205952,95.3268041 C84.7463684,95.1391753 84.9783272,94.9536082 85.194822,94.7628866 C85.3886365,94.5927835 85.5690488,94.4175258 85.7556468,94.2443299 C85.9515231,94.0628866 86.1546158,93.8814433 86.3422447,93.6969072 C86.5298736,93.5134021 86.7020385,93.3257732 86.88142,93.1402062 C87.0515231,92.9628866 87.2278117,92.7865979 87.3906983,92.6072165 C87.5700798,92.4092784 87.7339973,92.2092784 87.9041004,92.0092784" id="Fill-5" fill="url(#linearGradient-2)"></path>
                                <path d="M87.9041004,67.0092784 C88.0494612,66.8381443 88.2010076,66.6680412 88.338121,66.4958763 C88.5071932,66.285567 88.6618323,66.0721649 88.8205952,65.8587629 C88.9432756,65.6948454 89.0711107,65.5309278 89.1876055,65.3649485 C89.3443066,65.1412371 89.4876055,64.9154639 89.6329664,64.6896907 C89.7339973,64.5329897 89.8412138,64.3762887 89.9370901,64.2175258 C90.080389,63.9814433 90.209255,63.7443299 90.3401829,63.5061856 C90.4226571,63.3556701 90.5102859,63.2061856 90.5886365,63.0546392 C90.7164715,62.8051546 90.8309045,62.5546392 90.9463684,62.3030928 C91.0102859,62.1618557 91.080389,62.0226804 91.1401829,61.8804124 C91.252554,61.6185567 91.3504921,61.3536082 91.4484303,61.0896907 C91.495853,60.957732 91.5494612,60.8268041 91.5937911,60.6958763 C91.6876055,60.4195876 91.7680179,60.143299 91.8463684,59.8670103 C91.880389,59.7453608 91.9185334,59.6247423 91.9494612,59.5030928 C92.023688,59.2154639 92.0834818,58.9268041 92.1412138,58.6381443 C92.1628633,58.5268041 92.1886365,58.4164948 92.2082241,58.3051546 C92.2608014,58.0041237 92.2989457,57.7020619 92.3329664,57.4010309 C92.3453375,57.3010309 92.3587396,57.2030928 92.3690488,57.1041237 C92.3979148,56.7907216 92.4133787,56.4773196 92.4226571,56.1628866 C92.4257499,56.0762887 92.4309045,55.9886598 92.4329664,55.9 C92.4360591,55.5762887 92.4267808,55.2525773 92.4102859,54.928866 C92.4061622,54.8515464 92.4051313,54.7742268 92.3989457,54.6969072 C92.3772963,54.3628866 92.3401829,54.028866 92.295853,53.6948454 C92.2865746,53.628866 92.280389,53.5628866 92.2700798,53.4969072 C92.2195643,53.1536082 92.1546158,52.8103093 92.0793581,52.4680412 C92.0680179,52.4123711 92.0566777,52.356701 92.0443066,52.3010309 C91.9638942,51.9494845 91.8690488,51.5989691 91.7628633,51.2484536 C91.7484303,51.2030928 91.7360591,51.157732 91.7226571,51.1113402 C91.6102859,50.7525773 91.4845128,50.3958763 91.3463684,50.0412371 C91.3319354,50.0030928 91.3185334,49.9670103 91.3041004,49.9298969 C91.1597705,49.5659794 91.0010076,49.2041237 90.8298736,48.8443299 C90.8164715,48.8164948 90.8041004,48.7876289 90.7896674,48.7587629 C90.6123478,48.3907216 90.4195643,48.0257732 90.2144097,47.6618557 C90.2020385,47.6412371 90.1917292,47.6206186 90.1793581,47.6 C89.9680179,47.2298969 89.7412138,46.8628866 89.4989457,46.4969072 C89.4906983,46.4835052 89.4824509,46.4701031 89.4731725,46.456701 C89.2278117,46.0865979 88.9659561,45.7185567 88.6886365,45.3536082 C88.6824509,45.3443299 88.6762653,45.3360825 88.6690488,45.3268041 C88.3886365,44.957732 88.0917292,44.5917526 87.7793581,44.2298969 C87.7762653,44.2247423 87.7721416,44.2206186 87.7690488,44.2164948 C87.4535849,43.8505155 87.1205952,43.4876289 86.7731725,43.1278351 C86.7721416,43.1278351 86.7721416,43.1268041 86.7721416,43.1268041 C84.8164715,41.1082474 82.366987,39.2072165 79.3989457,37.4938144 C70.7463684,32.4979381 59.4020385,30 48.0700798,30 L48.0700798,31.0309278 C59.7247189,31.0309278 70.666987,33.643299 78.8834818,38.3865979 C81.3566777,39.814433 83.4865746,41.3835052 85.2566777,43.057732 C91.3473994,51.5041237 88.4999767,61.5958763 76.6587396,68.4505155 C69.7051313,72.4762887 60.8030695,74.7092784 51.6700798,75.1670103 C50.5288427,75.2319588 49.3834818,75.2628866 48.238121,75.2608247 C37.8649251,75.2752577 27.4711107,73.0051546 19.5473994,68.4484536 C8.15770863,61.8979381 4.9453375,52.385567 9.91647152,44.1814433 C11.8535849,42.0804124 14.3422447,40.1278351 17.3412138,38.385567 C25.5020385,33.642268 36.4154406,31.0309278 48.0680179,31.0309278 L48.0700798,30 L48.0680179,30 C36.7391519,30 25.4216262,32.4969072 16.8226571,37.4948454 C15.8742035,38.0453608 14.9876055,38.6185567 14.1453375,39.2061856 C14.1443066,39.2061856 14.1443066,39.2061856 14.1443066,39.2061856 C13.7154406,39.5051546 13.3020385,39.8092784 12.8999767,40.1164948 C12.8711107,40.1381443 12.8412138,40.1597938 12.8133787,40.1814433 C12.4298736,40.4773196 12.0608014,40.7762887 11.7020385,41.0793814 C11.6608014,41.1134021 11.6185334,41.1484536 11.5783272,41.1824742 C11.2319354,41.4773196 10.8999767,41.7762887 10.5783272,42.0773196 C10.5309045,42.1216495 10.4824509,42.1659794 10.4360591,42.2103093 C10.123688,42.5061856 9.82471894,42.8051546 9.53502822,43.1061856 C9.48657461,43.1587629 9.43709007,43.2103093 9.38760554,43.2608247 C9.10616224,43.5597938 8.83605915,43.8597938 8.57729626,44.1639175 C8.52884265,44.2195876 8.48141997,44.2752577 8.43502822,44.3319588 C8.18141997,44.6340206 7.938121,44.9381443 7.70616224,45.2453608 C7.66286327,45.3030928 7.6195643,45.3608247 7.57729626,45.4185567 C7.34946121,45.7257732 7.13090451,46.0360825 6.92471894,46.3474227 C6.88760554,46.4041237 6.85152306,46.4608247 6.81440966,46.5185567 C6.61028595,46.8329897 6.41647152,47.1484536 6.23502822,47.4670103 C6.20410038,47.5206186 6.17626533,47.5752577 6.1453375,47.628866 C5.96595605,47.9525773 5.7937911,48.2773196 5.63605915,48.6030928 C5.61440966,48.6484536 5.59482203,48.6948454 5.57317255,48.7402062 C5.41440966,49.0762887 5.2638942,49.414433 5.12884265,49.7536082 C5.11853337,49.7824742 5.10925502,49.8092784 5.09791482,49.8381443 C4.22987358,52.0587629 3.87626533,54.3350515 4.038121,56.6020619 C4.04121378,56.6391753 4.04121378,56.6762887 4.04430657,56.714433 C4.06698698,57.0072165 4.10616224,57.3010309 4.14636842,57.5938144 C4.16183234,57.7 4.17111069,57.8072165 4.18760554,57.9134021 C4.22987358,58.1742268 4.28554368,58.4329897 4.34018286,58.6927835 C4.37007976,58.8319588 4.39585296,58.971134 4.42884265,59.1092784 C4.48657461,59.3494845 4.5566777,59.5886598 4.62574987,59.8278351 C4.67214162,59.985567 4.71544059,60.142268 4.76595605,60.3 C4.83915193,60.5247423 4.92265708,60.7505155 5.00616224,60.9752577 C5.06904884,61.1443299 5.13090451,61.3134021 5.19997667,61.4814433 C5.28760554,61.6958763 5.38348183,61.9092784 5.48038904,62.1237113 C5.56183234,62.3010309 5.64327564,62.4773196 5.73090451,62.6536082 C5.83296636,62.8587629 5.94018286,63.0628866 6.05152306,63.2670103 C6.15049213,63.4494845 6.25152306,63.6319588 6.35770863,63.8123711 C6.47317255,64.0103093 6.5937911,64.2072165 6.71750244,64.4030928 C6.83605915,64.5886598 6.9566777,64.7742268 7.08348183,64.9587629 C7.21131688,65.1484536 7.34224471,65.3360825 7.47935811,65.5247423 C7.61647152,65.7134021 7.75873956,65.9010309 7.90410038,66.0886598 C8.04636842,66.2701031 8.18863646,66.4515464 8.338121,66.6319588 C8.49482203,66.8226804 8.65873956,67.0103093 8.82368801,67.1989691 C8.97729626,67.3742268 9.13090451,67.5484536 9.29276018,67.7216495 C9.46904884,67.9123711 9.65564677,68.1010309 9.84224471,68.2896907 C10.0071932,68.456701 10.1711107,68.6247423 10.3432756,68.7907216 C10.5422447,68.9824742 10.752554,69.171134 10.9608014,69.3608247 C11.1360591,69.5195876 11.3071932,69.6783505 11.4886365,69.8350515 C11.7133787,70.028866 11.9494612,70.2195876 12.1834818,70.4103093 C12.3659561,70.5587629 12.5432756,70.7082474 12.7319354,70.8546392 C12.9876055,71.0536082 13.2556468,71.2484536 13.5216262,71.443299 C13.7041004,71.5783505 13.88142,71.7134021 14.0690488,71.8463918 C14.3742035,72.0608247 14.694822,72.271134 15.0144097,72.4814433 C15.1793581,72.5896907 15.3360591,72.7010309 15.5041004,72.8082474 C15.9989457,73.1237113 16.5082241,73.4329897 17.0339973,73.7371134 C18.0886365,74.3463918 19.1855437,74.9164948 20.3154406,75.4515464 C26.1205952,78.1989691 32.8494612,79.9680412 39.8401829,80.7556701 C39.8618323,80.7587629 39.8834818,80.7618557 39.9051313,80.7639175 C40.380389,80.8175258 40.8577086,80.8597938 41.3339973,80.9041237 C41.5587396,80.9247423 41.7824509,80.9505155 42.0071932,80.9701031 C43.8979148,81.1268041 45.8030695,81.2072165 47.7082241,81.2247423 C47.9267808,81.2257732 48.1463684,81.2329897 48.3638942,81.2329897 L48.3659561,81.2329897 C48.7906983,81.2329897 49.2144097,81.2226804 49.6391519,81.2154639 C49.9216262,81.2103093 50.2051313,81.2113402 50.4876055,81.2041237 C50.7339973,81.1969072 50.9793581,81.1824742 51.2257499,81.1731959 C53.0999767,81.1030928 54.9680179,80.971134 56.8175024,80.7649485 C56.8412138,80.7618557 56.8649251,80.7587629 56.8896674,80.7556701 C61.7432756,80.2072165 66.4649251,79.1865979 70.8309045,77.6917526 C70.8731725,77.6773196 70.9133787,77.6618557 70.9546158,77.6463918 C72.8020385,77.0092784 74.5865746,76.2886598 76.2886365,75.4814433 C77.4319354,74.9391753 78.5391519,74.3587629 79.6030695,73.7402062 C80.1360591,73.4309278 80.6515231,73.114433 81.1515231,72.7938144 C81.3175024,72.6865979 81.4700798,72.5762887 81.6329664,72.4690722 C81.9587396,72.2515464 82.2876055,72.0360825 82.5989457,71.814433 C82.7937911,71.6752577 82.9742035,71.5319588 83.1638942,71.3917526 C83.4267808,71.1958763 83.694822,71.0020619 83.9473994,70.8030928 C84.1453375,70.6463918 84.3288427,70.485567 84.5205952,70.3268041 C84.7463684,70.1391753 84.9783272,69.9536082 85.194822,69.7628866 C85.3886365,69.5927835 85.5690488,69.4175258 85.7556468,69.2443299 C85.9515231,69.0628866 86.1546158,68.8814433 86.3422447,68.6969072 C86.5298736,68.5134021 86.7020385,68.3257732 86.88142,68.1402062 C87.0515231,67.9628866 87.2278117,67.7865979 87.3906983,67.6072165 C87.5700798,67.4092784 87.7339973,67.2092784 87.9041004,67.0092784" id="Fill-5-Copy" fill="url(#linearGradient-2)"></path>
                                <path d="M48.0769335,5 C36.7470366,5 25.4295108,7.49793814 16.8305417,12.4948454 C-0.360179917,22.485567 -0.263272701,38.7463918 17.0418819,48.7371134 C25.697552,53.7350515 37.0429129,56.2340206 48.3738407,56.2340206 C59.7016758,56.2340206 71.0161087,53.7350515 79.6109541,48.7412371 C96.8099232,38.7463918 96.7181706,22.4886598 79.4078613,12.4948454 C70.7542531,7.49793814 59.4088922,5 48.0769335,5 M48.0779644,5 L48.0779644,6.03092784 C59.7326036,6.03092784 70.6748716,8.64329897 78.8923974,13.3876289 C86.9614696,18.0463918 91.4109541,24.1886598 91.4192015,30.6824742 C91.4284799,37.1278351 87.0511603,43.2247423 79.0934283,47.8494845 C70.9336345,52.5917526 60.0243562,55.2030928 48.3738407,55.2030928 C36.7202325,55.2030928 25.7759026,52.5896907 17.5573459,47.8443299 C9.48827369,43.1865979 5.03982008,37.043299 5.03054173,30.5474227 C5.02126338,24.1020619 9.39652111,18.0072165 17.3490984,13.385567 C25.5099232,8.64329897 36.4233252,6.03092784 48.0769335,6.03092784 L48.0779644,5" id="Fill-7" fill="url(#linearGradient-3)"></path>
                                <path d="M9.75051546,31.8752577 C9.75051546,34.5680412 7.56804124,36.7505155 4.87525773,36.7505155 C2.18247423,36.7505155 0,34.5680412 0,31.8752577 C0,29.1824742 2.18247423,27 4.87525773,27 C7.56804124,27 9.75051546,29.1824742 9.75051546,31.8752577" id="Fill-9" fill="url(#linearGradient-4)"></path>
                                <path d="M96.7505155,31.8752577 C96.7505155,34.5680412 94.5680412,36.7505155 91.8752577,36.7505155 C89.1824742,36.7505155 87,34.5680412 87,31.8752577 C87,29.1824742 89.1824742,27 91.8752577,27 C94.5680412,27 96.7505155,29.1824742 96.7505155,31.8752577" id="Fill-9-Copy" fill="url(#linearGradient-4)"></path>
                                <g id="Group-13" transform="translate(42.000000, 0.000000)" fill="url(#linearGradient-4)">
                                    <path d="M5.47011718,10.3853717 C2.77733367,10.3853717 0.594859445,8.20289751 0.594859445,5.510114 C0.594859445,2.81733049 2.77733367,0.634856268 5.47011718,0.634856268 C8.16290068,0.634856268 10.3453749,2.81733049 10.3453749,5.510114 C10.3453749,8.20289751 8.16290068,10.3853717 5.47011718,10.3853717 Z" id="Fill-11"></path>
                                    <path d="M5.47011718,60.3853717 C2.77733367,60.3853717 0.594859445,58.2028975 0.594859445,55.510114 C0.594859445,52.8173305 2.77733367,50.6348563 5.47011718,50.6348563 C8.16290068,50.6348563 10.3453749,52.8173305 10.3453749,55.510114 C10.3453749,58.2028975 8.16290068,60.3853717 5.47011718,60.3853717 Z" id="Fill-11-Copy"></path>
                                </g>
                            </g>
                        </g>
                    </g>
                </g>
            </g>
        </g>
    </g>
</svg>