<?xml version="1.0" encoding="UTF-8"?>
<svg width="50px" height="50px" viewBox="0 0 50 50" version="1.1" xmlns="http://www.w3.org/2000/svg" xmlns:xlink="http://www.w3.org/1999/xlink">
    <!-- Generator: Sketch 52.1 (67048) - http://www.bohemiancoding.com/sketch -->
    <title>btcspic</title>
    <desc>Created with Sketch.</desc>
    <g id="6.账户" stroke="none" stroke-width="1" fill="none" fill-rule="evenodd">
        <g id="light-账户-问题列表-已解决-查看-copy" transform="translate(-1646.000000, -478.000000)">
            <g id="客服" transform="translate(1119.000000, 479.000000)">
                <g id="用户-copy" transform="translate(521.000000, 0.000000)">
                    <g id="btcspic" transform="translate(7.000000, 0.000000)">
                        <path d="M47.9166667,23.9583333 C47.9166667,37.1895833 37.1916667,47.9166667 23.9583333,47.9166667 C10.725,47.9166667 0,37.1895833 0,23.9583333 C0,10.7291667 10.725,0 23.9583333,0 C37.1916667,0 47.9166667,10.7291667 47.9166667,23.9583333 Z" id="Stroke-7" stroke="#3C6BF0" stroke-width="1.5" fill="#3C6BF0" stroke-linecap="round" stroke-linejoin="round"></path>
                        <g id="shape" transform="translate(10.000000, 11.000000)" fill="#FFFFFF">
                            <polygon id="Fill-1" points="16.7672104 6.50541436 10.1999622 3.65654172 11.2725162 1.18221818 17.8397644 4.03109082"></polygon>
                            <path d="M1.78706655,2.79749156 C1.78706655,1.98766879 2.44345144,1.33103385 3.25296583,1.33103385 C4.06248022,1.33103385 4.71870324,1.98766879 4.71870324,2.79749156 C4.71870324,3.60731434 4.06248022,4.26394928 3.25296583,4.26394928 C2.44345144,4.26394928 1.78706655,3.60731434 1.78706655,2.79749156 Z M19.2415629,3.50626867 L17.4138831,7.7228204 L5.87963849,2.71944026 C5.83722842,1.30075253 4.68114928,0.162045521 3.25296583,0.162045521 C1.79791187,0.162045521 0.618361511,1.3418833 0.618361511,2.79749156 C0.618361511,4.25309983 1.79791187,5.43309954 3.25296583,5.43309954 C3.6905018,5.43309954 4.09695863,5.31618451 4.46003417,5.12737161 L18.8467608,11.3683993 L18.8482176,11.3648368 L18.8563112,11.3683993 L21.7858435,4.60999833 L19.2415629,3.50626867 Z" id="Fill-2"></path>
                            <polygon id="Fill-4" points="6.3444982 12.5427638 3.49671043 19.1125138 1.02332914 18.0395512 3.87111691 11.4699632"></polygon>
                            <path d="M2.63460432,27.5315292 C1.82508993,27.5315292 1.16870504,26.8748942 1.16870504,26.0650715 C1.16870504,25.2550867 1.82508993,24.5987757 2.63460432,24.5987757 C3.44411871,24.5987757 4.1005036,25.2550867 4.1005036,26.0650715 C4.1005036,26.8748942 3.44411871,27.5315292 2.63460432,27.5315292 Z M3.34311151,10.0703834 L7.55805755,11.8987596 L2.55642086,23.4373982 C1.13843525,23.4798244 0,24.6363439 0,26.0650715 C0,27.5208416 1.17955036,28.7006794 2.63460432,28.7006794 C4.08965827,28.7006794 5.26904676,27.5208416 5.26904676,26.0650715 C5.26904676,25.6273688 5.15233813,25.2207571 4.96359712,24.8575433 L11.2020863,10.465336 L11.1986871,10.4638786 L11.2020863,10.455782 L4.44642086,7.52513361 L3.34311151,10.0703834 Z" id="Fill-6"></path>
                            <polygon id="Fill-8" points="12.5889281 22.7474214 19.1561763 25.596456 18.0836223 28.0706176 11.5163741 25.2217449"></polygon>
                            <path d="M27.5744299,26.4554089 C27.5744299,27.2652317 26.9182068,27.9218667 26.1086924,27.9218667 C25.2990162,27.9218667 24.6427932,27.2652317 24.6427932,26.4554089 C24.6427932,25.6455862 25.2990162,24.9889512 26.1086924,24.9889512 C26.9182068,24.9889512 27.5744299,25.6455862 27.5744299,26.4554089 Z M10.1199335,25.7466318 L11.9477752,21.5300801 L23.4818579,26.5334603 C23.524268,27.952148 24.6803471,29.090855 26.1086924,29.090855 C27.5637464,29.090855 28.7431349,27.9108553 28.7431349,26.4554089 C28.7431349,24.9998007 27.5637464,23.819801 26.1086924,23.819801 C25.6709946,23.819801 25.2646996,23.9365541 24.9016241,24.125367 L10.5147356,17.8845012 L10.5132788,17.8880637 L10.5051853,17.8845012 L7.57565288,24.6429022 L10.1199335,25.7466318 Z" id="Fill-10"></path>
                            <polygon id="Fill-12" points="22.8228022 16.743268 25.6705899 10.173518 28.1439712 11.2464806 25.2961835 17.8160687"></polygon>
                            <path d="M26.5327932,1.75545806 C27.3423076,1.75545806 27.9986924,2.41193107 27.9986924,3.22191578 C27.9986924,4.03173855 27.3423076,4.68821156 26.5327932,4.68821156 C25.7232788,4.68821156 25.0668939,4.03173855 25.0668939,3.22191578 C25.0668939,2.41193107 25.7232788,1.75545806 26.5327932,1.75545806 Z M25.824286,19.2166038 L21.6093399,17.3882277 L26.6109766,5.84958908 C28.0289622,5.80716285 29.1673975,4.6506433 29.1673975,3.22191578 C29.1673975,1.76614558 27.9878471,0.586307803 26.5327932,0.586307803 C25.0777392,0.586307803 23.8981888,1.76614558 23.8981888,3.22191578 C23.8981888,3.65961843 24.0150594,4.0662301 24.2038004,4.42944396 L17.9653112,18.8214893 L17.9687104,18.8231086 L17.9653112,18.8312052 L24.7209766,21.7618536 L25.824286,19.2166038 Z" id="Fill-14"></path>
                        </g>
                    </g>
                </g>
            </g>
        </g>
    </g>
</svg>