<?xml version="1.0" encoding="utf-8"?>
<!-- Generator: Adobe Illustrator 21.0.0, SVG Export Plug-In . SVG Version: 6.00 Build 0)  -->
<svg version="1.1" id="图层_1" xmlns="http://www.w3.org/2000/svg" xmlns:xlink="http://www.w3.org/1999/xlink" x="0px" y="0px"
	 width="90px" height="90px" viewBox="0 0 90 90" style="enable-background:new 0 0 90 90;" xml:space="preserve">
<path style="fill-rule:evenodd;clip-rule:evenodd;fill:none;stroke:#549CF0;stroke-width:4;stroke-miterlimit:10;" d="M43,26.3
	l-1.2,11.1l3.6,4.9l3.6-4.9l-1.2-11.1"/>
<g>
	<path style="fill:#549CF0;" d="M35.9,25c0.2,0,0.4,0,0.7,0c3,3.4,6.1,4.1,8.3,4.1c3.8,0,6.8-2.3,8.3-3.9c0.8-0.1,2-0.2,3.7-0.2
		c2.9,0.6,3.4,1.9,3.5,2.4c-0.3,2.2-1.9,13.6-2.7,18.3c-0.4,2.1-1.8,2.7-2.3,2.8l-2.8,0.3l-0.4,3.1c-0.1,1-3.5,25.4-3.9,30.4l0,0.1
		l0,0.1c0,0.2,0,0.3,0,0.5H42l-0.1-0.5c-1.4-10.8-3.7-28.6-3.8-30.3L38,49l-3.3-0.5c-1.3-0.2-1.9-1.2-2.1-1.7
		c-0.3-2.6-1.8-16-2.1-19.9c0.3-0.6,1.9-1.4,3.3-1.9C34.2,25,35,25,35.9,25 M35.9,21c-1.6,0-2.9,0-2.9,0s-6.9,1.9-6.6,6.1
		c0.3,4.2,2.2,20.5,2.2,20.5s1.1,4.2,5.5,4.8c0.1,2.3,3.9,30.6,3.9,30.6s-0.3,3.6,2.8,3.9c3.4,0,8.8,0,8.8,0s0,0,0,0
		c0.2,0,2.6-0.1,2.7-4.4c0.3-5,3.9-30.1,3.9-30.1s4.6-0.8,5.5-6.1s2.8-18.8,2.8-18.8s0.3-5.2-7.2-6.6c-4.4,0.1-6.1,0.4-6.1,0.4
		s-2.7,3.7-6.3,3.7c-1.9,0-4.1-1-6.4-4.1C37.6,21,36.7,21,35.9,21L35.9,21z"/>
</g>
<g>
	<path style="fill:#549CF0;" d="M16.2,18.2c2.2,0,4,1.8,4,4s-1.8,4-4,4s-4-1.8-4-4S14,18.2,16.2,18.2 M16.2,14.2c-4.4,0-8,3.6-8,8
		c0,4.4,3.6,8,8,8c4.4,0,8-3.6,8-8C24.2,17.8,20.6,14.2,16.2,14.2L16.2,14.2z"/>
</g>
<g>
	<path style="fill:#549CF0;" d="M8.1,36.3c1.2,0,2.1,0.1,2.6,0.1c1.3,1.5,3.6,3.3,6.8,3.3c0.3,0,0.6,0,0.9,0
		c0.5,4.1,1.2,9.1,1.5,10.7l0.1,0.4l0.2,0.4c0.6,1.3,2,3.4,3.6,5.2l-0.4,0.1L23.2,59C23,61.3,20,83.6,20,83.8l-0.2,0.5
		c-0.7,0-1.5,0-2.2,0c-0.9,0-1.6,0-2.2,0c0-0.1,0-0.1,0-0.1c0-0.1,0-0.4,0-0.4c0,0,0,0,0,0l0-0.1l0-0.1c-0.3-4.6-3.2-24.4-3.3-25.2
		L11.8,56l-2.4-0.7c-0.4-0.2-1.6-0.8-1.7-1.6c-0.4-2.9-1.6-12.3-2-15.7C6,37.3,6.8,36.4,8.1,36.3 M8.1,32.3
		c-4.8,0.1-6.6,4.9-6.6,4.9s1.7,13.3,2.2,16.9C4.1,57.7,8.1,59,8.1,59s3,20.4,3.3,24.9c0.1,4.2,2.7,4.4,2.7,4.4s1.4,0,3.5,0
		c1.1,0,2.3,0,3.6,0c3.9-0.4,2.7-4,2.7-4s3-22.5,3.3-24.9c2.7-1.1,2.4-2.1,2.2-3.6c-0.9-0.1-4.2-3.4-5.5-6.2c-0.5-2.7-2.2-16-2.2-16
		c-1.5,1.6-3,2.1-4.2,2.1c-2.8,0-4.6-3-4.6-3S12.4,32.4,8.1,32.3L8.1,32.3z"/>
</g>
<g>
	<path style="fill:#549CF0;" d="M75.7,18.2c2.2,0,4,1.8,4,4s-1.8,4-4,4s-4-1.8-4-4S73.5,18.2,75.7,18.2 M75.7,14.2c-4.4,0-8,3.6-8,8
		c0,4.4,3.6,8,8,8c4.4,0,8-3.6,8-8C83.7,17.8,80.1,14.2,75.7,14.2L75.7,14.2z"/>
</g>
<g>
	<path style="fill:#549CF0;" d="M82.5,36.1c1.3,0.1,2.1,0.9,2.5,1.6c-0.4,3.4-1.7,12.8-2,15.7c-0.1,0.8-1.3,1.5-1.7,1.6L79,55.7
		l-0.4,2.5c-0.1,0.8-3,20.7-3.3,25.2l0,0.1l0,0.1c0,0.2,0,0.4,0,0.5c-0.6,0-1.3,0-2.2,0c-0.8,0-1.6,0-2.3,0l-0.1-0.5
		c0-0.2-3-22.5-3.3-24.8l-0.3-2.4l-0.4-0.1c1.6-1.8,3-3.8,3.6-5.2l0.2-0.4l0.1-0.4c0.3-1.6,1-6.5,1.5-10.6c0.3,0,0.5,0,0.8,0
		c3.2,0,5.6-2,6.9-3.5C80.5,36.2,81.3,36.1,82.5,36.1 M82.6,32.1c-4.4,0.1-4.9,0.4-4.9,0.4s-1.9,3.2-4.7,3.2c-1.2,0-2.6-0.6-4-2.3
		c0,0-1.6,13.3-2.2,16c-1.3,2.8-4.6,6.1-5.5,6.2c-0.2,1.4-0.5,2.4,2.2,3.6c0.3,2.4,3.3,24.9,3.3,24.9s-1.2,3.6,2.7,4
		c1.3,0,2.6,0,3.6,0c2.1,0,3.5,0,3.5,0s2.6-0.2,2.7-4.4c0.3-4.4,3.3-24.9,3.3-24.9s3.9-1.3,4.4-4.9c0.5-3.6,2.2-16.9,2.2-16.9
		S87.4,32.2,82.6,32.1L82.6,32.1z"/>
</g>
<g>
	<path style="fill:#549CF0;" d="M45.3,6.3c2.4,0,4.3,2,4.3,4.4S47.7,15,45.3,15s-4.3-2-4.3-4.4S42.9,6.3,45.3,6.3 M45.3,2.3
		C40.7,2.3,37,6,37,10.7s3.7,8.4,8.3,8.4s8.3-3.7,8.3-8.4S49.9,2.3,45.3,2.3L45.3,2.3z"/>
</g>
</svg>
