<?xml version="1.0" encoding="utf-8"?>
<!-- Generator: Adobe Illustrator 21.0.0, SVG Export Plug-In . SVG Version: 6.00 Build 0)  -->
<svg version="1.1" id="图层_1" xmlns="http://www.w3.org/2000/svg" xmlns:xlink="http://www.w3.org/1999/xlink" x="0px" y="0px"
	 width="90px" height="90px" viewBox="0 0 90 90" style="enable-background:new 0 0 90 90;" xml:space="preserve">
<g>
	
		<path style="fill-rule:evenodd;clip-rule:evenodd;fill:none;stroke:#549CF0;stroke-width:4;stroke-linecap:round;stroke-miterlimit:10;" d="
		M52.3,61.5c0,0-3,6.2,5,6c8,0.7,12.4,5.2,13.9,9"/>
	
		<path style="fill-rule:evenodd;clip-rule:evenodd;fill:none;stroke:#549CF0;stroke-width:4;stroke-linecap:round;stroke-miterlimit:10;" d="
		M68.2,46.6c0,0-4.2,7-15.9,7c-11.7,0-8,0-8,0"/>
	
		<path style="fill-rule:evenodd;clip-rule:evenodd;fill:none;stroke:#549CF0;stroke-width:4;stroke-linecap:round;stroke-miterlimit:10;" d="
		M17.4,77.5c0,0,3.7-11.5,17.9-10c1.7-4.2-13.7-19.4-4-34.9c9.7-15.5,26.4-5.2,27.9,2c-0.2,6.2,0,10,0,10"/>
	
		<path style="fill-rule:evenodd;clip-rule:evenodd;fill:none;stroke:#549CF0;stroke-width:4;stroke-linecap:round;stroke-miterlimit:10;" d="
		M15.4,51.6v-12c0,0,4.6,0.2,4-5c-0.8-6.4,7.7-24.2,25.9-21.9c18.2,2.2,24.6,15.2,24.9,23.9c2,2.5,5,0,5,3c0,3,0,12,0,12"/>
</g>
</svg>
