<?xml version="1.0" encoding="utf-8"?>
<!-- Generator: Adobe Illustrator 21.0.0, SVG Export Plug-In . SVG Version: 6.00 Build 0)  -->
<svg version="1.1" id="图层_1" xmlns="http://www.w3.org/2000/svg" xmlns:xlink="http://www.w3.org/1999/xlink" x="0px" y="0px"
	 width="90px" height="90px" viewBox="0 0 90 90" style="enable-background:new 0 0 90 90;" xml:space="preserve">
<g>
	<g>
		<path style="fill:#549CF0;" d="M46.3,63.8c-0.5,0.5-1.2,0.8-1.9,0.8c-0.6,0-1.1-0.2-1.6-0.5l0,0l-9-6.7l0,0
			c-0.2-0.2-0.5-0.3-0.8-0.3c-0.5,0-0.9,0.2-1.1,0.6l0,0l-0.9,1.4l0,0c-0.1,0.2-0.2,0.5-0.2,0.7c0,0.3,0.1,0.6,0.3,0.8v0l0,0
			c0.1,0.1,0.1,0.1,0.2,0.2l11.6,11.5c0.5,0.7,1.3,1.1,2.2,1.1c0.9,0,1.6-0.4,2.1-1l28.4-28.2c0.4-0.3,0.6-0.7,0.6-1.2
			c0-0.9-0.7-1.6-1.6-1.6c-0.5,0-0.9,0.2-1.2,0.6L46.3,63.8z M46.3,63.8"/>
		<path style="fill:#549CF0;" d="M84.4,67.7c0-1.5-1.2-2.7-2.7-2.7c-1.5,0-2.7,1.2-2.7,2.7c0,0.2,0,0.4,0.1,0.5h0v9.5
			c0,0.6-0.5,1.1-1.1,1.1H12.4c-0.6,0-1.1-0.5-1.1-1.1v-9.6H6v9.6c0,3.5,2.9,6.4,6.4,6.4h65.5c3.5,0,6.4-2.9,6.4-6.4l0.1-9.5h0
			C84.4,68.1,84.4,67.9,84.4,67.7L84.4,67.7z M11.3,52.7c0-0.6,0.5-1.1,1.1-1.1h27.8l0,0c1.4,0,2.6-1.2,2.6-2.6l0.4-2.6
			c0.1-0.8,0.1-1.8,0.1-2.6c0-4.8-2.3-10.6-6.2-12.6c-3.1-1.6-5.4-3.2-6.9-4.9c-1.8-2-2-3.5-2-4.5c0-3.4,2.6-5.8,4.2-6.9
			c1.5-1.1,3.4-2,5.4-2.6c2.2-0.7,4.5-1,7-1c2.4,0,4.8,0.3,7,1c2,0.6,3.9,1.5,5.4,2.6c1.6,1.1,4.2,3.6,4.2,6.9c0,1-0.2,2.5-2.2,4.5
			c-0.6,0.6-1.2,1.1-2,1.7c-1.1,0.3-2,1.4-2,2.6c0,1.5,1.2,2.7,2.7,2.7c0.4,0,0.8-0.1,1.2-0.3l0,0c4.4-3,7.5-6.6,7.5-11.3
			C66.7,13.1,57,6,44.9,6C32.8,6,23,13.1,23,21.8c0,6.1,5.1,10.6,11.8,14c2,1,3.2,4.8,3.4,7.5c0,0.1,0,0.2,0,0.4
			c0,1.5-1.2,2.7-2.7,2.7c0,0,0,0-0.1,0l0,0H12.4c-3.5,0-6.4,2.9-6.4,6.4v9.7h5.3V52.7z M11.3,52.7"/>
	</g>
</g>
</svg>
