<?xml version="1.0" encoding="utf-8"?>
<!-- Generator: Adobe Illustrator 21.0.0, SVG Export Plug-In . SVG Version: 6.00 Build 0)  -->
<svg version="1.1" id="图层_1" xmlns="http://www.w3.org/2000/svg" xmlns:xlink="http://www.w3.org/1999/xlink" x="0px" y="0px"
	 width="90px" height="90px" viewBox="0 0 90 90" style="enable-background:new 0 0 90 90;" xml:space="preserve">
<path style="fill-rule:evenodd;clip-rule:evenodd;fill:none;stroke:#549CF0;stroke-width:4;stroke-linecap:round;stroke-miterlimit:10;" d="
	M50.5,81.5v-13l15.8-16.1c0,0,2.7-2.4,5.7-0.8"/>
<path style="fill-rule:evenodd;clip-rule:evenodd;fill:none;stroke:#549CF0;stroke-width:4;stroke-linecap:round;stroke-miterlimit:10;" d="
	M68.7,81.5l0.8-4.5l12.8-13.6c0,0,2.3-1.5,2.3-5.3s0-24.1,0-24.1s-5.4-10.2-12,0c0,6.8,1,19.8,1,19.8l-9,9.8"/>
<path style="fill-rule:evenodd;clip-rule:evenodd;fill:none;stroke:#549CF0;stroke-width:4;stroke-linecap:round;stroke-miterlimit:10;" d="
	M39.2,30.2v-2.5c0-2.8,2-5,4.4-5c2.4,0,4.4,2.3,4.4,5v2.5"/>
<g>
	<path style="fill:#549CF0;" d="M47.5,34.2c1.1,0,2,0.9,2,2V38c0,1.1-0.9,2-2,2h-7.8c-1.1,0-2-0.9-2-2v-1.8c0-1.1,0.9-2,2-2H47.5
		 M47.5,30.2h-7.8c-3.3,0-6,2.7-6,6V38c0,3.3,2.7,6,6,6h7.8c3.3,0,6-2.7,6-6v-1.8C53.5,32.9,50.8,30.2,47.5,30.2L47.5,30.2z"/>
</g>
<g>
	<path style="fill:#549CF0;" d="M44,11.9c5.1,3.6,11.9,4.6,16.8,4.8v20.1c-0.1,0.5-0.2,1-0.3,1.4c-0.6,3.7-1.6,9.1-17,15.2
		c-16.6-5.7-16.5-15.8-16.5-16.3l0,0.1l0-0.3c0-0.2,0-13,0-20.2C35.8,16.7,41.1,14.1,44,11.9 M43.9,6.5c0,0-4,6.3-17.8,6.3
		c-1,0-2,0-3.1-0.1c-0.1,4.1,0,24.3,0,24.3s-0.9,14,20.6,20.7C65,49.7,63.7,41.4,64.8,37.3c0-5.3,0-24.6,0-24.6s-0.7,0.1-1.9,0.1
		C58.7,12.8,48.8,12.1,43.9,6.5L43.9,6.5z"/>
</g>
<path style="fill-rule:evenodd;clip-rule:evenodd;fill:none;stroke:#549CF0;stroke-width:4;stroke-linecap:round;stroke-miterlimit:10;" d="
	M37.5,82.2v-13L22.3,53.1c0,0-3.3-3.1-5.6-0.8"/>
<path style="fill-rule:evenodd;clip-rule:evenodd;fill:none;stroke:#549CF0;stroke-width:4;stroke-linecap:round;stroke-miterlimit:10;" d="
	M20.3,83.5l-0.8-4.6L6.8,65.1c0,0-2.3-1.5-2.3-5.4s0-24.6,0-24.6s5.4-10.4,12,0c0,6.9-1,20.2-1,20.2l9,10"/>
</svg>
