<?xml version="1.0" encoding="utf-8"?>
<!-- Generator: Adobe Illustrator 21.0.0, SVG Export Plug-In . SVG Version: 6.00 Build 0)  -->
<svg version="1.1" id="图层_1" xmlns="http://www.w3.org/2000/svg" xmlns:xlink="http://www.w3.org/1999/xlink" x="0px" y="0px"
	 width="90px" height="90px" viewBox="0 0 90 90" style="enable-background:new 0 0 90 90;" xml:space="preserve">
<path style="fill-rule:evenodd;clip-rule:evenodd;fill:none;stroke:#549CF0;stroke-width:4;stroke-miterlimit:10;" d="M27,18.2h46.4
	"/>
<path style="fill-rule:evenodd;clip-rule:evenodd;fill:none;stroke:#549CF0;stroke-width:4;stroke-miterlimit:10;" d="M29.9,39.6
	c-2.3-0.1-5.3,0.8-4.8-7.5c0.3-3.8,1.2-9.6,1.9-14c0.6-3.6,1-6.3,1-6.3s0.4-5.3,5.8-5.3c5.4,0,35.8,0,35.8,0s6.2-0.2,4.8,8.5
	c-1.4,8.8-2.9,20.3-2.9,20.3s0,4.3-5.8,4.3C57.7,39.6,31.4,39.6,29.9,39.6z"/>
<path style="fill-rule:evenodd;clip-rule:evenodd;fill:none;stroke:#549CF0;stroke-width:4;stroke-miterlimit:10;" d="M11.5,34.2
	h7.7"/>
<path style="fill-rule:evenodd;clip-rule:evenodd;fill:none;stroke:#549CF0;stroke-width:4;stroke-miterlimit:10;" d="M12.5,23.6
	h7.7"/>
<path style="fill-rule:evenodd;clip-rule:evenodd;fill:none;stroke:#549CF0;stroke-width:4;stroke-miterlimit:10;" d="M12.5,12.9
	h10.6"/>
<path style="fill-rule:evenodd;clip-rule:evenodd;fill:none;stroke:#549CF0;stroke-width:4;stroke-miterlimit:10;" d="M17.3,53.3
	h58.2"/>
<path style="fill-rule:evenodd;clip-rule:evenodd;fill:none;stroke:#549CF0;stroke-width:4;stroke-miterlimit:10;" d="M60.9,40.3
	c1.4,4.2,2.2,8.2,2.2,13.4c0,15.9-7.4,28.7-16.4,28.7c-9.1,0-16.4-12.9-16.4-28.7c0-5.4,0.8-9.4,2.3-13.7"/>
<path style="fill-rule:evenodd;clip-rule:evenodd;fill:none;stroke:#549CF0;stroke-width:4;stroke-miterlimit:10;" d="M44.5,83.5
	V39.9"/>
<path style="fill-rule:evenodd;clip-rule:evenodd;fill:none;stroke:#549CF0;stroke-width:4;stroke-miterlimit:10;" d="M71.8,36.3
	c0.8,1.2,1.6,2.5,2.2,3.8c1.9,4,3,8.5,3,13.2c0,16.8-13.6,30.5-30.3,30.5S16.4,70.2,16.4,53.4c0-4.7,1.1-9.2,3-13.2
	c1.3-2.8,3.1-5.4,5.2-7.6"/>
</svg>
