<?xml version="1.0" encoding="utf-8"?>
<!-- Generator: Adobe Illustrator 21.0.0, SVG Export Plug-In . SVG Version: 6.00 Build 0)  -->
<svg version="1.1" id="图层_1" xmlns="http://www.w3.org/2000/svg" xmlns:xlink="http://www.w3.org/1999/xlink" x="0px" y="0px"
	 width="90px" height="90px" viewBox="0 0 90 90" style="enable-background:new 0 0 90 90;" xml:space="preserve">
<path style="fill-rule:evenodd;clip-rule:evenodd;fill:none;stroke:#549CF0;stroke-width:4;stroke-linecap:round;stroke-miterlimit:10;" d="
	M39,21l5.2,4.9l7.8-8.2"/>
<g>
	<path style="fill:#549CF0;" d="M44.7,8.3c6,0,13.1,3.3,13.6,12.8c-0.7,9.9-6.7,11.6-7.5,11.8l-3.2,0.5v3.4v1.9l-2.4,3l-2.2,2.8
		l2.5,2.5l1,1l-1.5,2.2l-1.5,2.3l1.6,2.2l2.1,2.9l-3.3,3l-3.1-3.9V37.6v-3.4l-3.2-0.5c-0.5-0.2-7.5-3.2-6.7-13.9
		C31.6,11.9,38.6,8.3,44.7,8.3 M44.7,4.3c-8.4,0-16.9,5.2-18,15.1c-1,13.1,8,17.9,9.9,18.2c0,2.1,0,20.7,0,20.7l6.6,8.3l9.1-8.3
		l-4.1-5.8l3.3-5l-3.3-3.3l3.3-4.1v-3.3c0,0,9.9-1.8,10.8-15.7C61.9,9.7,53.3,4.3,44.7,4.3L44.7,4.3z"/>
</g>
<path style="fill-rule:evenodd;clip-rule:evenodd;fill:none;stroke:#549CF0;stroke-width:4;stroke-linecap:round;stroke-miterlimit:10;" d="
	M26.9,85h35.6"/>
<path style="fill-rule:evenodd;clip-rule:evenodd;fill:none;stroke:#549CF0;stroke-width:4;stroke-linecap:round;stroke-miterlimit:10;" d="
	M51.4,74.1l3.3,9.1"/>
<path style="fill-rule:evenodd;clip-rule:evenodd;fill:none;stroke:#549CF0;stroke-width:4;stroke-linecap:round;stroke-miterlimit:10;" d="
	M37.3,74.1L34.8,84"/>
<path style="fill-rule:evenodd;clip-rule:evenodd;fill:none;stroke:#549CF0;stroke-width:4;stroke-linecap:round;stroke-miterlimit:10;" d="
	M58,58.7h22.7"/>
<path style="fill-rule:evenodd;clip-rule:evenodd;fill:none;stroke:#549CF0;stroke-width:4;stroke-linecap:round;stroke-miterlimit:10;" d="
	M8.7,58.7H31"/>
<path style="fill-rule:evenodd;clip-rule:evenodd;fill:none;stroke:#549CF0;stroke-width:4;stroke-linecap:round;stroke-miterlimit:10;" d="
	M67.9,16.1c6,0,8.3,0,8.3,0c3.7,0,6.8,3,6.8,6.8v44c0,3.7-3,6.8-6.8,6.8H12.8c-3.7,0-6.8-3-6.8-6.8v-44c0-3.7,3-6.8,6.8-6.8
	c0,0,2.6,0,9,0"/>
</svg>
