<svg id="点对点图标" xmlns="http://www.w3.org/2000/svg" width="92" height="92" viewBox="0 0 92 92">
  <metadata><?xpacket begin="﻿" id="W5M0MpCehiHzreSzNTczkc9d"?>
<x:xmpmeta xmlns:x="adobe:ns:meta/" x:xmptk="Adobe XMP Core 5.6-c138 79.159824, 2016/09/14-01:09:01        ">
   <rdf:RDF xmlns:rdf="http://www.w3.org/1999/02/22-rdf-syntax-ns#">
      <rdf:Description rdf:about=""/>
   </rdf:RDF>
</x:xmpmeta>
                                                                                                    
                                                                                                    
                                                                                                    
                                                                                                    
                                                                                                    
                                                                                                    
                                                                                                    
                                                                                                    
                                                                                                    
                                                                                                    
                                                                                                    
                                                                                                    
                                                                                                    
                                                                                                    
                                                                                                    
                                                                                                    
                                                                                                    
                                                                                                    
                                                                                                    
                                                                                                    
                           
<?xpacket end="w"?></metadata>
<defs>
    <style>
      .cls-1, .cls-2 {
        fill: none;
        stroke-width: 4px;
        fill-rule: evenodd;
      }

      .cls-1 {
        stroke: #3b8ede;
      }

      .cls-2 {
        stroke: #2f3d45;
      }

      .cls-3 {
        fill: #2f3d45;
      }
    </style>
  </defs>
  <path id="形状_60" data-name="形状 60" class="cls-1" d="M14.807,52.371c-4.228-2.313-2.935-10.881,5.86-11.362,10.016,0.322,7.569,9.468,5.86,11.362,6.24,4.941,10.735,13.171,0,18.463v14.2s-6.928,4.468-13.185,0c0.122-4.971,0-14.2,0-14.2S0.408,62.394,14.807,52.371Z"/>
  <path id="形状_60_拷贝" data-name="形状 60 拷贝" class="cls-1" d="M64.8,52.371c-4.228-2.313-2.935-10.881,5.86-11.362,10.016,0.322,7.569,9.468,5.86,11.362,6.239,4.941,10.735,13.171,0,18.463v14.2s-6.928,4.468-13.185,0c0.122-4.971,0-14.2,0-14.2S50.4,62.394,64.8,52.371Z"/>
  <path id="形状_60_拷贝_2" data-name="形状 60 拷贝 2" class="cls-1" d="M39.815,16.354c-4.228-2.315-2.935-10.89,5.86-11.37,10.016,0.322,7.569,9.474,5.86,11.37,6.239,4.944,10.735,13.18,0,18.475V49.041s-6.928,4.471-13.185,0c0.122-4.974,0-14.212,0-14.212S25.416,26.383,39.815,16.354Z"/>
  <g id="箭头">
    <path id="形状_61" data-name="形状 61" class="cls-2" d="M79.627,20.443L67.659,31.572"/>
    <path id="形状_62" data-name="形状 62" class="cls-2" d="M68,17.345V31.78H82.591"/>
    <circle id="椭圆_656" data-name="椭圆 656" class="cls-3" cx="84" cy="16" r="2"/>
  </g>
  <g id="箭头_拷贝" data-name="箭头 拷贝">
    <path id="形状_61-2" data-name="形状 61" class="cls-2" d="M45.466,83.985V67.527"/>
    <path id="形状_62_拷贝" data-name="形状 62 拷贝" class="cls-2" d="M55.636,76.054L44.725,65.819,34.458,76.662"/>
    <circle id="椭圆_656-2" data-name="椭圆 656" class="cls-3" cx="45.484" cy="89" r="2.016"/>
  </g>
  <g id="箭头_拷贝_2" data-name="箭头 拷贝 2">
    <path id="形状_61-3" data-name="形状 61" class="cls-2" d="M10.005,19l12.01,10.994"/>
    <path id="形状_62-2" data-name="形状 62" class="cls-2" d="M23.012,17V32.005h-15"/>
    <circle id="椭圆_656-3" data-name="椭圆 656" class="cls-3" cx="7" cy="16" r="2"/>
  </g>
</svg>
