<svg id="币币交易图标" xmlns="http://www.w3.org/2000/svg" width="92" height="92" viewBox="0 0 92 92">
  <metadata><?xpacket begin="﻿" id="W5M0MpCehiHzreSzNTczkc9d"?>
<x:xmpmeta xmlns:x="adobe:ns:meta/" x:xmptk="Adobe XMP Core 5.6-c138 79.159824, 2016/09/14-01:09:01        ">
   <rdf:RDF xmlns:rdf="http://www.w3.org/1999/02/22-rdf-syntax-ns#">
      <rdf:Description rdf:about=""/>
   </rdf:RDF>
</x:xmpmeta>
                                                                                                    
                                                                                                    
                                                                                                    
                                                                                                    
                                                                                                    
                                                                                                    
                                                                                                    
                                                                                                    
                                                                                                    
                                                                                                    
                                                                                                    
                                                                                                    
                                                                                                    
                                                                                                    
                                                                                                    
                                                                                                    
                                                                                                    
                                                                                                    
                                                                                                    
                                                                                                    
                           
<?xpacket end="w"?></metadata>
<defs>
    <style>
      .cls-1, .cls-2, .cls-4 {
        fill: none;
      }

      .cls-1, .cls-4 {
        stroke: #3b8ede;
      }

      .cls-1, .cls-2 {
        stroke-linecap: round;
      }

      .cls-1 {
        stroke-width: 2px;
      }

      .cls-1, .cls-2, .cls-3 {
        fill-rule: evenodd;
      }

      .cls-2 {
        stroke: #2f3d45;
      }

      .cls-2, .cls-4 {
        stroke-width: 4px;
      }

      .cls-3 {
        fill: #3b8ede;
      }
    </style>
  </defs>
  <path id="形状_63" data-name="形状 63" class="cls-1" d="M47.5,37.691V39.8m0,19.294v2.657"/>
  <path id="形状_63_拷贝" data-name="形状 63 拷贝" class="cls-1" d="M51.481,37.691V39.8m0,19.294v2.657"/>
  <g id="箭头">
    <path id="形状_64" data-name="形状 64" class="cls-2" d="M36.857,18.38S47.024-4.131,56.241,9.223a123.15,123.15,0,0,1,6.841,13.735"/>
    <path id="形状_65" data-name="形状 65" class="cls-2" d="M49.4,20.67l14.823,4.578,4.561-14.88"/>
  </g>
  <g id="箭头_拷贝_4" data-name="箭头 拷贝 4">
    <path id="形状_64-2" data-name="形状 64" class="cls-2" d="M28.886,75.583S4.655,78.248,11.344,63.562a122.483,122.483,0,0,1,8.21-12.838"/>
    <path id="形状_65-2" data-name="形状 65" class="cls-2" d="M24.508,63.644L20.922,48.585,5.994,52.2"/>
  </g>
  <path id="B_" data-name="B " class="cls-3" d="M43.015,44.263q0-1.77-.47-2.123a3.454,3.454,0,0,0-2.234-.472H39.6v-1.18q0.234,0,1.176-.118,1.645-.116,2.587-0.118,3.527-.235,4.938-0.236,6.231-.116,8.23,2.123a4.019,4.019,0,0,1,1.176,2.713q0,2.831-3.762,3.539V48.51q4.585,1.062,4.821,5.073Q58.3,59.01,51.01,59.245H39.37v-1.18q3.88,0.119,3.645-2.477V44.263Zm4.458,9.587q-0.1,2.412,2.328,2.218,3.644,0,3.644-3.375C53.31,50.315,51.96,50.1,49.4,50.035a11.311,11.311,0,0,0-1.923.1V53.85Zm0-6.849h1.92c1.983,0,3.007.072,3.071-1.8q-0.1-3.219-3.743-3.221a7.134,7.134,0,0,0-1.248.1V47Z"/>
  <g id="箭头_拷贝_3" data-name="箭头 拷贝 3">
    <path id="形状_64-3" data-name="形状 64" class="cls-2" d="M81.162,54.1S95.51,74.447,79.241,75.66a123.358,123.358,0,0,1-15.391-1.05"/>
    <path id="形状_65-3" data-name="形状 65" class="cls-2" d="M72.8,63.86L61.285,74.436,71.868,86"/>
  </g>
  <circle id="椭圆_657" data-name="椭圆 657" class="cls-4" cx="49.391" cy="49.516" r="19.109"/>
</svg>
