<?xml version="1.0" encoding="UTF-8"?>
<svg width="371px" height="428px" viewBox="0 0 371 428" version="1.1" xmlns="http://www.w3.org/2000/svg" xmlns:xlink="http://www.w3.org/1999/xlink">
    <!-- Generator: Sketch 52.1 (67048) - http://www.bohemiancoding.com/sketch -->
    <title>dl_three_bg</title>
    <desc>Created with Sketch.</desc>
    <defs>
        <linearGradient x1="29.6487861%" y1="-10.1432349%" x2="63.3367556%" y2="89.3905964%" id="linearGradient-1">
            <stop stop-color="#3567BA" stop-opacity="0" offset="0%"></stop>
            <stop stop-color="#2D62FD" offset="100%"></stop>
        </linearGradient>
    </defs>
    <g id="改版-下载及教程" stroke="none" stroke-width="1" fill="none" fill-rule="evenodd">
        <g id="下载页" transform="translate(-313.000000, -2090.000000)">
            <g id="03" transform="translate(314.000000, 2056.000000)" opacity="0.5">
                <g id="分组" transform="translate(0.000000, 35.000000)">
                    <g id="dl_three_bg">
                        <polygon id="Stroke-8_2_" stroke="#66688F" points="369.5 213.1 369.5 71.1 246.5 0 123.5 71.1 123.5 213.1 246.5 284.2"></polygon>
                        <polygon id="Stroke-9_2_" stroke="#66688F" points="246.5 284.2 246.5 142.1 123.5 71.1 0.4 142.1 0.4 284.2 123.5 355.2"></polygon>
                        <polyline id="Stroke-10_2_" stroke="#66688F" points="246.5 0 246.5 142.1 369.5 213.1"></polyline>
                        <polyline id="Stroke-11_2_" stroke="#66688F" points="369.5 71.1 246.5 142.1 246.5 284.2"></polyline>
                        <polyline id="Stroke-12_2_" stroke="#66688F" points="123.5 355.2 123.5 213.1 0.4 142.1"></polyline>
                        <polyline id="Stroke-13_2_" stroke="#66688F" points="369.5 213.1 246.5 142.1 123.5 213.1 123.5 355.2"></polyline>
                        <polyline id="Stroke-14_2_" stroke="#66688F" points="246.5 284.2 123.5 213.1 0.4 284.2"></polyline>
                        <polygon id="Path_5_" fill="url(#linearGradient-1)" opacity="0.4" points="0 284.4 123.3 213 370 355.4 246.7 426.7"></polygon>
                    </g>
                </g>
            </g>
            <g id="页面"></g>
        </g>
    </g>
</svg>