<?xml version="1.0" encoding="UTF-8"?>
<svg width="481px" height="468px" viewBox="0 0 481 468" version="1.1" xmlns="http://www.w3.org/2000/svg" xmlns:xlink="http://www.w3.org/1999/xlink">
    <!-- Generator: Sketch 52.1 (67048) - http://www.bohemiancoding.com/sketch -->
    <title>dl_two</title>
    <desc>Created with Sketch.</desc>
    <defs>
        <linearGradient x1="144.489745%" y1="70.982537%" x2="10.9707617%" y2="34.8302774%" id="linearGradient-1">
            <stop stop-color="#D4E0F6" offset="0%"></stop>
            <stop stop-color="#6388F3" offset="100%"></stop>
        </linearGradient>
        <linearGradient x1="132.059434%" y1="49.9998882%" x2="5.31513083%" y2="49.9998882%" id="linearGradient-2">
            <stop stop-color="#F3F8FF" offset="0%"></stop>
            <stop stop-color="#81A1FE" offset="100%"></stop>
        </linearGradient>
        <linearGradient x1="184.605321%" y1="-58.396062%" x2="31.6381698%" y2="63.0058451%" id="linearGradient-3">
            <stop stop-color="#E5EFFF" offset="0%"></stop>
            <stop stop-color="#9FC4FF" offset="100%"></stop>
        </linearGradient>
        <linearGradient x1="86.8404434%" y1="-8.0900527%" x2="13.310662%" y2="108.150113%" id="linearGradient-4">
            <stop stop-color="#FFFFFF" offset="0%"></stop>
            <stop stop-color="#7AB7FF" offset="100%"></stop>
        </linearGradient>
        <linearGradient x1="110.240895%" y1="88.7897235%" x2="8.83941294%" y2="20.7022145%" id="linearGradient-5">
            <stop stop-color="#509AEF" offset="0%"></stop>
            <stop stop-color="#3C6AF0" offset="100%"></stop>
        </linearGradient>
        <linearGradient x1="184.664579%" y1="-58.4276518%" x2="31.654877%" y2="62.9878196%" id="linearGradient-6">
            <stop stop-color="#E5EFFF" offset="0%"></stop>
            <stop stop-color="#9FC4FF" offset="100%"></stop>
        </linearGradient>
        <linearGradient x1="86.8551121%" y1="-8.2746839%" x2="13.3096531%" y2="107.919995%" id="linearGradient-7">
            <stop stop-color="#FFFFFF" offset="0%"></stop>
            <stop stop-color="#7AB7FF" offset="100%"></stop>
        </linearGradient>
        <linearGradient x1="199.161474%" y1="114.804365%" x2="8.9829227%" y2="19.354765%" id="linearGradient-8">
            <stop stop-color="#509AEF" stop-opacity="0.4025" offset="0%"></stop>
            <stop stop-color="#3C6AF0" offset="100%"></stop>
        </linearGradient>
        <linearGradient x1="109.465801%" y1="89.9628255%" x2="8.06012136%" y2="21.7905586%" id="linearGradient-9">
            <stop stop-color="#509AEF" offset="0%"></stop>
            <stop stop-color="#3C6AF0" offset="100%"></stop>
        </linearGradient>
        <linearGradient x1="72.0222801%" y1="11.4511089%" x2="40.5821073%" y2="66.3520432%" id="linearGradient-10">
            <stop stop-color="#E5EFFF" offset="0%"></stop>
            <stop stop-color="#9FC4FF" offset="100%"></stop>
        </linearGradient>
        <linearGradient x1="71.8950004%" y1="11.738415%" x2="40.4604237%" y2="66.7425316%" id="linearGradient-11">
            <stop stop-color="#E5EFFF" offset="0%"></stop>
            <stop stop-color="#9FC4FF" offset="100%"></stop>
        </linearGradient>
    </defs>
    <g id="改版-下载及教程" stroke="none" stroke-width="1" fill="none" fill-rule="evenodd">
        <g id="下载页" transform="translate(-301.000000, -1407.000000)">
            <g id="02" transform="translate(301.000000, 1407.000000)">
                <g id="dl_two">
                    <g id="底部_1_" transform="translate(0.000000, 176.680000)">
                        <path d="M226.2,273.6 C227.2,274.2 228.2,274.7 229.4,275.1 C230.3,275.4 231.1,275.7 232.1,276 L232,289.3 C231.1,289 230.2,288.7 229.3,288.4 C228.2,288 227.1,287.5 226.1,286.9 L7.4,160.7 C3.1,158.2 0.9,155 0.9,151.7 L1,138.4 C1,141.7 3.1,144.9 7.5,147.4 L226.2,273.6 Z M234.2,289.8 C233.4,289.6 232.7,289.5 231.9,289.2 L232,275.9 C232.7,276.1 233.5,276.3 234.3,276.5 L234.3,281.8 L234.3,276.5 C235,276.6 235.7,276.8 236.5,276.9 C237.2,277 237.9,277.1 238.6,277.1 C239.3,277.2 240,277.2 240.7,277.2 C241.4,277.2 242.2,277.2 242.9,277.2 C243.7,277.2 244.5,277.1 245.3,277 L245.2,290.3 C244.4,290.4 243.6,290.4 242.8,290.5 C242.1,290.5 241.3,290.5 240.6,290.5 C239.9,290.5 239.2,290.4 238.5,290.4 C237.8,290.3 237.1,290.3 236.4,290.2 C235.7,290.1 235,290 234.2,289.8 Z M248.1,290 C247.2,290.2 246.3,290.3 245.3,290.4 L245.4,277.1 C246.3,277 247.3,276.9 248.2,276.7 C249.6,276.4 251,276.1 252.3,275.7 L252.2,289 C250.9,289.4 249.5,289.7 248.1,290 Z M257,286.9 C255.5,287.7 253.9,288.4 252.2,289 L252.3,275.7 C254,275.1 255.6,274.4 257.1,273.6 L474.4,147.4 L474.4,151.3 L474.4,147.4 C474.5,147.3 474.6,147.3 474.7,147.2 L474.7,152.5 L474.7,147.2 C475.8,146.6 476.7,145.9 477.5,145.1 L477.5,151.7 L477.5,145.1 C478,144.6 478.5,144.1 478.9,143.6 L478.8,156.9 C478.4,157.4 478,157.9 477.4,158.4 C476.6,159.1 475.7,159.8 474.6,160.4 C474.5,160.5 474.4,160.5 474.3,160.6 L257,286.9 Z M480.2,154.4 C480,154.8 479.8,155.2 479.6,155.6 L479.7,142.3 C479.9,141.9 480.1,141.5 480.3,141.1 L480.3,147.8 L480.3,141.1 C480.5,140.7 480.6,140.3 480.7,139.9 C480.8,139.5 480.8,139.1 480.8,138.6 L480.8,143.9 L480.8,138.6 C480.8,138.5 480.8,138.5 480.8,138.4 L480.7,151.7 C480.7,151.8 480.7,151.8 480.7,151.9 C480.7,152.3 480.6,152.7 480.6,153.1 C480.5,153.6 480.3,154 480.2,154.4 Z M479.6,155.7 C479.3,156.1 479.1,156.6 478.7,157 L478.8,143.7 C479.1,143.3 479.4,142.8 479.7,142.4 L479.6,155.7 Z" id="Combined-Shape_7_" fill="url(#linearGradient-1)" fill-rule="nonzero"></path>
                        <path d="M474.262555,129.875 C482.862555,134.775 482.862555,142.775 474.362555,147.775 L257.062555,273.975 C248.562555,278.875 234.762555,278.875 226.162555,273.975 L7.46255482,147.775 C-1.13744518,142.875 -1.13744518,134.875 7.36255482,129.875 L224.662555,3.675 C233.162555,-1.225 246.962555,-1.225 255.562555,3.675 L474.262555,129.875 Z" id="Fill-68_3_" fill="url(#linearGradient-2)"></path>
                    </g>
                    <g id="第一个" transform="translate(78.760000, 0.000000)">
                        <g id="Group_1_">
                            <polygon id="Fill-1_6_" fill="#81A3D9" points="24 174.7 19.9 172.3 12.4 159.6 16.5 162"></polygon>
                            <polygon id="Fill-4_4_" fill="url(#linearGradient-3)" points="168.2 2.9 168.4 74.2 31.3 153.5 24 174.7 16.5 162 4.3 169.1 4.1 97.8"></polygon>
                            <polygon id="Fill-6_2_" fill="#81A3D9" points="4.3 169.1 0.2 166.7 0 95.4 4.1 97.8"></polygon>
                            <polygon id="Fill-9_2_" fill="url(#linearGradient-4)" points="4.1 97.8 0 95.4 164.1 0.5 168.2 2.9"></polygon>
                        </g>
                        <g id="_x31__1_" transform="translate(29.028370, 46.293333)" fill="#002257">
                            <path d="M10.9,54.9 L5.3,67 C6.1,66.6 6.9,66.4 7.7,66.3 C8.4,66.3 9.1,66.4 9.7,66.7 C10.3,67 10.7,67.5 11,68.2 C11.3,68.9 11.5,69.7 11.5,70.7 C11.5,71.7 11.3,72.8 11,73.9 C10.6,75 10.2,76.1 9.6,77.1 C9,78.1 8.3,79.1 7.5,79.9 C6.7,80.8 5.8,81.5 4.9,82 C3.9,82.6 3,82.9 2.2,82.9 C1.4,82.9 0.6,82.8 -5.68434189e-14,82.4 L1,80.7 C1.5,81.1 2,81.2 2.7,81.3 C3.3,81.3 4.1,81.1 4.8,80.6 C5.5,80.2 6.2,79.6 6.9,78.9 C7.5,78.2 8.1,77.4 8.6,76.6 C9.1,75.8 9.5,74.9 9.7,74 C10,73.1 10.1,72.2 10.1,71.4 C10.1,70.6 10,69.9 9.7,69.3 C9.4,68.7 9,68.3 8.5,68 C8,67.7 7.4,67.6 6.8,67.7 C6.2,67.8 5.5,68 4.7,68.4 C4.3,68.6 4,68.9 3.7,69.2 C3.4,69.5 3,69.9 2.8,70.3 C3.8,68.2 4.7,66 5.7,63.9 C6.7,61.8 7.6,59.7 8.6,57.5 L0.8,62 L0.8,60.5 L10.9,54.9 Z" id="Fill-1_7_"></path>
                            <path d="M27.3,43.7 C28.4,43.1 29.4,42.6 30.4,42.4 C31.4,42.2 32.3,42.1 33.2,42.2 C33.1,42.5 33,42.7 32.8,43 C32.7,43.3 32.6,43.6 32.4,43.8 C31.7,43.7 30.8,43.8 30,44 C29.1,44.2 28.2,44.6 27.3,45.1 C25.9,45.9 24.6,47 23.4,48.3 C22.2,49.6 21.1,51.1 20.2,52.7 C19.3,54.3 18.6,56 18.1,57.7 C17.6,59.4 17.3,61.1 17.3,62.7 C17.3,64.3 17.6,65.6 18.1,66.7 C18.6,67.8 19.3,68.6 20.3,69.2 C21.2,69.7 22.3,69.9 23.5,69.8 C24.7,69.7 26,69.3 27.4,68.5 C28.4,67.9 29.3,67.3 30.1,66.5 C31,65.7 31.8,64.9 32.5,63.9 L33.2,64.7 C32.3,65.8 31.4,66.7 30.5,67.6 C29.5,68.5 28.5,69.2 27.4,69.9 C25.8,70.8 24.3,71.3 23,71.4 C21.6,71.5 20.4,71.3 19.4,70.7 C18.4,70.1 17.5,69.2 17,67.9 C16.4,66.7 16.1,65.1 16.1,63.3 C16.1,61.5 16.4,59.6 17,57.7 C17.6,55.8 18.4,53.9 19.4,52.1 C20.4,50.3 21.6,48.7 23,47.2 C24.2,45.8 25.7,44.6 27.3,43.7" id="Fill-3_1_"></path>
                            <path d="M48,52.3 C48.3,51.4 48.4,50.5 48.4,49.7 C48.4,48.9 48.2,48.2 48,47.6 C47.7,47 47.3,46.6 46.8,46.3 C46.3,46 45.7,45.9 45.1,46 C44.4,46.1 43.7,46.3 43,46.7 C42.2,47.1 41.6,47.7 40.9,48.4 C40.3,49.1 39.7,49.9 39.2,50.7 C38.7,51.5 38.3,52.4 38,53.3 C37.7,54.2 37.6,55.1 37.6,55.9 C37.6,56.8 37.7,57.5 38,58.1 C38.3,58.7 38.7,59.1 39.2,59.4 C39.7,59.7 40.3,59.8 40.9,59.7 C41.5,59.6 42.2,59.4 43,59 C43.7,58.6 44.4,58 45.1,57.3 C45.8,56.6 46.3,55.8 46.8,55 C47.4,54 47.7,53.2 48,52.3 M49.2,46.2 C49.6,46.9 49.7,47.8 49.7,48.9 C49.7,50 49.5,51 49.2,52.2 C48.9,53.3 48.4,54.4 47.8,55.4 C47.2,56.4 46.5,57.4 45.7,58.3 C44.9,59.2 44,59.9 43.1,60.4 C42.2,60.9 41.4,61.2 40.5,61.3 C39.7,61.4 39,61.3 38.4,60.9 C37.8,60.6 37.3,60.1 37,59.4 C36.6,58.7 36.5,57.8 36.4,56.8 C36.4,55 36.7,53.2 37.4,51.3 C38.1,49.4 38.9,47.5 39.9,45.5 C40.9,43.6 42.1,41.7 43.3,39.8 C44.6,37.9 45.8,36.1 47,34.4 C47.1,34.5 47.3,34.6 47.4,34.8 C47.5,34.9 47.7,35.1 47.8,35.2 C45.5,38.2 43.7,40.9 42.4,43.2 C41.1,45.5 40.2,47.4 39.6,48.9 C40,48.1 40.5,47.4 41.1,46.7 C41.7,46 42.3,45.5 43,45.1 C43.9,44.6 44.8,44.3 45.6,44.2 C46.4,44.1 47.1,44.3 47.8,44.6 C48.4,44.9 48.9,45.5 49.2,46.2" id="Fill-5_1_" fill-rule="nonzero"></path>
                            <path d="M58.9,38.3 L66.8,33.7 C66.2,32.4 65.6,31.1 64.9,29.8 C64.3,28.5 63.7,27.2 63,25.9 C63,25.8 62.9,25.6 62.9,25.5 C62.9,25.4 62.8,25.2 62.8,25.1 C62.3,27.3 61.6,29.5 61,31.7 C60.2,33.8 59.6,36.1 58.9,38.3 M67.8,32.2 C69.4,35.7 71.1,39.2 72.8,42.8 L71.5,43.6 C70.8,42.2 70.1,40.7 69.5,39.2 C68.8,37.7 68.1,36.3 67.5,34.9 L58.5,40.1 C57.8,42.3 57.2,44.6 56.5,46.8 C55.8,49 55.2,51.3 54.5,53.5 L53.1,54.3 C54.7,48.8 56.4,43.4 58,38 C59.6,32.6 61.3,27.2 62.9,21.7 C64.4,25.2 66.1,28.7 67.8,32.2" id="Fill-7_3_" fill-rule="nonzero"></path>
                            <polygon id="Fill-9_3_" points="90.6 6.9 90.6 8.4 78.5 15.2 78.6 25.8 89.4 19.6 89.4 21.1 78.6 27.2 78.6 39.4 77.3 40.2 77.2 14.5"></polygon>
                            <path d="M109.7,14.3 C110.1,12.8 110.3,11.2 110.3,9.6 C110.3,8.2 110.1,6.9 109.8,5.8 C109.5,4.7 109,3.8 108.4,3.2 C107.8,2.6 107,2.2 106.1,2.2 C105.2,2.1 104.2,2.4 103.1,3 C102,3.6 101,4.5 100.1,5.6 C99.2,6.7 98.4,7.9 97.8,9.2 C97.2,10.5 96.7,11.9 96.4,13.4 C96.1,14.9 95.9,16.3 95.9,17.7 C95.9,19.3 96.1,20.6 96.5,21.7 C96.9,22.8 97.4,23.6 98.1,24.1 C98.8,24.7 99.5,25 100.4,25 C101.3,25 102.2,24.8 103.1,24.3 C104,23.8 104.9,23 105.8,22 C106.7,21 107.4,19.8 108.1,18.5 C108.7,17.3 109.3,15.8 109.7,14.3 M111.1,4.8 C111.4,6 111.6,7.4 111.6,8.8 C111.6,10.5 111.4,12.3 110.9,14 C110.4,15.8 109.8,17.4 109,18.9 C108.2,20.4 107.3,21.8 106.2,23 C105.2,24.2 104.1,25.1 102.9,25.8 C101.7,26.5 100.7,26.7 99.6,26.7 C98.6,26.7 97.7,26.3 96.9,25.7 C96.1,25.1 95.5,24.1 95,22.9 C94.5,21.7 94.3,20.2 94.3,18.5 C94.3,17.1 94.5,15.5 94.8,13.9 C95.2,12.3 95.7,10.6 96.4,9.1 C97.1,7.5 98,6.1 99.1,4.8 C100.2,3.5 101.5,2.4 102.9,1.6 C104.3,0.8 105.6,0.4 106.7,0.6 C107.8,0.7 108.7,1.2 109.4,1.9 C110.2,2.6 110.8,3.6 111.1,4.8" id="Fill-11_1_" fill-rule="nonzero"></path>
                        </g>
                    </g>
                    <g id="第二个" transform="translate(56.680000, 126.720000)">
                        <g id="Group_2_" transform="translate(0.000000, 0.247830)">
                            <polygon id="Fill-1_8_" fill="#1E3578" points="24 174 19.9 171.6 12.4 159 16.5 161.3"></polygon>
                            <polygon id="Fill-4_5_" fill="url(#linearGradient-5)" points="168.2 2.9 168.4 73.9 31.3 152.8 24 174 16.5 161.3 4.3 168.4 4.1 97.4"></polygon>
                            <polygon id="Fill-6_3_" fill="#2B4BA2" points="4.3 168.4 0.2 166 0 95 4.1 97.4"></polygon>
                            <polygon id="Fill-9_4_" fill="#345BCF" points="4.1 97.4 0 95 164.1 0.5 168.2 2.9"></polygon>
                        </g>
                        <g id="_x32_" transform="translate(32.005639, 43.865872)" fill="#FFFFFF">
                            <polygon id="Fill-15" points="13.7 52.3 13.8 53.8 1.4 60.9 1.4 71.8 12.5 65.4 12.5 66.9 1.4 73.3 1.4 84.5 14.3 77.1 14.3 78.6 0.1 86.8 0 60.2"></polygon>
                            <polygon id="Fill-16_1_" points="33.6 40.8 33.7 42.3 21.3 49.4 21.3 60.3 32.4 54 32.4 55.5 21.3 61.9 21.3 73 34.2 65.6 34.2 67.1 20 75.3 19.9 48.7"></polygon>
                            <path d="M50.7,52.5 C51,51.6 51.1,50.7 51.1,49.8 C51.1,48.9 50.9,48.2 50.6,47.6 C50.3,47 49.9,46.6 49.4,46.3 C48.9,46 48.3,45.9 47.6,46 C46.9,46.1 46.2,46.3 45.5,46.7 C44.7,47.1 44,47.7 43.3,48.4 C42.6,49.1 42.1,49.9 41.6,50.8 C41.1,51.7 40.7,52.6 40.4,53.5 C40.1,54.4 40,55.3 40,56.2 C40,57.1 40.1,57.8 40.4,58.4 C40.7,59 41.1,59.4 41.6,59.7 C42.1,60 42.7,60.1 43.4,60 C44.1,59.9 44.8,59.7 45.6,59.3 C46.3,58.9 47.1,58.3 47.7,57.6 C48.4,56.9 49,56.1 49.5,55.2 C50,54.3 50.4,53.4 50.7,52.5 M52,46.2 C52.4,47 52.6,47.9 52.6,49 C52.6,50.1 52.4,51.2 52.1,52.4 C51.7,53.6 51.3,54.7 50.6,55.7 C50,56.8 49.2,57.8 48.4,58.7 C47.6,59.6 46.7,60.3 45.7,60.9 C44.8,61.4 43.9,61.7 43,61.8 C42.2,61.9 41.4,61.8 40.8,61.4 C40.2,61.1 39.7,60.5 39.3,59.8 C38.9,59.1 38.7,58.2 38.7,57.1 C38.7,55.3 39,53.4 39.7,51.4 C40.4,49.4 41.3,47.4 42.3,45.4 C43.4,43.4 44.5,41.4 45.8,39.5 C47.1,37.6 48.4,35.7 49.6,34 C49.7,34.1 49.9,34.3 50,34.4 C50.2,34.5 50.3,34.7 50.5,34.8 C48.1,37.9 46.3,40.7 44.9,43.1 C43.6,45.5 42.6,47.4 42,48.9 C42.4,48.1 42.9,47.3 43.5,46.7 C44.1,46 44.8,45.5 45.5,45 C46.4,44.5 47.3,44.2 48.2,44.1 C49.1,44 49.8,44.2 50.4,44.5 C51.1,44.9 51.6,45.4 52,46.2" id="Fill-17_1_" fill-rule="nonzero"></path>
                            <path d="M68,42.5 C68.3,41.6 68.4,40.7 68.4,39.8 C68.4,38.9 68.2,38.2 67.9,37.6 C67.6,37 67.2,36.6 66.7,36.3 C66.2,36 65.6,35.9 64.9,36 C64.2,36.1 63.5,36.3 62.8,36.7 C62,37.1 61.3,37.7 60.6,38.4 C59.9,39.1 59.4,39.9 58.9,40.8 C58.4,41.7 58,42.6 57.7,43.5 C57.4,44.4 57.3,45.3 57.3,46.2 C57.3,47.1 57.4,47.8 57.7,48.4 C58,49 58.4,49.4 58.9,49.7 C59.4,50 60,50.1 60.7,50 C61.4,49.9 62.1,49.7 62.9,49.3 C63.6,48.9 64.4,48.3 65,47.6 C65.7,46.9 66.3,46.1 66.8,45.2 C67.3,44.4 67.7,43.5 68,42.5 M69.2,36.3 C69.6,37.1 69.8,38 69.8,39.1 C69.8,40.2 69.6,41.3 69.3,42.5 C68.9,43.7 68.5,44.8 67.8,45.8 C67.2,46.9 66.4,47.9 65.6,48.8 C64.8,49.7 63.9,50.4 62.9,51 C62,51.5 61.1,51.8 60.2,51.9 C59.4,52 58.6,51.9 58,51.5 C57.4,51.2 56.9,50.6 56.5,49.9 C56.1,49.2 55.9,48.3 55.9,47.2 C55.9,45.4 56.2,43.5 56.9,41.5 C57.6,39.5 58.5,37.5 59.5,35.5 C60.6,33.5 61.7,31.5 63,29.6 C64.3,27.7 65.6,25.8 66.8,24.1 C66.9,24.2 67.1,24.4 67.2,24.5 C67.4,24.6 67.5,24.8 67.7,24.9 C65.3,28 63.5,30.8 62.1,33.2 C60.8,35.6 59.8,37.5 59.2,39 C59.6,38.2 60.1,37.4 60.7,36.8 C61.3,36.1 62,35.6 62.7,35.1 C63.6,34.6 64.5,34.3 65.4,34.2 C66.3,34.1 67,34.3 67.6,34.6 C68.3,35 68.8,35.5 69.2,36.3" id="Fill-19_2_" fill-rule="nonzero"></path>
                            <path d="M85.2,32.6 C85.5,31.7 85.6,30.8 85.6,29.9 C85.6,29 85.4,28.3 85.1,27.7 C84.8,27.1 84.4,26.7 83.9,26.4 C83.4,26.1 82.8,26 82.1,26.1 C81.4,26.2 80.7,26.4 79.9,26.8 C79.1,27.2 78.4,27.8 77.7,28.5 C77,29.2 76.5,30 76,30.9 C75.5,31.8 75.1,32.7 74.8,33.6 C74.5,34.5 74.4,35.4 74.4,36.3 C74.4,37.2 74.5,37.9 74.8,38.5 C75.1,39.1 75.5,39.5 76,39.8 C76.5,40.1 77.1,40.2 77.8,40.1 C78.5,40 79.2,39.8 80,39.4 C80.7,39 81.5,38.4 82.2,37.7 C82.9,37 83.5,36.2 84,35.3 C84.5,34.4 84.9,33.5 85.2,32.6 M86.4,26.3 C86.8,27.1 87,28 87,29.1 C87,30.2 86.8,31.3 86.5,32.5 C86.1,33.7 85.6,34.8 85,35.8 C84.4,36.9 83.6,37.9 82.8,38.8 C81.9,39.7 81,40.4 80.1,41 C79.2,41.5 78.3,41.8 77.4,41.9 C76.6,42 75.8,41.9 75.2,41.5 C74.6,41.2 74.1,40.6 73.7,39.9 C73.3,39.2 73.1,38.3 73.1,37.2 C73.1,35.4 73.4,33.5 74.1,31.5 C74.8,29.5 75.6,27.5 76.7,25.5 C77.7,23.5 78.9,21.5 80.2,19.6 C81.5,17.7 82.8,15.8 84,14.1 C84.1,14.2 84.3,14.4 84.4,14.5 C84.6,14.6 84.7,14.8 84.9,14.9 C82.5,18 80.7,20.8 79.4,23.2 C78.1,25.6 77.1,27.5 76.5,29.1 C76.9,28.3 77.4,27.5 78,26.9 C78.6,26.2 79.3,25.7 80,25.2 C80.9,24.7 81.8,24.4 82.7,24.3 C83.5,24.2 84.3,24.4 84.9,24.7 C85.6,25 86.1,25.6 86.4,26.3" id="Fill-21_1_" fill-rule="nonzero"></path>
                            <path d="M96.9,18 L105.1,13.3 C104.5,11.9 103.8,10.6 103.2,9.2 C102.6,7.9 101.9,6.5 101.3,5.2 C101.3,5 101.2,4.9 101.2,4.8 C101.1,4.7 101.1,4.5 101,4.4 C100.4,6.7 99.8,8.9 99.1,11.2 C98.3,13.4 97.6,15.7 96.9,18 M106.1,11.7 C107.8,15.3 109.5,19 111.3,22.7 L109.9,23.5 C109.2,22 108.5,20.5 107.8,19 C107.1,17.5 106.4,16 105.7,14.5 L96.4,19.9 C95.7,22.2 95,24.5 94.3,26.8 C93.6,29.1 92.9,31.4 92.2,33.7 L90.8,34.5 C92.5,28.8 94.2,23.2 95.9,17.6 C97.6,12 99.3,6.4 101,0.7 C102.6,4.4 104.3,8.1 106.1,11.7" id="Fill-23_1_" fill-rule="nonzero"></path>
                        </g>
                    </g>
                    <g id="第三个" transform="translate(134.440000, 173.800000)">
                        <g id="Group_3_">
                            <polygon id="Fill-1_9_" fill="#81A3D9" points="23.8 177.9 19.7 175.5 12.4 162.9 16.4 165.3"></polygon>
                            <polygon id="Fill-4_6_" fill="url(#linearGradient-6)" points="203.1 2.6 203.3 58.4 31.1 156.8 23.8 177.9 16.4 165.3 4.3 172.3 4.1 116.6"></polygon>
                            <polygon id="Fill-6_4_" fill="#81A3D9" points="4.3 172.3 0.2 170 0 114.2 4.1 116.6"></polygon>
                            <polygon id="Fill-9_5_" fill="url(#linearGradient-7)" points="4.1 116.6 0 114.2 199.1 0.2 203.1 2.6"></polygon>
                        </g>
                        <g id="_x33_" transform="translate(46.624582, 44.384000)" fill="#002257">
                            <path d="M11.1,57.2 L11.1,58.8 L2.7,63.6 L2.7,72.2 C3.1,71.8 3.5,71.4 3.9,71.1 C4.3,70.8 4.7,70.5 5.1,70.2 C6.1,69.6 7,69.3 7.9,69.2 C8.8,69.1 9.5,69.3 10.2,69.6 C10.9,70 11.4,70.5 11.8,71.3 C12.2,72.1 12.4,73 12.4,74.1 C12.4,75.2 12.2,76.4 11.8,77.6 C11.4,78.8 10.9,80 10.2,81.1 C9.5,82.2 8.8,83.3 7.9,84.2 C7,85.1 6.1,85.9 5.1,86.4 C4.1,87 3.2,87.3 2.4,87.3 C1.6,87.4 0.8,87.2 0.1,86.9 C0.3,86.6 0.5,86.3 0.6,86 C0.8,85.7 1,85.4 1.1,85.1 C1.6,85.4 2.2,85.5 2.8,85.4 C3.5,85.3 4.2,85.1 4.9,84.7 C5.7,84.2 6.5,83.6 7.2,82.9 C7.9,82.1 8.5,81.3 9.1,80.4 C9.6,79.5 10.1,78.5 10.4,77.6 C10.7,76.6 10.9,75.7 10.9,74.8 C10.9,73.9 10.7,73.1 10.4,72.5 C10.1,71.9 9.7,71.4 9.2,71.1 C8.7,70.8 8.1,70.7 7.4,70.7 C6.7,70.8 5.9,71 5.1,71.5 C4.3,72 3.6,72.5 2.9,73.2 C2.2,73.9 1.7,74.6 1.3,75.4 L1.4,62.4 L11.1,57.2 Z" id="Fill-25_1_"></path>
                            <polygon id="Fill-28_1_" points="21.2 52 21.1 77.7 19.7 78.6 19.8 54.5 16.5 56.3 16.5 54.7"></polygon>
                            <path d="M41.9,56.7 C42.4,55 42.6,53.3 42.6,51.8 C42.6,49.9 42.3,48.4 41.8,47.2 C41.2,46 40.5,45.1 39.5,44.6 C38.5,44.1 37.4,43.9 36.1,44.1 C34.8,44.3 33.4,44.8 32,45.6 L28.3,47.7 L28.2,72.2 L31.2,70.5 C33.1,69.4 34.8,68.1 36.2,66.6 C37.6,65.1 38.8,63.5 39.8,61.8 C40.7,60.2 41.4,58.5 41.9,56.7 M43.1,45.8 C43.7,47.1 44,48.9 44,51 C44,52.6 43.7,54.3 43.3,56.2 C42.8,58.1 42,60 41,62 C39.9,63.9 38.6,65.8 36.9,67.6 C35.2,69.4 33.1,71 30.7,72.4 L26.8,74.6 L26.9,46.9 L32,44 C33.6,43.1 35.2,42.5 36.7,42.3 C38.2,42.1 39.4,42.3 40.5,42.9 C41.6,43.5 42.4,44.5 43.1,45.8" id="Fill-30" fill-rule="nonzero"></path>
                            <path d="M64.2,44.8 C64.7,43.1 64.9,41.4 64.9,39.7 C64.9,38.1 64.7,36.8 64.4,35.6 C64.1,34.4 63.6,33.4 62.9,32.8 C62.2,32.1 61.4,31.7 60.5,31.6 C59.5,31.5 58.5,31.8 57.3,32.5 C56.1,33.2 55,34.1 54,35.3 C53,36.5 52.2,37.7 51.5,39.2 C50.8,40.6 50.3,42.2 49.9,43.8 C49.5,45.4 49.3,47 49.3,48.5 C49.3,50.2 49.5,51.7 49.9,52.9 C50.3,54.1 50.9,55 51.6,55.6 C52.3,56.2 53.1,56.5 54,56.6 C54.9,56.7 55.9,56.4 56.9,55.8 C57.9,55.2 58.9,54.4 59.8,53.3 C60.7,52.2 61.6,51 62.3,49.5 C63.1,48 63.7,46.5 64.2,44.8 M65.8,34.5 C66.2,35.9 66.3,37.3 66.3,38.9 C66.3,40.8 66,42.7 65.5,44.6 C65,46.5 64.3,48.3 63.4,49.9 C62.5,51.6 61.5,53 60.4,54.3 C59.3,55.6 58.1,56.6 56.9,57.3 C55.7,58 54.5,58.3 53.4,58.3 C52.3,58.3 51.3,57.9 50.5,57.2 C49.7,56.5 49,55.5 48.5,54.2 C48,52.9 47.8,51.3 47.8,49.4 C47.8,47.8 48,46.2 48.4,44.4 C48.8,42.6 49.4,40.9 50.2,39.2 C51,37.5 52,35.9 53.1,34.5 C54.3,33.1 55.6,31.9 57.2,31 C58.7,30.1 60.1,29.8 61.2,29.9 C62.3,30 63.3,30.5 64,31.4 C64.9,32 65.4,33.1 65.8,34.5" id="Fill-32" fill-rule="nonzero"></path>
                            <path d="M85.1,31.6 C85.6,29.9 85.8,28.2 85.8,26.7 C85.8,24.8 85.5,23.3 85,22.1 C84.4,20.9 83.7,20 82.7,19.5 C81.7,19 80.6,18.8 79.3,19 C78,19.2 76.6,19.7 75.2,20.5 L71.5,22.6 L71.4,47.1 L74.4,45.4 C76.3,44.3 78,43 79.4,41.5 C80.8,40 82,38.4 83,36.7 C83.9,35 84.6,33.3 85.1,31.6 M86.3,20.6 C86.9,21.9 87.2,23.7 87.2,25.8 C87.2,27.4 87,29.1 86.5,31 C86,32.9 85.2,34.8 84.2,36.8 C83.1,38.7 81.8,40.6 80.1,42.4 C78.4,44.2 76.3,45.8 73.9,47.2 L70,49.4 L70.1,21.7 L75.2,18.8 C76.9,17.9 78.4,17.3 79.9,17.1 C81.4,16.9 82.6,17.1 83.7,17.7 C84.8,18.3 85.7,19.3 86.3,20.6" id="Fill-34_1_" fill-rule="nonzero"></path>
                            <path d="M104.6,2.2 C105.8,1.5 106.9,1.1 107.9,0.8 C108.9,0.5 109.9,0.5 110.9,0.6 C110.8,0.9 110.6,1.2 110.5,1.5 C110.4,1.8 110.2,2.1 110.1,2.4 C109.3,2.3 108.4,2.4 107.5,2.6 C106.6,2.8 105.6,3.2 104.6,3.8 C103.1,4.7 101.7,5.8 100.4,7.2 C99.1,8.6 97.9,10.2 96.9,11.9 C95.9,13.6 95.1,15.4 94.6,17.2 C94,19.1 93.7,20.9 93.7,22.6 C93.7,24.3 94,25.8 94.5,27 C95,28.2 95.8,29.1 96.8,29.7 C97.8,30.3 98.9,30.5 100.2,30.4 C101.5,30.3 102.9,29.9 104.4,29 C105.4,28.4 106.4,27.7 107.3,26.9 C108.2,26.1 109.1,25.1 109.9,24.1 L110.7,25 C109.8,26.1 108.8,27.2 107.7,28.1 C106.7,29.1 105.5,29.9 104.4,30.5 C102.7,31.5 101.1,32 99.6,32.1 C98.1,32.2 96.8,31.9 95.7,31.3 C94.6,30.7 93.7,29.7 93.1,28.3 C92.5,27 92.2,25.3 92.2,23.3 C92.2,21.4 92.5,19.3 93.2,17.2 C93.8,15.1 94.7,13.1 95.9,11.2 C97,9.3 98.3,7.5 99.8,5.9 C101.3,4.4 102.9,3.1 104.6,2.2" id="Fill-36"></path>
                        </g>
                    </g>
                    <g id="Group-5" transform="translate(270.760000, 278.400000)">
                        <g id="Group-345" transform="translate(0.522224, 0.651965)">
                            <path d="M29.9,73.9 L29.9,70.5 C32.5,71.5 35.2,72.4 37.9,73.2 L37.9,75.7 L37.9,73.2 C40.1,73.8 42.4,74.4 44.8,74.9 L44.8,83.3 C42.5,82.8 40.2,82.3 37.9,81.6 C35.1,80.8 32.5,79.9 29.9,78.9 C26.6,77.6 23.4,76.1 20.4,74.3 C7.4,66.8 0.9,56.9 0.9,47.1 L0.9,38.7 C0.9,48.5 7.4,58.4 20.4,65.9 C23.4,67.6 26.6,69.1 29.9,70.5 L29.9,73.9 Z M51.3,84.4 C49.1,84.1 46.9,83.7 44.8,83.3 L44.8,74.9 C47,75.3 49.1,75.7 51.3,76 C53.4,76.3 55.6,76.5 57.7,76.7 L57.7,80.9 L57.7,76.7 C59.9,76.9 62,77 64.2,77 L64.2,78.7 L64.2,77 C66.5,77.1 68.7,77 71,77 L71,85.4 C68.8,85.5 66.5,85.5 64.2,85.4 C62,85.3 59.9,85.2 57.7,85.1 C55.5,85 53.4,84.7 51.3,84.4 Z M78.3,80.8 L78.3,85 C75.9,85.2 73.4,85.4 71,85.5 L71,77.1 C73.5,77 75.9,76.9 78.3,76.6 L78.3,80.8 L78.3,76.6 C81.1,76.3 83.9,75.9 86.7,75.4 L86.7,83.8 C83.9,84.3 81.1,84.7 78.3,85 L78.3,80.8 Z M114.5,67.1 L114.5,73.8 C114.2,74 114,74.1 113.7,74.3 C109.3,76.9 104.4,79 99.2,80.7 L99.2,72.3 C104.4,70.6 109.3,68.5 113.7,65.9 C114,65.7 114.2,65.6 114.5,65.4 L114.5,67.1 L114.5,65.4 C117.7,63.5 120.5,61.4 122.9,59.2 L122.9,67.6 C120.5,69.8 117.8,71.9 114.5,73.8 L114.5,67.1 Z M126.9,63.3 C125.7,64.8 124.4,66.3 122.8,67.7 L122.8,59.3 C124.3,57.9 125.7,56.4 126.9,54.9 C127.9,53.6 128.8,52.3 129.6,51 C130.3,49.8 130.9,48.5 131.4,47.2 C131.9,46 132.2,44.7 132.5,43.5 L132.5,45.2 L132.5,43.5 C132.8,42.2 132.9,41 132.9,39.7 C132.9,39.5 132.9,39.3 132.9,39.1 L132.9,47.5 C132.9,47.7 132.9,47.9 132.9,48.1 C132.9,49.4 132.7,50.6 132.5,51.9 C132.2,53.1 131.9,54.4 131.4,55.6 C130.9,56.9 130.3,58.1 129.6,59.4 C128.8,60.7 127.9,62 126.9,63.3 Z M99.2,80.7 C95.2,82 91,83 86.7,83.8 L86.7,75.4 C91,74.6 95.2,73.6 99.2,72.3 L99.2,80.7 Z" id="Combined-Shape_8_" fill="url(#linearGradient-8)" fill-rule="nonzero"></path>
                            <path d="M113.4,11.9 C139.2,26.8 139.4,51 113.7,65.9 C88,80.8 46.3,80.8 20.4,65.9 C-5.4,51 -5.6,26.8 20.1,11.9 C45.8,-3 87.5,-3 113.4,11.9" id="Fill-343" fill="url(#linearGradient-9)"></path>
                        </g>
                        <g id="Group-2" transform="translate(11.551006, 6.660940)">
                            <path d="M79.7,48.1 C80.4,48.5 81.5,48.5 82.2,48.1 C82.9,47.7 82.9,47 82.2,46.6 C81.5,46.2 80.4,46.2 79.7,46.6 C79,47 79,47.7 79.7,48.1 Z M86.3,49.4 C86.7,50 85.6,50.7 84.5,50.4 L81.1,49.7 L77.3,48.9 L73.7,48.1 L55.6,44.2 L50.1,43 C47.6,42.4 45.4,41.6 43.7,40.6 C37,36.7 36.3,30.1 43.6,25.8 C50.9,21.5 62.4,21.9 69.1,25.8 C70.8,26.8 72.3,28.1 73.2,29.5 L75.3,32.7 L82.2,43.2 L83.5,45.3 L84.9,47.5 L86.3,49.4 Z" id="Fill-1_10_" fill="#FFFFFF" fill-rule="nonzero"></path>
                            <polygon id="Fill-67" fill="#3C6BF0" points="79.9 50.3 77.3 48.8 81.1 49.7"></polygon>
                            <g id="Group-133" transform="translate(11.656908, 6.726509)">
                                <path d="M70.6,39.9 C71.3,40.3 71.3,41 70.6,41.4 C69.9,41.8 68.8,41.8 68.1,41.4 C67.4,41 67.4,40.3 68.1,39.9 C68.8,39.5 69.9,39.5 70.6,39.9" id="Fill-93_1_" fill="#3C6BF0"></path>
                                <path d="M62,41.3 C60.3,42 58.6,42.5 56.8,42.9 L58.6,46.8 L50,48.1 L48.2,44.3 C45.7,44.5 43.2,44.5 40.7,44.3 L38.9,48.1 L30.3,46.8 L32,43 C29.7,42.4 27.5,41.7 25.4,40.8 L20.6,43.6 L14.3,40 L19,37.3 C17.4,36.1 16.1,34.8 15.1,33.5 L8.7,34.5 L6.4,29.5 L12.8,28.5 C12.5,27 12.5,25.5 12.7,24.1 L6.3,23.1 L8.6,18.1 L14.9,19.1 C15.9,17.7 17.2,16.4 18.7,15.2 L14.1,12.5 L20.4,8.9 L25,11.6 C27.1,10.7 29.3,9.9 31.7,9.4 L30,5.7 L38.6,4.4 L40.3,8.1 C42.8,7.9 45.4,7.9 48,8.1 L49.7,4.4 L58.3,5.7 L56.6,9.4 C58.9,10 61.1,10.7 63.2,11.6 L67.9,8.9 L74.2,12.5 L69.4,15.3 C70.9,16.5 72.2,17.8 73.2,19.1 L79.8,18.1 L82.1,23.1 L75.5,24.1 C75.8,25.5 75.8,27 75.5,28.5 L82.1,29.5 L79.8,34.5 L73.1,33.5 C72.3,34.5 71.4,35.6 70.3,36.5 L63.4,26 L61.3,22.8 C60.3,21.3 58.9,20.1 57.2,19.1 C50.5,15.2 39,14.8 31.7,19.1 C24.4,23.4 25,30 31.8,33.9 C33.5,34.9 35.7,35.7 38.2,36.3 L43.7,37.5 L62,41.3 Z" id="Fill-95" fill="#3C6BF0"></path>
                                <path d="M72.8,43.7 C73.9,43.9 75,43.3 74.6,42.7 L73.3,40.7 L74.5,40 L71.9,38.5 L70.6,36.4 C71.7,35.4 72.7,34.4 73.4,33.4 L80.1,34.4 L82.4,29.4 L75.8,28.4 C76.1,27 76.1,25.5 75.8,24 L82.4,23 L80.1,18 L73.5,19 C72.5,17.7 71.3,16.4 69.7,15.2 L74.5,12.4 L68.2,8.8 L63.5,11.5 C61.4,10.6 59.2,9.8 56.9,9.3 L58.6,5.6 L50,4.3 L48.3,8 C45.8,7.8 43.2,7.8 40.6,8 L38.9,4.3 L30.3,5.6 L32,9.3 C29.7,9.9 27.4,10.6 25.3,11.5 L20.7,8.8 L14.4,12.4 L19,15.1 C17.4,16.3 16.2,17.6 15.2,19 L8.9,18 L6.6,23 L13,24 C12.7,25.5 12.7,27 13.1,28.4 L6.7,29.4 L9,34.4 L15.4,33.4 C16.4,34.7 17.7,36 19.3,37.2 L14.6,39.9 L20.9,43.5 L25.7,40.7 C27.8,41.6 30,42.3 32.3,42.9 L30.6,46.7 L39.2,48 L41,44.2 C43.5,44.4 46,44.4 48.5,44.2 L50.3,48 L58.9,46.7 L57.1,42.8 C58.9,42.4 60.6,41.8 62.3,41.2 L65.9,42 L68.5,43.5 L69.7,42.8 L72.8,43.7 M79.7,41.3 C78.4,42.3 77,43.3 75.4,44.2 C74.6,44.7 73.8,45.1 73,45.5 C72.6,45.7 72.2,45.9 71.7,46.1 C69.1,47.3 66.3,48.3 63.4,49.1 C62.9,49.2 62.4,49.4 61.9,49.5 C58.9,50.3 55.7,50.8 52.5,51.2 C52,51.3 51.4,51.3 50.9,51.4 C47.7,51.7 44.4,51.8 41.1,51.6 C40.6,51.6 40,51.5 39.5,51.5 C36.3,51.3 33,50.9 29.9,50.2 C29.4,50.1 28.9,50 28.4,49.9 C25.4,49.2 22.5,48.3 19.7,47.2 C19.3,47 18.8,46.8 18.4,46.7 C16.7,46 15,45.1 13.4,44.2 C12.6,43.7 11.9,43.3 11.2,42.8 C10.8,42.6 10.5,42.3 10.2,42.1 C8.1,40.6 6.4,39 4.9,37.3 C4.7,37 4.4,36.7 4.2,36.4 C2.9,34.6 1.9,32.8 1.3,31 C1.2,30.7 1.1,30.4 1,30.1 C0.5,28.2 0.4,26.3 0.6,24.4 C0.6,24.1 0.7,23.8 0.7,23.5 C1.1,21.6 1.8,19.8 2.8,18 C3,17.7 3.2,17.4 3.4,17.1 C4.6,15.4 6.1,13.7 8,12.1 C8.3,11.8 8.6,11.6 8.9,11.3 C10.2,10.3 11.6,9.3 13.2,8.4 C14,7.9 14.8,7.5 15.6,7.1 C16,6.9 16.4,6.7 16.9,6.5 C19.5,5.3 22.3,4.3 25.2,3.5 C25.7,3.4 26.2,3.2 26.7,3.1 C29.7,2.3 32.9,1.8 36.1,1.4 C36.6,1.3 37.2,1.3 37.7,1.2 C40.9,0.9 44.2,0.8 47.5,1 C48,1 48.6,1.1 49.1,1.1 C52.3,1.3 55.6,1.7 58.7,2.4 C59.2,2.5 59.7,2.6 60.2,2.7 C63.2,3.4 66.1,4.3 68.9,5.4 C69.4,5.6 69.8,5.8 70.2,6 C71.9,6.7 73.6,7.6 75.2,8.5 C76,9 76.7,9.4 77.4,9.9 C77.8,10.1 78.1,10.4 78.4,10.6 C80.5,12.1 82.2,13.7 83.7,15.4 C83.9,15.7 84.2,16 84.4,16.3 C85.7,18.1 86.7,19.9 87.3,21.7 C87.4,22 87.5,22.3 87.6,22.6 C88.1,24.5 88.2,26.4 88,28.3 C88,28.6 87.9,28.9 87.9,29.2 C87.5,31.1 86.8,32.9 85.8,34.7 C85.6,35 85.4,35.3 85.2,35.6 C84,37.3 82.5,39 80.6,40.6 C80.4,40.8 80.1,41 79.7,41.3" id="Fill-105_1_" fill="url(#linearGradient-10)" fill-rule="nonzero"></path>
                                <polygon id="Fill-123" fill="#3C6BF0" points="71.9 38.5 74.5 40 73.3 40.7"></polygon>
                            </g>
                            <path d="M106.7,36.2 L99.6,35.8 C99.2,37.7 98.5,39.5 97.5,41.3 L104.2,42.7 L103.6,43.6 L96.9,42.2 C95.7,43.9 94.2,45.6 92.3,47.2 L98.1,49.6 L97.2,50.4 L91.4,48 C90.1,49 88.7,50 87.1,50.9 C86.3,51.4 85.5,51.8 84.7,52.2 L89.2,55.4 L87.9,56 L83.4,52.8 C80.8,54 78,55 75.1,55.8 L78.1,59.5 L76.6,59.9 L73.6,56.2 C70.6,57 67.4,57.5 64.2,57.9 L65.4,62 L63.8,62.2 L62.6,58.1 C59.4,58.4 56.1,58.5 52.8,58.3 L52.2,62.4 L50.6,62.3 L51.2,58.2 C48,58 44.7,57.6 41.6,56.9 L39.2,60.8 L37.7,60.5 L40.1,56.6 C37.1,55.9 34.2,55 31.4,53.9 L27.3,57.3 L26,56.8 L30.1,53.4 C28.4,52.7 26.7,51.8 25.1,50.9 C24.3,50.4 23.6,50 22.9,49.5 L17.4,52.1 L16.4,51.4 L21.9,48.8 C19.8,47.3 18.1,45.7 16.6,44 L10.2,45.7 L9.5,44.8 L15.9,43.1 C14.6,41.3 13.6,39.5 13,37.7 L6,38.4 L5.7,37.5 L12.7,36.8 C12.2,34.9 12.1,33 12.3,31.1 L5.2,30.7 L5.3,29.8 L12.4,30.2 C12.8,28.3 13.5,26.5 14.5,24.7 L7.8,23.3 L8.4,22.4 L15.1,23.8 C16.3,22.1 17.8,20.4 19.7,18.8 L13.9,16.4 L14.8,15.6 L20.6,18 C21.9,17 23.3,16 24.9,15.1 C25.7,14.6 26.5,14.2 27.3,13.8 L22.8,10.6 L24.1,10 L28.6,13.2 C31.2,12 34,11 36.9,10.2 L33.9,6.5 L35.4,6.1 L38.4,9.8 C41.4,9 44.6,8.5 47.8,8.1 L46.6,4 L48.2,3.8 L49.4,7.9 C52.6,7.6 55.9,7.5 59.2,7.7 L59.8,3.6 L61.4,3.7 L60.8,7.8 C64,8 67.3,8.4 70.4,9.1 L72.8,5.2 L74.3,5.5 L71.9,9.4 C74.9,10.1 77.8,11 80.6,12.1 L84.7,8.7 L86,9.2 L81.9,12.6 C83.6,13.3 85.3,14.2 86.9,15.1 C87.7,15.6 88.4,16 89.1,16.5 L94.6,13.9 L95.6,14.6 L90.1,17.2 C92.2,18.7 93.9,20.3 95.4,22 L101.8,20.3 L102.5,21.2 L96.1,22.9 C97.4,24.7 98.4,26.5 99,28.3 L106,27.6 L106.3,28.5 L99.3,29.2 C99.8,31.1 99.9,33 99.7,34.9 L106.8,35.3 L106.7,36.2 M97.7,11.3 C97,10.9 96.3,10.4 95.6,10 C94.9,9.6 94.2,9.2 93.5,8.9 C86.8,5.4 78.9,3 70.7,1.7 C69.3,1.5 68,1.3 66.6,1.1 C58.5,0.2 50.1,0.3 42,1.5 C39.7,1.8 37.4,2.3 35.2,2.8 C28.3,4.4 21.8,6.8 16.2,10 C11.3,12.9 7.5,16.1 4.8,19.6 C4,20.7 3.3,21.7 2.7,22.8 C2.3,23.4 2,24.1 1.8,24.7 C1.2,26.1 0.7,27.4 0.5,28.8 C0.4,29.3 0.3,29.8 0.2,30.4 C0.2,30.7 0.1,30.9 0.1,31.2 C0.1,31.8 -1.70530257e-13,32.3 -1.70530257e-13,32.9 C-1.70530257e-13,33.8 0.1,34.6 0.2,35.5 C0.3,36.1 0.4,36.6 0.5,37.2 C0.6,37.7 0.7,38.2 0.9,38.7 C2.9,45 8.1,51.1 16.5,55.9 C20.9,58.4 25.8,60.5 31,62 C32.6,62.5 34.2,62.9 35.9,63.2 C38.3,63.7 40.8,64.2 43.3,64.5 C43.9,64.6 44.4,64.6 45,64.7 C47.6,65 50.3,65.2 53,65.3 C53.8,65.3 54.6,65.3 55.3,65.4 C63.7,65.5 72.1,64.5 79.8,62.4 C82,61.8 84.2,61.1 86.3,60.3 C89.7,59 92.9,57.6 95.9,55.8 C100.4,53.2 104,50.2 106.7,47 C107.8,45.7 108.7,44.4 109.4,43 C115.4,32.4 111.5,20.2 97.7,11.3" id="_x32__1_" fill="url(#linearGradient-11)" fill-rule="nonzero"></path>
                        </g>
                    </g>
                </g>
            </g>
            <g id="页面"></g>
        </g>
    </g>
</svg>