<?xml version="1.0" encoding="UTF-8"?>
<svg width="371px" height="429px" viewBox="0 0 371 429" version="1.1" xmlns="http://www.w3.org/2000/svg" xmlns:xlink="http://www.w3.org/1999/xlink">
    <!-- Generator: Sketch 52.1 (67048) - http://www.bohemiancoding.com/sketch -->
    <title>dl_two_bg</title>
    <desc>Created with Sketch.</desc>
    <defs>
        <linearGradient x1="29.639213%" y1="-10.0782039%" x2="63.3271825%" y2="89.4656754%" id="linearGradient-1">
            <stop stop-color="#3567BA" stop-opacity="0" offset="0%"></stop>
            <stop stop-color="#2D62FD" offset="100%"></stop>
        </linearGradient>
    </defs>
    <g id="改版-下载及教程" stroke="none" stroke-width="1" fill="none" fill-rule="evenodd">
        <g id="下载页" transform="translate(-1248.000000, -1426.000000)">
            <g id="02" transform="translate(301.000000, 1407.000000)" opacity="0.5">
                <g id="分组" transform="translate(649.000000, 20.000000)">
                    <g id="dl_two_bg" transform="translate(484.000000, 214.000000) scale(-1, 1) rotate(-180.000000) translate(-484.000000, -214.000000) translate(299.000000, 0.000000)">
                        <polygon id="Stroke-8_1_" stroke="#66688F" points="369.5 285.6 369.5 143.6 246.5 72.5 123.5 143.6 123.5 285.6 246.5 356.7"></polygon>
                        <polygon id="Stroke-9_1_" stroke="#66688F" points="246.5 356.7 246.5 214.6 123.5 143.6 0.4 214.6 0.4 356.7 123.5 427.7"></polygon>
                        <polyline id="Stroke-10_1_" stroke="#66688F" points="246.5 72.5 246.5 214.6 369.5 285.6"></polyline>
                        <polyline id="Stroke-11_1_" stroke="#66688F" points="369.5 143.6 246.5 214.6 246.5 356.7"></polyline>
                        <polyline id="Stroke-12_1_" stroke="#66688F" points="123.5 427.7 123.5 285.6 0.4 214.6"></polyline>
                        <polyline id="Stroke-13_1_" stroke="#66688F" points="369.5 285.6 246.5 214.6 123.5 285.6 123.5 427.7"></polyline>
                        <polyline id="Stroke-14_1_" stroke="#66688F" points="246.5 356.7 123.5 285.6 0.4 356.7"></polyline>
                        <polygon id="Path_4_" fill="url(#linearGradient-1)" opacity="0.4" points="0 71.9 123.3 0.5 370 142.9 246.7 214.2"></polygon>
                    </g>
                </g>
            </g>
            <g id="页面"></g>
        </g>
    </g>
</svg>