<?xml version="1.0" encoding="UTF-8"?>
<svg width="481px" height="505px" viewBox="0 0 481 505" version="1.1" xmlns="http://www.w3.org/2000/svg" xmlns:xlink="http://www.w3.org/1999/xlink">
    <!-- Generator: Sketch 52.1 (67048) - http://www.bohemiancoding.com/sketch -->
    <title>dl_three</title>
    <desc>Created with Sketch.</desc>
    <defs>
        <linearGradient x1="200.050051%" y1="113.004635%" x2="9.86106961%" y2="17.4786459%" id="linearGradient-1">
            <stop stop-color="#509AEF" stop-opacity="0.4025" offset="0%"></stop>
            <stop stop-color="#3C6AF0" offset="100%"></stop>
        </linearGradient>
        <linearGradient x1="132.062936%" y1="49.9964212%" x2="5.31279429%" y2="49.9964212%" id="linearGradient-2">
            <stop stop-color="#81A1FE" offset="0%"></stop>
            <stop stop-color="#81A1FE" offset="100%"></stop>
        </linearGradient>
        <linearGradient x1="76.2306638%" y1="64.4974741%" x2="96.7593413%" y2="97.4876315%" id="linearGradient-3">
            <stop stop-color="#509AEF" offset="0%"></stop>
            <stop stop-color="#3165F9" offset="100%"></stop>
        </linearGradient>
        <linearGradient x1="162.982124%" y1="145.182561%" x2="20.8861996%" y2="25.4776233%" id="linearGradient-4">
            <stop stop-color="#509AEF" stop-opacity="0.4025" offset="0%"></stop>
            <stop stop-color="#3266FF" offset="100%"></stop>
        </linearGradient>
        <linearGradient x1="152.453076%" y1="123.379486%" x2="49.819662%" y2="22.4002842%" id="linearGradient-5">
            <stop stop-color="#E2ECFF" offset="0%"></stop>
            <stop stop-color="#4E9DFB" offset="100%"></stop>
        </linearGradient>
        <linearGradient x1="102.40077%" y1="97.4156635%" x2="22.6608184%" y2="25.4542701%" id="linearGradient-6">
            <stop stop-color="#E5EFFF" offset="0%"></stop>
            <stop stop-color="#9FC4FF" offset="100%"></stop>
        </linearGradient>
        <linearGradient x1="-18.2656185%" y1="-5.24712259%" x2="98.0327368%" y2="68.3679494%" id="linearGradient-7">
            <stop stop-color="#E2ECFF" offset="0%"></stop>
            <stop stop-color="#4E9DFB" offset="100%"></stop>
        </linearGradient>
        <linearGradient x1="71.8566578%" y1="11.6141494%" x2="40.4212018%" y2="66.6058927%" id="linearGradient-8">
            <stop stop-color="#E5EFFF" offset="0%"></stop>
            <stop stop-color="#9FC4FF" offset="100%"></stop>
        </linearGradient>
        <linearGradient x1="18.7140632%" y1="78.0414822%" x2="80.1417307%" y2="22.9736694%" id="linearGradient-9">
            <stop stop-color="#509AEF" offset="0%"></stop>
            <stop stop-color="#3C6AF0" offset="100%"></stop>
        </linearGradient>
        <linearGradient x1="160.548722%" y1="128.204843%" x2="15.8997982%" y2="26.037838%" id="linearGradient-10">
            <stop stop-color="#3CD0FF" stop-opacity="0.6209" offset="0%"></stop>
            <stop stop-color="#3665ED" offset="100%"></stop>
        </linearGradient>
        <linearGradient x1="102.130977%" y1="81.9069015%" x2="33.6285539%" y2="39.8943535%" id="linearGradient-11">
            <stop stop-color="#6FA4F9" offset="0%"></stop>
            <stop stop-color="#3C6BF0" offset="100%"></stop>
        </linearGradient>
        <linearGradient x1="45.5183495%" y1="-26.5297049%" x2="55.7937212%" y2="139.485236%" id="linearGradient-12">
            <stop stop-color="#FFFFFF" offset="0%"></stop>
            <stop stop-color="#7AB7FF" offset="100%"></stop>
        </linearGradient>
        <linearGradient x1="45.1562413%" y1="-26.1907618%" x2="55.438782%" y2="139.780963%" id="linearGradient-13">
            <stop stop-color="#FFFFFF" offset="0%"></stop>
            <stop stop-color="#7AB7FF" offset="100%"></stop>
        </linearGradient>
        <linearGradient x1="45.4739858%" y1="-27.1231863%" x2="55.7626513%" y2="140.303657%" id="linearGradient-14">
            <stop stop-color="#FFFFFF" offset="0%"></stop>
            <stop stop-color="#7AB7FF" offset="100%"></stop>
        </linearGradient>
        <linearGradient x1="45.2463274%" y1="-27.1879442%" x2="55.5361002%" y2="140.209081%" id="linearGradient-15">
            <stop stop-color="#FFFFFF" offset="0%"></stop>
            <stop stop-color="#7AB7FF" offset="100%"></stop>
        </linearGradient>
        <linearGradient x1="45.4161448%" y1="-26.2496681%" x2="55.702579%" y2="140.930865%" id="linearGradient-16">
            <stop stop-color="#FFFFFF" offset="0%"></stop>
            <stop stop-color="#7AB7FF" offset="100%"></stop>
        </linearGradient>
        <linearGradient x1="45.2675309%" y1="-25.3580911%" x2="55.6069221%" y2="140.588706%" id="linearGradient-17">
            <stop stop-color="#FFFFFF" offset="0%"></stop>
            <stop stop-color="#7AB7FF" offset="100%"></stop>
        </linearGradient>
        <linearGradient x1="45.4173829%" y1="-26.2797337%" x2="55.7038171%" y2="140.9008%" id="linearGradient-18">
            <stop stop-color="#FFFFFF" offset="0%"></stop>
            <stop stop-color="#7AB7FF" offset="100%"></stop>
        </linearGradient>
        <linearGradient x1="45.0788306%" y1="-26.3831602%" x2="55.3714509%" y2="139.681312%" id="linearGradient-19">
            <stop stop-color="#FFFFFF" offset="0%"></stop>
            <stop stop-color="#7AB7FF" offset="100%"></stop>
        </linearGradient>
        <linearGradient x1="45.0406405%" y1="-26.7822156%" x2="55.3643151%" y2="139.036918%" id="linearGradient-20">
            <stop stop-color="#FFFFFF" offset="0%"></stop>
            <stop stop-color="#7AB7FF" offset="100%"></stop>
        </linearGradient>
        <linearGradient x1="47.0971216%" y1="-17.2432748%" x2="52.8247707%" y2="122.725318%" id="linearGradient-21">
            <stop stop-color="#FFFFFF" offset="0%"></stop>
            <stop stop-color="#7AB7FF" offset="100%"></stop>
        </linearGradient>
        <linearGradient x1="45.2773336%" y1="-26.4985574%" x2="55.5666154%" y2="139.516383%" id="linearGradient-22">
            <stop stop-color="#FFFFFF" offset="0%"></stop>
            <stop stop-color="#7AB7FF" offset="100%"></stop>
        </linearGradient>
        <linearGradient x1="45.3113105%" y1="-26.1922044%" x2="55.6077219%" y2="139.769546%" id="linearGradient-23">
            <stop stop-color="#FFFFFF" offset="0%"></stop>
            <stop stop-color="#7AB7FF" offset="100%"></stop>
        </linearGradient>
        <linearGradient x1="45.4474584%" y1="-26.184991%" x2="55.7328062%" y2="139.826288%" id="linearGradient-24">
            <stop stop-color="#FFFFFF" offset="0%"></stop>
            <stop stop-color="#7AB7FF" offset="100%"></stop>
        </linearGradient>
        <linearGradient x1="41.4743272%" y1="-21.731498%" x2="55.4914279%" y2="99.0856045%" id="linearGradient-25">
            <stop stop-color="#FFFFFF" offset="0%"></stop>
            <stop stop-color="#7AB7FF" offset="100%"></stop>
        </linearGradient>
        <linearGradient x1="45.0768084%" y1="-25.8231877%" x2="55.3626666%" y2="140.188091%" id="linearGradient-26">
            <stop stop-color="#FFFFFF" offset="0%"></stop>
            <stop stop-color="#7AB7FF" offset="100%"></stop>
        </linearGradient>
        <linearGradient x1="45.1273628%" y1="-26.2633115%" x2="55.4132211%" y2="139.751629%" id="linearGradient-27">
            <stop stop-color="#FFFFFF" offset="0%"></stop>
            <stop stop-color="#7AB7FF" offset="100%"></stop>
        </linearGradient>
        <linearGradient x1="45.0828678%" y1="-26.4888317%" x2="55.368726%" y2="139.373091%" id="linearGradient-28">
            <stop stop-color="#FFFFFF" offset="0%"></stop>
            <stop stop-color="#7AB7FF" offset="100%"></stop>
        </linearGradient>
        <linearGradient x1="45.1047094%" y1="-25.5020959%" x2="55.3905676%" y2="140.38197%" id="linearGradient-29">
            <stop stop-color="#FFFFFF" offset="0%"></stop>
            <stop stop-color="#7AB7FF" offset="100%"></stop>
        </linearGradient>
        <linearGradient x1="45.0755608%" y1="-27.066314%" x2="55.3614191%" y2="140.320651%" id="linearGradient-30">
            <stop stop-color="#FFFFFF" offset="0%"></stop>
            <stop stop-color="#7AB7FF" offset="100%"></stop>
        </linearGradient>
        <linearGradient x1="44.9776004%" y1="-26.6018361%" x2="55.2634587%" y2="139.413105%" id="linearGradient-31">
            <stop stop-color="#FFFFFF" offset="0%"></stop>
            <stop stop-color="#7AB7FF" offset="100%"></stop>
        </linearGradient>
        <linearGradient x1="45.4863099%" y1="-26.0602443%" x2="55.7716577%" y2="141.183527%" id="linearGradient-32">
            <stop stop-color="#FFFFFF" offset="0%"></stop>
            <stop stop-color="#7AB7FF" offset="100%"></stop>
        </linearGradient>
        <linearGradient x1="44.9884017%" y1="-26.1435698%" x2="55.3120763%" y2="141.036964%" id="linearGradient-33">
            <stop stop-color="#FFFFFF" offset="0%"></stop>
            <stop stop-color="#7AB7FF" offset="100%"></stop>
        </linearGradient>
        <linearGradient x1="45.346809%" y1="-25.6808135%" x2="55.642133%" y2="140.213222%" id="linearGradient-34">
            <stop stop-color="#FFFFFF" offset="0%"></stop>
            <stop stop-color="#7AB7FF" offset="100%"></stop>
        </linearGradient>
        <linearGradient x1="45.4921522%" y1="-26.8145729%" x2="55.8186452%" y2="139.057318%" id="linearGradient-35">
            <stop stop-color="#FFFFFF" offset="0%"></stop>
            <stop stop-color="#7AB7FF" offset="100%"></stop>
        </linearGradient>
        <linearGradient x1="45.0232044%" y1="-26.7685269%" x2="55.3090627%" y2="140.604687%" id="linearGradient-36">
            <stop stop-color="#FFFFFF" offset="0%"></stop>
            <stop stop-color="#7AB7FF" offset="100%"></stop>
        </linearGradient>
        <linearGradient x1="44.9946373%" y1="-25.5624025%" x2="55.277178%" y2="140.268906%" id="linearGradient-37">
            <stop stop-color="#FFFFFF" offset="0%"></stop>
            <stop stop-color="#7AB7FF" offset="100%"></stop>
        </linearGradient>
        <linearGradient x1="45.3150425%" y1="-26.1497451%" x2="55.6003904%" y2="139.861534%" id="linearGradient-38">
            <stop stop-color="#FFFFFF" offset="0%"></stop>
            <stop stop-color="#7AB7FF" offset="100%"></stop>
        </linearGradient>
        <linearGradient x1="45.2253717%" y1="-26.1510799%" x2="55.5146535%" y2="139.840245%" id="linearGradient-39">
            <stop stop-color="#FFFFFF" offset="0%"></stop>
            <stop stop-color="#7AB7FF" offset="100%"></stop>
        </linearGradient>
        <linearGradient x1="45.049756%" y1="-26.3387615%" x2="55.3395288%" y2="139.672517%" id="linearGradient-40">
            <stop stop-color="#FFFFFF" offset="0%"></stop>
            <stop stop-color="#7AB7FF" offset="100%"></stop>
        </linearGradient>
        <linearGradient x1="45.5058472%" y1="-26.0864479%" x2="55.7845334%" y2="141.352772%" id="linearGradient-41">
            <stop stop-color="#FFFFFF" offset="0%"></stop>
            <stop stop-color="#7AB7FF" offset="100%"></stop>
        </linearGradient>
        <linearGradient x1="45.2610019%" y1="-26.6221565%" x2="55.5474362%" y2="140.711179%" id="linearGradient-42">
            <stop stop-color="#FFFFFF" offset="0%"></stop>
            <stop stop-color="#7AB7FF" offset="100%"></stop>
        </linearGradient>
        <linearGradient x1="45.0456227%" y1="-26.6557996%" x2="55.3353954%" y2="140.717414%" id="linearGradient-43">
            <stop stop-color="#FFFFFF" offset="0%"></stop>
            <stop stop-color="#7AB7FF" offset="100%"></stop>
        </linearGradient>
        <linearGradient x1="45.5104683%" y1="-26.4191906%" x2="55.7958161%" y2="139.605727%" id="linearGradient-44">
            <stop stop-color="#FFFFFF" offset="0%"></stop>
            <stop stop-color="#7AB7FF" offset="100%"></stop>
        </linearGradient>
        <linearGradient x1="45.2263655%" y1="-26.5018361%" x2="55.5161383%" y2="139.513105%" id="linearGradient-45">
            <stop stop-color="#FFFFFF" offset="0%"></stop>
            <stop stop-color="#7AB7FF" offset="100%"></stop>
        </linearGradient>
        <linearGradient x1="45.2424305%" y1="-26.3347471%" x2="55.5188876%" y2="140.974781%" id="linearGradient-46">
            <stop stop-color="#FFFFFF" offset="0%"></stop>
            <stop stop-color="#7AB7FF" offset="100%"></stop>
        </linearGradient>
        <linearGradient x1="44.9687759%" y1="-25.8826236%" x2="55.2513166%" y2="140.069152%" id="linearGradient-47">
            <stop stop-color="#FFFFFF" offset="0%"></stop>
            <stop stop-color="#7AB7FF" offset="100%"></stop>
        </linearGradient>
        <linearGradient x1="45.335086%" y1="-27.1869752%" x2="55.6243678%" y2="140.18993%" id="linearGradient-48">
            <stop stop-color="#FFFFFF" offset="0%"></stop>
            <stop stop-color="#7AB7FF" offset="100%"></stop>
        </linearGradient>
        <linearGradient x1="45.3228114%" y1="-25.3569869%" x2="55.6092457%" y2="140.581151%" id="linearGradient-49">
            <stop stop-color="#FFFFFF" offset="0%"></stop>
            <stop stop-color="#7AB7FF" offset="100%"></stop>
        </linearGradient>
        <linearGradient x1="45.3090098%" y1="-26.5567541%" x2="55.5982916%" y2="139.448209%" id="linearGradient-50">
            <stop stop-color="#FFFFFF" offset="0%"></stop>
            <stop stop-color="#7AB7FF" offset="100%"></stop>
        </linearGradient>
        <linearGradient x1="45.3018326%" y1="-26.1594734%" x2="55.612068%" y2="139.964077%" id="linearGradient-51">
            <stop stop-color="#FFFFFF" offset="0%"></stop>
            <stop stop-color="#7AB7FF" offset="100%"></stop>
        </linearGradient>
        <linearGradient x1="45.0861927%" y1="-26.0126634%" x2="55.4198903%" y2="139.949087%" id="linearGradient-52">
            <stop stop-color="#FFFFFF" offset="0%"></stop>
            <stop stop-color="#7AB7FF" offset="100%"></stop>
        </linearGradient>
        <linearGradient x1="45.4141047%" y1="-27.122426%" x2="55.7027701%" y2="140.304418%" id="linearGradient-53">
            <stop stop-color="#FFFFFF" offset="0%"></stop>
            <stop stop-color="#7AB7FF" offset="100%"></stop>
        </linearGradient>
        <linearGradient x1="44.9926769%" y1="-26.3757719%" x2="55.2752176%" y2="140.943812%" id="linearGradient-54">
            <stop stop-color="#FFFFFF" offset="0%"></stop>
            <stop stop-color="#7AB7FF" offset="100%"></stop>
        </linearGradient>
    </defs>
    <g id="改版-下载及教程" stroke="none" stroke-width="1" fill="none" fill-rule="evenodd">
        <g id="下载页" transform="translate(-1125.000000, -2056.000000)">
            <g id="03" transform="translate(314.000000, 2056.000000)">
                <g id="dl_three" transform="translate(811.000000, 0.000000)">
                    <g id="底部_2_" transform="translate(0.000000, 213.120000)">
                        <path d="M226.2,274.1 C227.2,274.7 228.2,275.2 229.4,275.6 C230.3,275.9 231.1,276.2 232.1,276.5 L232,289.8 C231.1,289.5 230.2,289.2 229.3,288.9 C228.2,288.5 227.1,288 226.1,287.4 L7.4,161.2 C3.1,158.7 0.9,155.5 0.9,152.2 L1,138.9 C1,142.2 3.1,145.4 7.5,147.9 L226.2,274.1 Z M234.2,290.3 C233.4,290.1 232.7,290 231.9,289.7 L232,276.4 C232.7,276.6 233.5,276.8 234.3,277 L234.3,282.3 L234.3,277 C235,277.1 235.7,277.3 236.5,277.4 C237.2,277.5 237.9,277.6 238.6,277.6 C239.3,277.7 240,277.7 240.7,277.7 C241.4,277.7 242.2,277.7 242.9,277.7 C243.7,277.7 244.5,277.6 245.3,277.5 L245.2,290.8 C244.4,290.9 243.6,290.9 242.8,291 C242.1,291 241.3,291 240.6,291 C239.9,291 239.2,290.9 238.5,290.9 C237.8,290.8 237.1,290.8 236.4,290.7 C235.7,290.6 235,290.5 234.2,290.3 Z M248.1,290.5 C247.2,290.7 246.3,290.8 245.3,290.9 L245.4,277.6 C246.3,277.5 247.3,277.4 248.2,277.2 C249.6,276.9 251,276.6 252.3,276.2 L252.2,289.5 C250.9,289.9 249.5,290.2 248.1,290.5 Z M257,287.4 C255.5,288.2 253.9,288.9 252.2,289.5 L252.3,276.2 C254,275.6 255.6,274.9 257.1,274.1 L474.4,147.9 L474.4,151.8 L474.4,147.9 C474.5,147.8 474.6,147.8 474.7,147.7 L474.7,153 L474.7,147.7 C475.8,147.1 476.7,146.4 477.5,145.6 L477.5,152.2 L477.5,145.6 C478,145.1 478.5,144.6 478.9,144.1 L478.8,157.4 C478.4,157.9 478,158.4 477.4,158.9 C476.6,159.6 475.7,160.3 474.6,160.9 C474.5,161 474.4,161 474.3,161.1 L257,287.4 Z M480.2,154.9 C480,155.3 479.8,155.7 479.6,156.1 L479.7,142.8 C479.9,142.4 480.1,142 480.3,141.6 L480.3,148.3 L480.3,141.6 C480.5,141.2 480.6,140.8 480.7,140.4 C480.8,140 480.8,139.6 480.8,139.1 L480.8,144.4 L480.8,139.1 C480.8,139 480.8,139 480.8,138.9 L480.7,152.2 C480.7,152.3 480.7,152.3 480.7,152.4 C480.7,152.8 480.6,153.2 480.6,153.6 C480.5,154.1 480.3,154.5 480.2,154.9 Z M479.6,156.2 C479.3,156.6 479.1,157.1 478.7,157.5 L478.8,144.2 C479.1,143.8 479.4,143.3 479.7,142.9 L479.6,156.2 Z" id="Combined-Shape_9_" fill-opacity="0.8" fill="url(#linearGradient-1)" fill-rule="nonzero"></path>
                        <path d="M474.262555,129.875 C482.862555,134.775 482.862555,142.775 474.362555,147.775 L257.062555,273.975 C248.562555,278.875 234.762555,278.875 226.162555,273.975 L7.46255482,147.775 C-1.13744518,142.875 -1.13744518,134.875 7.36255482,129.875 L224.662555,3.675 C233.162555,-1.225 246.962555,-1.225 255.562555,3.675 L474.262555,129.875 Z" id="Fill-68_4_" fill="url(#linearGradient-2)"></path>
                    </g>
                    <g id="Group-606" transform="translate(141.160000, 0.000000)">
                        <g id="中大" transform="translate(71.040000, 68.160000)">
                            <g id="Group-46_1_" transform="translate(3.139790, 0.000000)">
                                <g id="Group-3_2_" fill="#626262">
                                    <path d="M0.1,2.2 L2.3,0.9 C2.5,0.8 2.7,0.7 2.9,0.6 L0.7,1.9 C0.5,2 0.3,2.1 0.1,2.2" id="Fill-1_11_"></path>
                                </g>
                                <g id="Group-6_1_" fill="#666666">
                                    <path d="M0.7,1.9 L2.9,0.6 C3.1,0.5 3.2,0.5 3.4,0.5 L1.2,1.8 C1.1,1.8 0.9,1.9 0.7,1.9" id="Fill-4_7_"></path>
                                </g>
                                <g id="Group-9_1_" transform="translate(1.000000, 0.000000)" fill="#696969">
                                    <path d="M0.3,1.8 L2.5,0.5 C2.6,0.5 2.8,0.5 2.9,0.4 L0.7,1.7 C0.5,1.7 0.4,1.8 0.3,1.8" id="Fill-7_4_"></path>
                                </g>
                                <g id="Group-12_1_" transform="translate(1.000000, 0.000000)" fill="#6D6D6D">
                                    <path d="M0.7,1.7 L2.9,0.4 C3,0.4 3.2,0.4 3.3,0.4 L1.1,1.7 C0.9,1.7 0.8,1.7 0.7,1.7" id="Fill-10_3_"></path>
                                </g>
                                <g id="Group-15_1_" transform="translate(2.000000, 0.000000)" fill="#717171">
                                    <path d="M0.1,1.7 L2.3,0.4 C2.4,0.4 2.5,0.4 2.7,0.4 L0.5,1.7 C0.3,1.7 0.2,1.7 0.1,1.7" id="Fill-13_2_"></path>
                                </g>
                                <g id="Group-18_1_" transform="translate(2.000000, 0.000000)" fill="#757575">
                                    <path d="M0.4,1.7 L2.6,0.4 C2.7,0.4 2.8,0.4 2.9,0.4 L0.7,1.7 C0.6,1.7 0.5,1.7 0.4,1.7" id="Fill-16_2_"></path>
                                </g>
                                <g id="Group-21_1_" transform="translate(2.000000, 0.000000)" fill="#787878">
                                    <path d="M0.8,1.7 L3,0.4 C3.1,0.4 3.2,0.4 3.3,0.5 L1.1,1.8 C1,1.8 0.9,1.8 0.8,1.7" id="Fill-19_3_"></path>
                                </g>
                                <g id="Group-24_1_" transform="translate(3.000000, 0.000000)" fill="#7C7C7C">
                                    <path d="M0.1,1.8 L2.3,0.5 C2.4,0.5 2.5,0.5 2.6,0.6 L0.4,1.9 C0.3,1.8 0.2,1.8 0.1,1.8" id="Fill-22_1_"></path>
                                </g>
                                <g id="Group-27_1_" transform="translate(3.000000, 0.000000)" fill="#808080">
                                    <path d="M0.4,1.9 L2.6,0.6 C2.7,0.6 2.8,0.7 2.9,0.7 L0.7,2 C0.6,1.9 0.5,1.9 0.4,1.9" id="Fill-25_2_"></path>
                                </g>
                                <g id="Group-30_1_" transform="translate(3.000000, 0.000000)" fill="#848484">
                                    <path d="M0.7,2 L2.9,0.7 C3,0.7 3.1,0.8 3.2,0.8 L1,2.1 C0.9,2 0.8,2 0.7,2" id="Fill-28_2_"></path>
                                </g>
                                <g id="Group-33_1_" transform="translate(4.000000, 0.000000)" fill="#878787">
                                    <path d="M0,2 L2.2,0.7 C2.3,0.7 2.4,0.8 2.5,0.8 L0.3,2.1 C0.2,2.1 0.1,2.1 0,2" id="Fill-31_1_"></path>
                                </g>
                                <g id="Group-36_1_" transform="translate(4.000000, 0.000000)" fill="#8B8B8B">
                                    <path d="M0.3,2.2 L2.5,0.9 C2.6,0.9 2.7,1 2.8,1 L0.6,2.3 C0.5,2.2 0.4,2.2 0.3,2.2" id="Fill-34_2_"></path>
                                </g>
                                <g id="Group-39_1_" transform="translate(4.000000, 1.000000)" fill="#8F8F8F">
                                    <path d="M0.6,1.3 L2.8,0 C2.9,0 3,0.1 3.1,0.1 L0.9,1.4 C0.8,1.4 0.7,1.3 0.6,1.3" id="Fill-37_1_"></path>
                                </g>
                                <g id="Group-42_1_" transform="translate(4.000000, 1.000000)" fill="#939393">
                                    <path d="M0.9,1.4 L3.1,0.1 C3.2,0.1 3.3,0.2 3.4,0.3 L1.2,1.6 C1.1,1.5 1,1.5 0.9,1.4" id="Fill-40_1_"></path>
                                </g>
                                <g id="Group-45_1_" transform="translate(5.000000, 1.000000)" fill="#969696">
                                    <path d="M0.2,1.6 L2.4,0.3 C2.5,0.3 2.6,0.4 2.6,0.4 L0.4,1.7 C0.3,1.7 0.3,1.6 0.2,1.6" id="Fill-43_1_"></path>
                                </g>
                            </g>
                            <path d="M239.8,144.5 C239.8,144.4 239.8,144.3 239.8,144.1 C239.8,144 239.8,143.9 239.8,143.7 C239.8,143.6 239.8,143.5 239.8,143.3 L240.4,142.9 L239.8,143.3 C239.8,143.2 239.8,143.1 239.7,142.9 L241.9,141.6 C241.9,141.7 241.9,141.8 242,142 C242,142.1 242,142.2 242,142.4 C242,142.5 242,142.6 242,142.8 C242,142.9 242,143 242,143.2 C242,143.3 242,143.4 242,143.5 L241.5,309.6 L239.3,310.9 L239.8,144.8 L240.6,144.4 L239.8,144.8 C239.9,144.7 239.8,144.6 239.8,144.5 Z M241.8,141 C241.8,141.1 241.9,141.3 241.9,141.4 L239.7,142.7 C239.7,142.6 239.6,142.4 239.6,142.3 L239.7,142.2 L239.6,142.3 C239.6,142.2 239.5,142 239.5,141.9 C239.5,141.8 239.4,141.6 239.4,141.5 L240.1,141.1 L239.4,141.5 C239.4,141.4 239.3,141.2 239.3,141.1 L239.8,140.8 L239.3,141.1 C239.3,141 239.2,140.8 239.2,140.7 L239.7,140.4 L239.2,140.7 C239.2,140.6 239.1,140.4 239.1,140.3 C239.1,140.2 239,140.1 239,139.9 C239,139.8 238.9,139.7 238.9,139.5 L241.1,138.2 C241.2,138.3 241.2,138.4 241.2,138.6 C241.2,138.7 241.3,138.8 241.3,139 L240.1,139.7 L241.3,139 C241.3,139.1 241.4,139.3 241.4,139.4 C241.4,139.5 241.5,139.7 241.5,139.8 C241.5,139.9 241.6,140.1 241.6,140.2 C241.6,140.3 241.7,140.5 241.7,140.6 C241.7,140.8 241.7,140.9 241.8,141 Z M240.8,138 C240.9,138.1 240.9,138.2 241,138.4 L238.8,139.7 C238.8,139.6 238.7,139.5 238.6,139.3 C238.5,139.2 238.5,139.1 238.4,138.9 C238.3,138.8 238.3,138.6 238.2,138.5 C238.1,138.3 238,138.2 238,138 C237.9,137.8 237.8,137.6 237.6,137.3 C237.4,137 237.2,136.7 237,136.4 L238.2,135.7 L237,136.4 C236.8,136.2 236.7,135.9 236.5,135.7 L236.8,135.5 L236.5,135.7 C236.4,135.6 236.3,135.4 236.2,135.3 L236.7,135 L236.2,135.3 C236.1,135.2 236,135.1 235.9,134.9 L237.5,133.9 L235.9,134.9 C235.8,134.8 235.7,134.7 235.6,134.6 C235.5,134.5 235.4,134.4 235.3,134.3 C235.2,134.2 235.1,134.1 235,134 C234.9,133.9 234.8,133.8 234.7,133.7 C234.6,133.6 234.5,133.5 234.4,133.4 L235.3,132.9 L234.4,133.4 C234.3,133.3 234.2,133.2 234.1,133.1 L234.4,132.9 L234.1,133.1 C234,133 233.9,132.9 233.8,132.8 L236,131.5 C236.1,131.6 236.2,131.7 236.3,131.8 C236.4,131.9 236.5,132 236.6,132.1 C236.7,132.2 236.8,132.3 236.9,132.4 C237,132.5 237.1,132.6 237.2,132.7 C237.3,132.8 237.4,132.9 237.5,133 C237.6,133.1 237.7,133.2 237.8,133.3 C237.9,133.4 238,133.5 238.1,133.6 C238.2,133.7 238.3,133.8 238.4,134 C238.5,134.1 238.6,134.3 238.7,134.4 C238.9,134.6 239,134.8 239.2,135.1 C239.4,135.4 239.6,135.7 239.8,136 C239.9,136.2 240.1,136.4 240.2,136.7 C240.3,136.8 240.4,137 240.4,137.1 L239.5,137.6 L240.4,137.1 C240.5,137.2 240.5,137.4 240.6,137.5 C240.7,137.7 240.7,137.9 240.8,138 Z M235.7,131.4 C235.8,131.5 235.9,131.6 236,131.6 L233.8,132.9 C233.7,132.8 233.6,132.7 233.5,132.7 C233.4,132.6 233.3,132.5 233.2,132.5 L233.6,132.3 L233.2,132.5 C233.1,132.4 233,132.4 232.9,132.3 C232.8,132.2 232.7,132.2 232.6,132.1 L233.3,131.7 L232.6,132.1 C232.6,132.1 232.6,132.1 232.5,132.1 L233.2,131.7 L232.5,132.1 L8.6,2.8 L10.8,1.5 L234.7,130.8 C234.7,130.8 234.7,130.8 234.8,130.8 C234.9,130.9 235,130.9 235.1,131 L233.9,131.7 L235.1,131 C235.2,131.1 235.3,131.1 235.4,131.2 C235.4,131.2 235.5,131.3 235.7,131.4 Z M240.7,313.2 C240.4,313.7 239.9,314.2 239.4,314.5 L237.2,315.8 C237.7,315.5 238.2,315.1 238.5,314.5 L239.2,314.1 L238.5,314.5 C238.6,314.3 238.7,314.2 238.8,314 L239.6,313.5 L238.8,314 C238.9,313.9 238.9,313.7 239,313.6 C239,313.5 239.1,313.3 239.1,313.2 L239.9,312.7 L239.1,313.2 C239.1,313.1 239.2,313 239.2,312.8 C239.2,312.7 239.3,312.6 239.3,312.4 L241.5,311.1 C241.5,311.2 241.5,311.3 241.4,311.5 L240.6,312 L241.4,311.5 C241.4,311.6 241.3,311.8 241.3,311.9 C241.3,312 241.2,312.2 241.2,312.3 C241.1,312.4 241.1,312.6 241,312.7 C240.9,312.8 240.8,313 240.7,313.2 Z M239.3,312 C239.3,311.9 239.3,311.8 239.3,311.6 L240.4,311 L239.3,311.6 C239.3,311.5 239.3,311.4 239.3,311.3 C239.3,311.2 239.3,311.1 239.3,310.9 L241.5,309.6 L239.3,310.9 L241.5,309.6 C241.5,309.7 241.5,309.8 241.5,310 C241.5,310.1 241.5,310.2 241.5,310.3 C241.5,310.4 241.5,310.5 241.5,310.7 C241.5,310.8 241.5,310.9 241.4,311.1 L239.2,312.4 C239.3,312.3 239.3,312.2 239.3,312 Z M239.6,142.7 L241.8,141.4 C241.8,141.5 241.8,141.7 241.9,141.8 L239.7,143.1 C239.7,142.9 239.7,142.8 239.6,142.7 Z" id="Combined-Shape_10_" fill="url(#linearGradient-3)" fill-rule="nonzero"></path>
                            <path d="M232.4,132 C236.5,134.4 239.8,140.2 239.8,144.9 L239.3,311 C239.3,315.7 235.9,317.6 231.8,315.3 L8,186 C3.9,183.6 0.5,177.8 0.6,173.1 L1.1,7 C1.1,2.3 4.5,0.4 8.6,2.7 L232.4,132 Z" id="Fill-85_1_" fill="url(#linearGradient-4)"></path>
                        </g>
                        <g id="左小">
                            <path d="M80.4,49.8 C80.4,49.9 80.4,50 80.4,50.1 L80.2,120.9 L76.5,123 L76.7,52.2 L78.7,51.1 L76.7,52.2 C76.7,52.1 76.7,52 76.7,51.9 C76.7,51.8 76.7,51.7 76.7,51.5 C76.7,51.4 76.7,51.3 76.7,51.1 C76.7,51 76.7,50.9 76.7,50.7 L78.3,49.8 L76.7,50.7 C76.7,50.6 76.7,50.5 76.6,50.3 L78.1,49.4 L76.6,50.3 C76.6,50.2 76.6,50.1 76.5,49.9 L80.2,47.8 C80.2,47.9 80.2,48.1 80.3,48.2 C80.3,48.3 80.3,48.4 80.4,48.6 C80.4,48.7 80.4,48.8 80.4,49 C80.4,49.1 80.4,49.2 80.4,49.4 C80.4,49.5 80.4,49.6 80.4,49.8 Z M79.9,46.8 C79.9,46.9 80,47.1 80,47.2 L76.3,49.3 C76.3,49.2 76.2,49 76.2,48.9 C76.2,48.8 76.1,48.6 76.1,48.5 L79.8,46.3 C79.9,46.5 79.9,46.6 79.9,46.8 Z M75.9,47.7 C75.9,47.6 75.8,47.5 75.8,47.3 C75.8,47.2 75.7,47.1 75.7,46.9 C75.7,46.8 75.6,46.7 75.5,46.5 C75.4,46.4 75.4,46.3 75.3,46.1 C75.2,46 75.2,45.8 75.1,45.7 C75,45.5 74.9,45.4 74.9,45.3 L78.6,43.1 C78.7,43.2 78.8,43.4 78.8,43.6 C78.9,43.7 78.9,43.9 79,44 C79.1,44.1 79.1,44.2 79.2,44.4 C79.3,44.5 79.3,44.6 79.4,44.8 C79.5,44.9 79.5,45 79.5,45.2 C79.5,45.3 79.6,45.4 79.6,45.6 C79.6,45.7 79.7,45.9 79.7,46 L76,48.1 C76,48 75.9,47.9 75.9,47.7 Z M75.1,44.4 L74.5,44.8 C74.3,44.5 74.1,44.2 73.9,43.9 L77.6,41.8 C77.4,41.6 77.3,41.3 77.1,41.1 C77,41 76.9,40.8 76.8,40.7 L73.1,42.8 C73.2,42.9 73.3,43.1 73.4,43.2 C73.6,43.4 73.7,43.6 73.9,43.9 L77.6,41.7 C77.8,42 78,42.3 78.2,42.6 C78.3,42.8 78.5,43 78.6,43.3 L74.9,45.4 C74.8,45.2 74.7,45 74.5,44.7 L75.1,44.4 Z M72.5,42.1 C72.4,42 72.3,41.9 72.2,41.8 C72.1,41.7 72,41.6 71.9,41.5 L75.6,39.4 C75.7,39.5 75.8,39.6 75.9,39.7 C76,39.8 76.1,39.9 76.2,40 C76.3,40.1 76.4,40.2 76.5,40.3 L72.8,42.4 C72.7,42.3 72.6,42.2 72.5,42.1 Z M75.3,39 C75.4,39.1 75.5,39.2 75.6,39.3 L71.9,41.5 C71.8,41.4 71.7,41.3 71.6,41.2 C71.5,41.1 71.4,41 71.3,40.9 L72.8,40 L71.3,40.9 C71.2,40.8 71.1,40.7 71,40.6 C70.9,40.5 70.8,40.4 70.7,40.3 L74.4,38.2 C74.5,38.3 74.6,38.4 74.7,38.5 C74.8,38.6 74.9,38.7 75,38.8 C75.1,38.8 75.2,38.9 75.3,39 Z M74,37.9 C73.9,37.8 73.8,37.7 73.7,37.7 L70,39.8 C70.1,39.9 70.2,40 70.3,40 L74,37.9 C74.1,38 74.2,38.1 74.3,38.1 L70.6,40.2 C70.5,40.1 70.4,40 70.3,40 L74,37.9 Z M73.4,37.4 C73.5,37.5 73.6,37.5 73.7,37.6 L70,39.8 C69.9,39.7 69.8,39.7 69.7,39.6 C69.6,39.5 69.5,39.5 69.4,39.4 L73.1,37.2 C73.2,37.3 73.3,37.3 73.4,37.4 Z M73,37.2 L69.4,39.4 C69.4,39.4 69.4,39.4 69.3,39.4 L70.9,38.4 L69.3,39.4 L7.9,3.8 L11.6,1.7 L73,37.2 Z M8,3.4 L7.6,3.6 C7.5,3.5 7.4,3.5 7.3,3.4 C7.2,3.3 7.1,3.3 7,3.3 C6.9,3.3 6.8,3.2 6.7,3.2 L7.3,2.8 L6.7,3.2 C6.6,3.2 6.5,3.1 6.4,3.1 C6.3,3.1 6.2,3 6.1,3 C6,3 5.9,2.9 5.8,2.9 L7.6,1.8 L5.8,2.9 C5.7,2.9 5.6,2.9 5.5,2.8 C5.4,2.8 5.3,2.8 5.2,2.7 L8.9,0.6 C9,0.6 9.1,0.6 9.2,0.7 C9.3,0.7 9.4,0.7 9.5,0.8 C9.6,0.8 9.7,0.9 9.8,0.9 C9.9,0.9 10,1 10.1,1 C10.2,1 10.3,1.1 10.4,1.1 C10.5,1.1 10.6,1.2 10.7,1.2 C10.8,1.2 10.9,1.3 11,1.3 C11.1,1.4 11.2,1.4 11.3,1.5 C11.4,1.5 11.5,1.6 11.5,1.6 L7.8,3.7 C7.7,3.7 7.6,3.6 7.6,3.6 L8,3.4 Z M8.6,0.6 C8.7,0.6 8.8,0.6 8.9,0.6 L5.2,2.7 C5.1,2.7 5,2.7 4.9,2.7 C4.8,2.7 4.7,2.7 4.5,2.7 L5.1,2.3 L4.5,2.7 C4.4,2.7 4.2,2.7 4.1,2.7 L6.2,1.5 L4.1,2.7 C4,2.7 3.8,2.7 3.7,2.8 L7.4,0.7 C7.5,0.7 7.7,0.6 7.8,0.6 C7.9,0.6 8.1,0.6 8.2,0.6 C8.3,0.6 8.4,0.6 8.6,0.6 Z M6.9,0.8 C7.1,0.7 7.2,0.7 7.4,0.7 L3.7,2.9 C3.5,2.9 3.3,3 3.2,3 L4.7,2.1 L3.2,3 C3,3.1 2.8,3.2 2.6,3.3 L6.3,1.2 C6.5,1 6.7,0.9 6.9,0.8 Z M80,122.7 C80,122.8 79.9,123 79.9,123.1 L76.2,125.2 C76.2,125.1 76.3,125 76.3,124.8 C76.3,124.7 76.4,124.6 76.4,124.4 L76.5,124.3 L76.4,124.4 C76.4,124.3 76.4,124.2 76.5,124 C76.5,123.9 76.5,123.8 76.5,123.6 L80.2,121.5 C80.2,121.6 80.2,121.7 80.2,121.9 C80.2,122 80.2,122.1 80.1,122.3 C80.1,122.4 80.1,122.5 80,122.7 Z M80.2,121.2 C80.2,121.3 80.2,121.4 80.2,121.5 L76.5,123.6 C76.5,123.5 76.5,123.4 76.5,123.3 C76.5,123.2 76.5,123.1 76.5,122.9 L80.2,120.8 C80.2,121 80.2,121.1 80.2,121.2 Z M76.5,123 L80.2,120.9 L76.5,123 Z M76.2,125.2 L79.9,123.1 C79.9,123.2 79.8,123.4 79.8,123.5 L76.1,125.6 C76.2,125.5 76.2,125.3 76.2,125.2 Z M76.1,125.6 L79.8,123.4 C79.7,123.5 79.7,123.7 79.6,123.8 L75.9,125.9 C76,125.9 76.1,125.7 76.1,125.6 Z M75.9,126 L79.6,123.9 C79.5,124.1 79.4,124.3 79.3,124.4 L75.6,126.5 C75.8,126.4 75.8,126.2 75.9,126 Z M75.6,126.5 L79.3,124.4 C79,124.9 78.5,125.4 78,125.7 L74.3,127.8 C74.9,127.5 75.3,127.1 75.6,126.5 Z M76.5,40.3 C76.6,40.4 76.7,40.5 76.8,40.7 L73.1,42.8 C73,42.7 72.9,42.6 72.8,42.4 L76.5,40.3 Z M79.7,46 C79.7,46.1 79.8,46.3 79.8,46.4 L76.1,48.6 C76.1,48.5 76,48.3 76,48.2 L79.7,46 Z M80,47.2 C80,47.3 80.1,47.5 80.1,47.6 L76.4,49.7 C76.4,49.6 76.3,49.4 76.3,49.3 L80,47.2 Z M80.1,47.5 C80.1,47.6 80.2,47.8 80.2,47.9 L76.5,50 C76.5,49.9 76.4,49.7 76.4,49.6 L80.1,47.5 Z" id="Combined-Shape_11_" fill="url(#linearGradient-5)" fill-rule="nonzero"></path>
                            <path d="M69.3,39.3 C73.4,41.7 76.8,47.5 76.7,52.2 L76.5,123 C76.5,127.7 73.1,129.6 69,127.3 L7.6,91.7 C3.5,89.3 0.2,83.5 0.2,78.8 L0.4,8 C0.4,3.3 3.8,1.3 7.9,3.7 L69.3,39.3 Z" id="Fill-286_1_" fill="url(#linearGradient-6)"></path>
                            <g id="ic_shock" transform="translate(13.745455, 34.916571)" fill="#2D61F4">
                                <path d="M23.2,1.7 C23.2,1.7 23.3,1.7 23.3,1.8 C24.9,2.8 26.6,4.3 28,6 C29.6,7.9 30.9,10.1 31.8,12.3 C32.4,13.8 32.7,15.3 32.7,16.7 L32.7,23.9 C32.7,24.1 32.6,24.2 32.6,24.3 C32.5,24.4 32.3,24.4 32.1,24.3 C31.9,24.2 31.7,24 31.6,23.7 C31.5,23.5 31.5,23.3 31.5,23.1 L31.5,15.9 C31.5,14.8 31.2,13.5 30.8,12.3 C30.3,11.1 29.7,9.8 28.8,8.6 C27.2,6.3 25.1,4.2 23.1,3 C21.1,1.9 19.3,1.7 18,2.3 C16.7,2.9 15.8,4.4 15.8,6.8 L15.8,14 C15.8,14.2 15.7,14.3 15.7,14.4 C15.6,14.5 15.4,14.5 15.2,14.4 C15,14.3 14.8,14.1 14.7,13.8 C14.6,13.6 14.6,13.4 14.6,13.2 L14.6,6 C14.6,3.2 15.6,1.4 17.2,0.7 C18.7,6.82121026e-13 20.7,0.2 22.9,1.4 C22.9,1.4 23,1.4 23,1.5 L23.2,1.7 Z" id="Fill-8_2_"></path>
                                <path d="M14.7,37.4 C14.9,37.5 15,37.7 15.2,37.9 L17.7,42.3 L18.6,43.9 L21.1,48.3 C21.4,48.7 21.3,49.2 21.1,49.4 C21,49.5 20.8,49.4 20.6,49.4 C20.4,49.3 20.3,49.1 20.1,48.9 L17.6,44.5 L16.7,42.9 L14.2,38.5 C13.9,38.1 14,37.6 14.2,37.4 C14.3,37.3 14.5,37.3 14.7,37.4" id="Fill-10_4_"></path>
                                <path d="M21.1,41.3 C21.4,41.7 21.3,42.2 21.1,42.4 L18.5,43.9 L17.6,42.3 L20.2,40.8 C20.3,40.7 20.5,40.8 20.7,40.8 C20.8,40.9 21,41.1 21.1,41.3" id="Fill-12_2_"></path>
                                <path d="M14.2,44.2 L16.8,42.7 L17.7,44.3 L15.1,45.8 C15,45.9 14.8,45.8 14.6,45.8 C14.4,45.7 14.3,45.5 14.1,45.3 C13.9,44.9 13.9,44.4 14.2,44.2" id="Fill-15_1_"></path>
                                <path d="M28.4,39 C31.2,40.6 33.5,39.3 33.5,36 L33.5,26.3 L13.6,14.8 L13.6,24.5 C13.6,26.2 14,28 14.8,29.4 C15.6,30.9 16.6,32.2 18.1,33 L28.4,39 M34.7,25.7 C34.8,25.9 34.9,26.1 34.9,26.3 L34.9,36.7 C34.9,38.7 34.2,40.2 33,40.9 C31.8,41.6 30.2,41.5 28.4,40.5 L18.1,34.5 C16.3,33.5 14.8,31.7 13.8,29.8 C12.8,27.9 12.3,25.7 12.3,23.7 L12.3,13.3 C12.3,13.1 12.4,13 12.5,12.9 C12.6,12.8 12.8,12.8 13,12.9 L14.6,13.8 C14.7,14 14.9,14.3 15.1,14.4 C15.3,14.5 15.5,14.5 15.6,14.4 L31.6,23.6 C31.7,23.8 31.9,24 32.1,24.2 C32.3,24.3 32.5,24.3 32.6,24.2 L34.2,25.1 C34.4,25.3 34.6,25.5 34.7,25.7" id="Fill-17_2_" fill-rule="nonzero"></path>
                                <path d="M9.7,47.8 C10.1,48 10.3,48.5 10.3,48.9 C10.3,49.3 10,49.5 9.6,49.3 L1.1,44.4 C0.7,44.2 0.5,43.7 0.5,43.3 C0.5,42.9 0.8,42.7 1.2,42.9 L9.7,47.8 Z" id="Fill-19_4_"></path>
                                <path d="M8.4,34 C8.7,34.4 8.6,34.9 8.4,35.1 L5.8,36.6 L4.9,35 L7.4,33.5 C7.5,33.4 7.7,33.5 7.9,33.5 C8.1,33.6 8.3,33.7 8.4,34" id="Fill-21_2_"></path>
                                <path d="M1.4,36.9 L4,35.4 L4.9,37 L2.3,38.5 C2.2,38.6 2,38.5 1.8,38.5 C1.6,38.4 1.5,38.2 1.3,38 C1.2,37.5 1.2,37 1.4,36.9" id="Fill-23_2_"></path>
                                <path d="M1.9,30 C2.1,30.1 2.2,30.3 2.4,30.5 L4.9,34.9 L5.8,36.5 L8.3,40.9 C8.6,41.3 8.6,41.8 8.3,42 C8.2,42.1 8,42 7.8,42 C7.6,41.9 7.5,41.7 7.3,41.5 L4.8,37.1 L3.9,35.5 L1.4,31.1 C1.1,30.7 1.2,30.2 1.4,30 C1.6,29.9 1.8,29.9 1.9,30" id="Fill-25_3_"></path>
                                <path d="M22.5,55.1 C22.9,55.3 23.1,55.8 23.1,56.2 C23.1,56.6 22.8,56.8 22.4,56.6 L13.9,51.7 C13.5,51.5 13.3,51 13.3,50.6 C13.3,50.2 13.6,50 14,50.2 L22.5,55.1 Z" id="Fill-27"></path>
                                <path d="M35.2,62.5 C35.6,62.7 35.8,63.2 35.8,63.6 C35.8,64 35.5,64.2 35.1,64 L26.6,59.1 C26.2,58.9 26,58.4 26,58 C26,57.6 26.3,57.4 26.7,57.6 L35.2,62.5 Z" id="Fill-29"></path>
                                <path d="M33.9,48.7 C34.2,49.1 34.1,49.6 33.9,49.8 L31.3,51.3 L30.4,49.7 L33,48.2 C33.1,48.1 33.3,48.2 33.5,48.2 C33.6,48.3 33.7,48.5 33.9,48.7" id="Fill-31_2_"></path>
                                <path d="M26.9,51.6 L29.5,50.1 L30.4,51.7 L27.8,53.2 C27.7,53.3 27.5,53.2 27.3,53.2 C27.1,53.2 27,52.9 26.8,52.7 C26.7,52.2 26.7,51.8 26.9,51.6" id="Fill-33"></path>
                                <path d="M27.4,44.7 C27.6,44.8 27.7,45 27.9,45.2 L30.4,49.6 L31.3,51.2 L33.8,55.6 C34.1,56 34.1,56.5 33.8,56.7 C33.7,56.8 33.5,56.7 33.3,56.7 C33.1,56.6 33,56.4 32.8,56.2 L30.3,51.8 L29.4,50.2 L26.9,45.8 C26.6,45.4 26.6,44.9 26.9,44.7 C27.1,44.6 27.2,44.7 27.4,44.7" id="Fill-35"></path>
                                <path d="M47.9,69.9 C48.3,70.1 48.5,70.6 48.5,71 C48.5,71.4 48.2,71.6 47.8,71.4 L39.3,66.5 C38.9,66.3 38.7,65.8 38.7,65.4 C38.7,65 39,64.8 39.4,65 L47.9,69.9 Z" id="Fill-37_2_"></path>
                            </g>
                        </g>
                        <g id="右小" transform="translate(201.600000, 327.360000)">
                            <path d="M76.8,51.3 C76.8,51.2 76.8,51.1 76.8,50.9 L77,50.8 L76.8,50.9 C76.8,50.8 76.8,50.7 76.8,50.5 C76.8,50.4 76.8,50.3 76.8,50.1 L78.2,49.3 L76.8,50.1 C76.8,50 76.8,49.9 76.7,49.7 L77.1,49.5 L76.7,49.7 C76.7,49.6 76.7,49.4 76.6,49.3 L78,48.5 L76.6,49.3 C76.6,49.2 76.5,49 76.5,48.9 C76.5,48.8 76.4,48.6 76.4,48.5 C76.4,48.4 76.3,48.2 76.3,48.1 L76.8,47.8 L76.3,48.1 C76.3,48 76.2,47.8 76.2,47.7 L78.2,46.5 L76.2,47.7 C76.2,47.6 76.1,47.4 76.1,47.3 L79.8,45.2 C79.8,45.3 79.9,45.5 79.9,45.6 C79.9,45.7 80,45.9 80,46 C80,46.1 80.1,46.3 80.1,46.4 C80.1,46.5 80.2,46.7 80.2,46.8 C80.2,46.9 80.3,47.1 80.3,47.2 C80.3,47.3 80.3,47.4 80.4,47.6 C80.4,47.7 80.4,47.8 80.5,48 C80.5,48.1 80.5,48.2 80.5,48.4 C80.5,48.5 80.5,48.6 80.5,48.8 C80.5,48.9 80.5,49 80.5,49.2 C80.5,49.3 80.5,49.4 80.5,49.5 L80.3,120.2 L76.6,122.3 L76.8,51.6 L77.7,51.1 L76.8,51.6 C76.8,51.5 76.8,51.4 76.8,51.3 Z M76,47.1 C76,47 75.9,46.9 75.9,46.7 C75.9,46.6 75.8,46.5 75.8,46.3 L76.4,46 L75.8,46.3 C75.8,46.2 75.7,46.1 75.6,45.9 C75.5,45.8 75.5,45.7 75.4,45.5 C75.3,45.4 75.3,45.2 75.2,45.1 C75.1,44.9 75,44.8 75,44.6 C74.9,44.4 74.8,44.2 74.6,43.9 C74.4,43.6 74.2,43.3 74,43 L75.1,42.4 L74,43 C73.8,42.8 73.7,42.5 73.5,42.3 L75.6,41.1 L73.5,42.3 C73.4,42.2 73.3,42 73.2,41.9 L73.4,41.8 L73.2,41.9 C73.1,41.8 73,41.7 72.9,41.5 L76.3,39.5 L72.9,41.5 C72.8,41.4 72.7,41.3 72.6,41.2 C72.5,41.1 72.4,41 72.3,40.9 C72.2,40.8 72.1,40.7 72,40.6 C71.9,40.5 71.8,40.4 71.7,40.3 C71.6,40.2 71.5,40.1 71.4,40 L73,39.1 L71.4,40 C71.3,39.9 71.2,39.8 71.1,39.7 L71.9,39.2 L71.1,39.7 C71,39.6 70.9,39.5 70.8,39.4 L74.5,37.3 C74.6,37.4 74.7,37.5 74.8,37.6 C74.9,37.7 75,37.8 75.1,37.9 C75.2,38 75.3,38.1 75.4,38.2 C75.5,38.3 75.6,38.4 75.7,38.5 C75.8,38.6 75.9,38.7 76,38.8 C76.1,38.9 76.2,39 76.3,39.1 C76.4,39.2 76.5,39.3 76.6,39.4 C76.7,39.5 76.8,39.6 76.9,39.8 C77,39.9 77.1,40.1 77.2,40.2 C77.4,40.4 77.5,40.6 77.7,40.9 C77.9,41.2 78.1,41.5 78.3,41.8 C78.4,42 78.6,42.2 78.7,42.5 C78.8,42.7 78.9,42.8 78.9,43 C79,43.1 79,43.3 79.1,43.4 C79.2,43.5 79.2,43.6 79.3,43.8 C79.4,43.9 79.4,44 79.5,44.2 C79.6,44.3 79.6,44.4 79.6,44.6 C79.6,44.7 79.7,44.8 79.7,45 C79.7,45.1 79.8,45.3 79.8,45.4 L76.1,47.5 C76,47.4 76,47.3 76,47.1 Z M74.1,37.2 C74.2,37.3 74.3,37.4 74.4,37.4 L70.7,39.5 C70.6,39.4 70.5,39.3 70.4,39.3 C70.3,39.2 70.2,39.1 70.1,39.1 L73.8,37 C73.9,37.1 74,37.2 74.1,37.2 Z M69.7,39 C69.6,38.9 69.5,38.9 69.4,38.8 L70.9,37.9 L69.4,38.8 C69.4,38.8 69.4,38.8 69.3,38.8 L70.9,37.8 L69.3,38.8 L7.8,3.3 C7.7,3.3 7.6,3.2 7.6,3.2 L8.7,2.6 L7.6,3.2 C7.5,3.1 7.4,3.1 7.3,3 C7.2,3 7.1,2.9 7,2.9 L9,1.7 L7,2.9 C6.9,2.9 6.8,2.8 6.7,2.8 L7.9,2.1 L6.7,2.8 C6.6,2.8 6.5,2.7 6.4,2.7 C6.3,2.7 6.2,2.6 6.1,2.6 C6,2.6 5.9,2.5 5.8,2.5 L7.6,1.4 L5.8,2.5 C5.7,2.5 5.6,2.5 5.5,2.4 C5.4,2.4 5.3,2.4 5.2,2.3 L8.6,0.3 L5.2,2.3 C5.1,2.3 5,2.3 4.9,2.3 C4.8,2.3 4.7,2.3 4.5,2.3 L5.7,1.6 L4.5,2.3 C4.4,2.3 4.2,2.3 4.1,2.3 L5.2,1.7 L4.1,2.3 C4,2.3 3.8,2.3 3.7,2.4 L7.4,0.3 C7.5,0.3 7.7,0.3 7.8,0.2 C7.9,0.2 8.1,0.2 8.2,0.2 C8.3,0.2 8.4,0.2 8.6,0.2 C8.7,0.2 8.8,0.2 8.9,0.2 C9,0.2 9.1,0.2 9.2,0.3 C9.3,0.3 9.4,0.3 9.5,0.4 C9.6,0.4 9.7,0.5 9.8,0.5 C9.9,0.5 10,0.6 10.1,0.6 C10.2,0.6 10.3,0.7 10.4,0.7 C10.5,0.7 10.6,0.8 10.7,0.8 C10.8,0.8 10.9,0.9 11,0.9 C11.1,1 11.2,1 11.3,1.1 C11.4,1.1 11.5,1.2 11.5,1.2 L73,36.7 C73,36.7 73,36.7 73.1,36.7 C73.2,36.8 73.3,36.8 73.4,36.9 C73.5,37 73.6,37 73.7,37.1 L70,39.2 C70,39.1 69.9,39 69.7,39 Z M6.9,0.3 C7.1,0.2 7.2,0.2 7.4,0.2 L3.7,2.3 C3.5,2.3 3.3,2.4 3.2,2.4 L4.9,1.4 L3.2,2.4 C3,2.5 2.8,2.6 2.6,2.7 L6.3,0.6 C6.5,0.4 6.7,0.3 6.9,0.3 Z M79.7,123.2 C79.6,123.4 79.5,123.6 79.4,123.7 L75.7,125.8 C75.8,125.6 75.9,125.5 76,125.3 L78.3,124 L76,125.3 C76.1,125.2 76.1,125 76.2,124.9 C76.2,124.8 76.3,124.6 76.3,124.5 L79.3,122.7 L76.3,124.5 C76.3,124.4 76.4,124.3 76.4,124.1 C76.4,124 76.5,123.9 76.5,123.7 L77.2,123.3 L76.5,123.7 C76.5,123.6 76.5,123.5 76.6,123.3 C76.6,123.2 76.6,123.1 76.6,122.9 L78.4,121.8 L76.6,122.9 C76.6,122.8 76.6,122.7 76.6,122.6 C76.6,122.5 76.6,122.4 76.6,122.2 L80.3,120.1 L76.6,122.2 L80.3,120.1 C80.3,120.2 80.3,120.3 80.3,120.5 C80.3,120.6 80.3,120.7 80.3,120.8 C80.3,120.9 80.3,121 80.3,121.2 C80.3,121.3 80.3,121.4 80.2,121.6 C80.2,121.7 80.2,121.8 80.1,122 C80.1,122.1 80,122.3 80,122.4 C80,122.5 79.9,122.7 79.9,122.8 C79.8,122.9 79.8,123 79.7,123.2 Z M75.7,125.8 L79.4,123.7 C79.1,124.2 78.6,124.7 78.1,125 L74.4,127.1 C74.9,126.8 75.4,126.4 75.7,125.8 Z" id="Combined-Shape_12_" fill="url(#linearGradient-7)" fill-rule="nonzero"></path>
                            <path d="M69.4,38.7 C73.5,41.1 76.9,46.9 76.8,51.6 L76.6,122.3 C76.6,127 73.2,128.9 69.1,126.6 L7.6,91.1 C3.5,88.7 0.1,82.9 0.2,78.2 L0.4,7.5 C0.4,2.8 3.8,0.9 7.9,3.2 L69.4,38.7 Z" id="Fill-479" fill="url(#linearGradient-8)"></path>
                            <g id="ic_bspass" transform="translate(14.677792, 35.800970)" fill="#2D61F4">
                                <path d="M22.6,53.6 C34.2,60.3 43.6,54.9 43.7,41.6 C43.7,28.3 34.4,12 22.8,5.3 C11.2,-1.4 1.8,4 1.7,17.3 C1.7,30.6 11,46.9 22.6,53.6 M22.8,3.8 C35.1,10.9 45.1,28.2 45,42.3 C45,56.4 34.9,62.2 22.6,55.1 C10.3,48 0.3,30.7 0.4,16.6 C0.4,2.4 10.5,-3.3 22.8,3.8" id="Fill-1_12_" fill-rule="nonzero"></path>
                                <path d="M40.8,24 C41.7,24.5 42.4,25.8 42.4,26.8 C42.4,27.8 41.7,28.2 40.8,27.7 C39.9,27.2 39.2,25.9 39.2,24.9 C39.2,23.9 39.9,23.5 40.8,24" id="Fill-4_8_"></path>
                                <path d="M40.8,27.7 C41.7,28.2 42.4,27.8 42.4,26.8 C42.4,25.8 41.7,24.5 40.8,24 C39.9,23.5 39.2,23.9 39.2,24.9 C39.2,26 39.9,27.2 40.8,27.7 M40.8,22.5 C42.4,23.4 43.7,25.7 43.7,27.5 C43.7,29.3 42.4,30.1 40.8,29.2 C39.2,28.3 37.9,26 37.9,24.2 C37.9,22.4 39.2,21.6 40.8,22.5" id="Fill-6_5_" fill-rule="nonzero"></path>
                                <path d="M13.1,24.5 C13.5,24.7 13.7,25.2 13.7,25.6 C13.7,26 13.4,26.2 13,26 L7.5,22.8 C7.1,22.6 6.9,22.1 6.9,21.7 C6.9,21.3 7.2,21.1 7.6,21.3 L13.1,24.5 Z" id="Fill-39"></path>
                                <path d="M21.3,29.3 C21.7,29.5 21.9,30 21.9,30.4 C21.9,30.8 21.6,31 21.2,30.8 L15.7,27.6 C15.3,27.4 15.1,26.9 15.1,26.5 C15.1,26.1 15.4,25.9 15.8,26.1 L21.3,29.3 Z" id="Fill-41"></path>
                                <path d="M29.5,34 C29.9,34.2 30.2,34.7 30.2,35.1 C30.2,35.5 29.9,35.7 29.5,35.5 L24,32.3 C23.6,32.1 23.4,31.6 23.4,31.2 C23.4,30.8 23.7,30.6 24.1,30.8 L29.5,34 Z" id="Fill-43_2_"></path>
                                <path d="M37.8,38.8 C38.2,39 38.4,39.5 38.4,39.9 C38.4,40.3 38.1,40.5 37.7,40.3 L32.2,37.1 C31.8,36.9 31.6,36.4 31.6,36 C31.6,35.6 31.9,35.4 32.3,35.6 L37.8,38.8 Z" id="Fill-45"></path>
                            </g>
                        </g>
                        <g id="圆形扩散" transform="translate(138.240000, 171.840000)" fill="#FFFFFF">
                            <path d="M41.7,101.1 C63.9,114 82,103.6 82.1,78 C82.2,52.4 64.2,21 42,8.1 C19.8,-4.8 1.7,5.6 1.6,31.2 C1.5,56.9 19.5,88.3 41.7,101.1 M42,6.3 C65.1,19.7 83.8,52.3 83.7,78.9 C83.6,105.6 64.8,116.3 41.8,102.9 C18.7,89.5 -1.38777878e-17,56.9 0.1,30.3 C0.1,3.7 18.9,-7.1 42,6.3" id="Fill-1_13_" fill-opacity="0.2" fill-rule="nonzero"></path>
                            <path d="M41.7,88.7 C57.9,98.1 71.2,90.5 71.2,71.8 C71.3,53 58.1,30.1 41.9,20.7 C25.7,11.3 12.4,18.9 12.4,37.6 C12.3,56.3 25.5,79.2 41.7,88.7 M41.9,19.3 C58.8,29.1 72.4,52.9 72.4,72.4 C72.3,91.9 58.6,99.8 41.7,90 C24.8,80.2 11.2,56.4 11.2,36.9 C11.3,17.4 25.1,9.5 41.9,19.3" id="Fill-1_14_" fill-opacity="0.4" fill-rule="nonzero"></path>
                            <path d="M41.8,75.7 C51.9,81.5 60.1,76.8 60.1,65.2 C60.1,53.6 52,39.4 41.9,33.5 C31.8,27.7 23.6,32.4 23.6,44 C23.5,55.7 31.7,69.9 41.8,75.7 M41.9,32.2 C52.6,38.4 61.3,53.5 61.2,65.9 C61.2,78.3 52.4,83.3 41.7,77.1 C31,70.9 22.3,55.7 22.3,43.4 C22.4,31 31.2,26 41.9,32.2" id="Fill-4_9_" fill-opacity="0.6" fill-rule="nonzero"></path>
                            <path d="M41.8,47.1 C45.4,49.2 48.3,54.3 48.3,58.5 C48.3,62.7 45.3,64.4 41.7,62.3 C38.1,60.2 35.2,55.1 35.2,50.9 C35.3,46.7 38.2,45 41.8,47.1" id="Fill-8_3_"></path>
                        </g>
                        <polyline id="Stroke-607" stroke="#4A7DFD" stroke-width="2" points="33.6 106.6 33.6 142.9 137.3 202.6"></polyline>
                        <polyline id="Stroke-608" stroke="#FFFFFF" stroke-width="2" points="180.5 275.5 180.5 364.3 202.6 377.3"></polyline>
                    </g>
                    <g id="keyboard" transform="translate(65.320000, 293.760000)">
                        <g id="Group-9_2_">
                            <g id="Group-3_3_" fill="url(#linearGradient-9)">
                                <polygon id="Fill-1_15_" points="231.5 96.4 166.5 134.1 0 38 65 0.2"></polygon>
                            </g>
                            <g id="Group-6_2_" transform="translate(165.842167, 95.714622)" fill="url(#linearGradient-10)">
                                <polygon id="Fill-4_10_" points="65.7 0.7 65.7 3 0.7 40.8 0.7 38.4"></polygon>
                            </g>
                            <polygon id="Fill-7_5_" fill="url(#linearGradient-11)" points="166.5 134.1 166.5 136.5 0 40.3 0 38"></polygon>
                        </g>
                        <g id="Group-16" transform="translate(54.720000, 5.760000)">
                            <polygon id="Fill-10_5_" fill="url(#linearGradient-12)" points="20.5 6.6 10.5 12.7 0.3 6.6 10.4 0.5"></polygon>
                            <polygon id="Fill-12_3_" fill="#C9E2FF" points="20.5 6.6 20.5 8.2 10.5 14.3 10.5 12.7"></polygon>
                            <polygon id="Fill-14_2_" fill="#3C6BF0" points="10.5 12.7 10.5 14.3 0.3 8.2 0.3 6.6"></polygon>
                        </g>
                        <g id="Group-23" transform="translate(67.200000, 12.480000)">
                            <polygon id="Fill-17_3_" fill="url(#linearGradient-13)" points="20.5 6.3 10.4 12.4 0.3 6.3 10.4 0.2"></polygon>
                            <polygon id="Fill-19_5_" fill="#C9E2FF" points="20.5 6.3 20.5 7.9 10.4 14 10.4 12.4"></polygon>
                            <polygon id="Fill-21_3_" fill="#3C6BF0" points="10.4 12.4 10.4 14 0.3 7.9 0.3 6.3"></polygon>
                        </g>
                        <g id="Group-30_2_" transform="translate(80.640000, 20.160000)">
                            <polygon id="Fill-24" fill="url(#linearGradient-14)" points="20.5 6.7 10.4 12.7 0.3 6.7 10.4 0.6"></polygon>
                            <polygon id="Fill-26" fill="#C9E2FF" points="20.5 6.7 20.5 8.2 10.4 14.3 10.4 12.7"></polygon>
                            <polygon id="Fill-28_3_" fill="#3C6BF0" points="10.4 12.7 10.4 14.3 0.3 8.2 0.3 6.7"></polygon>
                        </g>
                        <g id="Group-37" transform="translate(94.080000, 27.840000)">
                            <polygon id="Fill-31_3_" fill="url(#linearGradient-15)" points="21 6.6 10.6 12.7 0 6.6 10.5 0.6"></polygon>
                            <polygon id="Fill-33_1_" fill="#C9E2FF" points="21 6.6 21 8.2 10.6 14.3 10.6 12.7"></polygon>
                            <polygon id="Fill-35_1_" fill="#3C6BF0" points="10.6 12.7 10.6 14.3 0 8.2 0 6.6"></polygon>
                        </g>
                        <g id="Group-44" transform="translate(107.520000, 35.520000)">
                            <polygon id="Fill-38" fill="url(#linearGradient-16)" points="21.1 6.9 10.7 13 0.1 6.9 10.6 0.8"></polygon>
                            <polygon id="Fill-40_2_" fill="#C9E2FF" points="21.1 6.9 21.1 8.5 10.7 14.6 10.7 13"></polygon>
                            <polygon id="Fill-42" fill="#3C6BF0" points="10.7 13 10.7 14.6 0.1 8.5 0.1 6.9"></polygon>
                        </g>
                        <g id="Group-51" transform="translate(120.000000, 43.200000)">
                            <polygon id="Fill-45_1_" fill="url(#linearGradient-17)" points="20.9 6.9 10.9 13 0.8 6.9 10.8 0.7"></polygon>
                            <polygon id="Fill-47_2_" fill="#C9E2FF" points="20.9 6.9 20.9 8.5 10.9 14.6 10.9 13"></polygon>
                            <polygon id="Fill-49" fill="#3C6BF0" points="10.9 13 10.9 14.6 0.8 8.5 0.8 6.9"></polygon>
                        </g>
                        <g id="Group-58_1_" transform="translate(133.440000, 50.880000)">
                            <polygon id="Fill-52" fill="url(#linearGradient-18)" points="21.1 7 10.7 13.1 0.1 7 10.6 0.9"></polygon>
                            <polygon id="Fill-54" fill="#C9E2FF" points="21.1 7 21.1 8.6 10.7 14.7 10.7 13.1"></polygon>
                            <polygon id="Fill-56_2_" fill="#3C6BF0" points="10.7 13.1 10.7 14.7 0.1 8.6 0.1 7"></polygon>
                        </g>
                        <g id="Group-65" transform="translate(146.880000, 58.560000)">
                            <polygon id="Fill-59_2_" fill="url(#linearGradient-19)" points="21 6.6 10.5 12.7 0 6.6 10.5 0.5"></polygon>
                            <polygon id="Fill-61" fill="#C9E2FF" points="21 6.6 21 8.2 10.5 14.3 10.5 12.7"></polygon>
                            <polygon id="Fill-63" fill="#3C6BF0" points="10.5 12.7 10.5 14.3 0 8.2 0 6.6"></polygon>
                        </g>
                        <g id="Group-72" transform="translate(159.360000, 66.240000)">
                            <polygon id="Fill-66" fill="url(#linearGradient-20)" points="20.9 6.8 10.9 13 0.8 6.8 10.8 0.7"></polygon>
                            <polygon id="Fill-68_5_" fill="#C9E2FF" points="20.9 6.8 20.9 8.4 10.9 14.5 10.9 13"></polygon>
                            <polygon id="Fill-70" fill="#3C6BF0" points="10.9 13 10.9 14.5 0.8 8.4 0.8 6.8"></polygon>
                        </g>
                        <g id="Group-79_1_" transform="translate(173.760000, 72.960000)">
                            <polygon id="Fill-73" fill="url(#linearGradient-21)" points="21 6.8 10.6 12.9 0.1 6.8 10.5 0.7"></polygon>
                            <polygon id="Fill-75" fill="#C9E2FF" points="21 6.8 21 8.4 10.6 14.5 10.6 12.9"></polygon>
                            <polygon id="Fill-77_1_" fill="#3C6BF0" points="10.6 12.9 10.6 14.5 0.1 8.4 0.1 6.8"></polygon>
                        </g>
                        <g id="Group-86" transform="translate(187.200000, 80.640000)">
                            <polygon id="Fill-80" fill="url(#linearGradient-22)" points="21 6.7 10.5 12.8 0 6.7 10.5 0.6"></polygon>
                            <polygon id="Fill-82" fill="#C9E2FF" points="21 6.7 21 8.3 10.5 14.4 10.5 12.8"></polygon>
                            <polygon id="Fill-84_1_" fill="#3C6BF0" points="10.5 12.8 10.5 14.4 0 8.3 0 6.7"></polygon>
                        </g>
                        <g id="Group-93" transform="translate(199.680000, 88.320000)">
                            <polygon id="Fill-87_5_" fill="url(#linearGradient-23)" points="21 6.7 10.5 12.8 0 6.7 10.5 0.6"></polygon>
                            <polygon id="Fill-89" fill="#C9E2FF" points="21 6.7 21 8.3 10.5 14.4 10.5 12.8"></polygon>
                            <polygon id="Fill-91" fill="#3C6BF0" points="10.5 12.8 10.5 14.4 0 8.3 0 6.7"></polygon>
                        </g>
                        <g id="Group-100" transform="translate(40.320000, 12.480000)">
                            <polygon id="Fill-94" fill="url(#linearGradient-24)" points="20.9 6.7 10.8 12.8 0.7 6.7 10.8 0.6"></polygon>
                            <polygon id="Fill-96_1_" fill="#C9E2FF" points="20.9 6.7 20.9 8.3 10.8 14.3 10.8 12.8"></polygon>
                            <polygon id="Fill-98" fill="#3C6BF0" points="10.8 12.8 10.8 14.3 0.7 8.3 0.7 6.7"></polygon>
                        </g>
                        <g id="Group-107" transform="translate(53.760000, 20.160000)">
                            <polygon id="Fill-101" fill="url(#linearGradient-25)" points="20.9 6.4 10.8 12.5 0.7 6.4 10.8 0.3"></polygon>
                            <polygon id="Fill-103" fill="#C9E2FF" points="20.9 6.4 20.9 7.9 10.8 14 10.8 12.5"></polygon>
                            <polygon id="Fill-105_2_" fill="#3C6BF0" points="10.8 12.5 10.8 14 0.7 7.9 0.7 6.4"></polygon>
                        </g>
                        <g id="Group-114_1_" transform="translate(66.240000, 27.840000)">
                            <polygon id="Fill-108_1_" fill="url(#linearGradient-26)" points="20.9 6.7 10.8 12.8 0.7 6.7 10.8 0.6"></polygon>
                            <polygon id="Fill-110" fill="#C9E2FF" points="20.9 6.7 20.9 8.3 10.8 14.4 10.8 12.8"></polygon>
                            <polygon id="Fill-112_1_" fill="#3C6BF0" points="10.8 12.8 10.8 14.4 0.7 8.3 0.7 6.7"></polygon>
                        </g>
                        <g id="Group-121" transform="translate(79.680000, 35.520000)">
                            <polygon id="Fill-115_1_" fill="url(#linearGradient-27)" points="20.6 6.7 10.5 12.8 0.4 6.7 10.5 0.6"></polygon>
                            <polygon id="Fill-117" fill="#C9E2FF" points="20.6 6.7 20.6 8.3 10.5 14.4 10.5 12.8"></polygon>
                            <polygon id="Fill-119" fill="#3C6BF0" points="10.5 12.8 10.5 14.4 0.4 8.3 0.4 6.7"></polygon>
                        </g>
                        <g id="Group-128" transform="translate(93.120000, 43.200000)">
                            <polygon id="Fill-122" fill="url(#linearGradient-28)" points="20.7 7 10.6 13.1 0.5 7 10.6 0.8"></polygon>
                            <polygon id="Fill-124_1_" fill="#C9E2FF" points="20.7 7 20.7 8.6 10.6 14.7 10.6 13.1"></polygon>
                            <polygon id="Fill-126" fill="#3C6BF0" points="10.6 13.1 10.6 14.7 0.5 8.5 0.5 7"></polygon>
                        </g>
                        <g id="Group-135_1_" transform="translate(106.560000, 50.880000)">
                            <polygon id="Fill-129" fill="url(#linearGradient-29)" points="20.4 6.9 10.3 13.1 0.2 7 10.3 0.8"></polygon>
                            <polygon id="Fill-131" fill="#C9E2FF" points="20.4 6.9 20.4 8.5 10.3 14.7 10.3 13.1"></polygon>
                            <polygon id="Fill-133_1_" fill="#3C6BF0" points="10.3 13.1 10.3 14.7 0.2 8.5 0.2 7"></polygon>
                        </g>
                        <g id="Group-142" transform="translate(120.000000, 59.520000)">
                            <polygon id="Fill-136" fill="url(#linearGradient-30)" points="20.7 6.2 10.6 12.2 0.5 6.2 10.6 0.1"></polygon>
                            <polygon id="Fill-138" fill="#C9E2FF" points="20.7 6.2 20.7 7.7 10.6 13.8 10.6 12.2"></polygon>
                            <polygon id="Fill-140_1_" fill="#3C6BF0" points="10.6 12.2 10.6 13.8 0.5 7.7 0.5 6.2"></polygon>
                        </g>
                        <g id="Group-149" transform="translate(133.440000, 66.240000)">
                            <polygon id="Fill-143_1_" fill="url(#linearGradient-31)" points="20.6 6.7 10.5 12.8 0.4 6.7 10.5 0.6"></polygon>
                            <polygon id="Fill-145" fill="#C9E2FF" points="20.6 6.7 20.6 8.3 10.5 14.4 10.5 12.8"></polygon>
                            <polygon id="Fill-147" fill="#3C6BF0" points="10.5 12.8 10.5 14.4 0.4 8.3 0.4 6.7"></polygon>
                        </g>
                        <g id="Group-156" transform="translate(146.880000, 72.960000)">
                            <polygon id="Fill-150" fill="url(#linearGradient-32)" points="20.4 6.9 10.3 13 0.2 6.9 10.3 0.8"></polygon>
                            <polygon id="Fill-152_1_" fill="#C9E2FF" points="20.4 6.9 20.4 8.5 10.3 14.6 10.3 13"></polygon>
                            <polygon id="Fill-154" fill="#3C6BF0" points="10.3 13 10.3 14.6 0.2 8.5 0.2 6.9"></polygon>
                        </g>
                        <g id="Group-163" transform="translate(159.360000, 80.640000)">
                            <polygon id="Fill-157" fill="url(#linearGradient-33)" points="20.6 6.9 10.6 13 0.5 6.9 10.5 0.8"></polygon>
                            <polygon id="Fill-159" fill="#C9E2FF" points="20.6 6.9 20.6 8.5 10.6 14.6 10.6 13"></polygon>
                            <polygon id="Fill-161_1_" fill="#3C6BF0" points="10.6 13 10.6 14.6 0.5 8.5 0.5 6.9"></polygon>
                        </g>
                        <g id="Group-170" transform="translate(172.800000, 88.320000)">
                            <polygon id="Fill-164_1_" fill="url(#linearGradient-34)" points="20.6 6.8 10.5 13 0.4 6.8 10.5 0.7"></polygon>
                            <polygon id="Fill-166" fill="#C9E2FF" points="20.6 6.8 20.6 8.4 10.5 14.6 10.5 13"></polygon>
                            <polygon id="Fill-168" fill="#3C6BF0" points="10.5 13 10.5 14.6 0.4 8.4 0.4 6.8"></polygon>
                        </g>
                        <g id="Group-177" transform="translate(186.240000, 96.000000)">
                            <polygon id="Fill-171" fill="url(#linearGradient-35)" points="20.4 6.8 10.4 13 0.3 6.8 10.3 0.7"></polygon>
                            <polygon id="Fill-173_1_" fill="#C9E2FF" points="20.4 6.8 20.4 8.4 10.4 14.5 10.4 13"></polygon>
                            <polygon id="Fill-175" fill="#3C6BF0" points="10.4 13 10.4 14.5 0.3 8.4 0.3 6.8"></polygon>
                        </g>
                        <g id="Group-184" transform="translate(26.880000, 21.120000)">
                            <polygon id="Fill-178" fill="url(#linearGradient-36)" points="20.5 6.2 10.4 12.3 0.3 6.2 10.4 0.2"></polygon>
                            <polygon id="Fill-180" fill="#C9E2FF" points="20.5 6.2 20.5 7.8 10.4 13.9 10.4 12.3"></polygon>
                            <polygon id="Fill-182_1_" fill="#3C6BF0" points="10.4 12.3 10.4 13.9 0.3 7.8 0.3 6.2"></polygon>
                        </g>
                        <g id="Group-191" transform="translate(40.320000, 27.840000)">
                            <polygon id="Fill-185_1_" fill="url(#linearGradient-37)" points="20.5 6.9 10.4 13.1 0.3 6.9 10.3 0.8"></polygon>
                            <polygon id="Fill-187" fill="#C9E2FF" points="20.5 6.9 20.4 8.5 10.4 14.7 10.4 13.1"></polygon>
                            <polygon id="Fill-189" fill="#3C6BF0" points="10.4 13.1 10.4 14.7 0.3 8.5 0.3 6.9"></polygon>
                        </g>
                        <g id="Group-198" transform="translate(53.760000, 36.480000)">
                            <polygon id="Fill-192" fill="url(#linearGradient-38)" points="20.5 6.3 10.4 12.4 0.3 6.3 10.3 0.2"></polygon>
                            <polygon id="Fill-194_1_" fill="#C9E2FF" points="20.5 6.3 20.5 7.9 10.4 14 10.4 12.4"></polygon>
                            <polygon id="Fill-196" fill="#3C6BF0" points="10.4 12.4 10.4 14 0.3 7.9 0.3 6.3"></polygon>
                        </g>
                        <g id="Group-205" transform="translate(66.240000, 44.160000)">
                            <polygon id="Fill-199" fill="url(#linearGradient-39)" points="21 6.3 10.5 12.4 0 6.3 10.5 0.2"></polygon>
                            <polygon id="Fill-201" fill="#C9E2FF" points="21 6.3 21 7.9 10.5 14 10.5 12.4"></polygon>
                            <polygon id="Fill-203_1_" fill="#3C6BF0" points="10.5 12.4 10.5 14 0 7.9 0 6.3"></polygon>
                        </g>
                        <g id="Group-212" transform="translate(79.680000, 51.840000)">
                            <polygon id="Fill-206_1_" fill="url(#linearGradient-40)" points="21.1 6.5 10.6 12.6 0.1 6.5 10.5 0.4"></polygon>
                            <polygon id="Fill-208" fill="#C9E2FF" points="21.1 6.5 21.1 8 10.6 14.1 10.6 12.6"></polygon>
                            <polygon id="Fill-210" fill="#3C6BF0" points="10.6 12.6 10.6 14.1 0.1 8 0.1 6.5"></polygon>
                        </g>
                        <g id="Group-219" transform="translate(92.160000, 59.520000)">
                            <polygon id="Fill-213" fill="url(#linearGradient-41)" points="20.9 6.5 10.9 12.5 0.7 6.5 10.8 0.4"></polygon>
                            <polygon id="Fill-215_1_" fill="#C9E2FF" points="20.9 6.5 20.9 8 10.8 14.1 10.9 12.5"></polygon>
                            <polygon id="Fill-217" fill="#3C6BF0" points="10.9 12.5 10.8 14.1 0.7 8 0.7 6.5"></polygon>
                        </g>
                        <g id="Group-226" transform="translate(106.560000, 67.200000)">
                            <polygon id="Fill-220" fill="url(#linearGradient-42)" points="21.1 6.6 10.6 12.6 0.1 6.6 10.6 0.5"></polygon>
                            <polygon id="Fill-222_1_" fill="#C9E2FF" points="21.1 6.6 21.1 8.1 10.6 14.2 10.6 12.6"></polygon>
                            <polygon id="Fill-224" fill="#3C6BF0" points="10.6 12.6 10.6 14.2 0.1 8.1 0.1 6.6"></polygon>
                        </g>
                        <g id="Group-233_1_" transform="translate(119.040000, 74.880000)">
                            <polygon id="Fill-227" fill="url(#linearGradient-43)" points="21.1 6.3 10.6 12.3 0.1 6.2 10.6 0.2"></polygon>
                            <polygon id="Fill-229" fill="#C9E2FF" points="21.1 6.3 21.1 7.8 10.6 13.9 10.6 12.3"></polygon>
                            <polygon id="Fill-231_1_" fill="#3C6BF0" points="10.6 12.3 10.6 13.9 0.1 7.8 0.1 6.2"></polygon>
                        </g>
                        <g id="Group-240" transform="translate(132.480000, 81.600000)">
                            <polygon id="Fill-234_1_" fill="url(#linearGradient-44)" points="20.9 6.4 10.8 12.5 0.7 6.4 10.8 0.3"></polygon>
                            <polygon id="Fill-236" fill="#C9E2FF" points="20.9 6.4 20.9 8 10.8 14.1 10.8 12.5"></polygon>
                            <polygon id="Fill-238" fill="#3C6BF0" points="10.8 12.5 10.8 14.1 0.7 8 0.7 6.4"></polygon>
                        </g>
                        <g id="Group-247" transform="translate(145.920000, 89.280000)">
                            <polygon id="Fill-241" fill="url(#linearGradient-45)" points="21 6.4 10.6 12.5 0 6.4 10.5 0.3"></polygon>
                            <polygon id="Fill-243_1_" fill="#C9E2FF" points="21 6.4 21 8 10.6 14.1 10.6 12.5"></polygon>
                            <polygon id="Fill-245" fill="#3C6BF0" points="10.6 12.5 10.6 14.1 0 8 0 6.4"></polygon>
                        </g>
                        <g id="Group-254_1_" transform="translate(159.360000, 96.960000)">
                            <polygon id="Fill-248" fill="url(#linearGradient-46)" points="21.1 6.3 10.6 12.4 0.1 6.3 10.6 0.3"></polygon>
                            <polygon id="Fill-250" fill="#C9E2FF" points="21.1 6.3 21.1 7.9 10.6 14 10.6 12.4"></polygon>
                            <polygon id="Fill-252_1_" fill="#3C6BF0" points="10.6 12.4 10.6 14 0.1 7.9 0.1 6.3"></polygon>
                        </g>
                        <g id="Group-261" transform="translate(171.840000, 104.640000)">
                            <polygon id="Fill-255_1_" fill="url(#linearGradient-47)" points="21 6.3 10.9 12.4 0.8 6.3 10.8 0.2"></polygon>
                            <polygon id="Fill-257" fill="#C9E2FF" points="21 6.3 20.9 7.9 10.9 14 10.9 12.4"></polygon>
                            <polygon id="Fill-259" fill="#3C6BF0" points="10.9 12.4 10.9 14 0.8 7.9 0.8 6.3"></polygon>
                        </g>
                        <g id="Group-268" transform="translate(13.440000, 28.800000)">
                            <polygon id="Fill-262" fill="url(#linearGradient-48)" points="21 6.4 10.6 12.5 0 6.4 10.5 0.4"></polygon>
                            <polygon id="Fill-264_1_" fill="#C9E2FF" points="21 6.4 21 8 10.5 14.1 10.6 12.5"></polygon>
                            <polygon id="Fill-266" fill="#3C6BF0" points="10.6 12.5 10.5 14.1 0 8 0 6.4"></polygon>
                        </g>
                        <g id="Group-275" transform="translate(25.920000, 36.480000)">
                            <polygon id="Fill-269" fill="url(#linearGradient-49)" points="21 6.1 10.5 12.2 0 6.1 10.5 0"></polygon>
                            <polygon id="Fill-271_1_" fill="#C9E2FF" points="21 6.1 21 7.7 10.5 13.8 10.5 12.2"></polygon>
                            <polygon id="Fill-273" fill="#3C6BF0" points="10.5 12.2 10.5 13.8 0 7.7 0 6.1"></polygon>
                        </g>
                        <g id="Group-282" transform="translate(39.360000, 44.160000)">
                            <polygon id="Fill-276" fill="url(#linearGradient-50)" points="21 6.5 10.5 12.6 0 6.5 10.5 0.4"></polygon>
                            <polygon id="Fill-278" fill="#C9E2FF" points="21 6.5 21 8.1 10.5 14.2 10.5 12.6"></polygon>
                            <polygon id="Fill-280_1_" fill="#3C6BF0" points="10.5 12.6 10.5 14.2 0 8.1 0 6.5"></polygon>
                        </g>
                        <g id="Group-289" transform="translate(51.840000, 51.840000)">
                            <polygon id="Fill-283_1_" fill="url(#linearGradient-51)" points="88.3 44.7 78 50.7 0.7 6.5 11 0.5"></polygon>
                            <polygon id="Fill-285" fill="#C9E2FF" points="88.3 44.7 88.3 46.3 78 52.2 78 50.7"></polygon>
                            <polygon id="Fill-287" fill="#3C6BF0" points="78 50.7 78 52.2 0.7 8 0.7 6.5"></polygon>
                        </g>
                        <g id="Group-296" transform="translate(132.480000, 96.960000)">
                            <polygon id="Fill-290" fill="url(#linearGradient-52)" points="20.7 6.6 10.7 12.7 0.6 6.6 10.6 0.5"></polygon>
                            <polygon id="Fill-292_1_" fill="#C9E2FF" points="20.7 6.6 20.7 8.2 10.7 14.3 10.7 12.7"></polygon>
                            <polygon id="Fill-294" fill="#3C6BF0" points="10.7 12.7 10.7 14.3 0.6 8.2 0.6 6.6"></polygon>
                        </g>
                        <g id="Group-303" transform="translate(145.920000, 104.640000)">
                            <polygon id="Fill-297" fill="url(#linearGradient-53)" points="20.7 6.5 10.6 12.6 0.5 6.5 10.6 0.5"></polygon>
                            <polygon id="Fill-299" fill="#C9E2FF" points="20.7 6.5 20.7 8.1 10.6 14.2 10.6 12.6"></polygon>
                            <polygon id="Fill-301_1_" fill="#3C6BF0" points="10.6 12.6 10.6 14.2 0.5 8.1 0.5 6.5"></polygon>
                        </g>
                        <g id="Group-310" transform="translate(158.400000, 112.320000)">
                            <polygon id="Fill-304_1_" fill="url(#linearGradient-54)" points="20.6 6.5 10.5 12.6 0.4 6.5 10.4 0.5"></polygon>
                            <polygon id="Fill-306" fill="#C9E2FF" points="20.6 6.5 20.6 8.1 10.5 14.2 10.5 12.6"></polygon>
                            <polygon id="Fill-308" fill="#3C6BF0" points="10.5 12.6 10.5 14.2 0.4 8.1 0.4 6.5"></polygon>
                        </g>
                    </g>
                </g>
            </g>
            <g id="页面"></g>
        </g>
    </g>
</svg>