<?xml version="1.0" encoding="utf-8"?>
<!-- Generator: Adobe Illustrator 22.1.0, SVG Export Plug-In . SVG Version: 6.00 Build 0)  -->
<svg version="1.1" id="图层_1" xmlns="http://www.w3.org/2000/svg" xmlns:xlink="http://www.w3.org/1999/xlink" x="0px" y="0px"
	 viewBox="0 0 1848 2970" style="enable-background:new 0 0 1848 2970;" xml:space="preserve">
<style type="text/css">
	.st0{opacity:0.5;fill:#66688F;}
</style>
<title>download_bg</title>
<desc>Created with Sketch.</desc>
<g id="页面">
</g>
<path class="st0" d="M1705.1,2370.3l-621.4-358.2l-0.2-0.1l-75.7,43.7L788.2,1929l-0.2-0.1L652,2007.4l-77.6-44.9l-23.1-13.4
	l-0.3-0.1l-38.1,22l-407.9-235.8l151.1-87.3l-119.4-68.9l520.1-300.6l58.1,33.6l53.3-30.8l252.5,145.9l0.2,0.1l193.2-111.6
	l43.8,25.3l292.2-168.8l-88.6-51.2l242.2-140l0.7-0.4l-571.5-330.2L5.8,0L5.3,0.9l480.1,276.9l-153.5,88.6l-0.2,0.1v0l-153.4,89.1h0
	L24.2,544.6l-0.2,0.1v105.9h1V545.9L177.6,634l-28.1,16.2l0.5,0.9l28.1-16.2l0,15.8h1l0-15.8l28.3,16.3l0.5-0.9L179.5,634
	l152.2-88.4v105.2h1V545.6l152.5,88l-29,16.7l0.5,0.9l29.1-16.8v16.3h1v-16.2l28.7,16.6l0.5-0.9l-28.7-16.6l152.6-88.1v105.1h1
	V545.6l152.6,88.1l-28.1,16.2l0.5,0.9l28.2-16.3v15.8h1v-15.8l28.7,16.6l0.5-0.9l-29.1-16.8l152.9-88.3v105.5h1V545.2l152.6,88
	l-29.5,17l0.5,0.9l29.4-17v16.3h0h1h0v-16.3l29.5,17l570,329.3l-242.2,140l-0.7,0.4l88.6,51.2L1258,1339.6l-43.8-25.3L1021,1425.9
	L768.5,1280l-0.2-0.1l-53.3,30.8l-58.1-33.6l-521.3,301.4l-0.7,0.4l119.4,68.9l-151.1,87.3L513,1972l38.1-22l22.9,13.3l77.8,45.1
	l0.3,0.1l136-78.6l219.5,126.7l0.2,0.1l75.7-43.7l619.7,357.2l-462.3,272.6l-0.7,0.4l50.2,29l-624,360.4l0.5,0.9l624.7-360.8
	l0.8-0.4l-50.2-29l462.3-272.6L1705.1,2370.3z M178,633.1L25.5,545L178,457V633.1z M179,457l152.2,87.8L179,633.1V457z M485.8,632.8
	l-152.6-88.1l152.6-88.1V632.8z M485.3,455.8l-152.6,88.1V367.7L485.3,455.8z M639.9,367.7v176.2l-152.6-88.1L639.9,367.7z
	 M486.8,454.9V278.7l152.6,88.1L486.8,454.9z M640.9,367.7l152.6,88.1l-152.6,88.1V367.7z M485.8,454.9l-152.6-88.1l152.6-88.1
	V454.9z M486.8,632.8V456.6l152.6,88.1L486.8,632.8z M794,456.6v176.2l-152.6-88.1L794,456.6z M795,456.3l152.6,88L795,632.4V456.3z
	 M331.7,543.8l-152.2-87.8l152.2-88.4V543.8z"/>
</svg>
