<?xml version="1.0" encoding="UTF-8"?>
<svg width="16px" height="16px" viewBox="0 0 16 16" version="1.1" xmlns="http://www.w3.org/2000/svg" xmlns:xlink="http://www.w3.org/1999/xlink">
    <!-- Generator: Sketch 50 (54983) - http://www.bohemiancoding.com/sketch -->
    <title>su_icon_order</title>
    <desc>Created with Sketch.</desc>
    <defs></defs>
    <g id="Page-1" stroke="none" stroke-width="1" fill="none" fill-rule="evenodd">
        <g id="2.order" transform="translate(-929.000000, -430.000000)">
            <g id="注册内容" transform="translate(350.625000, 121.875000)">
                <g id="right" transform="translate(577.500000, 89.500000)">
                    <g id="輸入密令" transform="translate(0.000000, 188.000000)">
                        <g id="su_icon_order" transform="translate(1.875000, 31.875000)">
                            <path d="M14.1,7.04974107 C14.1,10.9438246 10.9433067,14.1 7.0502589,14.1 C3.15617539,14.1 0,10.9438246 0,7.04974107 C0,3.15617539 3.15617539,0 7.0502589,0 C10.9433067,0 14.1,3.15617539 14.1,7.04974107 Z" id="Stroke-3" stroke="#0F1E40"></path>
                            <path d="M15,7.06712002 C15,7.06712002 9.21614058,10.3452076 7.27151771,10.3452076 C5.32689484,10.3452076 3.75,9.13814955 3.75,7.06712002 C3.75,4.99609049 5.32689484,3.75 7.27151771,3.75 C9.21614058,3.75 15,7.06712002 15,7.06712002 Z" id="Stroke-7" stroke="#0F1E40" fill="#FFFFFF" stroke-linecap="round" stroke-linejoin="round"></path>
                            <path d="M11.6611227,7.78707723 C11.2732256,7.78707723 10.9579977,7.47283142 10.9579977,7.08395223 C10.9579977,6.69605506 11.2732256,6.38082723 11.6611227,6.38082723 C12.0490199,6.38082723 12.3642477,6.69605506 12.3642477,7.08395223 C12.3642477,7.47283142 12.0490199,7.78707723 11.6611227,7.78707723 Z" id="Fill-9" fill="#0F1E40"></path>
                        </g>
                    </g>
                </g>
            </g>
        </g>
    </g>
</svg>