<?xml version="1.0" encoding="utf-8"?>
<!-- Generator: Adobe Illustrator 23.0.2, SVG Export Plug-In . SVG Version: 6.00 Build 0)  -->
<svg version="1.1" id="图层_1" xmlns="http://www.w3.org/2000/svg" xmlns:xlink="http://www.w3.org/1999/xlink" x="0px" y="0px"
	 viewBox="0 0 40 25" style="enable-background:new 0 0 40 25;" xml:space="preserve">
<style type="text/css">
	.st0{fill-rule:evenodd;clip-rule:evenodd;fill:#FFFFFF;}
	.st1{fill-rule:evenodd;clip-rule:evenodd;fill:#BE0A2F;enable-background:new    ;}
	.st2{fill-rule:evenodd;clip-rule:evenodd;fill:#012B7F;enable-background:new    ;}
</style>
<rect x="0" class="st0" width="40" height="25"/>
<title>flag_us_fang</title>
<desc>Created with Sketch.</desc>
<rect y="23.1" class="st1" width="40" height="2"/>
<rect y="19.2" class="st1" width="40" height="2"/>
<rect y="15.4" class="st1" width="40" height="2"/>
<rect x="18.8" y="7.7" class="st1" width="21.2" height="2"/>
<rect x="18.8" y="11.5" class="st1" width="21.2" height="2"/>
<rect x="18.8" y="3.8" class="st1" width="21.2" height="2"/>
<rect x="18.8" y="0" class="st1" width="21.2" height="2"/>
<path class="st2" d="M0,0v13.5h18.9V0H0z M2,12.7l-0.4-0.3l-0.4,0.3l0.2-0.5l-0.4-0.3h0.5l0.2-0.5l0.2,0.5h0.5l-0.4,0.3L2,12.7z
	 M1.8,9.5L2,10L1.6,9.7L1.1,10l0.2-0.5L0.9,9.2h0.5l0.2-0.5l0.2,0.5h0.5L1.8,9.5z M1.8,6.9L2,7.4L1.6,7L1.1,7.4l0.2-0.5L0.9,6.5h0.5
	L1.6,6l0.2,0.5h0.5L1.8,6.9z M1.8,4.2L2,4.7L1.6,4.4L1.1,4.7l0.2-0.5L0.9,3.9h0.5l0.2-0.5l0.2,0.5h0.5L1.8,4.2z M1.8,1.5L2,2
	L1.6,1.7L1.1,2l0.2-0.5L0.9,1.2h0.5l0.2-0.5l0.2,0.5h0.5L1.8,1.5z M3.5,11.4l-0.4-0.3l-0.4,0.3l0.2-0.5l-0.4-0.3H3l0.2-0.5l0.2,0.5
	h0.5l-0.4,0.3L3.5,11.4z M3.4,8.2l0.2,0.5L3.1,8.4L2.7,8.7l0.2-0.5L2.4,7.9H3l0.2-0.5l0.2,0.5h0.5L3.4,8.2z M3.4,5.6l0.2,0.5
	L3.1,5.7L2.7,6.1l0.2-0.5L2.4,5.2H3l0.2-0.5l0.2,0.5h0.5L3.4,5.6z M3.4,2.9l0.2,0.5L3.1,3.1L2.7,3.4l0.2-0.5L2.4,2.6H3l0.2-0.5
	l0.2,0.5h0.5L3.4,2.9z M5.1,12.7l-0.4-0.3l-0.4,0.3l0.2-0.5L4,11.8h0.5l0.2-0.5l0.2,0.5h0.5L5,12.2L5.1,12.7z M5,9.5L5.1,10L4.7,9.7
	L4.3,10l0.2-0.5L4,9.2h0.5l0.2-0.5l0.2,0.5h0.5L5,9.5z M5,6.9l0.2,0.5L4.7,7L4.3,7.4l0.2-0.5L4,6.5h0.5L4.7,6l0.2,0.5h0.5L5,6.9z
	 M5,4.2l0.2,0.5L4.7,4.4L4.3,4.7l0.2-0.5L4,3.9h0.5l0.2-0.5l0.2,0.5h0.5L5,4.2z M5,1.5L5.1,2L4.7,1.7L4.3,2l0.2-0.5L4,1.2h0.5
	l0.2-0.5l0.2,0.5h0.5L5,1.5z M6.7,11.4l-0.4-0.3l-0.4,0.3L6,10.9l-0.4-0.3h0.5l0.2-0.5l0.2,0.5h0.5l-0.4,0.3L6.7,11.4z M6.5,8.2
	l0.2,0.5L6.3,8.4L5.8,8.7L6,8.2L5.6,7.9h0.5l0.2-0.5l0.2,0.5h0.5L6.5,8.2z M6.5,5.6l0.2,0.5L6.3,5.7L5.8,6.1L6,5.6L5.6,5.2h0.5
	l0.2-0.5l0.2,0.5h0.5L6.5,5.6z M6.5,2.9l0.2,0.5L6.3,3.1L5.8,3.4L6,2.9L5.6,2.6h0.5l0.2-0.5l0.2,0.5h0.5L6.5,2.9z M8.3,12.7
	l-0.4-0.3l-0.4,0.3l0.2-0.5l-0.4-0.3h0.5l0.2-0.5L8,11.8h0.5l-0.4,0.3L8.3,12.7z M8.1,9.5L8.3,10L7.8,9.7L7.4,10l0.2-0.5L7.2,9.2
	h0.5l0.2-0.5L8,9.2h0.5L8.1,9.5z M8.1,6.9l0.2,0.5L7.8,7L7.4,7.4l0.2-0.5L7.2,6.5h0.5L7.8,6L8,6.5h0.5L8.1,6.9z M8.1,4.2l0.2,0.5
	L7.8,4.4L7.4,4.7l0.2-0.5L7.2,3.9h0.5l0.2-0.5L8,3.9h0.5L8.1,4.2z M8.1,1.5L8.3,2L7.8,1.7L7.4,2l0.2-0.5L7.2,1.2h0.5l0.2-0.5L8,1.2
	h0.5L8.1,1.5z M9.8,11.4l-0.4-0.3L9,11.4l0.2-0.5l-0.4-0.3h0.5l0.2-0.5l0.2,0.5h0.5l-0.4,0.3L9.8,11.4z M9.7,8.2l0.2,0.5L9.4,8.4
	L9,8.7l0.2-0.5L8.7,7.9h0.5l0.2-0.5l0.2,0.5h0.5L9.7,8.2z M9.7,5.6l0.2,0.5L9.4,5.7L9,6.1l0.2-0.5L8.7,5.2h0.5l0.2-0.5l0.2,0.5h0.5
	L9.7,5.6z M9.7,2.9l0.2,0.5L9.4,3.1L9,3.4l0.2-0.5L8.7,2.6h0.5l0.2-0.5l0.2,0.5h0.5L9.7,2.9z M11.4,12.7L11,12.4l-0.4,0.3l0.2-0.5
	l-0.4-0.3h0.5l0.2-0.5l0.2,0.5h0.5l-0.4,0.3L11.4,12.7z M11.2,9.5l0.2,0.5L11,9.7L10.6,10l0.2-0.5l-0.4-0.3h0.5L11,8.7l0.2,0.5h0.5
	L11.2,9.5z M11.2,6.9l0.2,0.5L11,7l-0.4,0.3l0.2-0.5l-0.4-0.3h0.5L11,6l0.2,0.5h0.5L11.2,6.9z M11.2,4.2l0.2,0.5L11,4.4l-0.4,0.3
	l0.2-0.5l-0.4-0.3h0.5L11,3.3l0.2,0.5h0.5L11.2,4.2z M11.2,1.5L11.4,2L11,1.7L10.6,2l0.2-0.5l-0.4-0.3h0.5L11,0.7l0.2,0.5h0.5
	L11.2,1.5z M13,11.4l-0.4-0.3l-0.4,0.3l0.2-0.5l-0.4-0.3h0.5l0.2-0.5l0.2,0.5h0.5l-0.4,0.3L13,11.4z M12.8,8.2L13,8.7l-0.4-0.3
	l-0.4,0.3l0.2-0.5l-0.4-0.3h0.5l0.2-0.5l0.2,0.5h0.5L12.8,8.2z M12.8,5.6L13,6.1l-0.4-0.3l-0.4,0.3l0.2-0.5l-0.4-0.3h0.5l0.2-0.5
	l0.2,0.5h0.5L12.8,5.6z M12.8,2.9L13,3.4l-0.4-0.3l-0.4,0.3l0.2-0.5l-0.4-0.3h0.5l0.2-0.5l0.2,0.5h0.5L12.8,2.9z M14.5,12.7
	l-0.4-0.3l-0.4,0.3l0.2-0.5l-0.4-0.3H14l0.2-0.5l0.2,0.5h0.5l-0.4,0.3L14.5,12.7z M14.4,9.5l0.2,0.5l-0.4-0.3L13.7,10l0.2-0.5
	l-0.4-0.3H14l0.2-0.5l0.2,0.5h0.5L14.4,9.5z M14.4,6.9l0.2,0.5L14.1,7l-0.4,0.3l0.2-0.5l-0.4-0.3H14L14.1,6l0.2,0.5h0.5L14.4,6.9z
	 M14.4,4.2l0.2,0.5l-0.4-0.3l-0.4,0.3l0.2-0.5l-0.4-0.3H14l0.2-0.5l0.2,0.5h0.5L14.4,4.2z M14.4,1.5L14.5,2l-0.4-0.3L13.7,2l0.2-0.5
	l-0.4-0.3H14l0.2-0.5l0.2,0.5h0.5L14.4,1.5z M16.1,11.4l-0.4-0.3l-0.4,0.3l0.2-0.5L15,10.6h0.5l0.2-0.5l0.2,0.5h0.5l-0.4,0.3
	L16.1,11.4z M15.9,8.2l0.2,0.5l-0.4-0.3l-0.4,0.3l0.2-0.5L15,7.9h0.5l0.2-0.5l0.2,0.5h0.5L15.9,8.2z M15.9,5.6l0.2,0.5l-0.4-0.3
	l-0.4,0.3l0.2-0.5L15,5.2h0.5l0.2-0.5l0.2,0.5h0.5L15.9,5.6z M15.9,2.9l0.2,0.5l-0.4-0.3l-0.4,0.3l0.2-0.5L15,2.6h0.5l0.2-0.5
	l0.2,0.5h0.5L15.9,2.9z M17.7,12.7l-0.4-0.3l-0.4,0.3l0.2-0.5l-0.4-0.3h0.5l0.2-0.5l0.2,0.5h0.5l-0.4,0.3L17.7,12.7z M17.5,9.5
	l0.2,0.5l-0.4-0.3L16.8,10L17,9.5l-0.4-0.3h0.5l0.2-0.5l0.2,0.5h0.5L17.5,9.5z M17.5,6.9l0.2,0.5L17.3,7l-0.4,0.3L17,6.9l-0.4-0.3
	h0.5L17.3,6l0.2,0.5h0.5L17.5,6.9z M17.5,4.2l0.2,0.5l-0.4-0.3l-0.4,0.3L17,4.2l-0.4-0.3h0.5l0.2-0.5l0.2,0.5h0.5L17.5,4.2z
	 M17.5,1.5L17.7,2l-0.4-0.3L16.8,2L17,1.5l-0.4-0.3h0.5l0.2-0.5l0.2,0.5h0.5L17.5,1.5z"/>
</svg>
