<?xml version="1.0" encoding="utf-8"?>
<!-- Generator: Adobe Illustrator 23.0.2, SVG Export Plug-In . SVG Version: 6.00 Build 0)  -->
<svg version="1.1" id="图层_1" xmlns="http://www.w3.org/2000/svg" xmlns:xlink="http://www.w3.org/1999/xlink" x="0px" y="0px"
	 viewBox="0 0 40 25" style="enable-background:new 0 0 40 25;" xml:space="preserve">
<style type="text/css">
	.st0{fill:#E20212;enable-background:new    ;}
	.st1{fill-rule:evenodd;clip-rule:evenodd;fill:#FFFFFF;}
</style>
<rect class="st0" width="40" height="25"/>
<title>flag_hk_fang</title>
<desc>Created with Sketch.</desc>
<g>
	<g>
		<path class="st1" d="M19.6,12.7L19.6,12.7L19.6,12.7z"/>
		<path class="st1" d="M21.6,4.2c-4.8-0.4-7.1,6-2.5,8.4c-0.5-0.4-0.8-0.9-1-1.6C17.9,10,18,9,18.6,8.1l0.1,0.1
			c-0.5,0.8-0.6,1.8-0.4,2.7c0.2,0.7,0.6,1.3,1.1,1.6c-0.8-0.9-0.5-2.4,0.8-3c0.8-0.4,1.5-2,0.9-3C20.5,5.6,20.6,4.7,21.6,4.2z
			 M19.3,7.9L19,8.3l-0.1-0.6l-0.5-0.1l0.5-0.3V6.8l0.3,0.4L19.6,7l-0.2,0.5l0.4,0.4H19.3z"/>
	</g>
	<g>
		<path class="st1" d="M19.6,12.7L19.6,12.7L19.6,12.7z"/>
		<path class="st1" d="M17.4,13.5c-1-0.1-1.9-0.5-2.5-1.3l0.1-0.1c0.6,0.7,1.5,1.2,2.5,1.2c0.7,0,1.4-0.1,1.9-0.5
			c-1.1,0.5-2.5-0.3-2.6-1.7c-0.1-0.9-1.4-2.1-2.5-1.8c-1.1,0.2-1.9-0.2-2.1-1.3c-1.8,4.4,3.5,8.6,7.2,4.9
			C18.7,13.4,18.1,13.5,17.4,13.5z M14.4,12.3l-0.1-0.6l-0.6-0.1l0.5-0.3v-0.6l0.4,0.4l0.5-0.2l-0.3,0.6l0.4,0.4l-0.6-0.1L14.4,12.3
			z"/>
	</g>
	<path class="st1" d="M19.8,13.1c0.1,0.6,0.1,1.3-0.1,2c-0.4,0.9-1.1,1.7-2,2L17.7,17c0.8-0.4,1.5-1.1,1.9-2c0.2-0.6,0.3-1.3,0.1-2
		c0.1,1.3-1,2.3-2.4,2c-0.9-0.2-2.5,0.7-2.5,1.9c-0.1,1.1-0.7,1.8-1.8,1.5C16.6,21.5,22.1,17.7,19.8,13.1z M17,17.5l-0.3,0.4
		l-0.1-0.6l-0.5-0.1l0.5-0.3v-0.6l0.4,0.4l0.5-0.2L17.3,17l0.4,0.4L17,17.5z"/>
	<path class="st1" d="M20,12.6c0.6,0,1.3,0.3,1.8,0.7c0.8,0.6,1.3,1.5,1.3,2.5H23c-0.1-0.9-0.5-1.8-1.3-2.4
		c-0.6-0.4-1.2-0.7-1.8-0.7c1.2,0.3,1.8,1.7,1.1,2.9c-0.5,0.8-0.1,2.5,1,3c1,0.4,1.4,1.3,0.9,2.3C27,18.3,25.1,11.8,20,12.6z
		 M23.1,17l-0.3,0.4l-0.1-0.6l-0.5-0.1l0.5-0.3l-0.1-0.5l0.4,0.4l0.5-0.2l-0.2,0.5l0.4,0.4L23.1,17z"/>
	<path class="st1" d="M19.6,12.3c0.2-0.6,0.6-1.1,1.2-1.5c0.8-0.6,1.8-0.7,2.8-0.5v0.1c-0.9-0.2-1.9-0.1-2.7,0.5
		c-0.6,0.4-1.1,0.9-1.2,1.5c0.6-1.1,2.1-1.3,3.1-0.1c0.6,0.7,2.4,0.8,3.1-0.1c0.6-0.8,1.6-1,2.4-0.2C27.2,7.4,20.4,7.1,19.6,12.3z
		 M24.5,11l-0.3,0.4l-0.1-0.6l-0.5-0.1l0.5-0.3V9.9l0.4,0.4L25,10l-0.2,0.5l0.4,0.4L24.5,11z"/>
</g>
</svg>
