<?xml version="1.0" encoding="utf-8"?>
<!-- Generator: Adobe Illustrator 23.0.2, SVG Export Plug-In . SVG Version: 6.00 Build 0)  -->
<svg version="1.1" id="图层_1" xmlns="http://www.w3.org/2000/svg" xmlns:xlink="http://www.w3.org/1999/xlink" x="0px" y="0px"
	 viewBox="0 0 31.2 31.2" style="enable-background:new 0 0 31.2 31.2;" xml:space="preserve">
<style type="text/css">
	.st0{fill-rule:evenodd;clip-rule:evenodd;fill:#FFFFFF;}
	.st1{fill-rule:evenodd;clip-rule:evenodd;fill:#FF000A;enable-background:new    ;}
</style>
<title>flag_hk_cir</title>
<desc>Created with Sketch.</desc>
<g>
	<circle class="st0" cx="15.6" cy="15.6" r="15.6"/>
	<circle class="st1" cx="15.6" cy="15.6" r="14.2"/>
	<g>
		<g>
			<polygon class="st0" points="15.7,15.8 15.7,15.8 15.7,15.8 			"/>
			<path class="st0" d="M18.6,3.7c-6.8-0.5-10.1,8.5-3.5,11.9c-0.7-0.5-1.2-1.3-1.4-2.3c-0.4-1.3-0.2-2.8,0.6-4l0.2,0.1
				c-0.7,1.1-0.9,2.5-0.6,3.8c0.3,1,0.8,1.8,1.5,2.3c-1.2-1.3-0.7-3.4,1.1-4.3c1.2-0.5,2.2-2.8,1.3-4.2C17,5.8,17.2,4.4,18.6,3.7z
				 M15.3,9l-0.4,0.6l-0.2-0.8L14,8.7l0.7-0.4l0-0.8L15.1,8l0.7-0.3l-0.3,0.7L16,9L15.3,9z"/>
		</g>
		<g>
			<polygon class="st0" points="15.7,15.8 15.7,15.8 15.7,15.8 			"/>
			<path class="st0" d="M12.6,17c-1.4-0.1-2.7-0.7-3.6-1.8l0.1-0.1c0.9,1,2.1,1.7,3.5,1.7c1,0,2-0.2,2.7-0.7
				c-1.6,0.7-3.5-0.4-3.7-2.4c-0.2-1.3-2-3-3.6-2.5C6.5,11.5,5.3,10.9,5,9.3c-2.5,6.3,5,12.2,10.2,7C14.5,16.8,13.6,17,12.6,17z
				 M8.3,15.2l-0.1-0.8l-0.8-0.2l0.7-0.4l0-0.8l0.6,0.5l0.7-0.3L9,14.1l0.5,0.6l-0.8-0.1L8.3,15.2z"/>
		</g>
		<path class="st0" d="M16,16.4c0.2,0.8,0.2,1.8-0.1,2.8c-0.5,1.3-1.5,2.4-2.8,2.9l-0.1-0.2c1.2-0.5,2.2-1.5,2.7-2.8
			c0.3-0.9,0.4-1.9,0.1-2.8c0.2,1.8-1.4,3.2-3.4,2.8c-1.3-0.3-3.5,1-3.5,2.7c-0.1,1.5-1,2.5-2.6,2.2C11.4,28.4,19.3,22.9,16,16.4z
			 M12,22.6l-0.4,0.6l-0.2-0.8l-0.7-0.2l0.7-0.4l0-0.8l0.6,0.5l0.7-0.3l-0.3,0.7l0.5,0.6L12,22.6z"/>
		<path class="st0" d="M16.3,15.7c0.9,0,1.8,0.4,2.6,1c1.1,0.9,1.8,2.2,1.9,3.6l-0.2,0c-0.1-1.3-0.7-2.6-1.8-3.4
			c-0.8-0.6-1.7-1-2.6-1c1.7,0.4,2.6,2.4,1.6,4.1c-0.7,1.2-0.1,3.6,1.4,4.2c1.4,0.5,2,1.8,1.3,3.2C26.2,23.8,23.6,14.5,16.3,15.7z
			 M20.7,21.9l-0.4,0.6l-0.2-0.8l-0.7-0.2l0.7-0.4L20,20.4l0.6,0.5l0.7-0.3l-0.3,0.7l0.5,0.6L20.7,21.9z"/>
		<path class="st0" d="M15.7,15.2c0.3-0.8,0.9-1.5,1.7-2.1c1.2-0.8,2.6-1,4-0.7l0,0.2c-1.3-0.3-2.7-0.1-3.8,0.7
			c-0.8,0.5-1.5,1.3-1.7,2.2c0.9-1.6,3-1.8,4.4-0.2c0.9,1,3.4,1.2,4.4-0.1c0.9-1.2,2.3-1.4,3.4-0.3C26.5,8.3,16.9,7.9,15.7,15.2z
			 M22.7,13.4l-0.4,0.6l-0.2-0.8l-0.7-0.2l0.7-0.4l0-0.8l0.6,0.5l0.7-0.3l-0.3,0.7l0.5,0.6L22.7,13.4z"/>
	</g>
</g>
</svg>
