<?xml version="1.0" encoding="utf-8"?>
<!-- Generator: Adobe Illustrator 23.0.2, SVG Export Plug-In . SVG Version: 6.00 Build 0)  -->
<svg version="1.1" id="图层_1" xmlns="http://www.w3.org/2000/svg" xmlns:xlink="http://www.w3.org/1999/xlink" x="0px" y="0px"
	 viewBox="0 0 31.2 31.2" style="enable-background:new 0 0 31.2 31.2;" xml:space="preserve">
<style type="text/css">
	.st0{fill-rule:evenodd;clip-rule:evenodd;fill:#FFFFFF;}
	.st1{fill-rule:evenodd;clip-rule:evenodd;fill:#B01A3D;enable-background:new    ;}
	.st2{fill:#162D56;enable-background:new    ;}
	.st3{fill:#FFFFFF;}
</style>
<title>flag_hk_cir</title>
<desc>Created with Sketch.</desc>
<circle class="st0" cx="15.6" cy="15.6" r="15.6"/>
<g>
	<path class="st1" d="M29.7,16.7c0-0.4,0.1-0.7,0.1-1.1c0-0.4,0-0.8-0.1-1.1H16.5v-2.1h12.9c-0.2-0.8-0.4-1.5-0.7-2.2H16.5V8h11.1
		c-0.5-0.8-1.1-1.5-1.7-2.2h-9.4V3.6h6.8c-2.2-1.4-4.8-2.2-7.6-2.2C7.8,1.4,1.4,7.8,1.4,15.6c0,0.4,0,0.7,0.1,1.1H29.7z"/>
	<path class="st1" d="M28.7,21c0.3-0.7,0.5-1.4,0.7-2.2H1.8C2,19.6,2.2,20.3,2.5,21H28.7z"/>
	<g>
		<path class="st1" d="M25.9,25.4c0.6-0.7,1.2-1.4,1.7-2.2h-24c0.5,0.8,1.1,1.5,1.7,2.2H25.9z"/>
		<path class="st1" d="M7.9,27.5c2.2,1.5,4.9,2.3,7.7,2.3s5.5-0.8,7.7-2.3H7.9z"/>
	</g>
</g>
<path class="st2" d="M16.5,1.4c-0.3,0-0.6,0-0.9,0C7.8,1.4,1.4,7.8,1.4,15.6c0,0.4,0,0.7,0.1,1.1h15V1.4z"/>
<g>
	<path class="st3" d="M2.5,10.7l0.5-0.4l-0.6,0L2.2,9.7L2,10.3l-0.6,0l0.5,0.4l-0.2,0.6l0.5-0.4l0.5,0.4L2.5,10.7z"/>
	<path class="st3" d="M2.5,13.7l0.5-0.4l-0.6,0l-0.2-0.6L2,13.4l-0.6,0l0.5,0.4l-0.2,0.6L2.2,14l0.5,0.4L2.5,13.7z"/>
</g>
<g>
	<path class="st3" d="M6.1,4.6l0.5-0.4L6,4.2L5.8,3.6L5.6,4.2l-0.6,0l0.5,0.4L5.2,5.2l0.5-0.4l0.5,0.4L6.1,4.6z"/>
	<path class="st3" d="M6.1,7.6l0.5-0.4L6,7.3L5.8,6.7L5.6,7.3l-0.6,0l0.5,0.4L5.2,8.3l0.5-0.4l0.5,0.4L6.1,7.6z"/>
	<path class="st3" d="M6.1,10.7l0.5-0.4l-0.6,0L5.8,9.7l-0.2,0.6l-0.6,0l0.5,0.4l-0.2,0.6l0.5-0.4l0.5,0.4L6.1,10.7z"/>
	<path class="st3" d="M6.1,13.7l0.5-0.4l-0.6,0l-0.2-0.6l-0.2,0.6l-0.6,0l0.5,0.4l-0.2,0.6L5.8,14l0.5,0.4L6.1,13.7z"/>
</g>
<g>
	<path class="st3" d="M4.3,9.2l0.5-0.4l-0.6,0L4,8.2L3.8,8.8l-0.6,0l0.5,0.4L3.5,9.8L4,9.4l0.5,0.4L4.3,9.2z"/>
	<path class="st3" d="M4.3,12.2l0.5-0.4l-0.6,0L4,11.2l-0.2,0.6l-0.6,0l0.5,0.4l-0.2,0.6L4,12.5l0.5,0.4L4.3,12.2z"/>
	<path class="st3" d="M4.3,15.3l0.5-0.4l-0.6,0L4,14.3l-0.2,0.6l-0.6,0l0.5,0.4l-0.2,0.6L4,15.5l0.5,0.4L4.3,15.3z"/>
</g>
<g>
	<path class="st3" d="M9.7,4.6l0.5-0.4l-0.6,0L9.3,3.6L9.1,4.2l-0.6,0L9,4.6L8.8,5.2l0.5-0.4l0.5,0.4L9.7,4.6z"/>
	<path class="st3" d="M9.7,7.6l0.5-0.4l-0.6,0L9.3,6.7L9.1,7.3l-0.6,0L9,7.6L8.8,8.3l0.5-0.4l0.5,0.4L9.7,7.6z"/>
	<path class="st3" d="M9.7,10.7l0.5-0.4l-0.6,0L9.3,9.7l-0.2,0.6l-0.6,0L9,10.7l-0.2,0.6l0.5-0.4l0.5,0.4L9.7,10.7z"/>
	<path class="st3" d="M9.7,13.7l0.5-0.4l-0.6,0l-0.2-0.6l-0.2,0.6l-0.6,0L9,13.7l-0.2,0.6L9.3,14l0.5,0.4L9.7,13.7z"/>
</g>
<g>
	<path class="st3" d="M7.9,6.1l0.5-0.4l-0.6,0L7.5,5.1L7.4,5.8l-0.6,0l0.5,0.4L7,6.8l0.5-0.4l0.5,0.4L7.9,6.1z"/>
	<path class="st3" d="M7.9,9.2l0.5-0.4l-0.6,0L7.5,8.2L7.4,8.8l-0.6,0l0.5,0.4L7,9.8l0.5-0.4l0.5,0.4L7.9,9.2z"/>
	<path class="st3" d="M7.9,12.2l0.5-0.4l-0.6,0l-0.2-0.6l-0.2,0.6l-0.6,0l0.5,0.4L7,12.8l0.5-0.4l0.5,0.4L7.9,12.2z"/>
	<path class="st3" d="M7.9,15.3l0.5-0.4l-0.6,0l-0.2-0.6l-0.2,0.6l-0.6,0l0.5,0.4L7,15.9l0.5-0.4l0.5,0.4L7.9,15.3z"/>
</g>
<g>
	<path class="st3" d="M13.2,4.6l0.5-0.4l-0.6,0l-0.2-0.6l-0.2,0.6l-0.6,0l0.5,0.4l-0.2,0.6l0.5-0.4l0.5,0.4L13.2,4.6z"/>
	<path class="st3" d="M13.2,7.6l0.5-0.4l-0.6,0l-0.2-0.6l-0.2,0.6l-0.6,0l0.5,0.4l-0.2,0.6l0.5-0.4l0.5,0.4L13.2,7.6z"/>
	<path class="st3" d="M13.2,10.7l0.5-0.4l-0.6,0l-0.2-0.6l-0.2,0.6l-0.6,0l0.5,0.4l-0.2,0.6l0.5-0.4l0.5,0.4L13.2,10.7z"/>
	<path class="st3" d="M13.2,13.7l0.5-0.4l-0.6,0l-0.2-0.6l-0.2,0.6l-0.6,0l0.5,0.4l-0.2,0.6l0.5-0.4l0.5,0.4L13.2,13.7z"/>
</g>
<g>
	<path class="st3" d="M11.4,3.1l0.5-0.4l-0.6,0l-0.2-0.6l-0.2,0.6l-0.6,0l0.5,0.4l-0.2,0.6l0.5-0.4l0.5,0.4L11.4,3.1z"/>
	<path class="st3" d="M11.4,6.1l0.5-0.4l-0.6,0l-0.2-0.6l-0.2,0.6l-0.6,0l0.5,0.4l-0.2,0.6l0.5-0.4l0.5,0.4L11.4,6.1z"/>
	<path class="st3" d="M11.4,9.2l0.5-0.4l-0.6,0l-0.2-0.6l-0.2,0.6l-0.6,0l0.5,0.4l-0.2,0.6l0.5-0.4l0.5,0.4L11.4,9.2z"/>
	<path class="st3" d="M11.4,12.2l0.5-0.4l-0.6,0l-0.2-0.6l-0.2,0.6l-0.6,0l0.5,0.4l-0.2,0.6l0.5-0.4l0.5,0.4L11.4,12.2z"/>
	<path class="st3" d="M11.4,15.3l0.5-0.4l-0.6,0l-0.2-0.6l-0.2,0.6l-0.6,0l0.5,0.4l-0.2,0.6l0.5-0.4l0.5,0.4L11.4,15.3z"/>
</g>
<g>
	<path class="st3" d="M15,3.1l0.5-0.4l-0.6,0l-0.2-0.6l-0.2,0.6l-0.6,0l0.5,0.4l-0.2,0.6l0.5-0.4l0.5,0.4L15,3.1z"/>
	<path class="st3" d="M15,6.1l0.5-0.4l-0.6,0l-0.2-0.6l-0.2,0.6l-0.6,0l0.5,0.4l-0.2,0.6l0.5-0.4l0.5,0.4L15,6.1z"/>
	<path class="st3" d="M15,9.2l0.5-0.4l-0.6,0l-0.2-0.6l-0.2,0.6l-0.6,0l0.5,0.4l-0.2,0.6l0.5-0.4l0.5,0.4L15,9.2z"/>
	<path class="st3" d="M15,12.2l0.5-0.4l-0.6,0l-0.2-0.6l-0.2,0.6l-0.6,0l0.5,0.4l-0.2,0.6l0.5-0.4l0.5,0.4L15,12.2z"/>
	<path class="st3" d="M15,15.3l0.5-0.4l-0.6,0l-0.2-0.6l-0.2,0.6l-0.6,0l0.5,0.4l-0.2,0.6l0.5-0.4l0.5,0.4L15,15.3z"/>
</g>
</svg>
