<?xml version="1.0" encoding="UTF-8"?>
<svg width="1500px" height="1223px" viewBox="0 0 1500 1223" version="1.1" xmlns="http://www.w3.org/2000/svg" xmlns:xlink="http://www.w3.org/1999/xlink">
    <!-- Generator: Sketch 50 (54983) - http://www.bohemiancoding.com/sketch -->
    <title>head_pic</title>
    <desc>Created with Sketch.</desc>
    <defs>
        <linearGradient x1="0%" y1="-13.7848565%" x2="240.738117%" y2="215.606634%" id="linearGradient-1">
            <stop stop-color="#3567BA" stop-opacity="0" offset="0%"></stop>
            <stop stop-color="#2D62FD" offset="100%"></stop>
        </linearGradient>
        <linearGradient x1="113.646883%" y1="111.703636%" x2="-1.83265664%" y2="4.303916%" id="linearGradient-2">
            <stop stop-color="#4887EF" stop-opacity="0.7" offset="0%"></stop>
            <stop stop-color="#4A8BEF" stop-opacity="0" offset="100%"></stop>
        </linearGradient>
        <linearGradient x1="90.1358461%" y1="26.5245527%" x2="5.30583658%" y2="26.5245521%" id="linearGradient-3">
            <stop stop-color="#3567BA" stop-opacity="0" offset="0%"></stop>
            <stop stop-color="#2D62FD" offset="100%"></stop>
        </linearGradient>
        <linearGradient x1="71.1059928%" y1="0%" x2="71.1059928%" y2="90.3112718%" id="linearGradient-4">
            <stop stop-color="#509AEF" stop-opacity="0" offset="0%"></stop>
            <stop stop-color="#3C6AF0" offset="100%"></stop>
        </linearGradient>
        <linearGradient x1="14.1903979%" y1="50%" x2="84.7503849%" y2="26.0771012%" id="linearGradient-5">
            <stop stop-color="#509AEF" offset="0%"></stop>
            <stop stop-color="#3C6AF0" offset="100%"></stop>
        </linearGradient>
        <linearGradient x1="72.1786359%" y1="126.448791%" x2="14.9290392%" y2="27.4311867%" id="linearGradient-6">
            <stop stop-color="#3CECFF" offset="0%"></stop>
            <stop stop-color="#3665ED" offset="100%"></stop>
        </linearGradient>
        <linearGradient x1="72.1786359%" y1="126.448791%" x2="7.16610303%" y2="7.48751444%" id="linearGradient-7">
            <stop stop-color="#3CECFF" offset="0%"></stop>
            <stop stop-color="#3665ED" offset="100%"></stop>
        </linearGradient>
        <linearGradient x1="29.7224842%" y1="63.9115127%" x2="108.276441%" y2="-13.1171023%" id="linearGradient-8">
            <stop stop-color="#00FBFF" offset="0.0767702312%"></stop>
            <stop stop-color="#3665ED" stop-opacity="0.05" offset="100%"></stop>
        </linearGradient>
        <linearGradient x1="34.6745994%" y1="87.8659322%" x2="67.0656053%" y2="87.8659308%" id="linearGradient-9">
            <stop stop-color="#2539A2" offset="0%"></stop>
            <stop stop-color="#142FB5" offset="100%"></stop>
        </linearGradient>
        <linearGradient x1="-5.95496446%" y1="105.564787%" x2="93.0626396%" y2="48.3151904%" id="linearGradient-10">
            <stop stop-color="#3CB1FF" offset="0%"></stop>
            <stop stop-color="#3665ED" offset="100%"></stop>
        </linearGradient>
        <linearGradient x1="-4.86640431%" y1="0%" x2="93.070177%" y2="90.6173673%" id="linearGradient-11">
            <stop stop-color="#252E5F" offset="0%"></stop>
            <stop stop-color="#171F47" offset="100%"></stop>
        </linearGradient>
        <filter x="-12.3%" y="-21.1%" width="124.6%" height="142.2%" filterUnits="objectBoundingBox" id="filter-12">
            <feGaussianBlur stdDeviation="18.3956473" in="SourceGraphic"></feGaussianBlur>
        </filter>
        <linearGradient x1="31.9518828%" y1="84.1188332%" x2="65.1542274%" y2="30.6587156%" id="linearGradient-13">
            <stop stop-color="#509AEF" offset="0%"></stop>
            <stop stop-color="#3C6AF0" offset="100%"></stop>
        </linearGradient>
        <linearGradient x1="100%" y1="0%" x2="0%" y2="100%" id="linearGradient-14">
            <stop stop-color="#FFFDF3" offset="0%"></stop>
            <stop stop-color="#EAFDFF" offset="100%"></stop>
        </linearGradient>
        <linearGradient x1="-10.5656825%" y1="0%" x2="66.0113669%" y2="78.5282389%" id="linearGradient-15">
            <stop stop-color="#509AEF" offset="0%"></stop>
            <stop stop-color="#3F63CD" offset="100%"></stop>
        </linearGradient>
        <linearGradient x1="63.4644115%" y1="102.562247%" x2="63.4644091%" y2="0%" id="linearGradient-16">
            <stop stop-color="#4AC4FF" stop-opacity="0.7" offset="0%"></stop>
            <stop stop-color="#4A8BEF" stop-opacity="0" offset="100%"></stop>
        </linearGradient>
        <linearGradient x1="49.9998093%" y1="109.940083%" x2="49.9998093%" y2="0%" id="linearGradient-17">
            <stop stop-color="#00A0FF" stop-opacity="0.4" offset="0%"></stop>
            <stop stop-color="#75B5FF" stop-opacity="0" offset="100%"></stop>
        </linearGradient>
        <linearGradient x1="38.5802835%" y1="117.321108%" x2="38.5802842%" y2="6.91799547%" id="linearGradient-18">
            <stop stop-color="#509AEF" stop-opacity="0" offset="0%"></stop>
            <stop stop-color="#3C6AF0" offset="100%"></stop>
        </linearGradient>
        <linearGradient x1="72.1786359%" y1="126.448791%" x2="14.9290392%" y2="27.4311867%" id="linearGradient-19">
            <stop stop-color="#3CECFF" stop-opacity="0" offset="0%"></stop>
            <stop stop-color="#3665ED" stop-opacity="0.9" offset="100%"></stop>
        </linearGradient>
        <linearGradient x1="92.0360327%" y1="108.490293%" x2="92.0360332%" y2="10.8020569%" id="linearGradient-20">
            <stop stop-color="#509AEF" offset="0%"></stop>
            <stop stop-color="#3C6AF0" offset="100%"></stop>
        </linearGradient>
    </defs>
    <g id="Page-1" stroke="none" stroke-width="1" fill="none" fill-rule="evenodd">
        <g id="BTCsale首页-2" transform="translate(-314.000000, -68.000000)">
            <g id="1" transform="translate(-1.000000, 1.000000)">
                <g id="bg" transform="translate(0.000000, -1.000000)">
                    <g id="head" transform="translate(315.000000, 68.000000)">
                        <g id="head_pic">
                            <g id="bg2">
                                <polygon id="Fill-262" fill="url(#linearGradient-1)" points="384.703125 146.692047 312.257226 188.763129 58 42.0710816 130.445461 0"></polygon>
                                <polygon id="Fill-264" fill="url(#linearGradient-2)" points="307.115744 155.692047 254.257663 186.388155 0 39.6961084 52.8585189 9"></polygon>
                            </g>
                            <g id="bg1" transform="translate(970.000000, 955.000000)" fill="url(#linearGradient-3)">
                                <polygon id="Fill-254" opacity="0.7" points="573 191.463723 461.696442 256 138 69.5362768 249.303558 5"></polygon>
                                <polygon id="Path" opacity="0.5" points="464 177.355951 307.742248 268 0 90.6440487 156.257752 0"></polygon>
                            </g>
                            <g id="小长方体上" opacity="0.789397321" transform="translate(1134.000000, 465.000000)">
                                <path d="M108.6715,32.1219317 C108.578448,32.4288465 108.547077,32.4941589 108.518896,32.5600022 C108.482207,32.6438993 108.445518,32.7277965 108.400854,32.8111626 C108.233361,33.0851558 108.171682,33.1791418 108.102558,33.2720659 C108.035561,33.361273 107.966438,33.4504801 107.88987,33.5375632 C107.731949,33.7138534 107.617097,33.8243002 107.495864,33.9336851 C107.418233,34.0032454 107.332094,34.0706817 107.248082,34.138118 C107.17311,34.1981204 107.101327,34.2586538 107.021569,34.3165322 C106.930113,34.3829065 106.829618,34.4460949 106.73125,34.5103452 C106.629691,34.5761885 106.532918,34.6441558 106.423915,34.7073442 L60.7203653,61.2310533 L60.4087768,167.272233 C60.6085442,167.1728 60.7583697,167.094099 60.8582534,167.036132 C70.914714,161.199871 85.999405,152.43723 106.112326,140.748207 C106.285667,140.645194 106.348942,140.596874 106.419661,140.550677 C106.518561,140.486958 106.619056,140.423239 106.709981,140.357395 C106.790802,140.298986 106.862053,140.238453 106.936494,140.17845 C107.021038,140.111014 107.107176,140.044108 107.184808,139.974017 C107.338475,139.837021 107.433653,139.739318 107.524577,139.640553 C107.632517,139.517362 107.686752,139.456829 107.735671,139.394702 C107.860625,139.219474 107.922305,139.125488 107.981326,139.030971 C108.134461,138.76866 108.170618,138.684231 108.207839,138.600334 C108.3195,138.323686 108.338642,138.242975 108.359911,138.162264 C108.42744,137.871279 108.432757,137.78632 108.440733,137.70083 C108.453848,137.575515 108.564269,102.150327 108.771995,31.4252668 C108.710315,31.9844041 108.689046,32.0534334 108.6715,32.1219317 Z" id="Fill-207" fill="url(#linearGradient-4)"></path>
                                <path d="M106.386588,28.095984 C109.55086,29.9204813 109.571065,32.881307 106.423808,34.7073973 L60.720259,61.2311064 C57.5730022,63.0577277 52.4546556,63.0556037 49.2903837,61.2311064 L3.28481666,34.7058043 C0.120013079,32.881838 0.102998006,29.9226053 3.25025479,28.096515 L48.9538043,1.57280588 C52.1010611,-0.253815399 57.2162174,-0.253815399 60.381021,1.5706819 L106.386588,28.095984 Z" id="Fill-211" fill="url(#linearGradient-5)"></path>
                                <path d="M50.0956688,167.601424 C49.6654381,167.438925 49.2563828,167.252454 48.8746318,167.042012 L49.2006949,60.8355991 C49.5824953,61.0466011 49.9921643,61.2330928 50.4218988,61.3956069 C50.75348,61.5209118 51.0973248,61.6311882 51.4506419,61.7276154 L51.1245787,167.933496 C50.770647,167.837586 50.4273053,167.726756 50.0956685,167.601541 Z M52.3346333,61.9348027 C52.6110548,61.9896751 52.8913767,62.0360244 53.175042,62.0743833 C53.4475044,62.1112219 53.7221969,62.1405153 53.9985604,62.1623541 L53.6724972,168.368234 C53.3960403,168.346388 53.1212555,168.317615 52.8487002,168.280317 L53.0118276,115.146153 L52.8484215,168.280264 C52.5652761,168.2419 52.2843602,168.195543 52.0079032,168.140661 C51.7080753,168.081393 51.4132622,168.012132 51.1245787,167.933815 L51.4506419,61.7274022 C51.7399184,61.8062616 52.0347686,61.8755299 52.3346352,61.9346744 Z M54.8333377,62.2050873 C55.1230784,62.2120119 55.4122621,62.2109492 55.7014456,62.2013668 C56.0163615,62.1910738 56.3296051,62.171359 56.6411765,62.1415203 L56.3151134,168.347401 C56.003542,168.377239 55.6897411,168.396954 55.3753828,168.407078 L55.5381267,115.39781 L55.3751041,168.407238 C55.0864592,168.416826 54.7967002,168.417894 54.5074978,168.410973 C54.2282537,168.404734 53.9495673,168.390347 53.672553,168.368501 L53.9986161,62.1620877 C54.2755565,62.183928 54.5541682,62.1983127 54.8333372,62.2052416 Z M57.3955807,168.203536 C57.0405342,168.264812 56.6793566,168.312767 56.3153921,168.347401 L56.6414552,62.1415203 C57.0059581,62.106888 57.3665597,62.0589362 57.7215883,61.9976649 C58.2739445,61.9026511 58.8118093,61.775304 59.3257071,61.6159868 L58.9990866,167.821867 C58.4852063,167.981179 57.9473606,168.108523 57.3955812,168.203366 Z M60.8551939,167.041586 C60.2900179,167.355425 59.6646455,167.615448 58.9991424,167.821654 L59.3257628,61.6157737 C59.9907087,61.4095672 60.6166384,61.1495445 61.1818144,60.8357057 L60.8551939,167.041586 Z" id="Combined-Shape" fill="url(#linearGradient-6)"></path>
                                <path d="M3.28460397,34.7059105 C1.6926312,33.7878209 0.897176537,32.5829943 0.900898585,31.3797606 L0.589310061,137.246801 C0.586119734,138.450565 1.38104268,139.655392 2.97301544,140.57295 L48.9796459,167.098253 L49.290171,61.2312126 L3.28460397,34.7059105 Z" id="Fill-209" fill="url(#linearGradient-7)"></path>
                                <path d="M109.964228,84.8717977 L62.094467,112.683139 C58.9462324,114.511007 53.8262956,114.509413 50.6610406,112.683139 L2.10195545,84.6724808 L0.314373229,83.6108259" id="Stroke-248" stroke="url(#linearGradient-8)" stroke-width="0.5"></path>
                                <path d="M109.964228,108.258252 L62.094467,136.069593 C58.9462324,137.897462 53.8262956,137.895867 50.6610406,136.069593 L2.10195545,108.058935 L0.432036284,107.072511" id="Stroke-250" stroke="url(#linearGradient-8)" stroke-width="0.5"></path>
                            </g>
                            <g id="小长方体下" transform="translate(501.000000, 920.000000)">
                                <path d="M108.6715,32.1219317 C108.578448,32.4288465 108.547077,32.4941589 108.518896,32.5600022 C108.482207,32.6438993 108.445518,32.7277965 108.400854,32.8111626 C108.233361,33.0851558 108.171682,33.1791418 108.102558,33.2720659 C108.035561,33.361273 107.966438,33.4504801 107.88987,33.5375632 C107.731949,33.7138534 107.617097,33.8243002 107.495864,33.9336851 C107.418233,34.0032454 107.332094,34.0706817 107.248082,34.138118 C107.17311,34.1981204 107.101327,34.2586538 107.021569,34.3165322 C106.930113,34.3829065 106.829618,34.4460949 106.73125,34.5103452 C106.629691,34.5761885 106.532918,34.6441558 106.423915,34.7073442 L60.7203653,61.2310533 L60.4087768,167.272233 C60.6085442,167.1728 60.7583697,167.094099 60.8582534,167.036132 C70.914714,161.199871 85.999405,152.43723 106.112326,140.748207 C106.285667,140.645194 106.348942,140.596874 106.419661,140.550677 C106.518561,140.486958 106.619056,140.423239 106.709981,140.357395 C106.790802,140.298986 106.862053,140.238453 106.936494,140.17845 C107.021038,140.111014 107.107176,140.044108 107.184808,139.974017 C107.338475,139.837021 107.433653,139.739318 107.524577,139.640553 C107.632517,139.517362 107.686752,139.456829 107.735671,139.394702 C107.860625,139.219474 107.922305,139.125488 107.981326,139.030971 C108.134461,138.76866 108.170618,138.684231 108.207839,138.600334 C108.3195,138.323686 108.338642,138.242975 108.359911,138.162264 C108.42744,137.871279 108.432757,137.78632 108.440733,137.70083 C108.453848,137.575515 108.564269,102.150327 108.771995,31.4252668 C108.710315,31.9844041 108.689046,32.0534334 108.6715,32.1219317 Z" id="Fill-207" fill="url(#linearGradient-4)"></path>
                                <path d="M106.386588,28.095984 C109.55086,29.9204813 109.571065,32.881307 106.423808,34.7073973 L60.720259,61.2311064 C57.5730022,63.0577277 52.4546556,63.0556037 49.2903837,61.2311064 L3.28481666,34.7058043 C0.120013079,32.881838 0.102998006,29.9226053 3.25025479,28.096515 L48.9538043,1.57280588 C52.1010611,-0.253815399 57.2162174,-0.253815399 60.381021,1.5706819 L106.386588,28.095984 Z" id="Fill-211" fill="url(#linearGradient-5)"></path>
                                <path d="M50.0956688,167.601424 C49.6654381,167.438925 49.2563828,167.252454 48.8746318,167.042012 L49.2006949,60.8355991 C49.5824953,61.0466011 49.9921643,61.2330928 50.4218988,61.3956069 C50.75348,61.5209118 51.0973248,61.6311882 51.4506419,61.7276154 L51.1245787,167.933496 C50.770647,167.837586 50.4273053,167.726756 50.0956685,167.601541 Z M52.3346333,61.9348027 C52.6110548,61.9896751 52.8913767,62.0360244 53.175042,62.0743833 C53.4475044,62.1112219 53.7221969,62.1405153 53.9985604,62.1623541 L53.6724972,168.368234 C53.3960403,168.346388 53.1212555,168.317615 52.8487002,168.280317 L53.0118276,115.146153 L52.8484215,168.280264 C52.5652761,168.2419 52.2843602,168.195543 52.0079032,168.140661 C51.7080753,168.081393 51.4132622,168.012132 51.1245787,167.933815 L51.4506419,61.7274022 C51.7399184,61.8062616 52.0347686,61.8755299 52.3346352,61.9346744 Z M54.8333377,62.2050873 C55.1230784,62.2120119 55.4122621,62.2109492 55.7014456,62.2013668 C56.0163615,62.1910738 56.3296051,62.171359 56.6411765,62.1415203 L56.3151134,168.347401 C56.003542,168.377239 55.6897411,168.396954 55.3753828,168.407078 L55.5381267,115.39781 L55.3751041,168.407238 C55.0864592,168.416826 54.7967002,168.417894 54.5074978,168.410973 C54.2282537,168.404734 53.9495673,168.390347 53.672553,168.368501 L53.9986161,62.1620877 C54.2755565,62.183928 54.5541682,62.1983127 54.8333372,62.2052416 Z M57.3955807,168.203536 C57.0405342,168.264812 56.6793566,168.312767 56.3153921,168.347401 L56.6414552,62.1415203 C57.0059581,62.106888 57.3665597,62.0589362 57.7215883,61.9976649 C58.2739445,61.9026511 58.8118093,61.775304 59.3257071,61.6159868 L58.9990866,167.821867 C58.4852063,167.981179 57.9473606,168.108523 57.3955812,168.203366 Z M60.8551939,167.041586 C60.2900179,167.355425 59.6646455,167.615448 58.9991424,167.821654 L59.3257628,61.6157737 C59.9907087,61.4095672 60.6166384,61.1495445 61.1818144,60.8357057 L60.8551939,167.041586 Z" id="Combined-Shape" fill="url(#linearGradient-6)"></path>
                                <path d="M3.28460397,34.7059105 C1.6926312,33.7878209 0.897176537,32.5829943 0.900898585,31.3797606 L0.589310061,137.246801 C0.586119734,138.450565 1.38104268,139.655392 2.97301544,140.57295 L48.9796459,167.098253 L49.290171,61.2312126 L3.28460397,34.7059105 Z" id="Fill-209" fill="url(#linearGradient-7)"></path>
                                <path d="M109.964228,84.8717977 L62.094467,112.683139 C58.9462324,114.511007 53.8262956,114.509413 50.6610406,112.683139 L2.10195545,84.6724808 L0.314373229,83.6108259" id="Stroke-248" stroke="url(#linearGradient-8)" stroke-width="0.5"></path>
                                <path d="M109.964228,108.258252 L62.094467,136.069593 C58.9462324,137.897462 53.8262956,137.895867 50.6610406,136.069593 L2.10195545,108.058935 L0.432036284,107.072511" id="Stroke-250" stroke="url(#linearGradient-8)" stroke-width="0.5"></path>
                            </g>
                            <g id="主体" transform="translate(428.000000, 173.000000)">
                                <g id="平面下" opacity="0.5" transform="translate(0.000000, 300.530973)">
                                    <path d="M599.974662,175.69555 C599.964368,175.803474 599.958034,175.911399 599.937447,176.019323 C599.92161,176.107408 599.894689,176.1947 599.871726,176.281991 C599.845596,176.384361 599.82105,176.487524 599.784626,176.589099 C599.754537,176.672423 599.714946,176.755747 599.678523,176.839071 C599.631806,176.946202 599.58588,177.053332 599.529661,177.158876 C599.488487,177.235058 599.438603,177.31124 599.392677,177.386628 C599.318247,177.507249 599.239065,177.627077 599.151965,177.744524 C599.100497,177.814357 599.042695,177.883397 598.985684,177.952437 C598.854243,178.111149 598.70934,178.266687 598.552561,178.419844 C598.49555,178.4746 598.442498,178.531736 598.38232,178.586492 C598.284927,178.674577 598.176448,178.759488 598.069553,178.845986 C597.974535,178.922168 597.882685,178.999143 597.78054,179.073738 C597.666519,179.157062 597.539828,179.237211 597.415513,179.318155 C597.285656,179.403066 597.162924,179.489564 597.024356,179.570507 L308.226972,347.771247 C307.919747,347.949798 307.594311,348.110098 307.260165,348.260874 C307.164355,348.30452 307.06617,348.344198 306.967985,348.385463 C306.706685,348.495768 306.43826,348.597344 306.1635,348.690984 C306.064523,348.725107 305.968713,348.760817 305.868153,348.79256 C305.695537,348.847315 305.51817,348.894929 305.340803,348.943336 C305.206195,348.97984 305.074753,349.018724 304.939353,349.052054 C304.752484,349.097287 304.562448,349.134584 304.373204,349.172675 C304.244138,349.199656 304.116656,349.229018 303.986006,349.252031 C303.602768,349.319484 303.214778,349.372653 302.822037,349.413918 C302.700889,349.427408 302.57895,349.43455 302.458594,349.444867 C302.228175,349.463912 301.996965,349.480577 301.764963,349.490893 C301.616894,349.497242 301.468824,349.500416 301.320755,349.502797 C301.133094,349.506764 300.946226,349.508351 300.758565,349.505971 C300.602578,349.50359 300.44659,349.498829 300.28981,349.49248 C300.117195,349.485338 299.943787,349.476609 299.770379,349.464706 C299.612016,349.453596 299.454445,349.440105 299.297665,349.425028 C299.125841,349.408363 298.955601,349.389317 298.78536,349.367891 C298.63254,349.348052 298.478928,349.326626 298.327691,349.302819 C298.145573,349.274251 297.963456,349.242509 297.782922,349.207592 C297.641187,349.180611 297.500243,349.152836 297.3593,349.121887 C297.14551,349.075067 296.934095,349.021899 296.724264,348.965556 C296.606283,348.934607 296.487511,348.905245 296.371906,348.871122 C295.995793,348.760817 295.628391,348.637815 295.273657,348.498942 C295.097083,348.430696 294.925258,348.354514 294.755018,348.278332 C294.667918,348.240241 294.577651,348.204531 294.490552,348.163266 C294.23242,348.041058 293.982206,347.910914 293.740702,347.770454 L3.04771052,179.569713 C1.78634799,178.839637 0.9185179,177.966721 0.447387513,177.039842 C0.163125649,176.484349 0.0229742564,175.909811 0.024557888,175.335274 L0.024557888,175.336067 L0.024557888,175.335274 L1.15988993e-05,183.704164 C-0.00394747998,185.235737 1.00561764,186.770483 3.02395605,187.938604 L293.716156,356.140138 C293.956868,356.279805 294.208665,356.409949 294.466797,356.532157 C294.553897,356.574216 294.646539,356.609926 294.735223,356.64881 C294.88646,356.717057 295.036905,356.787684 295.192892,356.849581 C295.211104,356.856723 295.231691,356.861485 295.249111,356.868627 C295.604636,357.0075 295.972039,357.129708 296.348151,357.240013 C296.379032,357.248742 296.406746,357.261439 296.437627,357.270168 C296.523143,357.294769 296.612618,357.311434 296.698926,357.33524 C296.909549,357.39079 297.121755,357.443958 297.336338,357.490778 C297.393348,357.503475 297.448775,357.520934 297.506578,357.532837 C297.589719,357.550295 297.676818,357.561405 297.759959,357.577276 C297.941285,357.611399 298.121027,357.643142 298.303145,357.67171 C298.376783,357.683614 298.448047,357.699485 298.522478,357.709801 C298.601659,357.720911 298.681633,357.726466 298.762398,357.736782 C298.932638,357.758208 299.102087,357.777254 299.273119,357.793918 C299.35626,357.801854 299.436233,357.814551 299.518582,357.821693 C299.594596,357.828042 299.67061,357.828835 299.746625,357.83439 C299.920032,357.846293 300.092648,357.855023 300.266848,357.862165 C300.353947,357.865339 300.441047,357.873275 300.528147,357.875655 C300.597035,357.877242 300.665923,357.874068 300.735603,357.874862 C300.922471,357.877242 301.110132,357.875655 301.297,357.871687 C301.390434,357.8701 301.483869,357.874068 301.578095,357.870894 C301.63273,357.868513 301.686573,357.862165 301.741209,357.859784 C301.973211,357.850261 302.204421,357.832803 302.435631,357.813757 C302.528274,357.805822 302.6225,357.804235 302.71435,357.795506 C302.742064,357.792331 302.768986,357.785983 302.797491,357.783602 C303.190232,357.742337 303.579013,357.688375 303.962252,357.620922 C303.982047,357.617748 304.001051,357.616161 304.020054,357.612987 C304.131701,357.592354 304.238596,357.564579 304.348658,357.54236 C304.538694,357.503475 304.72873,357.466178 304.914806,357.420945 C305.05179,357.387615 305.184024,357.348731 305.317841,357.312227 C305.495207,357.26382 305.671782,357.216206 305.844398,357.161451 C305.882405,357.149547 305.921996,357.140818 305.959211,357.128915 C306.021765,357.108282 306.078776,357.081301 306.141329,357.059875 C306.416089,356.966235 306.683723,356.864659 306.945022,356.755148 C307.042415,356.713089 307.141392,356.673411 307.237202,356.629765 C307.571348,356.478195 307.895993,356.318689 308.203217,356.140138 L597.000602,187.939398 C597.04336,187.914797 597.084534,187.890197 597.124917,187.865597 C597.219935,187.80846 597.3007,187.747356 597.390175,187.688633 C597.515282,187.606896 597.642764,187.526746 597.757578,187.442629 C597.859722,187.368828 597.949989,187.291852 598.044215,187.21567 C598.151902,187.129172 598.261173,187.044261 598.359358,186.955382 C598.379153,186.937924 598.402908,186.921259 598.422703,186.903007 C598.462294,186.866504 598.490007,186.826032 598.528014,186.788735 C598.685586,186.635578 598.83128,186.48004 598.962721,186.321328 C598.991227,186.286411 599.030026,186.253875 599.056947,186.218958 C599.084661,186.184042 599.101289,186.148331 599.128211,186.113415 C599.216102,185.995174 599.294492,185.87614 599.368131,185.756312 C599.399012,185.705524 599.440186,185.656324 599.469483,185.605536 C599.483736,185.580142 599.492446,185.553161 599.505907,185.527767 C599.562126,185.422223 599.608843,185.315093 599.65556,185.207962 C599.682482,185.146064 599.718905,185.08496 599.741868,185.022269 C599.749786,185.000843 599.752953,184.979416 599.76008,184.95799 C599.796503,184.855621 599.821841,184.754045 599.848763,184.650882 C599.866183,184.581843 599.893105,184.513596 599.907358,184.443763 C599.911317,184.425511 599.910525,184.407259 599.913692,184.389007 C599.933487,184.280289 599.941406,184.173159 599.950907,184.064441 C599.957242,183.994608 599.972286,183.924774 599.974662,183.854941 C599.975454,183.824786 599.976246,183.79463 599.976246,183.764475 L600,175.395584 C600,175.495573 599.983372,175.595561 599.974662,175.69555" id="Fill-7" fill="url(#linearGradient-9)"></path>
                                    <path d="M596.97606,170.516335 C600.985186,172.843742 601.014485,176.622694 597.024363,178.954082 L308.215224,347.722572 C304.225102,350.05396 297.737491,350.049979 293.727573,347.722572 L3.02354137,178.953286 C-0.985585079,176.625082 -1.01409161,172.847723 2.97603049,170.516335 L291.785961,1.74704883 C295.775292,-0.584339784 302.26211,-0.580358588 306.272029,1.74704883 L596.97606,170.516335 Z" id="Fill-5" fill="url(#linearGradient-10)"></path>
                                    <path d="M522.138093,160.165776 C525.136919,161.909332 525.158835,164.740299 522.174223,166.486837 L306.144987,292.918214 C303.160376,294.664753 298.307643,294.66177 295.308224,292.918214 L77.8616089,166.486241 C74.8627824,164.742088 74.8414595,161.912314 77.8260708,160.165776 L293.855899,33.7338021 C296.839918,31.9872635 301.692059,31.990246 304.691477,33.7338021 L522.138093,160.165776 Z" id="Fill-5" fill="url(#linearGradient-11)" opacity="0.463895089" filter="url(#filter-12)"></path>
                                </g>
                                <g id="平面上" transform="translate(42.477876, 226.194690)">
                                    <path d="M508.612961,145.147622 C512.025625,147.124968 512.050313,150.335469 508.654108,152.316118 L262.825467,295.703375 C259.429262,297.684024 253.906622,297.68072 250.494781,295.703375 L3.05238779,152.315292 C-0.360275901,150.337947 -0.383317759,147.127445 3.01206454,145.146796 L248.841528,1.76036578 C252.23691,-0.221109145 257.758727,-0.21780531 261.171391,1.76036578 L508.612961,145.147622 Z" id="Fill-14" fill="url(#linearGradient-13)"></path>
                                    <polygon id="Path" fill-opacity="0.7" fill="url(#linearGradient-14)" points="342.934327 148.252716 256.155868 97.85839 170.025932 148.252716 256.712532 198.643764"></polygon>
                                    <path d="M511.165259,149.013522 C511.157029,149.105204 511.150446,149.197711 511.133988,149.289392 C511.119998,149.364555 511.097779,149.438891 511.078852,149.512401 C511.054987,149.599953 511.033591,149.687504 511.003143,149.775056 C510.977632,149.846088 510.943892,149.917121 510.913444,149.988153 C510.873944,150.079009 510.835266,150.169864 510.785891,150.26072 C510.751328,150.325971 510.708536,150.390395 510.669036,150.45482 C510.605671,150.557239 510.539837,150.659658 510.464128,150.760425 C510.420513,150.819894 510.37196,150.877711 510.324231,150.936354 C510.212313,151.071811 510.088052,151.204791 509.953915,151.336118 C509.906186,151.382372 509.861748,151.431103 509.810727,151.477357 C509.726788,151.552519 509.633798,151.626029 509.543276,151.698714 C509.46263,151.763965 509.385275,151.830041 509.298045,151.892814 C509.200117,151.964673 509.091491,152.032401 508.986157,152.101782 C508.876708,152.17364 508.772197,152.24715 508.653696,152.316531 L262.825878,295.703788 C262.564189,295.854938 262.286864,295.992047 262.002955,296.120897 C261.921485,296.157239 261.837547,296.191929 261.753609,296.227445 C261.53142,296.320779 261.30347,296.407504 261.070583,296.487622 C260.985821,296.516531 260.903529,296.547091 260.817945,296.574348 C260.671465,296.620602 260.52087,296.661074 260.371098,296.702372 C260.256711,296.733758 260.143148,296.766796 260.02547,296.794879 C259.868291,296.833699 259.707821,296.865086 259.547351,296.898124 C259.437079,296.920425 259.327631,296.946029 259.215713,296.965027 C258.889012,297.022844 258.558197,297.069097 258.224913,297.103788 C258.122048,297.115351 258.018359,297.121133 257.914671,297.130218 C257.718815,297.146737 257.522137,297.160779 257.325458,297.169864 C257.199551,297.17482 257.07282,297.177298 256.947736,297.179776 C256.788089,297.18308 256.627619,297.184732 256.468794,297.182254 C256.335481,297.180602 256.202167,297.176472 256.068854,297.17069 C255.92155,297.164909 255.774247,297.157475 255.626944,297.147563 C255.492807,297.137652 255.357848,297.126088 255.224534,297.113699 C255.078877,297.098832 254.934042,297.083139 254.789208,297.064142 C254.658363,297.047622 254.528341,297.029451 254.398319,297.008802 C254.243609,296.98485 254.089723,296.957593 253.937482,296.928684 C253.815689,296.905558 253.694719,296.880779 253.574573,296.855174 C253.392706,296.814702 253.212486,296.769274 253.033912,296.722195 C252.934338,296.694938 252.833119,296.670159 252.734368,296.640425 C252.41425,296.547091 252.10154,296.442195 251.799527,296.324083 C251.756735,296.307563 251.717234,296.288566 251.675265,296.271221 C251.261335,296.103552 250.863863,295.916885 250.49437,295.702962 L3.05279925,152.315705 C1.54931804,151.444319 0.703352702,150.33423 0.519017841,149.195233 C0.491038443,149.032519 0.478694591,148.868979 0.479517514,148.70544 L0.458944427,155.840071 C0.455652733,157.146737 1.31396193,158.45423 3.03222616,159.450336 L250.473797,302.836767 C250.84329,303.051516 251.241584,303.237357 251.654692,303.405027 C251.681849,303.41659 251.704067,303.431457 251.731224,303.442195 C251.74686,303.448802 251.763318,303.452106 251.778954,303.458714 C252.081789,303.576826 252.3945,303.681723 252.714618,303.775056 C252.740128,303.783316 252.763993,303.794053 252.789504,303.800661 C252.863567,303.822136 252.940099,303.836177 253.014162,303.856 C253.192736,303.90308 253.37131,303.949333 253.554822,303.988979 C253.604198,304.000543 253.651104,304.014584 253.70048,304.025322 C253.772074,304.039363 253.846137,304.049274 253.916909,304.063316 C254.069973,304.092224 254.223859,304.119481 254.377746,304.143434 C254.440288,304.153345 254.501184,304.167386 254.565372,304.175646 C254.632852,304.185558 254.701978,304.190513 254.769457,304.198773 C254.913469,304.216944 255.058304,304.233463 255.203961,304.247504 C255.274732,304.254112 255.343035,304.26485 255.412984,304.271457 C255.477172,304.276413 255.542183,304.277239 255.606371,304.281369 C255.754497,304.292106 255.902623,304.29954 256.050749,304.305322 C256.124812,304.308625 256.198876,304.315233 256.272939,304.316885 C256.330543,304.318537 256.388971,304.315233 256.448221,304.316059 C256.607869,304.318537 256.767516,304.316885 256.927986,304.313581 C257.006986,304.312755 257.08681,304.315233 257.166634,304.312755 C257.211894,304.311103 257.257978,304.306147 257.304885,304.30367 C257.502386,304.29541 257.698242,304.280543 257.894098,304.264024 C257.973922,304.257416 258.053745,304.25659 258.133569,304.24833 C258.157433,304.245853 258.180475,304.240897 258.20434,304.238419 C258.53927,304.203729 258.869262,304.157475 259.195963,304.099658 C259.211598,304.09718 259.22888,304.095528 259.244515,304.09305 C259.339975,304.075705 259.432965,304.051752 259.526778,304.032755 C259.687248,303.999717 259.848541,303.967504 260.006543,303.92951 C260.122575,303.901428 260.236138,303.867563 260.351347,303.836177 C260.50112,303.794879 260.650892,303.755233 260.797372,303.708979 C260.829466,303.698242 260.863206,303.690808 260.8953,303.680897 C260.947967,303.662726 260.997342,303.639599 261.05001,303.622254 C261.284543,303.542136 261.51167,303.45541 261.734682,303.362077 C261.817797,303.32656 261.901735,303.29187 261.983205,303.254702 C262.267113,303.125853 262.544439,302.989569 262.804482,302.837593 L508.633946,159.451162 C508.669332,159.429687 508.704717,159.409038 508.740103,159.387563 C508.819927,159.338832 508.888229,159.286796 508.964761,159.237239 C509.070918,159.167858 509.180367,159.099304 509.278295,159.027445 C509.364702,158.963847 509.442057,158.898596 509.522703,158.834171 C509.613225,158.760661 509.707038,158.68715 509.790153,158.611988 C509.807435,158.597121 509.828008,158.582254 509.844466,158.567386 C509.878206,158.536 509.902071,158.50131 509.934165,158.469923 C510.068302,158.339422 510.190917,158.206442 510.303658,158.070985 C510.327523,158.041251 510.361262,158.013168 510.384304,157.983434 C510.407346,157.954525 510.422982,157.923965 510.444378,157.89423 C510.519264,157.793463 510.586743,157.69187 510.649286,157.589451 C510.675619,157.546501 510.710182,157.504378 510.735693,157.461428 C510.747213,157.439127 510.75462,157.416826 510.766964,157.394525 C510.814693,157.304496 510.853371,157.21364 510.893694,157.122785 C510.915913,157.069097 510.947184,157.017062 510.967757,156.963375 C510.97434,156.946029 510.976809,156.927032 510.983393,156.908861 C511.013841,156.822136 511.035237,156.73541 511.057456,156.647032 C511.073914,156.588389 511.096133,156.530572 511.108477,156.471103 C511.111769,156.45541 511.110946,156.439717 511.114237,156.424024 C511.129873,156.331516 511.136456,156.239835 511.145508,156.148153 C511.150446,156.087858 511.163613,156.028389 511.165259,155.96892 C511.166082,155.943316 511.166904,155.917711 511.166904,155.892106 L511.186655,148.757475 C511.185832,148.843375 511.173488,148.928448 511.165259,149.013522" id="Fill-16" fill="url(#linearGradient-15)"></path>
                                </g>
                                <g id="线条" transform="translate(124.247788, 272.920354)" fill="#FFFFFF">
                                    <polygon id="Fill-18" points="260.573216 0.29091252 260.886996 0.472009285 174.622294 50.5431974 174.308513 50.3621007"></polygon>
                                    <polygon id="Fill-20" points="348.046096 50.6812941 348.359876 50.8623908 262.050466 100.960041 261.736686 100.778944"></polygon>
                                    <polygon id="Fill-22" points="87.4482083 100.779771 173.996886 50.5431974 174.310666 50.7242942 87.7619884 100.960868"></polygon>
                                    <polygon id="Fill-24" points="348.851327 151.014277 261.738839 101.140724 174.310914 50.7238807 87.1504069 0.462499637 174.308431 50.3625141 261.736355 100.77853"></polygon>
                                    <polygon id="Fill-26" points="174.876629 151.195952 261.425307 100.960206 261.739087 101.140476 175.19041 151.377049"></polygon>
                                    <polygon id="Fill-28" points="0.888933356 151.022381 87.1370775 100.960289 87.4508576 101.141385 1.2027135 151.203477"></polygon>
                                    <polygon id="Fill-30" points="262.035812 201.457582 174.879444 151.557567 87.450692 101.141551 0.335719918 50.9058044 87.4482083 100.779357 174.876961 151.1962"></polygon>
                                    <polygon id="Fill-32" points="88.3561837 201.416401 174.564588 151.376636 174.878368 151.557732 88.6699638 201.597497"></polygon>
                                </g>
                                <g id="光源" transform="translate(212.327434, 0.000000)">
                                    <polygon id="Fill-1" fill="url(#linearGradient-16)" points="68.4606129 86.2652145 68.2029741 412.776326 0.0309294956 373.378431 0.281572476 47.1977867"></polygon>
                                    <polygon id="Fill-3" fill="url(#linearGradient-16)" points="104.707513 86.2666595 104.958156 413.051849 173.137197 373.379876 172.886554 47.1992317"></polygon>
                                    <polygon id="Fill-34" fill="url(#linearGradient-17)" points="59.0549283 407.533215 86.8706932 423.606877 114.154686 407.724597 114.239541 0 59.0549283 0"></polygon>
                                </g>
                                <g id="长方体" transform="translate(249.557522, 125.309735)">
                                    <polygon id="Fill-38" fill="url(#linearGradient-18)" points="99.8445945 29.5714959 99.6605803 270.058665 50.0453591 299.344415 50.2285662 59.044858"></polygon>
                                    <polygon id="Fill-40" fill="url(#linearGradient-19)" points="50.228889 59.044528 50.0448749 299.34491 0.110050075 270.062144 0.294064235 29.5744659"></polygon>
                                    <polygon id="Fill-36" fill="url(#linearGradient-20)" points="99.8445945 29.5714959 50.2285662 59.044858 0.293741403 29.5747959 49.9097697 0.101433773"></polygon>
                                </g>
                            </g>
                        </g>
                    </g>
                </g>
            </g>
        </g>
    </g>
</svg>