<?xml version="1.0" encoding="UTF-8"?>
<svg width="629px" height="578px" viewBox="0 0 629 578" version="1.1" xmlns="http://www.w3.org/2000/svg" xmlns:xlink="http://www.w3.org/1999/xlink">
    <!-- Generator: Sketch 50 (54983) - http://www.bohemiancoding.com/sketch -->
    <title>homeic_bb</title>
    <desc>Created with Sketch.</desc>
    <defs>
        <linearGradient x1="195.534688%" y1="121.994108%" x2="5.30583658%" y2="26.5245521%" id="linearGradient-1">
            <stop stop-color="#509AEF" stop-opacity="0.402541893" offset="0%"></stop>
            <stop stop-color="#3C6AF0" offset="100%"></stop>
        </linearGradient>
        <linearGradient x1="132.059215%" y1="26.5245527%" x2="5.30583658%" y2="26.5245521%" id="linearGradient-2">
            <stop stop-color="#3567BA" stop-opacity="0" offset="0%"></stop>
            <stop stop-color="#2D62FD" offset="100%"></stop>
        </linearGradient>
        <linearGradient x1="131.631854%" y1="126.90573%" x2="5.30583658%" y2="26.5245521%" id="linearGradient-3">
            <stop stop-color="#509AEF" stop-opacity="0" offset="0%"></stop>
            <stop stop-color="#3C6AF0" offset="100%"></stop>
        </linearGradient>
        <linearGradient x1="-4.86640431%" y1="0%" x2="93.070177%" y2="90.6173673%" id="linearGradient-4">
            <stop stop-color="#252E5F" offset="0%"></stop>
            <stop stop-color="#171F47" offset="100%"></stop>
        </linearGradient>
        <linearGradient x1="159.562741%" y1="129.601053%" x2="31.6291863%" y2="34.2065768%" id="linearGradient-5">
            <stop stop-color="#3CD0FF" stop-opacity="0" offset="0%"></stop>
            <stop stop-color="#3665ED" offset="100%"></stop>
        </linearGradient>
        <linearGradient x1="131.631854%" y1="126.90573%" x2="5.30583658%" y2="26.5245521%" id="linearGradient-6">
            <stop stop-color="#509AEF" stop-opacity="0.159476902" offset="0%"></stop>
            <stop stop-color="#3C6AF0" offset="100%"></stop>
        </linearGradient>
        <linearGradient x1="-23.5475054%" y1="3.32387948%" x2="92.7169438%" y2="76.8570114%" id="linearGradient-7">
            <stop stop-color="#FFFFFF" offset="0%"></stop>
            <stop stop-color="#7AB7FF" offset="100%"></stop>
        </linearGradient>
        <linearGradient x1="20.0110019%" y1="79.5197941%" x2="81.4272331%" y2="24.4617049%" id="linearGradient-8">
            <stop stop-color="#4184F5" offset="0%"></stop>
            <stop stop-color="#5680F9" offset="100%"></stop>
        </linearGradient>
        <linearGradient x1="86.2214458%" y1="107.204752%" x2="10.4919357%" y2="39.4384252%" id="linearGradient-9">
            <stop stop-color="#509AEF" offset="0%"></stop>
            <stop stop-color="#295FFF" offset="100%"></stop>
        </linearGradient>
    </defs>
    <g id="Page-1" stroke="none" stroke-width="1" fill="none" fill-rule="evenodd">
        <g id="BTCsale首页-2" transform="translate(-215.000000, -3018.000000)">
            <g id="2" transform="translate(120.000000, 1354.000000)">
                <g id="homeic_bb" transform="translate(95.000000, 1664.000000)">
                    <g id="底部" transform="translate(0.763186, 196.753382)">
                        <path d="M294.696305,358.605869 C295.990415,359.348505 297.37265,360.009343 298.824131,360.582093 C299.944882,361.023177 301.103394,361.413322 302.296519,361.753146 L302.186285,379.116113 C300.995752,378.77613 299.833564,378.385779 298.715471,377.941912 C297.26143,377.368689 295.879732,376.708064 294.58924,375.965701 L8.440821,210.839559 C2.80310711,207.585198 -0.0125982342,203.31967 3.69995259e-12,199.060437 L0.107084991,181.69747 C0.0944879332,185.959453 2.91281507,190.224583 8.54632303,193.476344 L294.696319,358.603581 L294.696305,358.605869 Z M305.166725,379.84432 L305.166712,379.846447 C304.155704,379.635531 303.160443,379.389988 302.18723,379.116113 L302.297464,361.753146 C303.267528,362.030169 304.265938,362.275713 305.276946,362.48348 L305.232996,369.406144 L305.278206,362.48411 C306.207221,362.676116 307.151981,362.839796 308.106187,362.975151 C309.025451,363.106093 309.951001,363.209943 310.882844,363.285486 C311.814801,363.363947 312.753051,363.411161 313.694449,363.436352 C314.67082,363.460302 315.644033,363.454006 316.617247,363.422526 C317.678541,363.385051 318.736688,363.315799 319.785388,363.211925 L319.675153,380.571744 C318.62646,380.675617 317.571469,380.748017 316.51018,380.782649 L316.510162,380.785493 C315.537265,380.816962 314.56122,380.820119 313.585175,380.794961 C312.647019,380.77417 311.708872,380.723837 310.77387,380.648342 C309.84171,380.569864 308.915847,380.465996 307.99943,380.336949 C307.042611,380.202892 306.098377,380.036183 305.166725,379.84432 Z M323.319196,380.064716 C322.119417,380.281873 320.903897,380.451826 319.675783,380.571429 L319.786018,363.211611 C321.011196,363.088839 322.230075,362.918847 323.426908,362.704784 C325.288074,362.368477 327.102007,361.918353 328.837219,361.358073 L328.726985,378.72104 C326.994727,379.281382 325.180582,379.728397 323.319193,380.065232 Z M334.994298,375.963944 C333.085911,377.071794 330.972882,377.990826 328.727615,378.72104 L328.837849,361.358073 C331.083484,360.630887 333.196838,359.711674 335.105471,358.603581 L619.393129,193.474107 L619.361343,198.627907 L619.394074,193.472533 C619.510608,193.406425 619.627141,193.337169 619.743675,193.267913 L619.69951,200.224361 L619.744935,193.269487 C621.13389,192.432122 622.340171,191.531796 623.366927,190.587399 L623.31181,199.267308 L623.368502,190.585825 C624.033059,189.971966 624.625176,189.332924 625.138554,188.68129 L625.031469,206.044256 C624.518091,206.695891 623.922824,207.331785 623.255118,207.948791 C622.232314,208.89525 621.024047,209.79155 619.633458,210.628159 L619.63344,210.63088 C619.520758,210.699707 619.404965,210.765425 619.286062,210.834214 L619.286044,210.837074 L334.994291,375.964973 Z M626.941698,202.709779 L626.941676,202.713366 C626.733805,203.261117 626.48184,203.802572 626.179483,204.33773 L626.289717,186.974763 C626.588925,186.442753 626.84404,185.89815 627.048761,185.353548 L626.995083,194.055493 L627.050336,185.354177 C627.247756,184.824852 627.401527,184.289294 627.508546,183.753704 L627.508597,183.745554 C627.621981,183.204099 627.681822,182.656349 627.69757,182.108598 L627.654736,189.053784 L627.69757,182.109857 C627.70072,182.024861 627.70072,181.943014 627.70072,181.858018 L627.593635,199.220985 C627.593635,199.287086 627.59158,199.35524 627.59079,199.422131 L627.590485,199.471565 C627.571684,200.013405 627.509234,200.558362 627.403137,201.100234 L627.403086,201.10852 C627.296284,201.645405 627.142488,202.179157 626.941698,202.709779 Z M626.178853,204.338045 C625.851299,204.914127 625.470202,205.483914 625.032414,206.044256 L625.139499,188.68129 C625.577287,188.124095 625.961533,187.554309 626.289087,186.975078 L626.178853,204.338045 Z" id="Combined-Shape" fill-opacity="0.8" fill="url(#linearGradient-1)"></path>
                        <path d="M619.263997,170.080752 C630.463827,176.543578 630.520519,187.010651 619.393129,193.473477 L335.104526,358.604525 C323.977135,365.067352 305.898669,365.067352 294.69569,358.604525 L8.54884677,193.476625 C-2.65098343,187.013799 -2.71082504,176.546726 8.41656531,170.0839 L292.705169,4.95285212 C303.835708,-1.50997464 321.914175,-1.50997464 333.114005,4.95285212 L619.263997,170.080752 Z" id="Fill-68" fill-opacity="0.6" fill="url(#linearGradient-2)"></path>
                    </g>
                    <g id="Group-7" transform="translate(123.873606, 186.978767)">
                        <polygon id="Fill-1" fill="url(#linearGradient-3)" points="189.647251 54.9014837 95.2723433 109.717426 0.282365931 54.9014837 94.6544393 0.0855417501"></polygon>
                        <polygon id="Fill-1" fill="url(#linearGradient-4)" opacity="0.3" points="189.647251 206.552065 95.2723433 261.368007 0.282365931 206.552065 94.6544393 151.736123"></polygon>
                        <polygon id="Fill-3" fill="url(#linearGradient-5)" points="189.647251 54.9014837 189.369478 167.513696 94.9974044 222.329638 95.2723433 109.717426"></polygon>
                        <polygon id="Fill-5" fill="url(#linearGradient-6)" points="95.2726267 109.717709 94.9976878 222.329921 0.00771046025 167.513979 0.282649374 54.901767"></polygon>
                    </g>
                    <g id="Group-14" transform="translate(313.836332, 73.658302)">
                        <polygon id="Fill-8" fill="url(#linearGradient-3)" points="190.427999 55.8037769 96.0559261 110.619719 1.06311431 55.8037769 95.4351877 0.987834887"></polygon>
                        <polygon id="Fill-10" fill="url(#linearGradient-5)" points="190.427999 55.8037769 190.150226 168.415989 95.7781527 223.231931 96.0559261 110.619719"></polygon>
                        <polygon id="Fill-12" fill="url(#linearGradient-6)" points="96.0562095 110.620285 95.7784362 223.232498 0.79129326 168.416556 1.06339775 55.8043435"></polygon>
                    </g>
                    <g id="Group-21" transform="translate(364.799458, 298.522687)">
                        <polygon id="Fill-15" fill="url(#linearGradient-4)" opacity="0.4" points="96.6274068 128.059208 48.5584477 155.98137 0.174867831 128.059208 48.2438269 100.139878"></polygon>
                        <polygon id="Fill-15" fill="url(#linearGradient-7)" points="96.6274068 28.0592078 48.5584477 55.9813704 0.174867831 28.0592078 48.2438269 0.139878241"></polygon>
                        <polygon id="Fill-17" fill="url(#linearGradient-8)" points="96.6274068 28.0592078 96.4856857 85.4191942 48.4167266 113.341357 48.5584477 55.9813704"></polygon>
                        <polygon id="Fill-19" fill="url(#linearGradient-9)" points="48.5584477 55.9813704 48.4167266 113.341357 0.0331467413 85.4220272 0.174867831 28.0620408"></polygon>
                    </g>
                    <g id="Group-28" transform="translate(167.502866, 70.825291)">
                        <polygon id="Fill-22" fill="url(#linearGradient-7)" points="97.1587223 28.1722813 49.0897632 56.0916108 0.706183304 28.1722813 48.7751424 0.252951672"></polygon>
                        <polygon id="Fill-24" fill="url(#linearGradient-8)" points="97.1587223 28.1722813 97.0198356 85.5322677 48.9480421 113.45443 49.0897632 56.0916108"></polygon>
                        <polygon id="Fill-26" fill="url(#linearGradient-9)" points="49.0897632 56.0930273 48.9480421 113.453014 0.564462215 85.5336842 0.706183304 28.1736978"></polygon>
                    </g>
                    <g id="虚线" transform="translate(219.243947, 130.318535)" stroke="url(#linearGradient-7)" stroke-dasharray="8,4" stroke-width="3">
                        <path d="M190.200189,55.6751581 L95.8281159,110.4911 L0.835304101,55.6751581 L95.2102119,0.85921616 L190.200189,55.6751581 Z" id="Stroke-29"></path>
                        <path d="M190.200189,55.6751581 L189.92525,168.28737 L95.553177,223.103312 L95.8281159,110.4911 L190.200189,55.6751581 Z" id="Stroke-31"></path>
                    </g>
                    <g id="Group-105" transform="translate(18.000000, 205.753382)"></g>
                    <path d="M168.067044,30.4106437 L168.067044,98.9978552" id="Stroke-107" stroke="#3C6BF0" stroke-width="3" stroke-dasharray="8,4"></path>
                    <path d="M181.317399,13.412574 C181.317399,20.6480857 175.450146,26.5152528 168.208198,26.5152528 C160.966251,26.5152528 155.098998,20.6480857 155.098998,13.412574 C155.098998,6.17706228 160.966251,0.309895205 168.208198,0.309895205 C175.450146,0.309895205 181.317399,6.17706228 181.317399,13.412574" id="Fill-108" fill="url(#linearGradient-1)"></path>
                </g>
            </g>
        </g>
    </g>
</svg>