<?xml version="1.0" encoding="UTF-8"?>
<svg width="631px" height="534px" viewBox="0 0 631 534" version="1.1" xmlns="http://www.w3.org/2000/svg" xmlns:xlink="http://www.w3.org/1999/xlink">
    <!-- Generator: Sketch 50 (54983) - http://www.bohemiancoding.com/sketch -->
    <title>homeic_p2p</title>
    <desc>Created with Sketch.</desc>
    <defs>
        <linearGradient x1="0%" y1="38.9395502%" x2="72.3014543%" y2="93.9492583%" id="linearGradient-1">
            <stop stop-color="#4694FD" offset="0%"></stop>
            <stop stop-color="#3C6AF0" offset="100%"></stop>
        </linearGradient>
        <linearGradient x1="0%" y1="38.9395502%" x2="72.3014543%" y2="93.9492583%" id="linearGradient-2">
            <stop stop-color="#4694FD" stop-opacity="0" offset="0%"></stop>
            <stop stop-color="#3C6AF0" offset="100%"></stop>
        </linearGradient>
        <linearGradient x1="106.697879%" y1="89.9945725%" x2="0%" y2="38.9395502%" id="linearGradient-3">
            <stop stop-color="#4694FD" stop-opacity="0" offset="0%"></stop>
            <stop stop-color="#3C6AF0" offset="100%"></stop>
        </linearGradient>
        <linearGradient x1="96.172214%" y1="68.553782%" x2="4.69255365%" y2="30.9638492%" id="linearGradient-4">
            <stop stop-color="#4694FD" stop-opacity="0" offset="0%"></stop>
            <stop stop-color="#3C6AF0" offset="100%"></stop>
        </linearGradient>
        <linearGradient x1="75.3173057%" y1="-7.90476103%" x2="8.6458731%" y2="102.595131%" id="linearGradient-5">
            <stop stop-color="#4694FD" stop-opacity="0" offset="0%"></stop>
            <stop stop-color="#3C6AF0" offset="100%"></stop>
        </linearGradient>
        <linearGradient x1="84.4936397%" y1="-40.7693637%" x2="8.6458731%" y2="102.595131%" id="linearGradient-6">
            <stop stop-color="#4694FD" stop-opacity="0" offset="0%"></stop>
            <stop stop-color="#3C6AF0" offset="100%"></stop>
        </linearGradient>
        <linearGradient x1="-23.5475054%" y1="3.32387948%" x2="92.7169438%" y2="76.8570114%" id="linearGradient-7">
            <stop stop-color="#E2ECFF" offset="0%"></stop>
            <stop stop-color="#4E9DFB" offset="100%"></stop>
        </linearGradient>
        <linearGradient x1="-23.5475054%" y1="3.32387948%" x2="92.7169438%" y2="76.8570114%" id="linearGradient-8">
            <stop stop-color="#FFFFFF" offset="0%"></stop>
            <stop stop-color="#7AB7FF" offset="100%"></stop>
        </linearGradient>
        <linearGradient x1="195.534688%" y1="121.994108%" x2="5.30583658%" y2="26.5245521%" id="linearGradient-9">
            <stop stop-color="#509AEF" stop-opacity="0.402541893" offset="0%"></stop>
            <stop stop-color="#3C6AF0" offset="100%"></stop>
        </linearGradient>
        <linearGradient x1="-15.6007217%" y1="70.2511409%" x2="81.4272331%" y2="24.4617049%" id="linearGradient-10">
            <stop stop-color="#509AEF" stop-opacity="0.845504982" offset="0%"></stop>
            <stop stop-color="#3C6AF0" offset="100%"></stop>
        </linearGradient>
        <linearGradient x1="49.9998093%" y1="109.940083%" x2="49.9998093%" y2="-240.131366%" id="linearGradient-11">
            <stop stop-color="#0042FF" stop-opacity="0.65942029" offset="0%"></stop>
            <stop stop-color="#75B5FF" stop-opacity="0" offset="100%"></stop>
        </linearGradient>
        <linearGradient x1="20.0110019%" y1="79.5197941%" x2="81.4272331%" y2="24.4617049%" id="linearGradient-12">
            <stop stop-color="#509AEF" offset="0%"></stop>
            <stop stop-color="#3C6AF0" offset="100%"></stop>
        </linearGradient>
        <linearGradient x1="145.539821%" y1="26.5245527%" x2="5.30583658%" y2="26.5245521%" id="linearGradient-13">
            <stop stop-color="#3567BA" stop-opacity="0" offset="0%"></stop>
            <stop stop-color="#2D62FD" offset="100%"></stop>
        </linearGradient>
        <linearGradient x1="49.9998093%" y1="112.587052%" x2="49.9998093%" y2="-40.2573464%" id="linearGradient-14">
            <stop stop-color="#3C6AF0" offset="0%"></stop>
            <stop stop-color="#75B5FF" stop-opacity="0" offset="100%"></stop>
        </linearGradient>
        <linearGradient x1="50%" y1="16.7502211%" x2="50%" y2="100%" id="linearGradient-15">
            <stop stop-color="#F0F7FF" stop-opacity="0" offset="0%"></stop>
            <stop stop-color="#DDECFD" stop-opacity="0.2" offset="100%"></stop>
        </linearGradient>
    </defs>
    <g id="Page-1" stroke="none" stroke-width="1" fill="none" fill-rule="evenodd">
        <g id="BTCsale首页-2" transform="translate(-207.000000, -1608.000000)">
            <g id="2" transform="translate(120.000000, 1354.000000)">
                <g id="homeic_p2p" transform="translate(87.000000, 237.000000)">
                    <g id="line" transform="translate(0.000000, 94.646272)">
                        <path d="M497.818537,321.337152 C510.056457,328.403256 510.135499,339.869832 497.962994,346.944113 L321.193195,449.671772 C309.019327,456.746053 289.223334,456.737876 276.984051,449.671772 L99.0449723,346.938662 C86.8056899,339.872558 86.7402756,328.412795 98.9141438,321.338515 L275.683943,218.612218 C287.856448,211.537937 307.640176,211.537937 319.878096,218.604041 L497.818537,321.337152 Z" id="Stroke-1" stroke="url(#linearGradient-1)"></path>
                        <path d="M405.570789,258.347026 C417.337181,265.14057 417.412135,276.165601 405.709794,282.967322 L235.751256,381.736055 C224.047553,388.537776 205.013364,388.5296 193.246972,381.737418 L22.1627634,282.961871 C10.3963717,276.168326 10.333683,265.15011 22.0373861,258.348389 L191.995924,159.579656 C203.699627,152.777934 222.720189,152.777934 234.486581,159.572842 L405.570789,258.347026 Z" id="Stroke-3" stroke="url(#linearGradient-1)"></path>
                        <path d="M493.704116,217.483004 C505.281079,224.166162 505.35467,235.012666 493.840396,241.704 L326.636071,338.87281 C315.121797,345.562782 296.396962,345.555968 284.821362,338.87281 L116.510446,241.698549 C104.934846,235.015391 104.87352,224.175702 116.386431,217.484367 L283.590756,120.316921 C295.103668,113.625586 313.816237,113.625586 325.3932,120.308744 L493.704116,217.483004 Z" id="Stroke-5" stroke="url(#linearGradient-1)" opacity="0.3"></path>
                        <path d="M553.289974,266.815857 C565.591945,273.918757 565.669625,285.443933 553.434431,292.55501 L375.750195,395.81416 C363.515001,402.925236 343.616798,402.917059 331.314827,395.81416 L152.454497,292.549558 C140.152526,285.446659 140.087112,273.928296 152.322306,266.81722 L330.006541,163.559432 C342.243098,156.448356 362.127673,156.448356 374.429645,163.551256 L553.289974,266.815857 Z" id="Stroke-7" stroke="url(#linearGradient-1)"></path>
                        <path d="M476.405721,118.091336 C487.413035,124.447423 487.4839,134.75971 476.535187,141.12261 L317.540353,233.520266 C306.593003,239.883167 288.786693,239.876353 277.778017,233.520266 L117.732466,141.117159 C106.72379,134.762436 106.666552,124.4556 117.615266,118.092699 L276.608737,25.6950431 C287.55745,19.3335054 305.351494,19.3335054 316.358808,25.6882291 L476.405721,118.091336 Z" id="Stroke-9" stroke="url(#linearGradient-1)"></path>
                        <path d="M2.02375397,414.129065 L77.3469228,370.356016" id="Stroke-11" stroke="url(#linearGradient-2)"></path>
                        <path d="M2.9546808,184.19559 L54.0922862,154.47707" id="Stroke-13" stroke="url(#linearGradient-2)"></path>
                        <path d="M208.724397,97.2521216 L113.951385,42.5344478" id="Stroke-15" stroke="url(#linearGradient-2)"></path>
                        <path d="M630.741833,382.082751 L559.396669,340.89084" id="Stroke-17" stroke="url(#linearGradient-3)"></path>
                        <path d="M627.842072,171.842378 L547.844509,125.688522" id="Stroke-19" stroke="url(#linearGradient-4)"></path>
                        <path d="M630.464094,27.5671178 L546.481712,76.372977" id="Stroke-21" stroke="url(#linearGradient-5)"></path>
                        <path d="M456.350933,0.0337065195 L372.166856,48.9567663" id="Stroke-23" stroke="url(#linearGradient-6)"></path>
                        <path d="M178.824761,125.351094 C184.168289,128.436467 184.202359,133.443384 178.887449,136.531483 L101.704062,181.386593 C96.389153,184.474691 87.7449298,184.471966 82.4014016,181.386593 L4.70696555,136.53012 C-0.636562612,133.443384 -0.665181355,128.440555 4.64972806,125.351094 L81.8344779,80.4973467 C87.1480246,77.409248 95.7867966,77.409248 101.130325,80.4946211 L178.824761,125.351094 Z" id="Stroke-25" stroke="url(#linearGradient-1)" opacity="0.3"></path>
                        <path d="M603.677496,98.0013876 C609.021024,101.086761 609.055094,106.092315 603.740185,109.181777 L526.556798,154.036886 C521.241888,157.124985 512.597665,157.120897 507.254137,154.036886 L429.559701,109.179051 C424.216173,106.093678 424.187554,101.090849 429.502463,98.0013876 L506.687213,53.1476405 C512.00076,50.0595419 520.639532,50.0595419 525.98306,53.1435521 L603.677496,98.0013876 Z" id="Stroke-27" stroke="url(#linearGradient-1)" opacity="0.3"></path>
                        <path d="M617.777951,313.511016 C623.121479,316.596389 623.155549,321.601943 617.840639,324.691405 L540.657252,369.546515 C535.342343,372.634613 526.69812,372.630525 521.354592,369.546515 L443.660156,324.688679 C438.315265,321.603306 438.288009,316.600477 443.602918,313.511016 L520.786305,268.657269 C526.101215,265.56917 534.738624,265.56917 540.083515,268.65318 L617.777951,313.511016 Z" id="Stroke-29" stroke="url(#linearGradient-1)" opacity="0.3"></path>
                        <path d="M445.076647,396.624343 C450.420175,399.709716 450.454245,404.71527 445.139336,407.804732 L367.955949,452.659842 C362.641039,455.74794 353.996816,455.743852 348.653288,452.659842 L270.958852,407.802006 C265.615324,404.716633 265.586705,399.713804 270.901614,396.624343 L348.086364,351.770596 C353.399911,348.682497 362.038683,348.682497 367.382211,351.766507 L445.076647,396.624343 Z" id="Stroke-72" stroke="url(#linearGradient-1)" opacity="0.3"></path>
                        <path d="M199.856948,339.818046 C205.200476,342.903419 205.234546,347.908973 199.919636,350.998435 L122.736249,395.853545 C117.42134,398.941643 108.777117,398.937555 103.433588,395.853545 L25.7391523,350.995709 C20.3956242,347.910336 20.3670054,342.907507 25.6819149,339.818046 L102.865302,294.964299 C108.180211,291.874837 116.818983,291.8762 122.162512,294.96021 L199.856948,339.818046 Z" id="Stroke-74" stroke="url(#linearGradient-1)" opacity="0.3"></path>
                    </g>
                    <g id="Group-157" transform="translate(156.358891, 231.845888)">
                        <path d="M134.963976,178.360517 L135.831934,170.486213 C136.848491,171.073527 137.9359,171.59135 139.080538,172.04377 C139.9623,172.392358 140.876737,172.70035 141.817067,172.967458 L140.948965,180.843064 C140.00874,180.574623 139.094403,180.266669 138.212764,179.919204 C137.067991,179.467047 135.980479,178.947821 134.963832,178.361819 L134.963976,178.360517 L6.6908102,104.302099 C2.25217944,101.74004 0.034908259,98.3766565 0.04444784,95.0159984 L0.912549711,87.1417557 C0.90301013,90.501051 3.12028131,93.8657975 7.55891207,96.4278564 L135.832207,170.486349 L134.964105,178.360592 Z M145.535051,181.807924 C144.781424,181.701626 144.035974,181.570797 143.300063,181.419527 L144.168165,173.543921 C144.902698,173.696552 145.649496,173.826015 146.403108,173.932312 C147.126798,174.035482 147.85862,174.11725 148.594531,174.177213 L147.726429,182.052819 C146.991896,181.991494 146.260089,181.909728 145.535095,181.807521 Z M155.623417,174.119418 C156.593575,174.022672 157.552835,173.889141 158.497109,173.718827 C159.966256,173.453977 161.395831,173.099649 162.762716,172.65674 L161.894614,180.532346 C160.527829,180.975222 159.098365,181.32953 157.629383,181.593907 C156.684913,181.764723 155.725504,181.896915 154.755192,181.993673 C153.928028,182.076673 153.092674,182.132544 152.255958,182.161161 L153.12406,174.285556 C153.960818,174.256937 154.796212,174.201062 155.62343,174.119294 Z M166.832326,178.360226 L166.832165,178.361682 C165.329,179.233873 163.666387,179.957518 161.894751,180.532618 L162.762853,172.657013 C164.533126,172.083275 166.197102,171.35963 167.700267,170.486077 L295.12999,96.4316722 C295.433894,96.2545086 295.703728,96.0650798 295.98719,95.8811021 C296.261112,95.7025757 296.541848,95.5267748 296.795328,95.3414344 C297.02019,95.1792615 297.219158,95.0102747 297.427666,94.8426506 C297.662068,94.6532218 297.903283,94.4665185 298.118605,94.2716385 C298.456578,93.9663719 298.778199,93.657017 299.067112,93.3394852 C299.120261,93.2822477 299.166596,93.2236474 299.217019,93.1650471 C299.432341,92.9224692 299.624496,92.6730773 299.809836,92.4236854 C300.003353,92.1647539 300.176429,91.9017341 300.339964,91.640077 C300.442174,91.4724529 300.551198,91.3061916 300.642505,91.1372048 C300.76652,90.9055292 300.86873,90.6711281 300.969577,90.4353642 C301.049982,90.2527493 301.137201,90.0701345 301.202615,89.8861569 C301.281657,89.6626581 301.337532,89.4377966 301.394769,89.212935 C301.446556,89.0207806 301.505156,88.829989 301.539226,88.6364718 C301.584198,88.4007078 301.599189,88.1622183 301.620994,87.9250916 C301.641436,87.7056812 301.676868,87.4876336 301.676868,87.2668605 L300.808767,95.142466 C300.808767,95.2092431 300.807404,95.2746573 300.806041,95.3400716 C300.801953,95.4940677 300.767883,95.646701 300.752892,95.8006971 C300.73245,96.0378238 300.716096,96.2749505 300.672487,96.5120773 C300.66431,96.5529612 300.665673,96.5924823 300.657496,96.6333662 C300.627514,96.7859995 300.567551,96.9359072 300.52803,97.0885405 C300.46943,97.3134021 300.413555,97.5382636 300.334513,97.7617624 C300.318159,97.8080975 300.311345,97.8557954 300.293629,97.9021305 C300.243206,98.039773 300.162801,98.17469 300.102838,98.3109697 C300.000628,98.5453708 299.898418,98.7811348 299.774403,99.0128103 C299.743059,99.0700478 299.725343,99.1272853 299.693998,99.18316 C299.63131,99.2949093 299.540002,99.4025703 299.471862,99.5129569 C299.308327,99.7773396 299.136614,100.040359 298.943097,100.299291 C298.88586,100.375608 298.846338,100.45465 298.787738,100.529604 C298.651458,100.701316 298.498825,100.871666 298.348917,101.040653 C298.298494,101.099253 298.252159,101.157853 298.19901,101.215091 C297.946892,101.491739 297.679784,101.764298 297.390871,102.032769 C297.347261,102.070927 297.294112,102.107723 297.250503,102.147244 C297.035181,102.342124 296.795328,102.528827 296.559565,102.716893 C296.351057,102.884517 296.152088,103.053504 295.928589,103.215677 C295.673746,103.401018 295.39301,103.578181 295.119088,103.756708 C294.921482,103.884811 294.744319,104.019728 294.537173,104.145105 C294.445866,104.198254 294.354559,104.252766 294.261888,104.307278 L166.832326,178.360226 Z M153.12406,174.285692 L152.255958,182.161297 C151.48734,182.187191 150.715997,182.189916 149.94738,182.1722 L150.815481,174.296594 C151.584099,174.315673 152.355442,174.311585 153.12406,174.285692 Z M150.815073,174.296322 L149.946971,182.171927 C149.205609,182.152848 148.464247,182.113327 147.726974,182.052001 L148.595076,174.177758 C149.332349,174.239084 150.073711,174.277243 150.815073,174.296322 Z M144.168029,173.543649 L143.299927,181.419254 C142.50269,181.254356 141.717719,181.062201 140.949102,180.842791 L141.817203,172.967185 C142.584458,173.186596 143.370792,173.37875 144.168029,173.543649 Z" id="Combined-Shape" fill="url(#linearGradient-7)"></path>
                        <path d="M295.026009,77.9721742 C303.848758,83.0663104 303.904633,91.3330387 295.129581,96.4312634 L167.699858,170.485668 C158.924807,175.585255 144.654956,175.579804 135.832207,170.485668 L7.55891207,96.427175 C-1.26383755,91.3344015 -1.31017266,83.0731244 7.46487906,77.973537 L134.894602,3.91913243 C143.669654,-1.18045501 157.929965,-1.18045501 166.752714,3.91368125 L295.026009,77.9721742 Z" id="Fill-121" fill="url(#linearGradient-8)"></path>
                    </g>
                    <g id="Group-71" transform="translate(207.145187, 110.556930)">
                        <path d="M90.9589501,111.154048 C91.5325201,111.378822 92.1278794,111.57772 92.7395818,111.75074 C93.2395529,111.893105 93.7504201,112.015707 94.2694581,112.123329 L93.70526,270.36181 C93.1860342,270.255512 92.6749852,270.131498 92.1748386,269.989767 L92.5141641,174.820453 L92.174021,269.989222 C91.5634878,269.816146 90.9679454,269.617178 90.3942077,269.392316 L90.7327265,174.449228 L90.39339,269.392316 C89.6493027,269.100678 88.9406481,268.76543 88.2796914,268.386572 L88.6190198,173.216449 L88.2788738,268.386844 L4.79527481,220.544483 C1.90750736,218.888684 0.464305035,216.716385 0.471119022,214.545449 L1.0353171,56.306968 C1.02850311,58.4765413 2.47170544,60.650203 5.36083568,62.3060017 L88.8444346,110.147 C89.5065943,110.527131 90.2150658,110.862276 90.9589509,111.153835 Z M95.1596384,270.612664 C94.6691238,270.54453 94.1840587,270.46005 93.7058051,270.361947 L94.2700032,112.123465 C94.748345,112.221587 95.2335009,112.30608 95.7241079,112.37422 C96.1955442,112.441289 96.6710707,112.493063 97.1506841,112.532577 C97.6315694,112.572389 98.1138182,112.596906 98.5960669,112.609166 C99.0973488,112.621565 99.5986306,112.618835 100.098551,112.602489 L99.53299,270.84097 C99.0328434,270.857323 98.531334,270.860049 98.0311874,270.847784 L98.3134881,191.671987 L98.030506,270.847648 C97.5480758,270.835382 97.0656455,270.810852 96.5859409,270.771331 L96.924863,175.71513 L96.5851232,270.771058 C96.1067814,270.731537 95.6311651,270.679751 95.1596372,270.612974 Z M101.160036,270.733239 C100.620592,270.786353 100.078425,270.823125 99.5335351,270.840834 L100.099096,112.602352 C100.642622,112.583281 101.186148,112.54787 101.724229,112.494759 C102.355207,112.432684 102.980731,112.346828 103.595352,112.236441 L103.031154,270.474922 C102.416533,270.585309 101.791009,270.671165 101.160034,270.733854 Z M109.302805,189.098266 L109.019422,268.386163 C108.042296,268.950361 106.958872,269.417801 105.807309,269.789844 L106.371507,111.55 C107.524165,111.179406 108.60599,110.712098 109.584299,110.148076 L192.520056,62.3091361 C192.717661,62.1946611 192.892099,62.0720094 193.07744,61.9520832 C193.255966,61.8376082 193.438581,61.7231333 193.60348,61.6045699 C193.749299,61.4982717 193.878765,61.3892479 194.015044,61.281587 C194.167678,61.1589352 194.324399,61.039009 194.464768,60.9122689 C194.685541,60.7160261 194.894049,60.5156949 195.082115,60.3112753 C195.116185,60.2744798 195.146166,60.2349586 195.180236,60.1981631 C195.319241,60.0414414 195.444619,59.8806313 195.565908,59.7184585 C195.692648,59.5521972 195.804397,59.3832103 195.909333,59.2128607 C195.977473,59.1038369 196.048338,58.9975387 196.106938,58.8871521 C196.188706,58.7386072 196.25412,58.5873367 196.320897,58.4347034 C196.372684,58.3175029 196.429921,58.1989395 196.472168,58.0803761 C196.522591,57.9359196 196.559387,57.7901003 196.597545,57.6456438 C196.630252,57.5216292 196.668411,57.3976147 196.691578,57.2722373 C196.720197,57.119604 196.731099,56.965608 196.744727,56.8129747 C196.756993,56.6712437 196.78016,56.5295128 196.78016,56.3877819 L196.215962,214.626263 C196.215962,214.669873 196.214599,214.712119 196.213236,214.755729 C196.210511,214.85385 196.188706,214.953335 196.179167,215.051456 C196.165539,215.205452 196.154636,215.358085 196.126017,215.512081 C196.121929,215.537975 196.123292,215.563868 196.117841,215.589761 C196.097399,215.689245 196.05924,215.786004 196.033347,215.884125 C195.993826,216.029944 195.958393,216.174401 195.906607,216.318857 C195.895705,216.348839 195.892979,216.37882 195.880714,216.410165 C195.846644,216.498747 195.794858,216.584603 195.756699,216.673185 C195.689922,216.825818 195.623145,216.977088 195.54274,217.126996 C195.522298,217.163792 195.511396,217.200587 195.489591,217.237383 C195.448707,217.309611 195.390107,217.379114 195.345135,217.451342 C195.240199,217.621692 195.127087,217.790678 195.00171,217.958303 C194.963551,218.007363 194.939021,218.057787 194.8995,218.106847 C194.812281,218.218597 194.712797,218.327621 194.614675,218.436644 C194.581968,218.474803 194.551987,218.512961 194.517917,218.549757 C194.353018,218.728283 194.17858,218.904084 193.990514,219.077159 C193.961895,219.103052 193.929188,219.12622 193.900569,219.152113 C193.760201,219.27749 193.60348,219.398779 193.450846,219.521431 C193.314567,219.629092 193.185101,219.738116 193.039282,219.843051 C192.874383,219.961615 192.690405,220.07609 192.513242,220.191927 C192.383776,220.275058 192.269301,220.362277 192.134384,220.442682 C192.074421,220.478115 192.014458,220.512185 191.954495,220.547617 L109.020103,268.387253 L109.302805,189.098266 Z M106.371507,111.550409 L105.807309,269.78889 C104.917402,270.075078 103.986612,270.304028 103.031291,270.47574 L103.595489,112.235896 C104.55081,112.065546 105.4816,111.836596 106.371507,111.550409 Z" id="Combined-Shape" fill="url(#linearGradient-9)"></path>
                        <path d="M192.452052,50.3835696 C198.193517,53.6747251 198.230313,59.0141648 192.520192,62.3080459 L109.584438,110.147682 C103.874317,113.441563 94.5854908,113.438837 88.8440258,110.147682 L5.36042684,62.3053203 C-0.381038121,59.0141648 -0.412382459,53.6788135 5.29910097,50.3835696 L88.2334926,2.54529649 C93.944976,-0.749947346 103.226988,-0.749947346 108.968453,2.5412081 L192.452052,50.3835696 Z" id="Fill-35" fill="url(#linearGradient-10)"></path>
                    </g>
                    <g id="Group-116" transform="translate(51.786297, 397.795985)">
                        <path d="M52.0378768,83.6436201 L3.12462162,55.4038877 C1.43202739,54.4253992 0.587093071,53.143007 0.589818665,51.8619775 L0.920978406,33.2693342 C0.918252811,34.5503636 1.76318713,35.8327559 3.45578136,36.8098815 L53.6596488,65.659142 L53.659177,65.6643753 C53.9797039,65.7894881 54.3111437,65.8999455 54.6511693,65.996911 L54.3200096,84.5895544 C53.9629567,84.4873446 53.6127178,84.370144 53.2774697,84.2379527 L53.4741731,73.1477809 L53.276652,84.2382252 C52.8419196,84.06515 52.4262665,83.8675444 52.0378692,83.6440456 Z M57.1044253,73.8291796 L56.9045546,85.050725 C56.6251812,85.0275574 56.3458077,84.9975759 56.0691599,84.9580548 L56.4003196,66.3654114 C56.6769675,66.4035697 56.9549781,66.434914 57.2357144,66.4580816 C57.5176276,66.4815408 57.7995478,66.4965168 58.0828292,66.5033265 L57.7516694,85.0959698 C57.4682076,85.0891559 57.1861086,85.0741651 56.9053723,85.0509975 L57.1044253,73.8291796 Z M61.0117531,66.2825533 C61.5718628,66.1817063 62.1169817,66.0467894 62.6389331,65.8778025 L62.5088381,73.182396 L62.6394782,65.8772574 C63.3140628,65.6592098 63.9491264,65.3839248 64.5215012,65.0500394 L64.1903415,83.6440456 C63.6168393,83.9764317 62.9834232,84.2516272 62.3077878,84.4709934 C61.7872725,84.6407671 61.2408872,84.775667 60.6808765,84.8751464 C60.3210874,84.9411561 59.954495,84.9915796 59.5851769,85.0283751 L59.9163366,66.4357317 C60.2855578,66.3989458 60.6520548,66.3485392 61.0117425,66.2831499 Z M115.588377,33.5679231 C115.596554,33.4834296 115.610182,33.400299 115.610182,33.3171684 L115.279022,51.9098117 C115.279022,51.9357049 115.27766,51.9602352 115.27766,51.9861284 C115.276297,52.0447287 115.262669,52.1019661 115.257218,52.1605664 C115.249041,52.250511 115.24359,52.3418185 115.225873,52.4317631 C115.223148,52.4481167 115.224511,52.4631074 115.220422,52.4780982 C115.20952,52.5366985 115.186352,52.593936 115.171361,52.6511735 C115.149557,52.7370297 115.127752,52.8228859 115.09777,52.9087421 C115.090956,52.9264585 115.089594,52.9441749 115.08278,52.9618912 C115.062338,53.0150403 115.032356,53.0668266 115.009189,53.1186129 C114.97103,53.2085575 114.931509,53.2971394 114.883811,53.3857212 C114.872909,53.4075259 114.866095,53.4293307 114.85383,53.4511355 C114.829299,53.4933822 114.795229,53.5342661 114.769336,53.5765128 C114.706648,53.6773598 114.641233,53.7782068 114.566279,53.8763282 C114.545837,53.904947 114.530847,53.9349285 114.507679,53.9635472 C114.455893,54.0303243 114.397293,54.0943758 114.340055,54.1584272 C114.320976,54.1815948 114.304622,54.2033996 114.282818,54.2252043 C114.187422,54.3315025 114.085212,54.4350751 113.974825,54.5372849 C113.958472,54.5522757 113.939393,54.5659036 113.921676,54.5808944 C113.839908,54.6558483 113.748601,54.7267137 113.658656,54.798942 C113.578251,54.8616306 113.503298,54.9270449 113.417441,54.9883708 C113.320683,55.0592363 113.213022,55.1260133 113.109449,55.195516 C113.033132,55.2432139 112.966355,55.2950002 112.887313,55.3426981 C112.853243,55.3631401 112.817811,55.383582 112.782378,55.404024 L64.1904778,83.6439093 L64.5216375,65.0499032 L113.113538,36.8113806 C113.229375,36.7446035 113.331585,36.6723753 113.439246,36.6015098 C113.544181,36.5333699 113.651842,36.4665929 113.748601,36.3957274 C113.833094,36.3344015 113.910774,36.2689873 113.989816,36.2062986 C114.079761,36.1340703 114.171068,36.0618421 114.252836,35.988251 C114.382302,35.8710505 114.504954,35.7538499 114.61534,35.6325609 C114.634419,35.6107562 114.652136,35.5875886 114.672578,35.5657839 C114.754345,35.4731137 114.826574,35.3790806 114.898802,35.2836848 C114.97103,35.1855634 115.037807,35.0847164 115.100496,34.9838694 C115.138654,34.9211808 115.180901,34.8571293 115.214971,34.7930778 C115.262669,34.704496 115.30219,34.6145514 115.340348,34.5259695 C115.37033,34.4551041 115.4044,34.3856014 115.42893,34.3160988 C115.458912,34.2302425 115.479354,34.1443863 115.502521,34.0585301 C115.5216,33.9863018 115.543405,33.9127108 115.558396,33.8391197 C115.574749,33.7491751 115.580201,33.6578677 115.588377,33.5679231 Z M59.5849043,85.0294653 C59.2687354,85.0608097 58.9512036,85.0812516 58.632309,85.092154 L58.9634688,66.4995106 C59.2823633,66.4886083 59.6012579,66.4668035 59.9160641,66.4354592 L59.5849043,85.0294653 Z M58.6320365,85.0920177 C58.3390351,85.1015573 58.0446708,85.1029201 57.7516694,85.0961061 L58.0828292,66.5034627 C58.3758306,66.5102767 58.6701948,66.5089139 58.9631962,66.4993744 L58.6320365,85.0920177 Z M56.0687511,84.9575096 C55.7812008,84.9166257 55.497739,84.867565 55.2170028,84.8089647 L55.5481625,66.2163214 C55.8288987,66.2749216 56.1137234,66.3239823 56.3999108,66.3648663 L56.0687511,84.9575096 Z M55.2170028,84.8092373 C54.913099,84.7465486 54.6132836,84.6729576 54.3202821,84.5898269 L54.6514419,65.9971836 C54.9444433,66.0803142 55.2442587,66.1539052 55.5481625,66.2165939 L55.2170028,84.8092373 Z" id="Combined-Shape" fill="url(#linearGradient-11)"></path>
                        <path d="M113.073744,29.7730777 C116.43849,31.7150639 116.458932,34.867214 113.113265,36.8119257 L64.5213649,65.0504483 C61.1743348,66.99516 55.7326852,66.9924344 52.3693015,65.0504483 L3.45578136,36.8105629 C0.0910348587,34.867214 0.073318494,31.7177895 3.42034863,29.7730777 L52.0108859,1.53455517 C55.357916,-0.408793759 60.7954772,-0.408793759 64.1602237,1.53182958 L113.073744,29.7730777 Z" id="Fill-80" fill="url(#linearGradient-12)"></path>
                    </g>
                    <g id="Group-198" transform="translate(298.452606, 452.307877)">
                        <path d="M53.928666,73.1477809 L54.0617595,65.6439465 C54.3983704,65.7775006 54.7472465,65.8947012 55.1056622,65.996911 C55.3985238,66.0803802 55.6982065,66.1539334 56.001974,66.2165939 L55.6708143,84.8092373 C55.3669105,84.7465486 55.0670951,84.6729576 54.7754564,84.5898269 L55.0074891,71.5087446 L54.7745025,84.5895544 C54.4160868,84.4873446 54.0672107,84.370144 53.7319626,84.2379527 L53.928666,73.1477809 L53.7311449,84.2382252 C53.2950497,84.06515 52.8793966,83.8675444 52.4923621,83.6440456 L3.57911451,55.4038877 C1.88652028,54.4253992 1.04158597,53.143007 1.04431156,51.8619775 L1.3754713,33.2693342 C1.37138291,34.5503636 2.21768002,35.8327559 3.91027425,36.8098815 L52.8237944,65.0497669 C53.210746,65.2749912 53.626309,65.4725458 54.0623046,65.6442191 L53.928666,73.1477809 Z M57.5589182,73.8291796 L57.3590475,85.050725 C57.0783113,85.0275574 56.8003006,84.9975759 56.5236528,84.9580548 L56.8548125,66.3654114 C57.1300976,66.4035697 57.409471,66.434914 57.6902073,66.4580816 C57.9707594,66.4815408 58.2540407,66.4965168 58.5373221,66.5033265 C58.8300957,66.5102746 59.1242321,66.5089066 59.4170077,66.4993744 C59.737125,66.4885898 60.0545218,66.4667902 60.370557,66.4354592 L60.0393972,85.0294653 C59.7232283,85.0608097 59.4056965,85.0812516 59.0868019,85.092154 L59.3182472,72.0441877 L59.085848,85.0920177 C58.7928466,85.1015573 58.4998451,85.1029201 58.2054809,85.0961061 C57.9222502,85.0891319 57.6403774,85.0741466 57.3598652,85.0509975 L57.5589182,73.8291796 Z M64.8422615,72.5206216 L64.644153,83.6440456 C64.0717781,83.9765681 63.4367146,84.2518532 62.7621299,84.4712636 L63.0932897,65.8772574 C63.767657,65.6592801 64.4025286,65.3841022 64.9747595,65.0503621 L113.56803,36.8113806 C113.683868,36.7446035 113.786078,36.6723753 113.893739,36.6015098 C113.998674,36.5333699 114.106335,36.4665929 114.203094,36.3957274 C114.287587,36.3344015 114.363904,36.2689873 114.444309,36.2062986 C114.532891,36.1340703 114.624198,36.0618421 114.707329,35.988251 C114.836795,35.8710505 114.958084,35.7538499 115.06847,35.6325609 C115.088912,35.6107562 115.106629,35.5875886 115.125708,35.5657839 C115.207476,35.4731137 115.281067,35.3790806 115.351932,35.2836848 C115.425523,35.1855634 115.4923,35.0847164 115.553626,34.9838694 C115.593147,34.9211808 115.635394,34.8571293 115.669464,34.7930778 C115.717162,34.704496 115.756683,34.6145514 115.794841,34.5259695 C115.824823,34.4551041 115.85753,34.3856014 115.883423,34.3160988 C115.913405,34.2302425 115.933847,34.1443863 115.957014,34.0585301 C115.976093,33.9863018 115.997898,33.9127108 116.011526,33.8391197 C116.02788,33.7491751 116.034694,33.6578677 116.04287,33.5679231 C116.049684,33.4834296 116.064675,33.400299 116.064675,33.3171684 L115.733515,51.9098117 C115.733515,51.9357049 115.732153,51.9602352 115.732153,51.9861284 C115.73079,52.0447287 115.717162,52.1019661 115.711711,52.1605664 C115.703534,52.250511 115.698083,52.3418185 115.680366,52.4317631 C115.677641,52.4481167 115.679003,52.4631074 115.674915,52.4780982 C115.664013,52.5366985 115.640845,52.593936 115.625854,52.6511735 C115.60405,52.7370297 115.582245,52.8228859 115.552263,52.9087421 C115.545449,52.9264585 115.542724,52.9441749 115.53591,52.9618912 C115.516831,53.0150403 115.486849,53.0668266 115.463681,53.1186129 C115.42416,53.2085575 115.386002,53.2971394 115.338304,53.3857212 C115.327402,53.4075259 115.320588,53.4293307 115.30696,53.4511355 C115.283792,53.4933822 115.248359,53.5342661 115.222466,53.5765128 C115.16114,53.6773598 115.095726,53.7782068 115.020772,53.8763282 C114.998968,53.904947 114.98534,53.9349285 114.962172,53.9635472 C114.910386,54.0303243 114.851785,54.0943758 114.794548,54.1584272 C114.775469,54.1815948 114.757752,54.2033996 114.73731,54.2252043 C114.641915,54.3315025 114.539705,54.4350751 114.429318,54.5372849 C114.412965,54.5522757 114.392523,54.5659036 114.376169,54.5808944 C114.294401,54.6558483 114.201731,54.7267137 114.111787,54.798942 C114.032744,54.8616306 113.95779,54.9270449 113.871934,54.9883708 C113.775176,55.0592363 113.667515,55.1260133 113.563942,55.195516 C113.487625,55.2432139 113.420848,55.2950002 113.341806,55.3426981 C113.306373,55.3631401 113.272303,55.383582 113.236871,55.404024 L64.6449707,83.6439093 L64.8422615,72.5206216 Z M63.0927445,65.8778025 L62.7615848,84.4718087 C62.2409962,84.6407955 61.6958773,84.7757125 61.1357676,84.8751967 L61.4669274,66.2825533 C62.0256743,66.1817063 62.572156,66.0467894 63.0927445,65.8778025 Z M61.4665185,66.2830984 L61.1353588,84.8757418 C60.7755803,84.9411561 60.4089879,84.9915796 60.0396698,85.0283751 L60.3708295,66.4357317 C60.7401476,66.3989362 61.1067401,66.3485127 61.4665185,66.2830984 Z M56.8544037,66.3648663 L56.523244,84.9575096 C56.2356937,84.9166257 55.9508691,84.867565 55.6714956,84.8089647 L56.0026554,66.2163214 C56.2833916,66.2749216 56.5668535,66.3239823 56.8544037,66.3648663 Z" id="Combined-Shape" fill="url(#linearGradient-11)"></path>
                        <path d="M113.527555,29.7730777 C116.892302,31.7150639 116.912744,34.867214 113.567076,36.8119257 L64.9751764,65.0504483 C61.6295091,66.99516 56.1878595,66.9924344 52.823113,65.0504483 L3.90959285,36.8105629 C0.546209152,34.867214 0.528492787,31.7177895 3.87416012,29.7730777 L52.4660602,1.53455517 C55.8117275,-0.408793759 61.2506515,-0.408793759 64.6140352,1.53182958 L113.527555,29.7730777 Z" id="Fill-162" fill="url(#linearGradient-12)"></path>
                    </g>
                    <g id="Group-239" transform="translate(470.165064, 369.177242)">
                        <path d="M52.0378768,83.6436201 L3.12462162,55.4038877 C1.43202739,54.4253992 0.587093071,53.143007 0.589818665,51.8619775 L0.920978406,33.2693342 C0.918252811,34.5503636 1.76318713,35.8327559 3.45578136,36.8098815 L53.7110402,65.5019748 L53.6947902,65.6781988 C54.0042353,65.7976412 54.3237211,65.9035322 54.6511693,65.996911 L54.3200096,84.5895544 C53.9629567,84.4873446 53.6127178,84.370144 53.2774697,84.2379527 L53.4741731,73.1477809 L53.276652,84.2382252 C52.8419196,84.06515 52.4262665,83.8675444 52.0378692,83.6440456 Z M57.1044253,73.8291795 L56.9045546,85.050725 C56.6251812,85.0275574 56.3458077,84.9975759 56.0691599,84.9580548 L56.4003196,66.3654114 C56.6769675,66.4035697 56.9549781,66.434914 57.2357144,66.4580816 C57.5176276,66.4815408 57.7995478,66.4965168 58.0828292,66.5033265 L57.7516694,85.0959698 C57.4682076,85.0891559 57.1861086,85.0741651 56.9053723,85.0509975 L57.1044253,73.8291795 Z M61.0117531,66.2825533 C61.5718628,66.1817063 62.1169817,66.0467894 62.6389331,65.8778025 L62.5088381,73.182396 L62.6394782,65.8772574 C63.3140628,65.6592098 63.9491264,65.3839248 64.5215012,65.0500394 L64.1903415,83.6440456 C63.6168393,83.9764317 62.9834232,84.2516272 62.3077878,84.4709934 C61.7872725,84.6407671 61.2408872,84.775667 60.6808765,84.8751464 C60.3210874,84.9411561 59.954495,84.9915796 59.5851769,85.0283751 L59.9163366,66.4357317 C60.2855578,66.3989458 60.6520548,66.3485392 61.0117425,66.2831499 Z M115.588377,33.5679231 C115.596554,33.4834296 115.610182,33.400299 115.610182,33.3171684 L115.279022,51.9098117 C115.279022,51.9357049 115.27766,51.9602352 115.27766,51.9861284 C115.276297,52.0447287 115.262669,52.1019661 115.257218,52.1605664 C115.249041,52.250511 115.24359,52.3418185 115.225873,52.4317631 C115.223148,52.4481167 115.224511,52.4631074 115.220422,52.4780982 C115.20952,52.5366985 115.186352,52.593936 115.171361,52.6511735 C115.149557,52.7370297 115.127752,52.8228859 115.09777,52.9087421 C115.090956,52.9264585 115.089594,52.9441749 115.08278,52.9618912 C115.062338,53.0150403 115.032356,53.0668266 115.009189,53.1186129 C114.97103,53.2085575 114.931509,53.2971394 114.883811,53.3857212 C114.872909,53.4075259 114.866095,53.4293307 114.85383,53.4511355 C114.829299,53.4933822 114.795229,53.5342661 114.769336,53.5765128 C114.706648,53.6773598 114.641233,53.7782068 114.566279,53.8763282 C114.545837,53.904947 114.530847,53.9349285 114.507679,53.9635472 C114.455893,54.0303243 114.397293,54.0943758 114.340055,54.1584272 C114.320976,54.1815948 114.304622,54.2033996 114.282818,54.2252043 C114.187422,54.3315025 114.085212,54.4350751 113.974825,54.5372849 C113.958472,54.5522757 113.939393,54.5659036 113.921676,54.5808944 C113.839908,54.6558483 113.748601,54.7267137 113.658656,54.798942 C113.578251,54.8616306 113.503298,54.9270449 113.417441,54.9883708 C113.320683,55.0592363 113.213022,55.1260133 113.109449,55.195516 C113.033132,55.2432139 112.966355,55.2950002 112.887313,55.3426981 C112.853243,55.3631401 112.817811,55.383582 112.782378,55.404024 L64.1904778,83.6439093 L64.5216375,65.0499032 L113.113538,36.8113806 C113.229375,36.7446035 113.331585,36.6723753 113.439246,36.6015098 C113.544181,36.5333699 113.651842,36.4665929 113.748601,36.3957274 C113.833094,36.3344015 113.910774,36.2689873 113.989816,36.2062986 C114.079761,36.1340703 114.171068,36.0618421 114.252836,35.988251 C114.382302,35.8710505 114.504954,35.7538499 114.61534,35.6325609 C114.634419,35.6107562 114.652136,35.5875886 114.672578,35.5657839 C114.754345,35.4731137 114.826574,35.3790806 114.898802,35.2836848 C114.97103,35.1855634 115.037807,35.0847164 115.100496,34.9838694 C115.138654,34.9211808 115.180901,34.8571293 115.214971,34.7930778 C115.262669,34.704496 115.30219,34.6145514 115.340348,34.5259695 C115.37033,34.4551041 115.4044,34.3856014 115.42893,34.3160988 C115.458912,34.2302425 115.479354,34.1443863 115.502521,34.0585301 C115.5216,33.9863018 115.543405,33.9127108 115.558396,33.8391197 C115.574749,33.7491751 115.580201,33.6578677 115.588377,33.5679231 Z M59.9160641,66.4354592 L59.5849043,85.0294653 C59.2687354,85.0608097 58.9512036,85.0812516 58.632309,85.092154 L58.9634688,66.4995106 C59.2823633,66.4886083 59.6012579,66.4668035 59.9160641,66.4354592 Z M58.9631962,66.4993744 L58.6320365,85.0920177 C58.3390351,85.1015573 58.0446708,85.1029201 57.7516694,85.0961061 L58.0828292,66.5034627 C58.3758306,66.5102767 58.6701948,66.5089139 58.9631962,66.4993744 Z M56.3999108,66.3648663 L56.0687511,84.9575096 C55.7812008,84.9166257 55.497739,84.867565 55.2170028,84.8089647 L55.5481625,66.2163214 C55.8288987,66.2749216 56.1137234,66.3239823 56.3999108,66.3648663 Z M55.5481625,66.2165939 L55.2170028,84.8092373 C54.913099,84.7465486 54.6132836,84.6729576 54.3202821,84.5898269 L54.6514419,65.9971836 C54.9444433,66.0803142 55.2442587,66.1539052 55.5481625,66.2165939 Z" id="Combined-Shape" fill="url(#linearGradient-11)"></path>
                        <path d="M113.073744,29.7730777 C116.43849,31.7150639 116.458932,34.867214 113.113265,36.8119257 L64.5213649,65.0504483 C61.1743348,66.99516 55.7326852,66.9924344 52.3693015,65.0504483 L3.45578136,36.8105629 C0.0910348587,34.867214 0.073318494,31.7177895 3.42034863,29.7730777 L52.0108859,1.53455517 C55.357916,-0.408793759 60.7954772,-0.408793759 64.1602237,1.53182958 L113.073744,29.7730777 Z" id="Fill-203" fill="url(#linearGradient-12)"></path>
                    </g>
                    <g id="Group-280" transform="translate(456.537091, 154.166443)">
                        <path d="M53.1539892,65.7881585 C53.4904351,65.920264 53.8391317,66.0373947 54.1973578,66.1395504 C54.4902194,66.2230197 54.7899021,66.2965728 55.0936696,66.3592334 L54.7625099,84.9532395 C54.4587506,84.8892185 54.1590758,84.815667 53.8662072,84.732585 C53.5077824,84.629984 53.1589063,84.5127835 52.8236582,84.3805921 L53.0232986,73.1256582 L52.8228405,84.3801833 C52.3867454,84.2084708 51.9710922,84.0108652 51.5840577,83.7873665 L51.9152175,65.1933603 C52.3022519,65.416859 52.7179051,65.6158274 53.1540002,65.7875399 Z M58.4099428,72.1875085 L58.1775436,85.2353386 C57.8845422,85.2448782 57.5915407,85.246241 57.2971765,85.239427 L57.6283363,66.6467836 C57.9213377,66.6535976 58.2157019,66.6522348 58.5087033,66.6426952 C58.8288206,66.6319106 59.1462174,66.6101111 59.4622526,66.57878 L59.1310928,85.1714234 C58.8149239,85.2041305 58.4973921,85.2245725 58.1784975,85.2354749 L58.4099428,72.1875085 Z M60.2270544,85.0190626 C59.8672759,85.0844769 59.5006835,85.1349004 59.1313654,85.1716959 L59.4625251,66.5790526 C59.8318432,66.542257 60.1970729,66.4904707 60.5582142,66.4264193 L60.4612353,71.8712033 L60.558623,66.4258742 C61.1173699,66.3250272 61.6638516,66.1901102 62.1844402,66.0211234 L61.8532804,84.6151295 C61.3329906,84.7826574 60.7881987,84.9175156 60.2270672,85.0183438 Z M63.933957,72.6633973 L63.7358486,83.7860037 C63.1634737,84.119889 62.5284102,84.395174 61.8538255,84.6145844 L62.1849853,66.0205782 C62.8593526,65.8026009 63.4942242,65.527423 64.0664551,65.193683 L112.659726,36.9547014 C112.775564,36.8879244 112.877774,36.8143333 112.985435,36.7448307 C113.09037,36.6766908 113.198031,36.6085509 113.29479,36.5390483 C113.379283,36.4763596 113.4556,36.4123081 113.534642,36.3496194 C113.624587,36.2760284 113.715894,36.2051629 113.799025,36.1315719 C113.927128,36.0143713 114.049779,35.8971708 114.160166,35.7758818 C114.180608,35.754077 114.198324,35.7309095 114.217403,35.7091047 C114.299171,35.6164345 114.372762,35.5224015 114.443628,35.4256429 C114.517219,35.3275215 114.583996,35.2280373 114.645322,35.1271903 C114.684843,35.0631388 114.725727,35.0004501 114.761159,34.9350359 C114.808857,34.846454 114.847016,34.7578722 114.886537,34.6692904 C114.916518,34.5984249 114.949225,34.5289223 114.975119,34.4594196 C115.0051,34.3735634 115.025542,34.2877072 115.04871,34.2018509 C115.067789,34.1296227 115.089594,34.0560316 115.103222,33.9824406 C115.119575,33.8924959 115.126389,33.8011885 115.134566,33.7112439 C115.14138,33.6267505 115.155008,33.5436198 115.156371,33.4604892 L114.823848,52.0531326 C114.823848,52.0790257 114.823848,52.1035561 114.822485,52.1280864 C114.822485,52.1880495 114.808857,52.245287 114.803406,52.3038873 C114.795229,52.3938319 114.789778,52.4851393 114.772062,52.5750839 C114.769336,52.5914375 114.769336,52.6064283 114.766611,52.621419 C114.755708,52.6800193 114.732541,52.7372568 114.71755,52.7944943 C114.694382,52.8803505 114.67394,52.9662068 114.643959,53.052063 C114.637145,53.0697794 114.634419,53.0874957 114.627605,53.1052121 C114.608526,53.1583612 114.578545,53.2087847 114.555377,53.260571 C114.515856,53.3505156 114.477698,53.4404602 114.43,53.529042 C114.419097,53.5508468 114.410921,53.5726515 114.398655,53.5944563 C114.375488,53.636703 114.340055,53.6775869 114.314162,53.7198337 C114.252836,53.8206807 114.187422,53.9201649 114.112468,54.0196491 C114.090663,54.0482678 114.077035,54.0782493 114.053868,54.1068681 C114.002081,54.1736452 113.943481,54.2376966 113.886244,54.3017481 C113.867164,54.3235529 113.849448,54.3467204 113.829006,54.3685252 C113.73361,54.4734606 113.631401,54.5783959 113.521014,54.6806057 C113.50466,54.6955965 113.484218,54.7092245 113.467865,54.7242153 C113.386097,54.7978063 113.293427,54.8700346 113.203482,54.9422628 C113.12444,55.0049515 113.048123,55.0703658 112.96363,55.1316916 C112.865508,55.2025571 112.75921,55.2693342 112.654275,55.337474 C112.579321,55.3865347 112.512544,55.438321 112.433502,55.4860189 C112.398069,55.5064609 112.363999,55.5269029 112.327203,55.5473448 L63.7366663,83.7858674 L63.933957,72.6633973 Z M3.00128846,36.9532024 L51.9148087,65.1930877 L51.5836489,83.7857311 L2.67012872,55.5458457 C0.977534493,54.5687201 0.132600176,53.2863278 0.13532577,52.0052984 L0.467848308,33.4112922 C0.463759916,34.6936845 1.30869423,35.9760767 3.00128846,36.9532024 Z M57.6283363,66.6466473 L57.2971765,85.2392907 C57.0150775,85.2324767 56.7316157,85.2174859 56.4508794,85.1943184 L56.7820392,66.601675 C57.0627754,66.6234798 57.3448744,66.6398333 57.6283363,66.6466473 Z M56.7819029,66.6014024 L56.4507431,85.1940458 C56.1700069,85.1708783 55.8919963,85.1395339 55.6153484,85.1013756 L55.9465081,66.5073694 C56.2217932,66.5468906 56.5011666,66.5782349 56.7819029,66.6014024 Z M55.9460993,66.5075057 L55.6149396,85.1015119 C55.3273893,85.0592652 55.0425647,85.0102045 54.7631913,84.952967 L55.094351,66.3589608 C55.3737244,66.4175611 55.6585491,66.4666218 55.9460993,66.5075057 Z" id="Combined-Shape" fill="url(#linearGradient-11)"></path>
                        <path d="M112.619251,29.9157172 C115.983997,31.8577033 116.004439,35.0098534 112.658772,36.9545652 L64.066872,65.1930877 C60.7212047,67.1377995 55.2795551,67.1364367 51.9148087,65.1930877 L3.00128846,36.9532024 C-0.363458036,35.0112162 -0.379811604,31.8604289 2.96585573,29.9157172 L51.5577558,1.67719462 C54.9034231,-0.26615431 60.3423471,-0.26615431 63.7057308,1.67583182 L112.619251,29.9157172 Z" id="Fill-244" fill="url(#linearGradient-12)"></path>
                    </g>
                    <g id="Group-362" transform="translate(219.410363, 91.166596)">
                        <path d="M79.6497483,98.0317908 C80.1525029,98.2293357 80.6729643,98.4050865 81.2084089,98.5576814 L81.2083029,98.5579627 C81.6457511,98.6833363 82.0941013,98.7923573 82.5479023,98.8863881 L82.0532069,100.194674 C81.5993954,100.102003 81.1523979,99.9929795 80.71494,99.8676022 L80.7150459,99.867321 C80.1794772,99.7146897 79.6575361,99.5388917 79.1560362,99.3412899 L79.4893052,98.4565619 L79.1552185,99.3410173 C78.5038387,99.0834634 77.8837996,98.7877555 77.3046392,98.4538936 L77.3044035,98.4545177 L4.2366642,56.2677649 C1.70867524,54.808209 0.445362153,52.892116 0.450813342,50.9787486 L0.945508757,49.6691004 C0.940057568,51.5824678 2.20337065,53.4985608 4.73135962,54.9581167 L77.7989995,97.1448121 L77.7992352,97.1441881 C78.378424,97.4780734 78.9984968,97.7751632 79.6499139,98.0313691 L79.6497546,98.0317908 Z M83.8206957,99.1072703 L83.8208913,99.1067525 C84.2338188,99.1653527 84.6508348,99.2130506 85.0692136,99.2471206 L85.0078165,99.4101111 L85.0694861,99.246848 C85.4891155,99.2822713 85.9114689,99.3040738 86.3338231,99.3149791 L86.3340257,99.3144428 C86.7728465,99.3253451 87.2116672,99.3239823 87.6491251,99.3089916 L87.6490748,99.3091249 C88.1257623,99.2927794 88.6010885,99.2601004 89.0723327,99.2138086 L89.0725669,99.2131869 C89.6258626,99.158675 90.1723443,99.0823584 90.7106492,98.9855998 C91.5472883,98.8344277 92.3621605,98.6341104 93.1402442,98.3806541 L92.6455488,99.6903023 C91.8673916,99.9424197 91.0524388,100.144114 90.2156813,100.295384 C89.6777418,100.391983 89.1316006,100.468259 88.5800137,100.522758 L88.5797794,100.52338 C88.1082515,100.569715 87.6312725,100.602422 87.1556562,100.617413 L87.1557064,100.61728 C86.7170274,100.633627 86.2783484,100.634992 85.8396693,100.624099 L85.8394666,100.624636 C85.4173873,100.613744 84.9953081,100.591969 84.5759469,100.556594 L84.575881,100.556769 C84.1562056,100.522704 83.739255,100.475016 83.3263913,100.416428 L83.3261959,100.416946 C82.8969147,100.356983 82.4730848,100.282029 82.0533432,100.19481 L82.5480386,98.8865244 C82.9663539,98.9723676 83.3914812,99.0473118 83.820696,99.1072703 Z M95.4592575,98.4530436 L95.4589075,98.4539726 C94.601708,98.9513936 93.6545639,99.3629583 92.6460939,99.6900297 L93.1407893,98.3803815 C94.1475455,98.0534242 95.0957421,97.6420323 95.9513451,97.1448445 L95.951695,97.1439155 L168.541092,54.9612511 C168.714168,54.8590413 168.866801,54.7513803 169.028974,54.6478078 C169.184333,54.5442352 169.34378,54.444751 169.489599,54.3398156 C169.61634,54.2471454 169.730814,54.1503867 169.849378,54.0549909 C169.982932,53.9486927 170.120575,53.8410318 170.243226,53.7306452 C170.435381,53.5562071 170.617996,53.3804063 170.782894,53.1991542 C170.814238,53.1664471 170.840131,53.1323772 170.86875,53.09967 C170.991402,52.9606647 171.100426,52.8189338 171.206724,52.6772029 C171.317111,52.5300208 171.415232,52.3814759 171.507902,52.2302054 C171.566502,52.1348096 171.629191,52.0407765 171.679615,51.9440179 C171.751843,51.8131894 171.80908,51.6782725 171.867681,51.5447183 C171.912653,51.4411457 171.961714,51.3362103 171.999872,51.2326378 C172.044844,51.1045348 172.076189,50.9764319 172.108896,50.8483289 C172.138877,50.7393051 172.171584,50.6302814 172.192026,50.5198948 C172.216557,50.3849778 172.226096,50.2500609 172.238362,50.115144 C172.249264,49.9897666 172.269706,49.8657521 172.269706,49.7403747 L171.776373,51.0500229 C171.77501,51.0868184 171.77501,51.1249768 171.773648,51.1631351 C171.770922,51.2503541 171.751843,51.3362103 171.743666,51.4247922 C171.731401,51.5597091 171.723224,51.694626 171.697331,51.829543 C171.693243,51.8527105 171.694605,51.8758781 171.689154,51.8990456 C171.671438,51.9862647 171.638731,52.0721209 171.615563,52.1579771 C171.581493,52.2860801 171.550149,52.414183 171.505177,52.5422859 C171.495637,52.5681791 171.492911,52.595435 171.482009,52.6213282 C171.452027,52.7003704 171.407055,52.7766871 171.372985,52.8543665 C171.315748,52.9879207 171.257147,53.1228376 171.186282,53.2550289 C171.168566,53.2863733 171.159026,53.3204432 171.139947,53.3517875 C171.104514,53.415839 171.052728,53.4758021 171.01457,53.5398536 C170.920537,53.6897613 170.822415,53.839669 170.712029,53.9868511 C170.679321,54.0304606 170.657517,54.0754329 170.623447,54.1190424 C170.54713,54.2171638 170.459911,54.3125596 170.374055,54.4093182 C170.345436,54.4420254 170.319543,54.4760953 170.289561,54.5088024 C170.145105,54.6668869 169.992472,54.8222458 169.827573,54.9748791 C169.803043,54.9966839 169.773061,55.0171258 169.748531,55.0402934 C169.625879,55.15068 169.488237,55.2569781 169.354682,55.3646391 C169.236119,55.4600349 169.123007,55.5567935 168.994904,55.6494638 C168.850447,55.7543992 168.689637,55.8552462 168.534278,55.9560931 C168.422529,56.0296842 168.320319,56.1060009 168.203119,56.1782291 C168.151332,56.2082106 168.098183,56.239555 168.046397,56.2708993 L95.4592575,98.4530436 Z" id="Combined-Shape" fill="url(#linearGradient-13)"></path>
                        <path d="M168.481402,44.445771 C173.507398,47.3471664 173.538743,52.055631 168.540002,54.9611149 L95.9519676,97.1437792 C90.9545899,100.049263 82.8241413,100.045175 77.7995077,97.1437792 L4.73176846,54.9583893 C-0.294227934,52.0569938 -0.32148388,47.3512548 4.67725657,44.445771 L77.2652912,2.2631066 C82.2640316,-0.641014417 90.3876663,-0.641014417 95.4136627,2.25901821 L168.481402,44.445771 Z" id="Fill-326" fill="url(#linearGradient-14)"></path>
                    </g>
                    <g id="Group-321" transform="translate(227.587147, 68.310214)">
                        <path d="M73.3082594,90.8079665 L73.0663765,91.4483314 C72.5812207,91.3093261 72.1096928,91.1498788 71.6545185,90.9713523 L72.1028788,89.7843559 C72.5580531,89.9642452 73.029581,90.1223296 73.5147368,90.261335 L73.5145447,90.2618435 C73.9110049,90.3735518 74.3170005,90.4730027 74.7284441,90.5588336 C75.1085055,90.6379182 75.4926827,90.7033068 75.8823073,90.7591623 L75.8824608,90.758756 C76.2558673,90.8119051 76.6347249,90.8541518 77.0135825,90.8854961 L76.5652222,92.0724926 C76.1863704,92.0411487 75.8088813,91.9989028 75.4341177,91.9457549 L75.4339642,91.9461612 C75.045567,91.8916494 74.6598954,91.8235095 74.2810377,91.74583 L74.593936,90.9149325 L74.2800838,91.74583 C73.868519,91.6599738 73.4637682,91.5604896 73.0671942,91.4473774 L73.3082594,90.8079665 Z M77.9359237,91.5403202 L77.7117436,92.1338184 C77.3287976,92.1242789 76.9458515,92.1038369 76.5656311,92.0724926 L77.0139914,90.8854961 C77.3942118,90.9168405 77.7771579,90.9372824 78.1601039,90.946822 C78.5578095,90.95636 78.9555204,90.9549911 79.3518701,90.9413708 L79.3518216,90.9414993 C79.7837537,90.9265064 80.2156848,90.8978903 80.6421666,90.8556509 L80.2416405,91.9160103 L80.6425754,90.8557871 C81.142722,90.8053636 81.6387803,90.735861 82.1252989,90.648642 L81.6769386,91.8356384 C81.1904383,91.9242169 80.6943991,91.9923549 80.1942717,92.0414152 L80.1938063,92.0426473 C79.7658879,92.084894 79.3366068,92.1135128 78.9046001,92.1285035 L79.2790824,91.1340703 L78.9035098,92.1283672 C78.5069358,92.1419952 78.108999,92.143358 77.712425,92.1338184 L77.9359237,91.5403202 Z M84.0749167,90.7709192 L84.3281244,90.1013426 C85.2408559,89.8043643 86.1004781,89.4311266 86.8756821,88.9802683 L86.8758739,88.9797604 L152.656736,50.7532965 C152.813458,50.6606263 152.952463,50.5625049 153.099645,50.4684719 C153.241376,50.3758017 153.385833,50.2844943 153.516661,50.1890984 C153.632499,50.1059678 153.736072,50.0187488 153.84237,49.9315298 C153.963659,49.8347712 154.087673,49.7380125 154.199423,49.6371655 C154.373861,49.4804439 154.540122,49.3196338 154.69003,49.1560981 C154.717286,49.1261166 154.740453,49.096135 154.766346,49.0661535 C154.876733,48.9407761 154.97758,48.8126732 155.072976,48.6832074 C155.17246,48.5496533 155.262405,48.4147364 155.345535,48.2784567 C155.398684,48.1926004 155.455922,48.1067442 155.502257,48.0195252 C155.566308,47.899599 155.619457,47.77831 155.671244,47.6570211 C155.71349,47.5629881 155.7571,47.4689551 155.79117,47.3735593 C155.832054,47.2577215 155.860673,47.1418837 155.892017,47.0260459 C155.91791,46.9279245 155.947892,46.8284403 155.965608,46.7289561 C155.988776,46.6063044 155.996952,46.4836526 156.007855,46.3610009 C156.017394,46.2478887 156.036473,46.1347765 156.036473,46.0216643 L155.588113,47.2086608 C155.588113,47.2427307 155.588113,47.2768006 155.58675,47.3108706 C155.584025,47.3899128 155.566308,47.4689551 155.559494,47.5479973 C155.548592,47.6706491 155.540415,47.7933008 155.51861,47.9159526 C155.514522,47.9363945 155.514522,47.9568365 155.510434,47.9786412 C155.495443,48.0576835 155.464099,48.1340001 155.443657,48.2130424 C155.412312,48.3288802 155.383694,48.4447179 155.344172,48.5605557 C155.334633,48.5837232 155.331907,48.6082536 155.322368,48.6327839 C155.296474,48.7036494 155.254228,48.7731521 155.224246,48.8440175 C155.171097,48.9653065 155.119311,49.0865954 155.053897,49.2065216 C155.038906,49.2351403 155.029366,49.2651219 155.013013,49.2937406 C154.980306,49.3523409 154.93397,49.4068528 154.898538,49.4640903 C154.814044,49.60037 154.725462,49.7366497 154.624615,49.8702039 C154.595997,49.909725 154.575555,49.9506089 154.54421,49.9887672 C154.474708,50.0787119 154.395665,50.1659309 154.319349,50.2531499 C154.292093,50.2831315 154.268925,50.313113 154.241669,50.3430945 C154.110841,50.4861883 153.973198,50.6265564 153.823291,50.7641989 C153.801486,50.7860037 153.77423,50.80372 153.752425,50.824162 C153.640676,50.925009 153.516661,51.0204048 153.395372,51.1185262 C153.287711,51.2043824 153.184139,51.2929642 153.069664,51.3760949 C152.937472,51.4714907 152.793016,51.5627981 152.651285,51.6554683 C152.549075,51.7208826 152.457768,51.7903853 152.350107,51.8557995 C152.303772,51.8830555 152.257437,51.9116742 152.208376,51.9389302 L86.4283867,90.1662495 L86.428195,90.1667568 C85.6528355,90.6178008 84.7943609,90.9911797 83.8800193,91.2868937 L83.8796278,91.2879302 C83.1736988,91.5168801 82.4350627,91.6981321 81.6773474,91.8357747 L82.1257077,90.6487782 C82.883423,90.5124985 83.6220591,90.3285209 84.3279881,90.1009337 L84.0749167,90.7709192 Z M4.20968082,50.7501621 L70.4252753,88.9793516 L69.976915,90.166348 L3.76132051,51.9371585 C1.47045827,50.6138824 0.325708551,48.8776786 0.33115974,47.1442005 L0.77815725,45.9558412 C0.774068858,47.6906822 1.91881858,49.4268859 4.20968082,50.7501621 Z M72.1027425,89.7842196 L71.6543822,90.9712161 C71.064291,90.7381777 70.5028185,90.4697067 69.9767788,90.1671657 L70.4251391,88.9801692 C70.949816,89.2827102 71.5112885,89.5511813 72.1027425,89.7842196 Z" id="Combined-Shape" fill="url(#linearGradient-13)"></path>
                        <path d="M152.602906,41.2232551 C157.157374,43.8534539 157.185993,48.1203722 152.657418,50.7519337 L86.8765553,88.9797604 C82.3466172,91.6126848 74.979335,91.6099592 70.4248665,88.9797604 L4.20927198,50.7505709 C-0.343833755,48.121735 -0.369726904,43.8561795 4.16021127,41.2232551 L69.9410735,2.99679123 C74.4710116,0.365229673 81.8328426,0.365229673 86.3873111,2.99406564 L152.602906,41.2232551 Z" id="Fill-285" fill="url(#linearGradient-14)"></path>
                    </g>
                    <g id="Group-403" transform="translate(31.344338, 181.111217)">
                        <path d="M53.5647832,65.6271659 C53.5789222,65.632806 53.5930831,65.6384187 53.6072656,65.644004 L53.6072666,65.6439465 C53.9438775,65.7775006 54.2927536,65.8947012 54.6511693,65.996911 L54.3200096,84.5895544 C53.9629567,84.4873446 53.6127178,84.370144 53.2774697,84.2379527 L53.4741731,73.1477809 L53.276652,84.2382252 C52.8419196,84.06515 52.4262665,83.8675444 52.0378692,83.6440456 L3.12462162,55.4038877 C1.43202739,54.4253992 0.587093071,53.143007 0.589818665,51.8619775 L0.920978406,33.2693342 C0.918252811,34.5503636 1.76318713,35.8327559 3.45578136,36.8098815 L53.5647832,65.6271659 Z M57.1044253,73.8291796 L56.9045546,85.050725 C56.6251812,85.0275574 56.3458077,84.9975759 56.0691599,84.9580548 L56.4003196,66.3654114 C56.6769675,66.4035697 56.9549781,66.434914 57.2357144,66.4580816 C57.5176276,66.4815408 57.7995478,66.4965168 58.0828292,66.5033265 L57.7516694,85.0959698 C57.4682076,85.0891559 57.1861086,85.0741651 56.9053723,85.0509975 L57.1044253,73.8291796 Z M61.0117531,66.2825533 C61.5718628,66.1817063 62.1169817,66.0467894 62.6389331,65.8778025 L62.5088381,73.182396 L62.6394782,65.8772574 C63.3140628,65.6592098 63.9491264,65.3839248 64.5215012,65.0500394 L64.1903415,83.6440456 C63.6168393,83.9764317 62.9834232,84.2516272 62.3077878,84.4709934 C61.7872725,84.6407671 61.2408872,84.775667 60.6808765,84.8751464 C60.3210874,84.9411561 59.954495,84.9915796 59.5851769,85.0283751 L59.9163366,66.4357317 C60.2855578,66.3989458 60.6520548,66.3485392 61.0117425,66.2831499 Z M115.558396,33.8391197 C115.574749,33.7491751 115.580201,33.6578677 115.588377,33.5679231 C115.596554,33.4834296 115.610182,33.400299 115.610182,33.3171684 C115.3885,45.7458796 115.27766,51.9688663 115.27766,51.9861284 C115.276297,52.0447287 115.262669,52.1019661 115.257218,52.1605664 C115.249041,52.250511 115.24359,52.3418185 115.220422,52.4780982 C115.20952,52.5366985 115.186352,52.593936 115.171361,52.6511735 C115.149557,52.7370297 115.127752,52.8228859 115.08278,52.9618912 C115.062338,53.0150403 115.032356,53.0668266 115.009189,53.1186129 C114.97103,53.2085575 114.931509,53.2971394 114.883811,53.3857212 C114.872909,53.4075259 114.866095,53.4293307 114.769336,53.5765128 C114.706648,53.6773598 114.641233,53.7782068 114.507679,53.9635472 C114.455893,54.0303243 114.397293,54.0943758 114.282818,54.2252043 C114.187422,54.3315025 114.085212,54.4350751 113.921676,54.5808944 C113.839908,54.6558483 113.748601,54.7267137 113.658656,54.798942 C113.578251,54.8616306 113.503298,54.9270449 113.417441,54.9883708 C113.320683,55.0592363 113.213022,55.1260133 113.109449,55.195516 C113.033132,55.2432139 112.966355,55.2950002 112.782378,55.404024 L64.1904778,83.6439093 L64.5216375,65.0499032 L113.113538,36.8113806 C113.229375,36.7446035 113.331585,36.6723753 113.439246,36.6015098 C113.544181,36.5333699 113.651842,36.4665929 113.748601,36.3957274 C113.833094,36.3344015 113.910774,36.2689873 113.989816,36.2062986 C114.079761,36.1340703 114.171068,36.0618421 114.252836,35.988251 C114.382302,35.8710505 114.504954,35.7538499 114.672578,35.5657839 C114.754345,35.4731137 114.826574,35.3790806 114.898802,35.2836848 C114.97103,35.1855634 115.037807,35.0847164 115.100496,34.9838694 C115.138654,34.9211808 115.180901,34.8571293 115.214971,34.7930778 C115.262669,34.704496 115.30219,34.6145514 115.340348,34.5259695 C115.37033,34.4551041 115.4044,34.3856014 115.42893,34.3160988 C115.458912,34.2302425 115.479354,34.1443863 115.502521,34.0585301 C115.5216,33.9863018 115.543405,33.9127108 115.558396,33.8391197 Z M59.5849043,85.0294653 C59.2687354,85.0608097 58.9512036,85.0812516 58.632309,85.092154 L58.9634688,66.4995106 C59.2823633,66.4886083 59.6012579,66.4668035 59.9160641,66.4354592 L59.5849043,85.0294653 Z M58.6320365,85.0920177 C58.3390351,85.1015573 58.0446708,85.1029201 57.7516694,85.0961061 L58.0828292,66.5034627 C58.3758306,66.5102767 58.6701948,66.5089139 58.9631962,66.4993744 L58.6320365,85.0920177 Z M56.0687511,84.9575096 C55.7812008,84.9166257 55.497739,84.867565 55.2170028,84.8089647 L55.5481625,66.2163214 C55.8288987,66.2749216 56.1137234,66.3239823 56.3999108,66.3648663 L56.0687511,84.9575096 Z M55.2170028,84.8092373 C54.913099,84.7465486 54.6132836,84.6729576 54.3202821,84.5898269 L54.6514419,65.9971836 C54.9444433,66.0803142 55.2442587,66.1539052 55.5481625,66.2165939 L55.2170028,84.8092373 Z" id="Combined-Shape" fill="url(#linearGradient-11)"></path>
                        <path d="M113.073744,29.7730777 C116.43849,31.7150639 116.458932,34.867214 113.113265,36.8119257 L64.5213649,65.0504483 C61.1743348,66.99516 55.7326852,66.9924344 52.3693015,65.0504483 L3.45578136,36.8105629 C0.0910348587,34.867214 0.073318494,31.7177895 3.42034863,29.7730777 L52.0108859,1.53455517 C55.357916,-0.408793759 60.7954772,-0.408793759 64.1602237,1.53182958 L113.073744,29.7730777 Z" id="Fill-367" fill="url(#linearGradient-12)"></path>
                    </g>
                    <path d="M346.822097,108.856704 C349.341909,110.312171 349.358263,112.672536 346.852079,114.129367 L310.455852,135.279981 C307.95103,136.736811 303.873541,136.735448 301.353728,135.279981 L264.717649,114.128004 C262.197837,112.672536 262.184209,110.313534 264.690393,108.856704 L301.08662,87.7060901 C303.592804,86.2506226 307.666206,86.2506226 310.186018,87.7047273 L346.822097,108.856704 Z" id="Fill-404" fill="#DDECFD"></path>
                    <polygon id="Fill-406" fill="url(#linearGradient-15)" points="279.310755 103.742943 332.230899 103.742943 332.230899 0 279.310755 0"></polygon>
                </g>
            </g>
        </g>
    </g>
</svg>