<?xml version="1.0" encoding="utf-8"?>
<!-- Generator: Adobe Illustrator 22.1.0, SVG Export Plug-In . SVG Version: 6.00 Build 0)  -->
<svg version="1.1" id="图层_1" xmlns="http://www.w3.org/2000/svg" xmlns:xlink="http://www.w3.org/1999/xlink" x="0px" y="0px"
	 viewBox="0 0 1919 7719" style="enable-background:new 0 0 1919 7719;" xml:space="preserve">
<style type="text/css">
	.st0{opacity:0.4;}
	.st1{fill:none;stroke:#66688F;}
	.st2{opacity:0.5;}
</style>
<title>home_all_bg</title>
<desc>Created with Sketch.</desc>
<g id="首页">
	<g id="BTCsale首页-2" transform="translate(0.000000, -1.000000)">
		<g id="_x31_" transform="translate(-1.000000, 1.000000)">
			<g id="home_all_bg">
				<g id="square-40_x25_" transform="translate(596.000000, 87.000000)" class="st0">
					<g id="Group-5" transform="translate(827.000000, 636.000000)">
						<polygon id="Stroke-15" class="st1" points="275.5,238.7 275.5,79.7 137.8,0.2 0.2,79.7 0.2,238.7 137.8,318.1 						"/>
						<polyline id="Stroke-16" class="st1" points="137.8,318.1 137.8,159.2 0.2,79.7 						"/>
						<path id="Stroke-17" class="st1" d="M137.8,159.2V0.2"/>
						<polyline id="Stroke-18" class="st1" points="275.5,238.7 137.8,159.2 0.2,238.7 						"/>
						<path id="Stroke-19" class="st1" d="M275.5,79.7l-137.7,79.5"/>
					</g>
					<g id="Group-6">
						<polygon id="Stroke-20" class="st1" points="275.5,239.2 275.5,80.2 137.8,0.8 0.2,80.2 0.2,239.2 137.8,318.7 						"/>
						<polyline id="Stroke-21" class="st1" points="137.8,318.7 137.8,159.7 0.2,80.2 						"/>
						<path id="Stroke-22" class="st1" d="M137.8,159.7V0.8"/>
						<polyline id="Stroke-23" class="st1" points="275.5,239.2 137.8,159.7 0.2,239.2 						"/>
						<path id="Stroke-24" class="st1" d="M275.5,80.2l-137.7,79.5"/>
						<polygon id="Stroke-25" class="st1" points="413.2,318.7 413.2,159.7 275.5,80.2 137.8,159.7 137.8,318.7 275.5,398.1 						
							"/>
						<polyline id="Stroke-26" class="st1" points="275.5,398.1 275.5,239.2 137.8,159.7 						"/>
						<path id="Stroke-27" class="st1" d="M275.5,239.2v-159"/>
						<polyline id="Stroke-28" class="st1" points="413.2,318.7 275.5,239.2 137.8,318.7 						"/>
						<path id="Stroke-29" class="st1" d="M413.2,159.7l-137.7,79.5"/>
						<polygon id="Stroke-30" class="st1" points="413.2,477.6 413.2,318.6 275.5,239.2 137.8,318.6 137.8,477.6 275.5,557.1 						
							"/>
						<polyline id="Stroke-31" class="st1" points="275.5,557.1 275.5,398.1 137.8,318.6 						"/>
						<path id="Stroke-32" class="st1" d="M275.5,398.1v-159"/>
						<polyline id="Stroke-33" class="st1" points="413.2,477.6 275.5,398.1 137.8,477.6 						"/>
						<path id="Stroke-34" class="st1" d="M413.2,318.6l-137.7,79.5"/>
						<polygon id="Stroke-35" class="st1" points="275.5,874.7 275.5,715.7 137.8,636.2 0.2,715.7 0.2,874.7 137.8,954.1 						"/>
						<polyline id="Stroke-36" class="st1" points="137.8,954.1 137.8,795.2 0.2,715.7 						"/>
						<path id="Stroke-37" class="st1" d="M137.8,795.2v-159"/>
						<polyline id="Stroke-38" class="st1" points="275.5,874.7 137.8,795.2 0.2,874.7 						"/>
						<path id="Stroke-39" class="st1" d="M275.5,715.7l-137.7,79.5"/>
						<polygon id="Stroke-40" class="st1" points="413.2,795.2 413.2,636.2 275.5,556.7 137.8,636.2 137.8,795.2 275.5,874.6 						
							"/>
						<polyline id="Stroke-41" class="st1" points="275.5,874.6 275.5,715.7 137.8,636.2 						"/>
						<path id="Stroke-42" class="st1" d="M275.5,715.7v-159"/>
						<polyline id="Stroke-43" class="st1" points="413.2,795.2 275.5,715.7 137.8,795.2 						"/>
						<path id="Stroke-44" class="st1" d="M413.2,636.2l-137.7,79.5"/>
						<polygon id="Stroke-45" class="st1" points="550.8,715.7 550.8,556.7 413.2,477.3 275.5,556.7 275.5,715.7 413.2,795.2 						
							"/>
						<polyline id="Stroke-46" class="st1" points="413.2,795.2 413.2,636.2 275.5,556.7 						"/>
						<path id="Stroke-47" class="st1" d="M413.2,636.2v-159"/>
						<polyline id="Stroke-48" class="st1" points="550.8,715.7 413.2,636.2 275.5,715.7 						"/>
						<path id="Stroke-49" class="st1" d="M550.8,556.7l-137.7,79.5"/>
						<polygon id="Stroke-50" class="st1" points="688.5,636.6 688.5,477.6 550.8,398.1 413.2,477.6 413.2,636.6 550.8,716 						
							"/>
						<polyline id="Stroke-51" class="st1" points="550.8,716 550.8,557.1 413.2,477.6 						"/>
						<path id="Stroke-52" class="st1" d="M550.8,557.1v-159"/>
						<polyline id="Stroke-53" class="st1" points="688.5,636.6 550.8,557.1 413.2,636.6 						"/>
						<path id="Stroke-54" class="st1" d="M688.5,477.6l-137.7,79.5"/>
						<polygon id="Stroke-55" class="st1" points="826.1,557.1 826.1,398.1 688.5,318.7 550.8,398.1 550.8,557.1 688.5,636.6 						
							"/>
						<polyline id="Stroke-56" class="st1" points="688.5,636.6 688.5,477.6 550.8,398.1 						"/>
						<path id="Stroke-57" class="st1" d="M688.5,477.6v-159"/>
						<polyline id="Stroke-58" class="st1" points="826.1,557.1 688.5,477.6 550.8,557.1 						"/>
						<path id="Stroke-59" class="st1" d="M826.1,398.1l-137.7,79.5"/>
						<polygon id="Stroke-60" class="st1" points="963.8,477.6 963.8,318.7 826.1,239.2 688.5,318.7 688.5,477.6 826.1,557.1 						
							"/>
						<polyline id="Stroke-61" class="st1" points="826.1,557.1 826.1,398.1 688.5,318.6 						"/>
						<path id="Stroke-62" class="st1" d="M826.1,398.1v-159"/>
						<polyline id="Stroke-63" class="st1" points="963.8,477.6 826.1,398.1 688.5,477.6 						"/>
						<path id="Stroke-64" class="st1" d="M963.8,318.7l-137.7,79.5"/>
						<polygon id="Stroke-65" class="st1" points="550.8,398.1 550.8,239.2 413.2,159.7 275.5,239.2 275.5,398.1 413.2,477.6 						
							"/>
						<polyline id="Stroke-66" class="st1" points="413.2,477.6 413.2,318.6 275.5,239.2 						"/>
						<path id="Stroke-67" class="st1" d="M413.2,318.7v-159"/>
						<polyline id="Stroke-68" class="st1" points="550.8,398.1 413.2,318.7 275.5,398.1 						"/>
						<path id="Stroke-69" class="st1" d="M550.8,239.2l-137.7,79.5"/>
					</g>
				</g>
				<g id="line-40_x25_" class="st0">
					<path id="Stroke-70" class="st1" d="M684.8,0.4l1235.4,719.9"/>
					<path id="Stroke-76" class="st1" d="M0.2,1305l1920-1107.9"/>
					<path id="Stroke-72" class="st1" d="M0,1131.9l1919.9,1118.9"/>
				</g>
				<g id="double2-50_x25_" transform="translate(1365.000000, 3758.000000)" class="st2">
					<polygon id="Stroke-1_1_" class="st1" points="413.3,238.8 413.3,79.8 275.7,0.4 138,79.8 138,238.8 275.7,318.3 					"/>
					<polygon id="Stroke-2_1_" class="st1" points="275.7,318.3 275.7,159.3 138,79.9 0.3,159.3 0.3,318.3 138,397.8 					"/>
					<polyline id="Stroke-3_1_" class="st1" points="275.7,0.4 275.7,159.3 413.3,238.8 					"/>
					<polyline id="Stroke-4_1_" class="st1" points="413.3,79.9 275.7,159.3 275.7,318.3 					"/>
					<polyline id="Stroke-5_1_" class="st1" points="138,397.7 138,238.8 0.3,159.3 					"/>
					<polyline id="Stroke-6_1_" class="st1" points="413.3,238.8 275.7,159.3 138,238.8 138,397.7 					"/>
					<polyline id="Stroke-7_1_" class="st1" points="275.7,318.3 138,238.8 0.3,318.3 					"/>
				</g>
				<g id="double-50_x25_" transform="translate(50.000000, 2711.000000)" class="st2">
					<polygon id="Stroke-8" class="st1" points="413.5,238.5 413.5,79.5 275.8,0 138.2,79.5 138.2,238.5 275.8,317.9 					"/>
					<polygon id="Stroke-9" class="st1" points="275.8,317.9 275.8,159 138.2,79.5 0.5,159 0.5,317.9 138.2,397.4 					"/>
					<polyline id="Stroke-10" class="st1" points="275.8,0 275.8,159 413.5,238.5 					"/>
					<polyline id="Stroke-11" class="st1" points="413.5,79.5 275.8,159 275.8,317.9 					"/>
					<polyline id="Stroke-12" class="st1" points="138.2,397.4 138.2,238.5 0.5,159 					"/>
					<polyline id="Stroke-13" class="st1" points="413.5,238.5 275.8,159 138.2,238.5 138.2,397.4 					"/>
					<polyline id="Stroke-14" class="st1" points="275.8,317.9 138.2,238.5 0.5,317.9 					"/>
				</g>
			</g>
		</g>
	</g>
</g>
</svg>
