<?xml version="1.0" encoding="UTF-8"?>
<svg width="2306px" height="1437px" viewBox="0 0 2306 1437" version="1.1" xmlns="http://www.w3.org/2000/svg" xmlns:xlink="http://www.w3.org/1999/xlink">
    <!-- Generator: Sketch 50 (54983) - http://www.bohemiancoding.com/sketch -->
    <title>login_bg</title>
    <desc>Created with Sketch.</desc>
    <defs></defs>
    <g id="首页" stroke="none" stroke-width="1" fill="none" fill-rule="evenodd" opacity="0.3">
        <g id="404page" transform="translate(-253.000000, -3.000000)" stroke="#66688F">
            <g id="home_404" transform="translate(0.000000, -76.000000)">
                <g id="login_bg" transform="translate(0.000000, 78.696629)">
                    <g id="square-30%" transform="translate(186.966292, 0.299625)">
                        <g id="单独" transform="translate(1567.940075, 937.228464)">
                            <polygon id="Stroke-15" points="330.148554 286.048599 330.148554 95.5419326 165.166382 0.288599251 0.183011236 95.5419326 0.183011236 286.048599 165.166382 381.301933"></polygon>
                            <polyline id="Stroke-16" points="165.166022 381.283835 165.166022 190.777169 0.182651685 95.5238352"></polyline>
                            <path d="M165.166022,190.795146 L165.166022,0.288479401" id="Stroke-17"></path>
                            <polyline id="Stroke-18" points="330.149633 286.048599 165.166262 190.795266 0.182891386 286.048599"></polyline>
                            <path d="M330.149633,95.5241948 L165.166262,190.777528" id="Stroke-19"></path>
                        </g>
                        <g id="直" transform="translate(576.179775, 381.123596)">
                            <polygon id="Stroke-35" points="330.779925 762.13585 330.779925 571.629184 165.796554 476.37585 0.813183521 571.629184 0.813183521 762.13585 165.796554 857.389184"></polygon>
                            <polyline id="Stroke-36" points="165.796315 857.371086 165.796315 666.864419 0.81294382 571.611086"></polyline>
                            <path d="M165.796315,666.882517 L165.796315,476.37585" id="Stroke-37"></path>
                            <polyline id="Stroke-38" points="330.779925 762.13585 165.796554 666.882517 0.813183521 762.13585"></polyline>
                            <path d="M330.779925,571.611566 L165.796554,666.864899" id="Stroke-39"></path>
                            <polygon id="Stroke-40" points="495.762936 666.864899 495.762936 476.358232 330.779566 381.104899 165.796195 476.358232 165.796195 666.864899 330.779566 762.118232"></polygon>
                            <polyline id="Stroke-41" points="330.779925 762.100135 330.779925 571.593468 165.796554 476.340135"></polyline>
                            <path d="M330.779925,571.611566 L330.779925,381.104899" id="Stroke-42"></path>
                            <polyline id="Stroke-43" points="495.762936 666.864899 330.779566 571.611566 165.796195 666.864899"></polyline>
                            <path d="M495.762936,476.340614 L330.779566,571.593948" id="Stroke-44"></path>
                            <polygon id="Stroke-45" points="660.746547 571.629064 660.746547 381.122397 495.763176 285.869064 330.779805 381.122397 330.779805 571.629064 495.763176 666.882397"></polygon>
                            <polyline id="Stroke-46" points="495.762936 666.864899 495.762936 476.358232 330.779566 381.104899"></polyline>
                            <path d="M495.762936,476.37621 L495.762936,285.869543" id="Stroke-47"></path>
                            <polyline id="Stroke-48" points="660.746547 571.629064 495.763176 476.37573 330.779805 571.629064"></polyline>
                            <path d="M660.746547,381.105258 L495.763176,476.358592" id="Stroke-49"></path>
                            <polygon id="Stroke-50" points="825.730157 476.790532 825.730157 286.283865 660.746787 191.030532 495.763416 286.283865 495.763416 476.790532 660.746787 572.043865"></polygon>
                            <polyline id="Stroke-51" points="660.746547 572.026487 660.746547 381.51982 495.763176 286.266487"></polyline>
                            <path d="M660.746547,381.537798 L660.746547,191.031131" id="Stroke-52"></path>
                            <polyline id="Stroke-53" points="825.730157 476.790532 660.746787 381.537199 495.763416 476.790532"></polyline>
                            <path d="M825.730157,286.266846 L660.746787,381.52018" id="Stroke-54"></path>
                            <polygon id="Stroke-55" points="990.712689 381.537798 990.712689 191.031131 825.729318 95.7777978 660.747146 191.031131 660.747146 381.537798 825.729318 476.791131"></polygon>
                            <polyline id="Stroke-56" points="825.729079 476.773034 825.729079 286.266367 660.746906 191.013034"></polyline>
                            <path d="M825.729079,286.284345 L825.729079,95.7776779" id="Stroke-57"></path>
                            <polyline id="Stroke-58" points="990.712689 381.537798 825.730517 286.284464 660.747146 381.537798"></polyline>
                            <path d="M990.712689,191.013393 L825.730517,286.266727" id="Stroke-59"></path>
                            <polygon id="Stroke-60" points="1155.6963 286.284345 1155.6963 95.7776779 990.712929 0.524344569 825.730757 95.7776779 825.730757 286.284345 990.712929 381.537678"></polygon>
                            <polyline id="Stroke-61" points="990.712689 381.52018 990.712689 191.013513 825.730517 95.7601798"></polyline>
                            <path d="M990.712689,191.031011 L990.712689,0.524344569" id="Stroke-62"></path>
                            <polyline id="Stroke-63" points="1155.6963 286.284345 990.712929 191.031011 825.730757 286.284345"></polyline>
                            <path d="M1155.6963,95.7606592 L990.712929,191.013993" id="Stroke-64"></path>
                        </g>
                        <g id="左角" transform="translate(0.000000, 332.584270)">
                            <polygon id="Stroke-20" points="412.877303 524.869393 412.877303 334.362727 247.893933 239.109393 82.9105618 334.362727 82.9105618 524.869393 247.893933 620.122727"></polygon>
                            <polyline id="Stroke-21" points="247.893693 620.105228 247.893693 429.598562 82.9103221 334.345228"></polyline>
                            <path d="M577.860315,429.598442 L412.876944,524.851775" id="Stroke-29"></path>
                            <path d="M577.860315,620.122727 L577.860315,429.61606" id="Stroke-67"></path>
                            <path d="M412.877303,715.357963 L412.877303,524.851296" id="Stroke-32"></path>
                            <path d="M247.893693,429.61594 L247.893693,239.109273" id="Stroke-22"></path>
                            <polyline id="Stroke-23" points="412.877303 524.869393 247.893933 429.61606 82.9105618 524.869393"></polyline>
                            <polygon id="Stroke-25" points="577.860315 620.122727 577.860315 429.61606 412.876944 334.362727 247.893573 429.61606 247.893573 620.122727 412.876944 715.37606"></polygon>
                            <polygon id="Stroke-65" points="742.843925 715.375581 742.843925 524.868914 577.860554 429.615581 412.877184 524.868914 412.877184 715.375581 577.860554 810.628914"></polygon>
                            <polyline id="Stroke-66" points="577.860315 810.611416 577.860315 620.104749 412.876944 524.851416"></polyline>
                            <polyline id="Stroke-68" points="742.843925 715.375581 577.860554 620.122247 412.877184 715.375581"></polyline>
                            <path d="M742.843925,524.851775 L577.860554,620.105109" id="Stroke-69"></path>
                            <path d="M412.877303,334.345588 L247.893933,429.598921" id="Stroke-24"></path>
                            <polyline id="Stroke-26" points="412.877303 715.357963 412.877303 524.851296 247.893933 429.597963"></polyline>
                            <path d="M412.877303,524.869393 L412.877303,334.362727" id="Stroke-27"></path>
                            <polyline id="Stroke-28" points="577.860315 620.122727 412.876944 524.869393 247.893573 620.122727"></polyline>
                            <g id="Group-3" transform="translate(248.089888, 239.101124) rotate(-300.000000) translate(-248.089888, -239.101124) translate(82.696629, 48.539326)">
                                <polygon id="Stroke-30" points="329.966742 285.76 329.966742 95.2533333 164.983371 0 0 95.2533333 0 285.76 164.983371 381.013333"></polygon>
                                <polyline id="Stroke-31" points="164.983371 381.040899 164.983371 190.534232 0 95.2808989"></polyline>
                                <polyline id="Stroke-33" points="329.966742 285.815131 164.983371 190.561798 0 285.815131"></polyline>
                                <path d="M330.376629,95.2808989 L165.393258,190.534232" id="Stroke-34"></path>
                                <path d="M165.393258,0 L165.393379,190.506457" id="Stroke-34"></path>
                            </g>
                        </g>
                        <g id="右角" transform="translate(1401.559594, 0.773096)">
                            <polygon id="Stroke-20" points="330.180674 285.76827 330.180674 95.261603 165.197303 0.00826966292 0.213932584 95.261603 0.213932584 285.76827 165.197303 381.021603"></polygon>
                            <polyline id="Stroke-21" points="165.197064 381.004105 165.197064 190.497438 0.213692884 95.2441049"></polyline>
                            <path d="M165.197064,190.514816 L165.197064,0.00814981273" id="Stroke-22"></path>
                            <polyline id="Stroke-23" points="330.180674 285.76827 165.197303 190.514936 0.213932584 285.76827"></polyline>
                            <polygon id="Stroke-25" points="495.163685 381.021603 495.163685 190.514936 330.180315 95.261603 165.196944 190.514936 165.196944 381.021603 330.180315 476.274936"></polygon>
                            <polygon id="Stroke-30" points="495.163685 571.510292 495.163685 381.003625 330.180315 285.750292 165.196944 381.003625 165.196944 571.510292 330.180315 666.763625"></polygon>
                            <polyline id="Stroke-31" points="330.180674 666.746127 330.180674 476.239461 165.197303 380.986127"></polyline>
                            <polyline id="Stroke-33" points="495.163685 571.510292 330.180315 476.256959 165.196944 571.510292"></polyline>
                            <polygon id="Stroke-65" points="660.147296 476.274457 660.147296 285.76779 495.163925 190.514457 330.180554 285.76779 330.180554 476.274457 495.163925 571.52779"></polygon>
                            <polyline id="Stroke-66" points="495.163685 571.510292 495.163685 381.003625 330.180315 285.750292"></polyline>
                            <polyline id="Stroke-68" points="660.147296 476.274457 495.163925 381.021124 330.180554 476.274457"></polyline>
                            <path d="M660.147296,285.750652 L495.163925,381.003985" id="Stroke-69"></path>
                            <path d="M330.180674,95.2444644 L165.197303,190.497798" id="Stroke-24"></path>
                            <polyline id="Stroke-26" points="330.180674 476.256839 330.180674 285.750172 165.197303 190.496839"></polyline>
                            <path d="M330.180674,285.76827 L330.180674,95.261603" id="Stroke-27"></path>
                            <polyline id="Stroke-28" points="495.163685 381.021603 330.180315 285.76827 165.196944 381.021603"></polyline>
                            <path d="M495.163685,190.497318 L330.180315,285.750652" id="Stroke-29"></path>
                            <path d="M495.163685,380.985888 L330.180315,476.239221" id="Stroke-34"></path>
                            <path d="M495.163685,381.021603 L495.163685,190.514936" id="Stroke-67"></path>
                            <path d="M330.180674,476.256839 L330.180674,285.750172" id="Stroke-32"></path>
                        </g>
                    </g>
                    <g id="line-30%" transform="translate(0.000000, 5.393258)">
                        <path d="M773.033708,0 L2558.55173,1031.83593" id="Stroke-70"></path>
                        <path d="M0,1578.5576 L2558.35218,102.996494" id="Stroke-76"></path>
                    </g>
                </g>
            </g>
        </g>
    </g>
</svg>