<?xml version="1.0" encoding="UTF-8"?>
<svg width="102px" height="34px" viewBox="0 0 102 34" version="1.1" xmlns="http://www.w3.org/2000/svg" xmlns:xlink="http://www.w3.org/1999/xlink">
    <!-- Generator: Sketch 50 (54983) - http://www.bohemiancoding.com/sketch -->
    <title>web_logo</title>
    <desc>Created with Sketch.</desc>
    <defs></defs>
    <g id="Symbols" stroke="none" stroke-width="1" fill="none" fill-rule="evenodd">
        <g id="nav">
            <g id="web_logo">
                <path d="M2.09700223,3.15820112 C2.09700223,2.2082905 2.8672257,1.43806704 3.81713631,1.43806704 C4.76704693,1.43806704 5.53708045,2.2082905 5.53708045,3.15820112 C5.53708045,4.10811173 4.76704693,4.8783352 3.81713631,4.8783352 C2.8672257,4.8783352 2.09700223,4.10811173 2.09700223,3.15820112 Z M22.5786782,3.98958659 L20.434019,8.9355419 L6.89935978,3.0664581 C6.84959441,1.40254749 5.49301341,0.0666703911 3.81713631,0.0666703911 C2.10972849,0.0666703911 0.725605587,1.4507933 0.725605587,3.15820112 C0.725605587,4.86560894 2.10972849,6.24973184 3.81713631,6.24973184 C4.33055531,6.24973184 4.80750503,6.11259218 5.23354972,5.89111732 L22.1154045,13.2115642 L22.117114,13.2075754 L22.1266112,13.2115642 L25.5642201,5.28424581 L22.5786782,3.98958659 Z" id="Fill-2" fill="#3C6BF0"></path>
                <polygon id="Fill-4" fill="#406FF7" points="7.44484134 14.589267 4.10315419 22.2954905 1.20080782 21.0369207 4.54249497 13.3306972"></polygon>
                <path d="M3.09153073,32.170686 C2.14162011,32.170686 1.37139665,31.4006525 1.37139665,30.4507419 C1.37139665,29.5006413 2.14162011,28.7306078 3.09153073,28.7306078 C4.04144134,28.7306078 4.8116648,29.5006413 4.8116648,30.4507419 C4.8116648,31.4006525 4.04144134,32.170686 3.09153073,32.170686 Z M3.9229162,11.6892 L8.86887151,13.8338592 L2.99978771,27.3685184 C1.33587709,27.4180939 0,28.7746749 0,30.4507419 C0,32.1581497 1.38412291,33.5422726 3.09153073,33.5422726 C4.79893855,33.5422726 6.18287151,32.1581497 6.18287151,30.4507419 C6.18287151,29.937133 6.04592179,29.4603732 5.82444693,29.0343285 L13.1448939,12.1524737 L13.140905,12.1507642 L13.1448939,12.141267 L5.21757542,8.7036581 L3.9229162,11.6892 Z" id="Fill-6" fill="#406FF7"></path>
                <polygon id="Fill-8" fill="#3C6BF0" points="14.7722592 26.5591665 22.4784827 29.9008536 21.2199128 32.8032 13.5136894 29.4615128"></polygon>
                <path d="M32.3567363,30.9086022 C32.3567363,31.8585128 31.5867028,32.6287363 30.6367922,32.6287363 C29.6866916,32.6287363 28.9166581,31.8585128 28.9166581,30.9086022 C28.9166581,29.9585017 29.6866916,29.1882782 30.6367922,29.1882782 C31.5867028,29.1882782 32.3567363,29.9585017 32.3567363,30.9086022 Z M11.8750603,30.0772168 L14.0199095,25.1312615 L27.5543788,31.0001553 C27.6041441,32.6640659 28.9607251,33.999943 30.6367922,33.999943 C32.3442,33.999943 33.728133,32.6158201 33.728133,30.9086022 C33.728133,29.2011944 32.3442,27.8170715 30.6367922,27.8170715 C30.1231832,27.8170715 29.6464235,27.9540212 29.2203788,28.1754961 L12.3383341,20.8550492 L12.3366246,20.8592279 L12.3271274,20.8550492 L8.88951844,28.7825575 L11.8750603,30.0772168 Z" id="Fill-10" fill="#3C6BF0"></path>
                <polygon id="Fill-12" fill="#406FF7" points="26.7810212 19.5162089 30.1227084 11.8099855 33.0250547 13.0685553 29.6833676 20.7747788"></polygon>
                <path d="M31.1344458,1.93581564 C32.0843564,1.93581564 32.8545799,2.70603911 32.8545799,3.65594972 C32.8545799,4.60586034 32.0843564,5.3760838 31.1344458,5.3760838 C30.1845352,5.3760838 29.4143117,4.60586034 29.4143117,3.65594972 C29.4143117,2.70603911 30.1845352,1.93581564 31.1344458,1.93581564 Z M30.3030603,22.4174916 L25.357105,20.2726425 L31.2261888,6.73817318 C32.8900994,6.68859777 34.2259765,5.33182682 34.2259765,3.65594972 C34.2259765,1.9485419 32.8418536,0.564418994 31.1344458,0.564418994 C29.427038,0.564418994 28.0429151,1.9485419 28.0429151,3.65594972 C28.0429151,4.16936872 28.1800547,4.64631844 28.4015296,5.07236313 L21.0810827,21.9542179 L21.0850715,21.9559274 L21.0810827,21.9654246 L29.0084011,25.4030335 L30.3030603,22.4174916 Z" id="Fill-14" fill="#406FF7"></path>
                <path d="M47.4325453,15.5879553 L50.5814391,15.5879553 C51.0139419,15.5879553 51.4304894,15.5438883 51.8314615,15.4553743 C52.2318637,15.3674302 52.5887687,15.2187039 52.9012268,15.0097654 C53.213495,14.8012067 53.4777073,14.5362346 53.6940536,14.2148492 C53.9105899,13.8938436 54.0509587,13.5004693 54.1149698,13.0345363 C54.1951263,12.3600447 54.0551374,11.774067 53.6948134,11.2760335 C53.3346793,10.7785698 52.6907687,10.5293631 51.7625117,10.5293631 L48.1383777,10.5293631 L47.4325453,15.5879553 Z M46.2890816,23.5371173 L49.684143,23.5371173 C50.0370592,23.5371173 50.4304335,23.5012179 50.864076,23.4288492 C51.2973385,23.3564804 51.7184447,23.211933 52.1279642,22.9953966 C52.5374838,22.7784804 52.8947687,22.4855866 53.1996291,22.1159553 C53.5044894,21.7467039 53.6970927,21.2570279 53.7776291,20.6465475 C53.9223665,19.634905 53.7016514,18.8760782 53.1164335,18.370067 C52.5310257,17.8642458 51.6774168,17.6114302 50.5554168,17.6114302 L47.1407911,17.6114302 L46.2890816,23.5371173 Z M46.0934391,8.50588827 L48.4060089,8.50588827 L52.0219754,8.50588827 C52.7561095,8.50588827 53.4269922,8.59440223 54.0336737,8.77086034 C54.6403553,8.94769832 55.1469363,9.20868156 55.5541765,9.55362011 C55.9610369,9.89931844 56.2565899,10.3407486 56.4406458,10.8786704 C56.6243218,11.4167821 56.6683888,12.0468268 56.5720872,12.7695642 C56.4452045,13.7492961 56.0687352,14.5483911 55.4424894,15.1664693 C54.8162436,15.7847374 54.0513385,16.238324 53.1479642,16.527419 L53.1479642,16.5756648 C53.6463777,16.6079553 54.1045229,16.7403464 54.5225899,16.9730279 C54.9402771,17.2060894 55.2899642,17.5111397 55.5716514,17.8883687 C55.8527687,18.2659777 56.0537296,18.7036089 56.1741542,19.2012626 C56.2945788,19.6991061 56.3149028,20.2370279 56.2347464,20.8152179 C56.1219196,21.5860112 55.8685341,22.2646816 55.4740201,22.8506592 C55.0796961,23.4372067 54.5847017,23.9308715 53.9892268,24.3322235 C53.3933721,24.7337654 52.7173609,25.0390056 51.9608134,25.2475642 C51.2042659,25.4565028 50.4076402,25.5605922 49.5703665,25.5605922 L45.9730145,25.5605922 L43.7086905,25.5605922 L46.0934391,8.50588827 Z M64.5210212,10.6737966 L59.0287866,10.6737966 L59.3420045,8.5057743 L64.858362,8.5057743 L67.1709318,8.5057743 L72.6390436,8.5057743 L72.3258257,10.6737966 L66.8335911,10.6737966 L64.7620603,25.5606682 L62.4494905,25.5606682 L64.5210212,10.6737966 Z M85.1094648,12.4301341 C84.7590179,11.8346592 84.2822581,11.3768939 83.6799453,11.0562682 C83.0770626,10.7354525 82.4320123,10.5751397 81.7455542,10.5751397 C80.9044816,10.5751397 80.1230514,10.7470391 79.4012637,11.0904581 C78.6790961,11.434067 78.0346156,11.9036089 77.4668726,12.4988939 C76.8991296,13.0943687 76.3876101,13.7472067 76.0231073,14.5487709 C75.6586045,15.3503352 75.4133866,16.2090726 75.2872637,17.1251732 C75.1748168,17.9803017 75.1960905,18.7892737 75.3505151,19.5526592 C75.5045598,20.3162346 75.830124,21.0332737 76.2369844,21.6133631 C76.6432749,22.1938324 77.1688503,22.6517877 77.8139006,22.9876089 C78.4581911,23.3234302 79.2153084,23.4913408 80.0844927,23.4913408 C80.9392413,23.4913408 81.7140235,23.3004469 82.4076994,22.9186592 C83.1017553,22.5372514 83.7145151,22.0027486 84.2474983,21.3157207 L85.7613531,22.7125698 C85.6352302,22.8808603 85.4107162,23.1213296 85.0885709,23.4339777 C84.7656659,23.7471955 84.3527274,24.0602235 83.8478559,24.3728715 C83.3433642,24.6860894 82.7511184,24.9607486 82.0713084,25.197419 C81.3913084,25.4338994 80.6239341,25.5524246 79.7691855,25.5524246 C78.5919117,25.5524246 77.5616547,25.3079665 76.6784145,24.8196201 C75.7953642,24.3310838 75.0733866,23.6898324 74.5128615,22.8958659 C73.9521464,22.1022793 73.5595318,21.2051732 73.3355877,20.2049274 C73.1110737,19.2052514 73.0622581,18.1936089 73.1881911,17.1707598 C73.3564816,15.9190279 73.6961017,14.7624581 74.2078112,13.7010503 C74.7197106,12.6402123 75.3676101,11.7241117 76.1530291,10.9531285 C76.9376883,10.1823352 77.8347944,9.58306145 78.8441575,9.15530726 C79.8533307,8.72812291 80.9325933,8.51424581 82.0819453,8.51424581 C83.0628168,8.51424581 83.9982916,8.71672626 84.8887497,9.12111732 C85.778638,9.52569832 86.468895,10.1629609 86.9597106,11.0332849 L85.1094648,12.4301341 Z M89.2858235,21.8816212 C89.6324715,22.4905821 90.3523598,22.9147274 91.0435665,23.1420905 C91.7142592,23.3624257 92.4932201,23.4446715 93.2389408,23.4446715 C93.6551084,23.4446715 94.0990078,23.4194089 94.5410078,23.3022134 C94.9831978,23.1852078 95.3195888,23.0670626 95.7311978,22.864962 C96.1663598,22.6512749 96.583667,22.337867 96.8697229,21.994448 C97.1559687,21.651219 97.5123039,21.0623922 97.5818235,20.6093754 C97.6857229,19.9694536 97.641086,19.5171966 97.1969966,19.0066268 C96.828505,18.5830514 96.012695,18.1784704 95.3796112,18.0122693 C94.7258235,17.8407497 93.9140022,17.5831855 93.1597341,17.3725374 C92.405276,17.1616994 91.8804603,17.0133531 91.2652313,16.6385933 C90.6494324,16.2640235 90.171533,15.9414983 89.824695,15.3089844 C89.477667,14.6766603 89.3194436,13.8435654 89.4932425,12.7663922 C89.5621922,12.2827944 89.7570749,11.767476 90.0782704,11.2210067 C90.3988961,10.6747274 90.8496335,10.1751743 91.4308626,9.72215754 C92.0119017,9.26952067 92.7186838,8.89096201 93.5508291,8.58648156 C94.3833542,8.28200112 95.3545385,8.12985587 96.4643821,8.12985587 C96.9669743,8.12985587 97.4570302,8.15720782 97.9339799,8.21191173 C98.4109296,8.26680559 98.861667,8.36386704 99.2865721,8.5044257 C99.711667,8.64498436 100.106181,8.84043687 100.470304,9.09002346 C100.834427,9.3398 101.16379,9.65187821 101.458773,10.026638 L99.5259017,11.4322246 C99.1188514,10.9776883 98.6263263,10.686314 98.0566838,10.4707274 C97.498248,10.2593196 96.8507285,10.162448 96.1222927,10.162448 C95.4286168,10.162448 94.7725497,10.2933196 94.2872425,10.4572413 C93.8013654,10.6213531 93.3082704,10.8578335 92.9960022,11.1155877 C92.683924,11.373152 92.4159128,11.5877888 92.2189408,11.8879006 C92.031276,12.1735765 91.8821698,12.3992302 91.7748514,12.8197665 C91.6475888,13.3202693 91.582438,13.878895 91.9068626,14.4580346 C92.2694659,15.1049844 93.0489966,15.2837218 93.8196,15.517543 C94.3970302,15.6926715 95.3932872,15.9603028 96.1291307,16.2002022 C96.8514883,16.4359229 97.6329184,16.778962 98.2570749,17.1144034 C98.8814212,17.4502246 99.3838235,17.918057 99.7135665,18.5002358 C100.052237,19.0978 100.151008,19.6005821 99.9946838,20.5994983 C99.8556447,21.3957441 99.6028291,21.9384145 99.1697564,22.5783363 C98.736114,23.218638 98.1981922,23.7573196 97.5569408,24.1941911 C96.9151196,24.6314425 96.1866838,24.9668838 95.3718235,25.2012749 C94.5563933,25.435286 93.7069631,25.5524816 92.8225832,25.5524816 C91.6259352,25.5524816 90.5333765,25.3686156 89.5449073,25.0022134 C88.556438,24.6354313 87.8107173,24.0536324 87.3079352,23.2573866 L89.2858235,21.8816212 Z" id="Combined-Shape" fill="#FFFFFF"></path>
                <polygon id="Fill-1" fill="#3C6BF0" points="19.6751922 7.50744693 11.9689687 4.16575978 13.2275385 1.26341341 20.933762 4.6052905"></polygon>
            </g>
        </g>
    </g>
</svg>