<?xml version="1.0" encoding="UTF-8"?>
<svg width="15px" height="14px" viewBox="0 0 15 14" version="1.1" xmlns="http://www.w3.org/2000/svg" xmlns:xlink="http://www.w3.org/1999/xlink">
    <!-- Generator: Sketch 50 (54983) - http://www.bohemiancoding.com/sketch -->
    <title>icon_msg</title>
    <desc>Created with Sketch.</desc>
    <defs></defs>
    <g id="注册登录流程[图文]" stroke="none" stroke-width="1" fill="none" fill-rule="evenodd" stroke-linecap="round" stroke-linejoin="round">
        <g id="1.signup" transform="translate(-929.000000, -363.000000)" stroke="#2E3031">
            <g id="注册内容" transform="translate(350.625000, 125.875000)">
                <g id="right" transform="translate(577.500000, 33.500000)">
                    <g id="短信验证码" transform="translate(0.000000, 172.500000)">
                        <g id="icon_msg" transform="translate(2.000000, 32.000000)">
                            <path d="M1.80837335,9.16269394 L0.381674409,9.16269394 C0.170990135,9.16269394 0,8.97944006 0,8.74620785 L0,0.416486088 C0,0.183253879 0.170990135,0 0.381674409,0 L12.5952555,0 C12.8059398,0 12.9769299,0.183253879 12.9769299,0.416486088 L12.9769299,8.74620785 C12.9769299,8.97944006 12.8059398,9.16269394 12.5952555,9.16269394 L5.44802051,9.16269394 C5.44802051,9.16269394 1.49082024,11.9856366 1.41753875,11.9856366 L1.80837335,9.16269394 Z" id="Path"></path>
                            <path d="M1.62211624,3.42446761 L7.86366,3.42446761" id="Path-2"></path>
                            <path d="M1.62211624,5.80435399 L10.1950074,5.80435399" id="Path-2"></path>
                        </g>
                    </g>
                </g>
            </g>
        </g>
    </g>
</svg>