<?xml version="1.0" encoding="UTF-8"?>
<svg width="13px" height="17px" viewBox="0 0 13 17" version="1.1" xmlns="http://www.w3.org/2000/svg" xmlns:xlink="http://www.w3.org/1999/xlink">
    <!-- Generator: Sketch 50 (54983) - http://www.bohemiancoding.com/sketch -->
    <title>icon_pw</title>
    <desc>Created with Sketch.</desc>
    <defs></defs>
    <g id="注册登录流程[图文]" stroke="none" stroke-width="1" fill="none" fill-rule="evenodd">
        <g id="1.signup" transform="translate(-930.000000, -496.000000)" stroke="#2E3031">
            <g id="注册内容" transform="translate(350.625000, 125.875000)">
                <g id="right" transform="translate(577.500000, 33.500000)">
                    <g id="验证密码" transform="translate(0.000000, 307.500000)">
                        <g id="icon_pw" transform="translate(3.000000, 30.000000)">
                            <path d="M2.9781153,15.5420414 C1.28057065,15.5420414 0,14.1097578 0,12.2126979 L0,7.2186826 C0,7.0315735 0.141304348,6.88574825 0.315411491,6.88574825 L11.0394022,6.88574825 C11.2135093,6.88574825 11.3548137,7.0315735 11.3548137,7.2186826 L11.3548137,12.2126979 C11.3548137,14.0165362 9.83011452,15.5420414 8.02469915,15.5420414 L2.9781153,15.5420414 Z" id="Path"></path>
                            <path d="M10.0931677,6.88574825 L10.0931677,4.22227344 C10.0931677,1.71794125 8.20027165,0.227061228 6.09836948,0.227061228 L5.18599573,0.227061228 C2.87529115,0.227061228 1.26164596,1.87109105 1.26164596,4.22227344 L1.26164596,6.88574825" id="Fill-3764"></path>
                            <path d="M4.83068844,12.1500593 L4.83068844,11.3761927 C4.48320932,11.13738 4.23347753,10.4718454 4.40972449,9.90420585 C4.62443969,9.21267147 5.1148119,8.97261983 5.68881491,8.97261983 C6.28418811,8.97261983 6.8264063,9.21994264 6.99075258,9.99857631 C7.15509886,10.77721 6.48921306,11.3761927 6.48921306,11.3761927 C6.48921306,11.3761927 6.48921306,11.6341482 6.48921306,11.763126 C6.48921306,11.8921038 6.48921306,12.1500593 6.48921306,12.1500593 C6.48921306,12.5014079 6.37992571,13.4117445 5.68636146,13.4117445 C4.96549242,13.4117445 4.83068844,12.7186608 4.83068844,12.1500593 Z" id="Path" stroke-linecap="round" stroke-linejoin="round"></path>
                        </g>
                    </g>
                </g>
            </g>
        </g>
    </g>
</svg>