<?xml version="1.0" encoding="UTF-8"?>
<svg width="164px" height="50px" viewBox="0 0 164 50" version="1.1" xmlns="http://www.w3.org/2000/svg" xmlns:xlink="http://www.w3.org/1999/xlink">
    <!-- Generator: Sketch 52.1 (67048) - http://www.bohemiancoding.com/sketch -->
    <title>web_logo_new</title>
    <desc>Created with Sketch.</desc>
    <defs>
        <linearGradient x1="-17.8110017%" y1="100%" x2="80.2811855%" y2="9.08382624%" id="linearGradient-1">
            <stop stop-color="#3CA4FF" offset="0%"></stop>
            <stop stop-color="#2C62FF" offset="100%"></stop>
        </linearGradient>
        <linearGradient x1="0%" y1="-10.3660382%" x2="159.618973%" y2="154.263598%" id="linearGradient-2">
            <stop stop-color="#3CA4FF" offset="0%"></stop>
            <stop stop-color="#2C62FF" offset="100%"></stop>
        </linearGradient>
        <linearGradient x1="-9.79577395%" y1="103.241135%" x2="90.2042261%" y2="-3.24113533%" id="linearGradient-3">
            <stop stop-color="#3CA4FF" offset="0%"></stop>
            <stop stop-color="#2C62FF" offset="100%"></stop>
        </linearGradient>
        <polygon id="path-4" points="0.00452980444 0.109173169 37.0263589 0.109173169 37.0263589 18.9050554 0.00452980444 18.9050554"></polygon>
        <linearGradient x1="8.25551861%" y1="0%" x2="85.3446088%" y2="100%" id="linearGradient-6">
            <stop stop-color="#3CA4FF" offset="0%"></stop>
            <stop stop-color="#2C62FF" offset="100%"></stop>
        </linearGradient>
        <linearGradient x1="100%" y1="16.7997969%" x2="-55.287859%" y2="117.532689%" id="linearGradient-7">
            <stop stop-color="#3CA4FF" offset="0%"></stop>
            <stop stop-color="#2C62FF" offset="100%"></stop>
        </linearGradient>
        <linearGradient x1="-13.0369093%" y1="0%" x2="93.4453614%" y2="100%" id="linearGradient-8">
            <stop stop-color="#3CA4FF" offset="0%"></stop>
            <stop stop-color="#2C62FF" offset="100%"></stop>
        </linearGradient>
        <linearGradient x1="82.0914624%" y1="3.00903996%" x2="11.6170514%" y2="89.3678985%" id="linearGradient-9">
            <stop stop-color="#3CA4FF" offset="0%"></stop>
            <stop stop-color="#2C62FF" offset="100%"></stop>
        </linearGradient>
        <linearGradient x1="100%" y1="100%" x2="-27.0832878%" y2="0%" id="linearGradient-10">
            <stop stop-color="#3CA4FF" offset="0%"></stop>
            <stop stop-color="#2C62FF" offset="100%"></stop>
        </linearGradient>
        <linearGradient x1="100%" y1="4.98170873%" x2="-55.287859%" y2="117.532689%" id="linearGradient-11">
            <stop stop-color="#3CA4FF" offset="0%"></stop>
            <stop stop-color="#2C62FF" offset="100%"></stop>
        </linearGradient>
        <polygon id="path-12" points="0.238705659 0.219297095 37.2603916 0.219297095 37.2603916 19.0151465 0.238705659 19.0151465"></polygon>
        <linearGradient x1="97.0854233%" y1="93.1687964%" x2="10.4821732%" y2="24.1183046%" id="linearGradient-14">
            <stop stop-color="#3CA4FF" offset="0%"></stop>
            <stop stop-color="#2C62FF" offset="100%"></stop>
        </linearGradient>
        <linearGradient x1="42.7415791%" y1="117.532689%" x2="125.933603%" y2="-17.757383%" id="linearGradient-15">
            <stop stop-color="#3CA4FF" offset="0%"></stop>
            <stop stop-color="#2C62FF" offset="100%"></stop>
        </linearGradient>
        <linearGradient x1="120.807224%" y1="117.532689%" x2="-45.3231042%" y2="18.791601%" id="linearGradient-16">
            <stop stop-color="#3CA4FF" offset="0%"></stop>
            <stop stop-color="#2C62FF" offset="100%"></stop>
        </linearGradient>
    </defs>
    <g id="首页" stroke="none" stroke-width="1" fill="none" fill-rule="evenodd">
        <g id="BTCsale首页-字体改-Copy" transform="translate(-90.000000, -50.000000)">
            <g id="web_logo_new" transform="translate(90.000000, 50.000000)">
                <g id="分组">
                    <path d="M6.59582978,45.6844469 C6.13422071,46.8187988 4.84053505,47.3640089 3.70651105,46.9023998 C2.5721592,46.4411186 2.02662121,45.1471051 2.48823028,44.0127533 C2.94983935,42.8784014 4.24352501,42.3331913 5.37787686,42.7948003 C6.51222871,43.2564094 7.05743886,44.5500951 6.59582978,45.6844469 Z M5.12969641,16.6729067 L12.7403449,19.7697528 L4.38089306,40.3133237 C2.64953118,40.3759426 1.03127664,41.4283326 0.336240247,43.137073 C-0.609271523,45.4598715 0.507704413,48.109206 2.83050292,49.0543899 C5.15362927,49.9995738 7.80263589,48.8829257 8.74781982,46.5601272 C9.30188184,45.1985771 9.14353157,43.7271982 8.45308504,42.5502262 L8.48226346,42.5626844 L17.044325,21.5211134 L18.7956855,17.2171333 L14.4917055,15.4657727 L6.88105698,12.3689266 L5.12969641,16.6729067 Z" id="Fill-1" fill="url(#linearGradient-1)"></path>
                    <polygon id="Fill-3" fill="url(#linearGradient-2)" points="5.12963084 16.6728411 12.7402793 19.7696872 17.0442594 21.5210478 18.7959478 17.2170677 14.4919677 15.4657072 6.88099141 12.3688611"></polygon>
                    <polygon id="Fill-5" fill="url(#linearGradient-3)" points="5.8730575 19.0990427 0.969116779 31.1500557 5.27309685 32.9017441 10.1770376 20.8504033"></polygon>
                    <g transform="translate(0.000000, 0.218674)">
                        <mask id="mask-5" fill="white">
                            <use xlink:href="#path-4"></use>
                        </mask>
                        <g id="Clip-8"></g>
                        <path d="M3.71083863,6.70487181 C2.57648679,6.24359058 2.03127664,4.94957708 2.49288571,3.81555308 C2.95416694,2.68120123 4.24818045,2.13566324 5.38253229,2.59727231 C6.51688414,3.05888138 7.06209429,4.35256704 6.60048521,5.48691889 C6.13887614,6.62127074 4.84519048,7.16648089 3.71083863,6.70487181 Z M32.7223789,5.23873844 L29.6255328,12.8493869 L9.08196184,4.48993509 C9.01934299,2.75857321 7.96695299,1.14031867 6.25821258,0.445282277 C3.93541407,-0.500229493 1.2860796,0.616746443 0.340567832,2.9398728 C-0.604616091,5.2626713 0.512359845,7.91200577 2.83515835,8.85686185 C4.19670841,9.41125172 5.66775949,9.2525736 6.84473149,8.56212707 L6.83260114,8.59163334 L27.8741722,17.153367 L32.1781523,18.9050554 L33.9295128,14.6010753 L37.0263589,6.99009901 L32.7223789,5.23873844 Z" id="Fill-7" fill="url(#linearGradient-6)" mask="url(#mask-5)"></path>
                    </g>
                    <polygon id="Fill-9" fill="url(#linearGradient-7)" points="32.7224444 5.45754377 29.6255983 13.0681922 27.8739099 17.3721723 32.17789 19.1238607 33.9295784 14.8198807 37.0264245 7.20890433"></polygon>
                    <polygon id="Fill-11" fill="url(#linearGradient-8)" points="30.2962429 6.20093764 18.2452298 1.29699692 16.4938693 5.60097699 28.5448823 10.5049177"></polygon>
                    <path d="M42.4717396,4.03921054 C42.9333486,2.9048587 44.2270343,2.35964855 45.3610583,2.82092978 C46.4954101,3.28253885 47.0409481,4.57655236 46.5793391,5.7109042 C46.11773,6.84525605 44.8240443,7.3904662 43.6896925,6.92852928 C42.5553406,6.46724805 42.0101305,5.17356239 42.4717396,4.03921054 Z M43.9378729,33.0507508 L36.3268966,29.9539047 L44.6866763,9.41033375 C46.4180382,9.34738706 48.0362927,8.29499705 48.7313291,6.58658449 C49.6768409,4.26378598 48.5598649,1.61445151 46.2370664,0.669267589 C43.9139401,-0.276244181 41.2646056,0.840731755 40.3197495,3.16353026 C39.7656875,4.52475248 39.9240378,5.99645925 40.6144843,7.17343125 L40.5853059,7.16097305 L32.0229165,28.2025441 L30.2718838,32.5065242 L34.5758639,34.2578847 L42.1865124,37.3547308 L43.9378729,33.0507508 Z" id="Fill-13" fill="url(#linearGradient-9)"></path>
                    <polygon id="Fill-15" fill="url(#linearGradient-10)" points="43.9379385 33.0508163 36.3269622 29.9539702 32.0229821 28.2026097 30.2716215 32.5065897 34.5756016 34.2579503 42.1865779 37.3547964"></polygon>
                    <polygon id="Fill-17" fill="url(#linearGradient-11)" points="43.1945118 30.6246148 48.0984526 18.5732739 43.7944725 16.8219133 38.8905318 28.8732542"></polygon>
                    <g transform="translate(11.802505, 30.380631)">
                        <mask id="mask-13" fill="white">
                            <use xlink:href="#path-12"></use>
                        </mask>
                        <g id="Clip-20"></g>
                        <path d="M33.554226,12.4191528 C34.68825,12.8807619 35.2337879,14.1744476 34.7721789,15.3087994 C34.3105698,16.4431513 33.0168841,16.9886893 31.8825323,16.5267523 C30.7481804,16.0654711 30.2029703,14.7717855 30.6645794,13.6374336 C31.1261884,12.5030818 32.4198741,11.9578716 33.554226,12.4191528 Z M4.54268573,13.8856141 L7.63953183,6.27463773 L28.1831027,14.6344174 C28.2457216,16.3657793 29.2981116,17.983706 31.006852,18.6790702 C33.3296505,19.624582 35.978985,18.5072782 36.9241689,16.1844797 C37.8696807,13.8616812 36.7527047,11.2123467 34.4299062,10.2674907 C33.0683562,9.71310078 31.5973051,9.8717789 30.4203331,10.5622254 L30.4321356,10.5327192 L9.3908924,1.97065766 L5.08691233,0.219297095 L3.33555177,4.52327716 L0.238705659,12.1342535 L4.54268573,13.8856141 Z" id="Fill-19" fill="url(#linearGradient-14)" mask="url(#mask-13)"></path>
                    </g>
                    <polygon id="Fill-21" fill="url(#linearGradient-15)" points="16.3451249 44.2661465 19.441971 36.6551702 21.1933316 32.3511901 16.8893515 30.5998295 15.137991 34.9038096 12.0411448 42.5147859"></polygon>
                    <polygon id="Fill-23" fill="url(#linearGradient-16)" points="18.7713265 43.5227198 30.8223395 48.4266605 32.5737001 44.1226805 20.522687 39.2187398"></polygon>
                </g>
                <path d="M73.577893,21.7043356 C74.2566597,21.5536775 74.8633201,21.2974783 75.3825666,20.9429888 C75.8981877,20.5905135 76.3368684,20.1357196 76.6857183,19.5906921 C77.0293314,19.0533183 77.2456505,18.3797883 77.3278276,17.5894379 C77.4249094,16.4498348 77.1634734,15.4846566 76.528615,14.6455639 C75.9215518,13.84474 74.8218288,13.4386884 73.2596581,13.4386884 L66.9433003,13.4386884 L66.0437832,21.9383792 L71.3728073,21.9383792 C72.1361682,21.9383792 72.8777763,21.8598275 73.577893,21.7043356 Z M77.1779753,31.5937862 C77.366902,29.8579962 76.971324,28.6068095 75.9678771,27.7640914 C74.9430803,26.9028431 73.4320689,26.4661765 71.47714,26.4661765 L65.5454838,26.4661765 L64.4336759,36.5610699 L70.2134656,36.5610699 C70.8378505,36.5610699 71.5436068,36.4958116 72.3113988,36.3669063 C73.0582436,36.2416265 73.7905867,35.9874415 74.489092,35.6107964 C75.1799437,35.2385824 75.7845899,34.7277953 76.2865148,34.0933398 C76.7751463,33.4766086 77.0752539,32.6355018 77.1779753,31.5937862 Z M80.4106775,10.9343009 C81.2348656,11.6138733 81.8536108,12.4932489 82.2499945,13.5478551 C82.6423499,14.5944047 82.7708523,15.8262556 82.6330848,17.209973 C82.4522146,19.0944068 81.7661969,20.6565775 80.5943675,21.8525766 C79.7311051,22.734772 78.7030856,23.4473764 77.5268251,23.9799163 C78.0069972,24.112447 78.4678335,24.2977483 78.9061114,24.5370287 C79.7351334,24.9910169 80.447335,25.5948575 81.0221719,26.3316316 C81.5945918,27.0667945 82.0195763,27.9280428 82.2858463,28.8932209 C82.5505049,29.8547736 82.6262367,30.9045458 82.5094163,32.0123254 C82.343048,33.4882907 81.8946994,34.8043328 81.1768582,35.9262115 C80.463851,37.0424505 79.5401642,37.9959466 78.4319818,38.7601131 C77.3294389,39.5206541 76.0536797,40.1055618 74.6409586,40.49832 C73.2342799,40.8902725 71.7256855,41.0888672 70.1566667,41.0888672 L58.9108911,41.0888672 L62.3288947,8.91089109 L73.5847411,8.91089109 C74.96725,8.91089109 76.255497,9.08048207 77.4148387,9.41442727 C78.591502,9.75401207 79.59938,10.2656048 80.4106775,10.9343009 Z M85.3637817,13.7043944 L85.8951131,8.91113279 L111.16981,8.91113279 L110.637673,13.7043944 L100.536334,13.7043944 L97.6460362,41.0887061 L92.5792537,41.0887061 L95.4695514,13.7043944 L85.3637817,13.7043944 Z M133.226417,32.6381605 L133.470513,32.3219398 L137.05535,35.4120406 L136.835068,35.7073142 C136.588194,36.0376339 136.167476,36.4875939 135.549893,37.0817666 C134.933898,37.6755364 134.131358,38.2741402 133.166485,38.8614648 C132.200024,39.4495951 131.047414,39.9724671 129.740013,40.4151761 C128.417528,40.8619134 126.900164,41.0891089 125.230389,41.0891089 C122.923583,41.0891089 120.855317,40.6190075 119.083537,39.6937094 C117.317314,38.7704255 115.836862,37.5393802 114.683062,36.0356198 C113.532835,34.5366933 112.69497,32.8202392 112.19249,30.9337912 C111.691597,29.0545942 111.530454,27.126252 111.713824,25.2015353 C111.963873,22.8574737 112.561214,20.6656814 113.489572,18.6821517 C114.419518,16.6958021 115.642379,14.9555811 117.125213,13.5102309 C118.60884,12.0628665 120.345692,10.9224577 122.287743,10.1208281 C124.233366,9.31758719 126.355215,8.91113279 128.594548,8.91113279 C130.516357,8.91113279 132.389347,9.29784857 134.162714,10.0608066 C135.96307,10.8374608 137.399069,12.0769655 138.43221,13.7446773 L138.625502,14.0572726 L134.55287,17.0873519 L134.321475,16.7288341 C133.657852,15.700009 132.762437,14.8971709 131.65944,14.3416698 C130.546918,13.7825432 129.349856,13.4985488 128.10199,13.4985488 C126.554064,13.4985488 125.107746,13.8063101 123.802726,14.4125677 C122.488577,15.0228535 121.309375,15.8691972 120.295285,16.9274288 C119.279608,17.9876746 118.446109,19.2497377 117.818207,20.6781691 C117.18832,22.1110317 116.777525,23.669174 116.596537,25.3094935 C116.438966,26.8293671 116.526682,28.2876079 116.856509,29.6423216 C117.182764,30.986159 117.741208,32.1837694 118.517155,33.2017182 C119.288736,34.214833 120.284172,35.0261305 121.476471,35.6138579 C122.670755,36.202391 124.086115,36.5008872 125.68286,36.5008872 C127.249043,36.5008872 128.674325,36.1608996 129.919016,35.4909951 C131.171248,34.8166594 132.284167,33.8571209 133.226417,32.6381605 Z M158.404081,24.4505816 C159.490914,25.087857 160.368678,25.9583703 161.012399,27.0387576 C161.664982,28.1364664 161.894191,29.6442552 161.69318,31.5198268 C161.50949,33.0034458 161.069601,34.356951 160.383986,35.5469077 C159.698371,36.7368644 158.820204,37.7519934 157.774057,38.5640965 C156.731133,39.3737827 155.521438,40.00421 154.178406,40.4380568 C152.838597,40.8698894 151.415402,41.0890283 149.949508,41.0890283 C147.9692,41.0890283 146.119813,40.7454153 144.453309,40.0682598 C142.753371,39.377811 141.432495,38.2643918 140.526936,36.7606313 L140.352914,36.4709973 L144.581006,33.1162379 L144.804979,33.5271234 C145.360077,34.543058 146.157276,35.3015849 147.173613,35.7821598 C148.214926,36.2752225 149.32472,36.5249764 150.471171,36.5249764 C151.106029,36.5249764 151.768683,36.4238663 152.441005,36.224466 C153.110506,36.0250657 153.74617,35.7221383 154.331078,35.3237405 C154.911555,34.9277596 155.417105,34.43228 155.832421,33.8518035 C156.236056,33.2886487 156.48017,32.6243837 156.558319,31.8775389 C156.674737,30.8450883 156.453181,30.0926038 155.881164,29.5737601 C155.253556,29.0053685 154.432994,28.5199596 153.443243,28.1312297 C152.408375,27.7267894 151.269175,27.332017 150.05666,26.9598031 C148.788957,26.5710732 147.615114,26.0220173 146.568161,25.3295544 C145.495428,24.6201726 144.631763,23.6549944 144.001335,22.4606066 C143.365671,21.2561481 143.157006,19.6263022 143.381382,17.6161857 C143.467184,16.7094178 143.767292,15.7293349 144.273245,14.7077607 C144.778392,13.6861865 145.514361,12.740747 146.460606,11.8972232 C147.402017,11.0577277 148.57143,10.3471374 149.934603,9.78599669 C151.30543,9.22123051 152.933664,8.93481913 154.774593,8.93481913 C155.601198,8.93481913 156.421357,8.98557558 157.211708,9.08547715 C158.015352,9.18779571 158.787575,9.37229136 159.50743,9.63372735 C160.237356,9.89798314 160.929819,10.2718084 161.564677,10.7431183 C162.199133,11.2152338 162.785652,11.810615 163.307315,12.5139543 L163.526051,12.8080194 L159.280637,16.3283416 L159.053039,15.9025514 C158.672366,15.1895442 158.073762,14.6062478 157.273743,14.1675671 C156.462446,13.7240525 155.488406,13.4988711 154.37982,13.4988711 C153.305476,13.4988711 152.390248,13.6394584 151.660322,13.9178132 C150.932007,14.1933482 150.333404,14.5510603 149.879415,14.9800731 C149.424621,15.4102944 149.078189,15.8767703 148.849785,16.3662075 C148.620172,16.8584645 148.484419,17.3132584 148.447358,17.7189071 C148.332149,18.8786516 148.555719,19.7282179 149.130556,20.3199736 C149.744065,20.9516094 150.554557,21.4740785 151.537459,21.8728792 C152.556616,22.2861817 153.690177,22.6640352 154.906318,22.9967719 C156.168784,23.3419963 157.345447,23.8310307 158.404081,24.4505816 Z" id="合并形状" fill="#FFFFFF"></path>
            </g>
        </g>
    </g>
</svg>