<?xml version="1.0" encoding="UTF-8"?>
<svg width="1920px" height="550px" viewBox="0 0 1920 550" version="1.1" xmlns="http://www.w3.org/2000/svg" xmlns:xlink="http://www.w3.org/1999/xlink">
    <!-- Generator: Sketch 50 (54983) - http://www.bohemiancoding.com/sketch -->
    <title>web_top_bg</title>
    <desc>Created with Sketch.</desc>
    <defs></defs>
    <g id="FAQ" stroke="none" stroke-width="1" fill="none" fill-rule="evenodd" opacity="0.3">
        <g id="B.0.FAQ主页" stroke="#66688F">
            <g id="background">
                <g id="web_top_bg" transform="translate(960.000000, 642.500000) scale(-1, 1) translate(-960.000000, -642.500000) translate(-495.000000, -223.000000)">
                    <g id="line-30%">
                        <polyline id="Stroke-76" points="117.707865 1730.58673 2466.43125 375.973062 2909.966 123.230592"></polyline>
                    </g>
                    <g id="square-30%" transform="translate(368.000000, 73.000000)">
                        <g id="直" transform="translate(463.351877, 355.899919)">
                            <polygon id="Stroke-45" points="617.118625 533.797277 617.118625 355.8988 463.028813 266.949561 308.939002 355.8988 308.939002 533.797277 463.028813 622.746516"></polygon>
                            <path d="M463.028589,444.848486 L463.028589,266.950009" id="Stroke-47"></path>
                            <polygon id="Stroke-50" points="771.20866 445.235388 771.20866 267.33691 617.118848 178.387672 463.029037 267.33691 463.029037 445.235388 617.118848 534.184626"></polygon>
                            <polyline id="Stroke-51" points="617.118625 534.168398 617.118625 356.269921 463.028813 267.320682"></polyline>
                            <path d="M617.118625,356.286709 L617.118625,178.388231" id="Stroke-52"></path>
                            <path d="M771.20866,267.321018 L617.118848,356.270257" id="Stroke-54"></path>
                            <polygon id="Stroke-55" points="925.297688 356.286709 925.297688 178.388231 771.207876 89.4389927 617.119184 178.388231 617.119184 356.286709 771.207876 445.235947"></polygon>
                            <polyline id="Stroke-56" points="771.207653 445.219048 771.207653 267.32057 617.11896 178.371332"></polyline>
                            <path d="M771.207653,267.337358 L771.207653,89.4388808" id="Stroke-57"></path>
                            <polyline id="Stroke-58" points="925.297688 356.286709 771.208996 267.33747 617.119184 356.286709"></polyline>
                            <path d="M925.297688,178.371667 L771.208996,267.320906" id="Stroke-59"></path>
                            <polygon id="Stroke-60" points="1079.38772 267.337358 1079.38772 89.4388808 925.297912 0.489642185 771.20922 89.4388808 771.20922 267.337358 925.297912 356.286597"></polygon>
                            <polyline id="Stroke-61" points="925.297688 356.270257 925.297688 178.371779 771.208996 89.4225408"></polyline>
                            <path d="M925.297688,178.388119 L925.297688,0.489642185" id="Stroke-62"></path>
                            <polyline id="Stroke-63" points="1079.38772 267.337358 925.297912 178.388119 771.20922 267.337358"></polyline>
                            <path d="M1079.38772,89.4229884 L925.297912,178.372227" id="Stroke-64"></path>
                        </g>
                        <g id="右角" transform="translate(1234.233330, 0.721931)">
                            <polygon id="Stroke-20" points="308.37943 266.855438 308.37943 88.956961 154.289619 0.00772235674 0.199806995 88.956961 0.199806995 266.855438 154.289619 355.804677"></polygon>
                            <polyline id="Stroke-21" points="154.289395 355.788337 154.289395 177.88986 0.199583122 88.9406209"></polyline>
                            <path d="M154.289395,177.906088 L154.289395,0.00761043853" id="Stroke-22"></path>
                            <polyline id="Stroke-23" points="308.37943 266.855438 154.289619 177.9062 0.199806995 266.855438"></polyline>
                            <polygon id="Stroke-25" points="462.468906 355.804677 462.468906 177.9062 308.379094 88.956961 154.289283 177.9062 154.289283 355.804677 308.379094 444.753916"></polygon>
                            <polygon id="Stroke-30" points="462.468906 533.686366 462.468906 355.787889 308.379094 266.838651 154.289283 355.787889 154.289283 533.686366 308.379094 622.635605"></polygon>
                            <polyline id="Stroke-31" points="308.37943 622.619265 308.37943 444.720788 154.289619 355.771549"></polyline>
                            <polyline id="Stroke-33" points="462.468906 533.686366 308.379094 444.737128 154.289283 533.686366"></polyline>
                            <polygon id="Stroke-65" points="616.558941 444.753468 616.558941 266.854991 462.46913 177.905752 308.379318 266.854991 308.379318 444.753468 462.46913 533.702706"></polygon>
                            <polyline id="Stroke-66" points="462.468906 533.686366 462.468906 355.787889 308.379094 266.838651"></polyline>
                            <polyline id="Stroke-68" points="616.558941 444.753468 462.46913 355.804229 308.379318 444.753468"></polyline>
                            <path d="M616.558941,266.838986 L462.46913,355.788225" id="Stroke-69"></path>
                            <path d="M308.37943,88.9409567 L154.289619,177.890195" id="Stroke-24"></path>
                            <polyline id="Stroke-26" points="308.37943 444.737016 308.37943 266.838539 154.289619 177.8893"></polyline>
                            <path d="M308.37943,266.855438 L308.37943,88.956961" id="Stroke-27"></path>
                            <polyline id="Stroke-28" points="462.468906 355.804677 308.379094 266.855438 154.289283 355.804677"></polyline>
                            <path d="M462.468906,177.889748 L308.379094,266.838986" id="Stroke-29"></path>
                            <path d="M462.468906,355.771325 L308.379094,444.720564" id="Stroke-34"></path>
                            <path d="M462.468906,355.804677 L462.468906,177.9062" id="Stroke-67"></path>
                            <path d="M308.37943,444.737016 L308.37943,266.838539" id="Stroke-32"></path>
                        </g>
                        <g id="左角" transform="translate(0.000000, 301.234867)">
                            <polygon id="Stroke-20" points="385.549719 490.132274 385.549719 312.233797 231.459908 223.284559 77.3700963 312.233797 77.3700963 490.132274 231.459908 579.081513"></polygon>
                            <polyline id="Stroke-21" points="231.459684 579.065173 231.459684 401.166696 77.3698724 312.217457"></polyline>
                            <path d="M231.459684,401.182924 L231.459684,223.284447" id="Stroke-22"></path>
                            <polygon id="Stroke-25" points="539.639195 579.081513 539.639195 401.183036 385.549384 312.233797 231.459572 401.183036 231.459572 579.081513 385.549384 668.030752"></polygon>
                            <path d="M385.549719,312.217793 L231.459908,401.167031" id="Stroke-24"></path>
                            <path d="M385.549719,490.132274 L385.549719,312.233797" id="Stroke-27"></path>
                            <g id="Group-3" transform="translate(231.613212, 223.325541) rotate(-300.000000) translate(-231.613212, -223.325541) translate(77.113212, 45.325541)">
                                <polygon id="Stroke-30" points="308.179623 266.847716 308.179623 88.9492386 154.089812 0 0 88.9492386 0 266.847716 154.089812 355.796955"></polygon>
                                <polyline id="Stroke-31" points="154.089812 355.822696 154.089812 177.924218 0 88.9749798"></polyline>
                                <polyline id="Stroke-33" points="308.179623 266.899198 154.089812 177.94996 0 266.899198"></polyline>
                                <path d="M308.562447,88.9749798 L154.472635,177.924218" id="Stroke-34"></path>
                                <path d="M154.472635,0 L154.472748,177.898281" id="Stroke-34"></path>
                            </g>
                        </g>
                        <g id="单独" transform="translate(231.558972, 435.158999)">
                            <polygon id="Stroke-15" points="308.349431 267.117215 308.349431 89.2187377 154.260739 0.269499058 0.170927329 89.2187377 0.170927329 267.117215 154.260739 356.066454"></polygon>
                            <polyline id="Stroke-16" points="154.260403 356.049554 154.260403 178.151077 0.170591519 89.201838"></polyline>
                            <path d="M154.260403,178.167864 L154.260403,0.26938714" id="Stroke-17"></path>
                            <polyline id="Stroke-18" points="308.350438 267.117215 154.260627 178.167976 0.170815392 267.117215"></polyline>
                            <path d="M308.350438,89.2021738 L154.260627,178.151412" id="Stroke-19"></path>
                        </g>
                    </g>
                </g>
            </g>
        </g>
    </g>
</svg>