<?xml version="1.0" encoding="UTF-8"?>
<svg width="15px" height="15px" viewBox="0 0 15 15" version="1.1" xmlns="http://www.w3.org/2000/svg" xmlns:xlink="http://www.w3.org/1999/xlink">
    <!-- Generator: Sketch 49 (51002) - http://www.bohemiancoding.com/sketch -->
    <title>btm_icon_ins</title>
    <desc>Created with Sketch.</desc>
    <defs></defs>
    <g id="Symbols" stroke="none" stroke-width="1" fill="none" fill-rule="evenodd">
        <g id="btm_icon_ins" transform="translate(1.000000, 1.000000)" fill="#FFFFFF">
            <g transform="translate(-1.000000, -1.000000)" id="Path">
                <path d="M2.47727273,0.5 L12.5227273,0.5 C13.6140287,0.5 14.5,1.38597126 14.5,2.47786364 L14.5,12.5227273 C14.5,13.6142018 13.6138556,14.5005909 12.5227273,14.5005909 L2.47727273,14.5005909 C1.38614436,14.5005909 0.5,13.6142018 0.5,12.5227273 L0.5,2.47786364 C0.5,1.38597126 1.38597126,0.5 2.47727273,0.5 Z M2.47727273,1.5 C1.93825601,1.5 1.5,1.93825601 1.5,2.47786364 L1.5,12.5227273 C1.5,13.0619789 1.93849093,13.5005909 2.47727273,13.5005909 L12.5227273,13.5005909 C13.0615091,13.5005909 13.5,13.0619789 13.5,12.5227273 L13.5,2.47786364 C13.5,1.93825601 13.061744,1.5 12.5227273,1.5 L2.47727273,1.5 Z" fill-rule="nonzero"></path>
                <path d="M7.5,10.5454545 C9.17880175,10.5454545 10.5454545,9.17895898 10.5454545,7.5 C10.5454545,5.82066694 9.17901864,4.45454545 7.5,4.45454545 C5.82060732,4.45454545 4.45454545,5.82045014 4.45454545,7.5 C4.45454545,9.17917581 5.82082419,10.5454545 7.5,10.5454545 Z M7.5,11.5454545 C5.26853944,11.5454545 3.45454545,9.73146056 3.45454545,7.5 C3.45454545,5.26813963 5.26834833,3.45454545 7.5,3.45454545 C9.73125189,3.45454545 11.5454545,5.26833067 11.5454545,7.5 C11.5454545,9.73126949 9.73106074,11.5454545 7.5,11.5454545 Z" fill-rule="nonzero"></path>
                <path d="M11.1833333,4.03333333 C10.8248583,4.03333333 10.5333333,3.74180833 10.5333333,3.38333333 C10.5333333,3.02475 10.8248583,2.73333333 11.1833333,2.73333333 C11.5417,2.73333333 11.8333333,3.02475 11.8333333,3.38333333 C11.8333333,3.74180833 11.5417,4.03333333 11.1833333,4.03333333 L11.1833333,4.03333333 Z"></path>
            </g>
        </g>
    </g>
</svg>