<?xml version="1.0" encoding="UTF-8"?>
<svg width="15px" height="15px" viewBox="0 0 15 15" version="1.1" xmlns="http://www.w3.org/2000/svg" xmlns:xlink="http://www.w3.org/1999/xlink">
    <!-- Generator: Sketch 49 (51002) - http://www.bohemiancoding.com/sketch -->
    <title>btm_icon_fb</title>
    <desc>Created with Sketch.</desc>
    <defs></defs>
    <g id="Symbols" stroke="none" stroke-width="1" fill="none" fill-rule="evenodd">
        <g id="btm_icon_fb" transform="translate(1.000000, 1.000000)" fill="#FFFFFF" fill-rule="nonzero">
            <path d="M8.06782902,7.82927073 L8.06782902,13.7005998 L0.732599989,13.7005998 C-0.0713113983,13.7005998 -0.5,13.0575669 -0.5,12.3005998 L-0.5,0.899999987 C-0.5,0.143032903 -0.0713113983,-0.5 0.732599989,-0.5 L12.1325998,-0.5 C12.9063426,-0.5 13.6999998,0.125585201 13.6999998,0.899999987 L13.6999998,12.3005998 C13.6999998,13.0745465 12.9061146,13.7005998 12.1325998,13.7005998 L8.99252201,13.7005998 L8.99252201,7.82927073 L10.6943346,7.82927073 L11.1161211,6.89599991 L8.99252201,6.89599991 L8.99252201,4.74599993 C8.99252201,3.56028506 9.74493796,3.02084067 10.525122,3.02084067 C10.5892358,3.02084067 10.6764946,3.0217732 10.7818702,3.02344101 C10.8460238,3.02449412 10.8460238,3.02449412 10.9075315,3.02561954 C10.9115767,3.02570028 10.9174402,2.71895492 10.925122,2.10538346 L10.4245983,2.10538346 C8.92128286,2.10538346 8.06782902,3.22644998 8.06782902,4.74599993 L8.06782902,6.89599991 L5.66782905,6.89599991 L5.66782905,7.82927073 L8.06782902,7.82927073 Z M10.6535648,7.91948039 L10.6595614,7.90621194 C10.6567497,7.91079535 10.6547241,7.91525533 10.6535648,7.91948039 Z M12.1325998,12.7005998 C12.3989563,12.7005998 12.6999998,12.4631986 12.6999998,12.3005998 L12.6999998,0.899999987 C12.6999998,0.737056995 12.3992542,0.5 12.1325998,0.5 L0.732599989,0.5 C0.586711391,0.5 0.5,0.630067086 0.5,0.899999987 L0.5,12.3005998 C0.5,12.5705327 0.586711391,12.7005998 0.732599989,12.7005998 L7.06782902,12.7005998 L7.06782902,8.82927073 L5.46782905,8.82927073 C5.02567948,8.82927073 4.66782905,8.47240883 4.66782905,8.02867073 L4.66782905,6.6953999 C4.66782905,6.25126491 5.02606285,5.89599991 5.46782905,5.89599991 L7.06782902,5.89599991 L7.06782902,4.74599993 C7.06782902,2.72441626 8.30037833,1.10538346 10.4245983,1.10538346 L11.1837203,1.10538346 C11.6541865,1.10538346 11.925122,1.47437118 11.925122,1.90538346 L11.925122,3.23082416 C11.925122,3.67495915 11.5668882,4.03022415 11.1135443,4.03009009 C11.063674,4.02893487 11.063674,4.02893487 10.8888636,4.02544528 C10.8285737,4.0243422 10.8285737,4.0243422 10.7660449,4.02331578 C10.6655184,4.02172472 10.5827959,4.02084067 10.525122,4.02084067 C10.2393199,4.02084067 9.99252201,4.19778232 9.99252201,4.74599993 L9.99252201,5.89599991 L11.425122,5.89599991 C11.6834119,5.89599991 11.9243675,6.02147048 12.0718175,6.22699161 C12.2247648,6.43628786 12.2660606,6.70778581 12.1654791,6.99659024 L11.5829084,8.2856221 C11.473201,8.60829093 11.1683222,8.82927073 10.825122,8.82927073 L9.99252201,8.82927073 L9.99252201,12.7005998 L12.1325998,12.7005998 Z"></path>
        </g>
    </g>
</svg>