<?xml version="1.0" encoding="UTF-8"?>
<svg width="280px" height="280px" viewBox="0 0 280 280" version="1.1" xmlns="http://www.w3.org/2000/svg" xmlns:xlink="http://www.w3.org/1999/xlink">
    <!-- Generator: Sketch 52.1 (67048) - http://www.bohemiancoding.com/sketch -->
    <title>dl_bplogo</title>
    <desc>Created with Sketch.</desc>
    <defs>
        <linearGradient x1="29.7487387%" y1="13.3993207%" x2="70.6483311%" y2="85.9338115%" id="linearGradient-1">
            <stop stop-color="#FFFFFF" offset="0%"></stop>
            <stop stop-color="#FFFFFF" stop-opacity="0" offset="100%"></stop>
        </linearGradient>
    </defs>
    <g id="改版二-下载及教程" stroke="none" stroke-width="1" fill="none" fill-rule="evenodd">
        <g id="下载页-新" transform="translate(-820.000000, -175.000000)">
            <g id="头部" transform="translate(51.000000, 90.000000)">
                <g id="dl_bplogo" transform="translate(769.000000, 85.000000)">
                    <g id="Group-8">
                        <path d="M275.588374,172.964924 C278.159273,162.37327 279.533008,151.313897 279.533008,139.931439 C279.533008,123.342691 276.630885,107.43267 271.318779,92.6734811 L230.520628,110.470038 L224.296873,96.2029886 L265.230895,78.3469492 C243.384515,34.0073941 198.691195,2.95248698 146.513716,0.553774343 L146.513716,44.3686305 L133.991071,44.3686305 L133.991071,0.535616508 C111.04896,1.50862602 89.5431955,8.02541044 70.7717508,18.7729704 L93.3181469,57.8248387 L85.6474007,62.253472 L63.2268572,23.420124 C46.0219954,34.7775368 31.4819523,49.8416525 20.7412798,67.4741627 L60.3760771,94.8442816 L51.8644353,107.169069 L13.6108858,80.751297 C5.18064119,98.7162834 0.467743773,118.772552 0.467743773,139.931439 C0.467743773,157.377361 3.68105446,174.068795 9.53038191,189.462256 L53.1868267,172.79712 L57.6937266,184.604096 L14.5594761,201.069496 C16.1986903,204.424312 17.9769059,207.697732 19.8703298,210.895389 L60.1581831,186.011015 L68.1952166,199.023295 L28.3769625,223.617144 C29.9667123,225.735349 31.6290934,227.794698 33.3334254,229.817732 L69.5539236,201.806453 L71.3146075,204.082444 L35.2093176,232.004185 C37.1327959,234.195022 39.1301577,236.318237 41.1832454,238.385725 L72.5374437,207.031527 L79.3028026,213.795633 L48.1552279,244.943208 C50.5201294,247.01821 52.9514009,249.021208 55.456556,250.932163 L82.9719376,213.605289 L87.324809,216.813591 L59.816941,254.131073 C82.5035907,270.089305 110.155469,279.464383 140.000063,279.464383 C155.437353,279.464383 170.287332,276.954219 184.167431,272.323971 L169.713794,230.149582 L180.301691,226.521145 L194.638241,268.353041 C201.416122,265.464693 207.920384,262.058533 214.097179,258.179018 L187.849089,219.886022 L190.878943,217.809141 L217.18088,256.179778 C223.151051,252.207595 228.801895,247.791484 234.077685,242.971518 L198.035008,208.876739 L201.425514,205.292131 L237.667927,239.57475 C252.350728,225.181222 263.869683,207.572505 271.074587,187.882524 L221.988323,170.242501 L227.252217,155.594763 L275.588374,172.964924 Z" id="Fill-4" fill="#1C1E35"></path>
                        <path d="M275.588374,172.964924 C278.159273,162.37327 279.533008,151.313897 279.533008,139.931439 C279.533008,123.342691 276.630885,107.43267 271.318779,92.6734811 L230.520628,110.470038 L224.296873,96.2029886 L265.230895,78.3469492 C243.384515,34.0073941 198.691195,2.95248698 146.513716,0.553774343 L146.513716,44.3686305 L133.991071,44.3686305 L133.991071,0.535616508 C111.04896,1.50862602 89.5431955,8.02541044 70.7717508,18.7729704 L93.3181469,57.8248387 L85.6474007,62.253472 L63.2268572,23.420124 C46.0219954,34.7775368 31.4819523,49.8416525 20.7412798,67.4741627 L60.3760771,94.8442816 L51.8644353,107.169069 L13.6108858,80.751297 C5.18064119,98.7162834 0.467743773,118.772552 0.467743773,139.931439 C0.467743773,157.377361 3.68105446,174.068795 9.53038191,189.462256 L53.1868267,172.79712 L57.6937266,184.604096 L14.5594761,201.069496 C16.1986903,204.424312 17.9769059,207.697732 19.8703298,210.895389 L60.1581831,186.011015 L68.1952166,199.023295 L28.3769625,223.617144 C29.9667123,225.735349 31.6290934,227.794698 33.3334254,229.817732 L69.5539236,201.806453 L71.3146075,204.082444 L35.2093176,232.004185 C37.1327959,234.195022 39.1301577,236.318237 41.1832454,238.385725 L72.5374437,207.031527 L79.3028026,213.795633 L48.1552279,244.943208 C50.5201294,247.01821 52.9514009,249.021208 55.456556,250.932163 L82.9719376,213.605289 L87.324809,216.813591 L59.816941,254.131073 C82.5035907,270.089305 110.155469,279.464383 140.000063,279.464383 C155.437353,279.464383 170.287332,276.954219 184.167431,272.323971 L169.713794,230.149582 L180.301691,226.521145 L194.638241,268.353041 C201.416122,265.464693 207.920384,262.058533 214.097179,258.179018 L187.849089,219.886022 L190.878943,217.809141 L217.18088,256.179778 C223.151051,252.207595 228.801895,247.791484 234.077685,242.971518 L198.035008,208.876739 L201.425514,205.292131 L237.667927,239.57475 C252.350728,225.181222 263.869683,207.572505 271.074587,187.882524 L221.988323,170.242501 L227.252217,155.594763 L275.588374,172.964924 Z" id="Fill-4" fill-opacity="0.2" fill="#3C6BF0"></path>
                        <path d="M140.000125,258.456457 C205.421553,258.456457 258.456207,205.421803 258.456207,140.000376 C258.456207,74.5783218 205.421553,21.5436683 140.000125,21.5436683 C74.5786975,21.5436683 21.5440439,74.5783218 21.5440439,140.000376 C21.5440439,205.421803 74.5786975,258.456457 140.000125,258.456457" id="Fill-6" fill="#1C1E35"></path>
                        <path d="M140.000125,258.456457 C205.421553,258.456457 258.456207,205.421803 258.456207,140.000376 C258.456207,74.5783218 205.421553,21.5436683 140.000125,21.5436683 C74.5786975,21.5436683 21.5440439,74.5783218 21.5440439,140.000376 C21.5440439,205.421803 74.5786975,258.456457 140.000125,258.456457" id="Fill-6" fill-opacity="0.5" fill="#3C6BF0"></path>
                    </g>
                    <g id="Group-14" transform="translate(34.492754, 31.449275)" fill="url(#linearGradient-1)">
                        <polygon id="Fill-12" points="106.539266 93.8706429 90.8439628 1.36150826 87.4557487 1.93647792 103.151674 94.4474794 64.0456471 9.15097826 60.9218942 10.5834243 100.026676 95.8786809 40.1781834 23.6104698 37.5310827 25.8026972 97.3795757 98.0715306 20.8656741 43.755565 18.8756817 46.558231 95.3908279 100.874197 7.42482474 68.2123104 6.22883805 71.4337584 94.1935966 104.096267 0.772848837 95.3142897 0.450517358 98.7361059 93.8718874 107.518083 1.36150826 123.214008 1.93647792 126.602845 94.4474794 110.906297 9.15097826 150.011702 10.5834243 153.136077 95.8793032 114.030672 23.611092 173.88041 25.8033194 176.527511 98.0727751 116.678395 43.7561872 193.192297 46.5588532 195.182289 100.874197 118.66901 68.2129327 206.633146 71.4343807 207.829133 104.096267 119.865619 95.3142897 213.285122 98.7361059 213.607454 107.518083 120.184217 123.215253 212.696463 126.603467 212.122115 110.906919 119.610492 150.012324 204.906993 153.136699 203.474547 114.031295 118.17929 173.88041 190.447501 176.527511 188.255274 116.679018 115.98644 193.192919 170.301784 195.182289 167.500362 118.668388 113.183774 206.632524 145.846283 207.829755 142.624213 119.864997 109.961704 213.285122 118.744304 213.607454 115.321865 120.186706 106.539888 212.697085 90.8439628 212.122738 87.4551264 119.611114 103.151052 204.907615 64.0456471 203.475169 60.9218942 118.17929 100.026676 190.447501 40.1775611 188.255896 37.5304605 115.987685 97.3789535 170.302406 20.8656741 167.500362 18.8756817 113.183774 95.3914501 145.846283 7.42482474 142.624213 6.22821579 109.961704 94.1948412 118.744304 0.772848837 115.321865 0.450517358"></polygon>
                    </g>
                    <g id="Group-23" transform="translate(47.681159, 45.652174)">
                        <path d="M93.3334595,186.551829 C144.816883,186.551829 186.551387,144.816694 186.551387,93.3332703 C186.551387,41.8498468 144.816883,0.114711712 93.3334595,0.114711712 C41.850036,0.114711712 0.114900901,41.8498468 0.114900901,93.3332703 C0.114900901,144.816694 41.850036,186.551829 93.3334595,186.551829" id="Fill-15" fill="#1C1E35"></path>
                        <path d="M93.3334595,186.551829 C144.816883,186.551829 186.551387,144.816694 186.551387,93.3332703 C186.551387,41.8498468 144.816883,0.114711712 93.3334595,0.114711712 C41.850036,0.114711712 0.114900901,41.8498468 0.114900901,93.3332703 C0.114900901,144.816694 41.850036,186.551829 93.3334595,186.551829" id="Fill-15" fill-opacity="0.7" fill="#3C6BF0"></path>
                        <path d="M174.21682,102.792856 L174.21682,83.8739369 L159.516189,83.8739369 C158.758171,78.4902432 157.364477,73.3115045 155.410153,68.4159189 L168.110423,61.0835766 L158.650964,44.6991622 L145.984117,52.0125856 C142.684027,47.7835766 138.888892,43.9600631 134.685739,40.6271802 L141.967,28.0158288 L125.583216,18.5563694 L118.354297,31.0769099 C113.431595,29.0664595 108.218171,27.6223153 102.792856,26.8264595 L102.792856,12.449973 L83.8739369,12.449973 L83.8739369,26.7211441 C78.4025856,27.4602432 73.139973,28.8545676 68.1687117,30.8278108 L61.0842072,18.5563694 L44.6991622,28.0158288 L51.7464595,40.2216847 C47.4373604,43.5703333 43.5451081,47.4304234 40.1642973,51.713036 L28.0158288,44.6991622 L18.5563694,61.0835766 L30.6480811,68.0646577 C28.6187117,73.0636667 27.1745676,78.360964 26.3982613,83.8739369 L12.4493423,83.8739369 L12.4493423,102.792856 L26.3982613,102.792856 C27.1745676,108.305829 28.6187117,113.603126 30.6480811,118.602135 L18.5563694,125.583216 L28.0158288,141.967631 L40.1642973,134.953757 C43.5451081,139.236369 47.4373604,143.096459 51.7464595,146.445108 L44.6991622,158.650964 L61.0842072,168.110423 L68.1687117,155.838982 C73.139973,157.812225 78.4025856,159.20655 83.8739369,159.945649 L83.8739369,174.21682 L102.792856,174.21682 L102.792856,159.840333 C108.218171,159.044477 113.431595,157.600333 118.354297,155.590514 L125.583216,168.110423 L141.967,158.650964 L134.685739,146.039613 C138.888892,142.70673 142.684027,138.883216 145.984117,134.654207 L158.650964,141.967631 L168.110423,125.583216 L155.410153,118.250874 C157.364477,113.355919 158.758171,108.17655 159.516189,102.792856 L174.21682,102.792856 Z" id="Fill-17" fill-opacity="0.9" fill="#3C6BF0"></path>
                        <path d="M181.326802,90.6689189 C183.617252,91.7069369 183.617252,94.9597297 181.326802,95.9977477 L121.449054,123.132523 L109.975991,128.331441 C84.5395045,139.858739 55.6919369,121.26018 55.6919369,93.3333333 C55.6919369,65.4064865 84.5395045,46.8079279 109.975991,58.3352252 L121.449054,63.5341441 L181.326802,90.6689189 Z" id="Fill-19" fill="#FFFFFF"></path>
                        <path d="M171.891369,93.3333964 C171.891369,95.422045 170.198126,97.1146577 168.110108,97.1146577 C166.021459,97.1146577 164.328847,95.422045 164.328847,93.3333964 C164.328847,91.2447477 166.021459,89.5521351 168.110108,89.5521351 C170.198126,89.5521351 171.891369,91.2447477 171.891369,93.3333964" id="Fill-21" fill="#3C6BF0"></path>
                    </g>
                </g>
            </g>
        </g>
    </g>
</svg>