<?xml version="1.0" encoding="UTF-8"?>
<svg width="17px" height="17px" viewBox="0 0 17 17" version="1.1" xmlns="http://www.w3.org/2000/svg" xmlns:xlink="http://www.w3.org/1999/xlink">
    <!-- Generator: Sketch 50 (54983) - http://www.bohemiancoding.com/sketch -->
    <title>ic_warn</title>
    <desc>Created with Sketch.</desc>
    <defs></defs>
    <g id="账户" stroke="none" stroke-width="1" fill="none" fill-rule="evenodd">
        <g id="web-light-账户-信用评级" transform="translate(-1234.000000, -1861.000000)" fill="#FF4465">
            <g id="如何增长积分" transform="translate(340.000000, 1442.000000)">
                <g id="Group-4" transform="translate(69.000000, 418.000000)">
                    <g id="ic_warn" transform="translate(825.000000, 1.000000)">
                        <path d="M15.1518961,8.21532468 C15.1518961,4.38497354 12.0469226,1.28 8.21657143,1.28 C4.38488663,1.28 1.27968831,4.38474881 1.27968831,8.21532468 C1.27968831,12.0462303 4.38521626,15.1522078 8.21657143,15.1522078 C12.046593,15.1522078 15.1518961,12.0460055 15.1518961,8.21532468 Z M16.1518961,8.21532468 C16.1518961,12.5982254 12.5989425,16.1522078 8.21657143,16.1522078 C3.83289911,16.1522078 0.279688312,12.5984826 0.279688312,8.21532468 C0.279688312,3.83243165 3.83263428,0.28 8.21657143,0.28 C12.5992073,0.28 16.1518961,3.83268879 16.1518961,8.21532468 Z" id="Stroke-1" fill-rule="nonzero"></path>
                        <path d="M7.856,3.004 L9.158,3.004 L8.934,10.312 L8.066,10.312 L7.856,3.004 Z M8.5,11.334 C8.738,11.334 8.948,11.404 9.116,11.572 C9.27,11.726 9.354,11.922 9.354,12.16 C9.354,12.412 9.27,12.608 9.116,12.762 C8.948,12.916 8.738,13 8.5,13 C8.262,13 8.066,12.916 7.898,12.762 C7.73,12.594 7.66,12.398 7.66,12.16 C7.66,11.922 7.73,11.726 7.898,11.572 C8.066,11.404 8.262,11.334 8.5,11.334 Z" id="！"></path>
                    </g>
                </g>
            </g>
        </g>
    </g>
</svg>