<?xml version="1.0" encoding="UTF-8"?>
<svg width="99px" height="12px" viewBox="0 0 99 12" version="1.1" xmlns="http://www.w3.org/2000/svg" xmlns:xlink="http://www.w3.org/1999/xlink">
    <!-- Generator: Sketch 41.2 (35397) - http://www.bohemiancoding.com/sketch -->
    <title>Page-1</title>
    <desc>Created with Sketch.</desc>
    <defs></defs>
    <g id="Page-1" stroke="none" stroke-width="1" fill="none" fill-rule="evenodd">
        <g id="Desktop-HD" transform="translate(-70.000000, -20.000000)" fill="#444444">
            <g id="logo" transform="translate(70.000000, 20.000000)">
                <g id="WISE-BOARD">
                    <g id="Page-1">
                        <path d="M15.632,0.616 L12.304,11 L9.84,11 L7.856,3.464 L5.808,11 L3.344,11 L0.128,0.616 L2.72,0.616 L4.736,8.2 L6.752,0.616 L9.072,0.616 L11.248,8.2 L13.104,0.616 L15.632,0.616 Z M19.376,11 L16.88,11 L16.88,0.616 L19.376,0.616 L19.376,11 Z M29.584,7.352 L29.584,8.04 C29.584,8.65866976 29.4720011,9.17866456 29.248,9.6 C29.0239989,10.0213354 28.6933355,10.3413322 28.256,10.56 C27.8186645,10.7786678 27.3413359,10.9333329 26.824,11.024 C26.3066641,11.1146671 25.6906702,11.16 24.976,11.16 C23.983995,11.16 22.7573406,11.064001 21.296,10.872 L21.296,8.968 C23.0666755,9.24533472 24.3039965,9.384 25.008,9.384 C26.3946736,9.384 27.088,9.02667024 27.088,8.312 L27.088,7.64 C27.088,7.33066512 26.9973342,7.07733432 26.816,6.88 C26.6346658,6.68266568 26.2720027,6.584 25.728,6.584 L24.512,6.584 C22.2293219,6.584 21.088,5.6773424 21.088,3.864 L21.088,3.096 C21.088,2.19999552 21.4639962,1.53600216 22.216,1.104 C22.9680038,0.67199784 24.1706584,0.456 25.824,0.456 C26.624004,0.456 27.7066598,0.52533264 29.072,0.664 L29.072,2.52 C27.4506586,2.32799904 26.3413363,2.232 25.744,2.232 C24.9226626,2.232 24.3573349,2.30133264 24.048,2.44 C23.7386651,2.57866736 23.584,2.81333168 23.584,3.144 L23.584,3.88 C23.584,4.42400272 24.0426621,4.696 24.96,4.696 L26.208,4.696 C27.4240061,4.696 28.2906641,4.91999776 28.808,5.368 C29.3253359,5.81600224 29.584,6.47732896 29.584,7.352 Z M39.392,11 L31.312,11 L31.312,0.616 L39.232,0.616 L39.232,2.392 L33.808,2.392 L33.808,4.776 L38.704,4.776 L38.704,6.552 L33.808,6.552 L33.808,9.224 L39.392,9.224 L39.392,11 Z" id="WISE"></path>
                        <path d="M54.568,7.08 L54.568,8.68 C54.568,9.54400432 54.2213368,10.146665 53.528,10.488 C52.8346632,10.829335 51.8053402,11 50.44,11 L46.12,11 L46.12,0.616 L50.328,0.616 C51.8000074,0.616 52.7973307,0.78133168 53.32,1.112 C53.8426693,1.44266832 54.104,2.01866256 54.104,2.84 L54.104,4.12 C54.104,4.41866816 53.9866678,4.69599872 53.752,4.952 C53.5173322,5.20800128 53.2506682,5.37866624 52.952,5.464 L52.952,5.544 C53.3360019,5.58666688 53.7013316,5.75733184 54.048,6.056 C54.3946684,6.35466816 54.568,6.69599808 54.568,7.08 Z M51.704,3.8 L51.704,3.288 C51.704,2.94666496 51.6240008,2.71200064 51.464,2.584 C51.3039992,2.45599936 50.9093365,2.392 50.28,2.392 L48.616,2.392 L48.616,4.84 L50.328,4.84 C50.9146696,4.84 51.2906658,4.76533408 51.456,4.616 C51.6213342,4.46666592 51.704,4.19466864 51.704,3.8 Z M52.072,8.344 L52.072,7.512 C52.072,7.12799808 51.9733343,6.8560008 51.776,6.696 C51.5786657,6.5359992 51.2293358,6.456 50.728,6.456 L48.616,6.456 L48.616,9.224 L50.392,9.224 C51.000003,9.224 51.4319987,9.15466736 51.688,9.016 C51.9440013,8.87733264 52.072,8.65333488 52.072,8.344 Z M65.912,3.608 L65.912,8.152 C65.912,8.7386696 65.7573349,9.23999792 65.448,9.656 C65.1386651,10.0720021 64.7226693,10.383999 64.2,10.592 C63.6773307,10.800001 63.1546693,10.9466662 62.632,11.032 C62.1093307,11.1173338 61.5546696,11.16 60.968,11.16 C60.4133306,11.16 59.8933358,11.1253337 59.408,11.056 C58.9226642,10.9866663 58.4053361,10.856001 57.856,10.664 C57.3066639,10.471999 56.869335,10.1626688 56.544,9.736 C56.218665,9.3093312 56.056,8.78133648 56.056,8.152 L56.056,3.608 C56.056,3.074664 56.1759988,2.60533536 56.416,2.2 C56.6560012,1.79466464 56.9439983,1.4853344 57.28,1.272 C57.6160017,1.0586656 58.0239976,0.885334 58.504,0.752 C58.9840024,0.618666 59.4106648,0.53600016 59.784,0.504 C60.1573352,0.47199984 60.5519979,0.456 60.968,0.456 C61.3946688,0.456 61.7973314,0.47199984 62.176,0.504 C62.5546686,0.53600016 62.9839976,0.618666 63.464,0.752 C63.9440024,0.885334 64.354665,1.0586656 64.696,1.272 C65.037335,1.4853344 65.3253322,1.791998 65.56,2.192 C65.7946678,2.592002 65.912,3.06399728 65.912,3.608 Z M63.416,8.152 L63.416,3.592 C63.416,3.09066416 63.2106687,2.73866768 62.8,2.536 C62.3893313,2.33333232 61.784004,2.232 60.984,2.232 C60.1733293,2.232 59.5653354,2.33066568 59.16,2.528 C58.7546646,2.72533432 58.552,3.07999744 58.552,3.592 L58.552,8.152 C58.552,8.418668 58.6213326,8.63999912 58.76,8.816 C58.8986674,8.99200088 59.0986654,9.11733296 59.36,9.192 C59.6213346,9.26666704 59.8719988,9.3173332 60.112,9.344 C60.3520012,9.3706668 60.6479982,9.384 61,9.384 C61.3520018,9.384 61.6479988,9.3706668 61.888,9.344 C62.1280012,9.3173332 62.3759987,9.26666704 62.632,9.192 C62.8880013,9.11733296 63.082666,8.99200088 63.216,8.816 C63.349334,8.63999912 63.416,8.418668 63.416,8.152 Z M77.464,11 L74.936,11 L74.008,8.264 L70.216,8.264 L69.304,11 L66.84,11 L70.68,0.616 L73.72,0.616 L77.464,11 Z M73.464,6.6 L72.152,2.696 L72.088,2.696 L70.776,6.6 L73.464,6.6 Z M87.864,11 L84.984,11 L82.264,6.92 L81.112,6.92 L81.112,11 L78.616,11 L78.616,0.616 L83.288,0.616 C84.6533402,0.616 85.6506635,0.78133168 86.28,1.112 C86.9093365,1.44266832 87.224,2.007996 87.224,2.808 L87.224,4.632 C87.224,5.26133648 86.9973356,5.74666496 86.544,6.088 C86.0906644,6.42933504 85.5280034,6.64266624 84.856,6.728 L87.864,11 Z M84.776,4.136 L84.776,3.4 C84.776,3.01599808 84.6613345,2.75200072 84.432,2.608 C84.2026655,2.46399928 83.8106694,2.392 83.256,2.392 L81.112,2.392 L81.112,5.272 L83.256,5.272 C83.8426696,5.272 84.2426656,5.19466744 84.456,5.04 C84.6693344,4.88533256 84.776,4.58400224 84.776,4.136 Z M98.648,3.768 L98.648,7.992 C98.648,9.1653392 98.285337,9.95999792 97.56,10.376 C96.834663,10.7920021 95.5600091,11 93.736,11 L89.304,11 L89.304,0.616 L93.72,0.616 C95.4800088,0.616 96.7413295,0.83466448 97.504,1.272 C98.2666705,1.70933552 98.648,2.5413272 98.648,3.768 Z M96.152,7.992 L96.152,3.72 C96.152,3.21866416 95.9493354,2.87200096 95.544,2.68 C95.1386646,2.48799904 94.5253374,2.392 93.704,2.392 L91.8,2.392 L91.8,9.224 L93.624,9.224 C94.5840048,9.224 95.2453315,9.15200072 95.608,9.008 C95.9706685,8.86399928 96.152,8.525336 96.152,7.992 Z" id="BOARD"></path>
                    </g>
                </g>
            </g>
        </g>
    </g>
</svg>