<?xml version="1.0" encoding="utf-8"?>
<!-- Generator: Adobe Illustrator 21.0.0, SVG Export Plug-In . SVG Version: 6.00 Build 0)  -->
<svg version="1.1" id="图层_1" xmlns="http://www.w3.org/2000/svg" xmlns:xlink="http://www.w3.org/1999/xlink" x="0px" y="0px"
	 width="32px" height="32px" viewBox="0 0 32 32" style="enable-background:new 0 0 32 32;" xml:space="preserve">
<g>
	<g>
		<path style="fill:#F0F0F0;" d="M27.7,29.9H2.2V4.6h9.3v-2H1.6C0.8,2.6,0.2,3.2,0.2,4v26.5c0,0.8,0.6,1.4,1.4,1.4h26.6
			c0.8,0,1.4-0.6,1.4-1.4v-10h-2L27.7,29.9z M27.7,29.9"/>
		<path style="fill:#F0F0F0;" d="M17.9,22.9l-8.6,0l0-8.6L22.8,0.7c0.2-0.2,0.6-0.4,0.9-0.4c0.4,0,0.8,0.1,1.1,0.4l6.6,6.6
			c0.3,0.3,0.4,0.6,0.4,1c0,0.4-0.1,0.7-0.4,1L17.9,22.9z M11.1,21.1h6L29.9,8.3l-6.1-6.1L11.1,15L11.1,21.1z M11.1,21.1"/>
	</g>
</g>
</svg>
