<?xml version="1.0" encoding="utf-8"?>
<!-- Generator: Adobe Illustrator 22.1.0, SVG Export Plug-In . SVG Version: 6.00 Build 0)  -->
<svg version="1.1" id="图层_1" xmlns="http://www.w3.org/2000/svg" xmlns:xlink="http://www.w3.org/1999/xlink" x="0px" y="0px"
	 viewBox="0 0 123.5 41" style="enable-background:new 0 0 123.5 41;" xml:space="preserve">
<style type="text/css">
	.st0{fill:#FFFFFF;}
</style>
<title>logo</title>
<desc>Created with Sketch.</desc>
<g id="註冊">
	<g id="_x31_.signup" transform="translate(-440.000000, -677.000000)">
		<g id="注册内容" transform="translate(350.625000, 125.875000)">
			<g id="背景">
				<g id="logo" transform="translate(90.000000, 552.000000)">
					<g>
						<polygon id="Fill-1" class="st0" points="20.9,8.1 12.5,4.4 13.9,1.1 22.2,4.8 						"/>
						<path id="Fill-2" class="st0" d="M2.4,3.4c0-1.1,0.9-2,2-2c1.1,0,2,0.9,2,2c0,1.1-0.9,2-2,2C3.3,5.4,2.4,4.5,2.4,3.4z
							 M26.1,4.4l-2.5,5.8L8,3.3C7.9,1.4,6.4-0.2,4.4-0.2c-2,0-3.6,1.6-3.6,3.6c0,2,1.6,3.6,3.6,3.6C5,7,5.6,6.9,6.1,6.6l19.5,8.5
							l0,0l0,0l4-9.3L26.1,4.4z"/>
						<polygon id="Fill-4" class="st0" points="8.6,16.8 4.7,25.8 1.4,24.3 5.3,15.3 						"/>
						<g id="Clip-7">
						</g>
						<path id="Fill-6" class="st0" d="M3.6,37.3c-1.1,0-2-0.9-2-2s0.9-2,2-2s2,0.9,2,2S4.7,37.3,3.6,37.3z M4.5,13.4l5.7,2.5
							L3.5,31.7C1.5,31.8,0,33.3,0,35.3c0,2,1.6,3.6,3.6,3.6s3.6-1.6,3.6-3.6c0-0.6-0.2-1.2-0.4-1.7l8.5-19.7l0,0l0,0L6,9.9
							L4.5,13.4z"/>
						<polygon id="Fill-9" class="st0" points="17.1,30.7 26,34.7 24.6,38 15.6,34.1 						"/>
						<g id="Clip-12">
						</g>
						<path id="Fill-11" class="st0" d="M37.4,35.8c0,1.1-0.9,2-2,2c-1.1,0-2-0.9-2-2s0.9-2,2-2C36.6,33.8,37.4,34.7,37.4,35.8z
							 M13.7,34.9l2.5-5.8l15.7,6.9c0.1,1.9,1.6,3.5,3.6,3.5c2,0,3.6-1.6,3.6-3.6c0-2-1.6-3.6-3.6-3.6c-0.6,0-1.1,0.2-1.6,0.4
							l-19.5-8.5l0,0l0,0l-4,9.3L13.7,34.9z"/>
						<polygon id="Fill-14" class="st0" points="31,22.5 34.9,13.5 38.2,15 34.4,24 						"/>
						<g id="Clip-17">
						</g>
						<path id="Combined-Shape" class="st0" d="M35.1,25.9l-1.5,3.5l-9.2-4l0,0l0,0l8.5-19.7c-0.3-0.5-0.4-1.1-0.4-1.7
							c0-2,1.6-3.6,3.6-3.6c2,0,3.6,1.6,3.6,3.6c0,2-1.5,3.5-3.5,3.6l-6.8,15.8L35.1,25.9z M36,2c-1.1,0-2,0.9-2,2c0,1.1,0.9,2,2,2
							s2-0.9,2-2C38,2.9,37.1,2,36,2z"/>
					</g>
				</g>
			</g>
		</g>
	</g>
</g>
<g>
	<path class="st0" d="M54.4,11.2h7.5c0.9,0,1.7,0.1,2.6,0.2c0.9,0.1,1.6,0.4,2.3,0.8c0.6,0.4,1.1,0.9,1.5,1.6s0.4,1.6,0.3,2.8
		c-0.2,1.2-0.6,2.2-1.3,3s-1.7,1.4-2.7,1.7v0.1c0.6,0.1,1.2,0.3,1.7,0.6s0.9,0.7,1.2,1.1c0.3,0.5,0.5,1,0.7,1.6
		c0.1,0.6,0.2,1.3,0.1,1.9c-0.2,1.1-0.5,2.1-1,2.8c-0.5,0.8-1.2,1.4-2,1.8c-0.8,0.5-1.6,0.8-2.5,1c-0.9,0.2-1.8,0.3-2.7,0.3h-8.2
		L54.4,11.2z M56.5,28.6h4c0.3,0,0.7,0,1.1-0.1c0.4-0.1,0.7-0.2,1-0.4c0.3-0.2,0.6-0.5,0.8-0.8c0.2-0.3,0.4-0.7,0.4-1.2
		c0.1-0.5,0-0.9-0.2-1.2c-0.2-0.3-0.5-0.5-0.8-0.7c-0.3-0.2-0.7-0.3-1.1-0.3c-0.4-0.1-0.8-0.1-1.1-0.1h-3.3L56.5,28.6z M57.7,19.8
		h3.2c0.3,0,0.7,0,1-0.1c0.3-0.1,0.7-0.2,0.9-0.4c0.3-0.2,0.5-0.4,0.7-0.7s0.3-0.7,0.4-1.1c0.1-0.4,0-0.8-0.1-1.1
		c-0.1-0.3-0.3-0.5-0.6-0.7c-0.3-0.2-0.6-0.3-0.9-0.3c-0.3-0.1-0.7-0.1-1-0.1h-3L57.7,19.8z"/>
	<path class="st0" d="M76,15.4h-5.7l0.5-4.2h15.8l-0.5,4.2h-5.7l-2.3,17.2h-4.4L76,15.4z"/>
	<path class="st0" d="M101.3,16.8c-0.4-0.6-0.9-1-1.4-1.3S98.5,15,97.7,15s-1.6,0.2-2.4,0.5c-0.8,0.3-1.4,0.8-2,1.4
		c-0.6,0.6-1.1,1.3-1.5,2.2c-0.4,0.8-0.7,1.8-0.8,2.8c-0.1,1-0.1,1.9,0.1,2.8c0.2,0.8,0.5,1.6,0.9,2.2s1,1.1,1.6,1.4
		c0.6,0.3,1.4,0.5,2.2,0.5c0.9,0,1.7-0.2,2.5-0.6c0.8-0.4,1.4-1,1.9-1.7l3.3,2.9c-1,1.3-2.2,2.2-3.6,2.8c-1.4,0.6-2.8,0.9-4.1,0.9
		c-1.6,0-3-0.3-4.2-0.8s-2.3-1.3-3.1-2.3c-0.8-1-1.4-2.2-1.8-3.6c-0.4-1.4-0.4-2.9-0.2-4.7c0.2-1.7,0.7-3.3,1.4-4.7
		c0.7-1.4,1.6-2.6,2.7-3.6c1.1-1,2.3-1.7,3.7-2.3c1.4-0.5,2.9-0.8,4.4-0.8c0.6,0,1.1,0.1,1.7,0.2c0.6,0.1,1.2,0.3,1.7,0.5
		c0.6,0.2,1.1,0.6,1.6,1c0.5,0.4,0.9,0.9,1.3,1.5L101.3,16.8z"/>
	<path class="st0" d="M117.5,16.4c-0.3-0.5-0.7-0.8-1.3-1.1c-0.6-0.2-1.1-0.3-1.7-0.3c-0.3,0-0.7,0-1,0.1c-0.4,0.1-0.7,0.2-1,0.4
		c-0.3,0.2-0.6,0.4-0.8,0.7c-0.2,0.3-0.4,0.6-0.4,1c-0.1,0.5,0,0.9,0.2,1.2c0.2,0.3,0.5,0.6,0.9,0.8c0.4,0.2,0.9,0.4,1.4,0.6
		c0.5,0.2,1.1,0.3,1.6,0.5c0.5,0.2,1.1,0.4,1.6,0.7c0.5,0.3,1,0.6,1.3,1.1s0.7,1,0.8,1.6c0.2,0.7,0.2,1.4,0.1,2.4
		c-0.2,1.2-0.5,2.2-1,3.1c-0.5,0.9-1.2,1.6-2,2.2c-0.8,0.6-1.7,1-2.6,1.3s-2,0.4-3,0.4c-1.3,0-2.5-0.2-3.5-0.6
		c-1.1-0.4-2-1.1-2.9-2.1l3.6-3.7c0.4,0.6,0.9,1.1,1.5,1.5c0.6,0.4,1.3,0.5,2,0.5c0.4,0,0.7,0,1.1-0.1c0.4-0.1,0.7-0.2,1-0.4
		c0.3-0.2,0.6-0.4,0.8-0.7c0.2-0.3,0.4-0.6,0.4-1c0.1-0.6-0.1-1.2-0.5-1.5c-0.4-0.4-1-0.7-1.6-1s-1.4-0.5-2.1-0.8
		c-0.8-0.3-1.5-0.6-2.1-1.1c-0.6-0.4-1.1-1-1.5-1.8s-0.5-1.7-0.3-2.9c0.2-1.1,0.5-2.2,1-3c0.5-0.9,1.2-1.6,2-2.2
		c0.8-0.6,1.7-1,2.6-1.3c1-0.3,1.9-0.4,2.9-0.4c1.1,0,2.2,0.2,3.2,0.5c1,0.3,1.9,0.9,2.6,1.7L117.5,16.4z"/>
</g>
</svg>
