<?xml version="1.0" encoding="utf-8"?>
<!-- Generator: Adobe Illustrator 21.1.0, SVG Export Plug-In . SVG Version: 6.00 Build 0)  -->
<svg version="1.1" id="图层_1" xmlns="http://www.w3.org/2000/svg" xmlns:xlink="http://www.w3.org/1999/xlink" x="0px" y="0px"
	 viewBox="0 0 18 15" style="enable-background:new 0 0 18 15;" xml:space="preserve">
<title>su_icon_back</title>
<desc>Created with Sketch.</desc>
<path d="M17.3,6.9H2l6.3-5.5c0.2-0.2,0.2-0.5,0-0.7c-0.2-0.2-0.5-0.2-0.7,0L0.4,7C0.3,7.1,0.2,7.2,0.2,7.4s0.1,0.3,0.2,0.4l7.3,6.4
	c0.1,0.1,0.2,0.1,0.3,0.1c0.1,0,0.3-0.1,0.4-0.2c0.2-0.2,0.2-0.5,0-0.7L2.1,7.9h15.2c0.3,0,0.5-0.2,0.5-0.5S17.5,6.9,17.3,6.9z"/>
</svg>
