<?xml version="1.0" encoding="utf-8"?>
<!-- Generator: Adobe Illustrator 21.0.0, SVG Export Plug-In . SVG Version: 6.00 Build 0)  -->
<svg version="1.1" id="图层_1" xmlns="http://www.w3.org/2000/svg" xmlns:xlink="http://www.w3.org/1999/xlink" x="0px" y="0px"
	 width="32px" height="32px" viewBox="0 0 32 32" style="enable-background:new 0 0 32 32;" xml:space="preserve">
<g>
	<path style="fill:#F0F0F0;" d="M17.6,28.5c-0.5,0.5-1,0.7-1.6,0.7c-0.6,0-1.1-0.2-1.6-0.7c-0.5-0.5-1.1-0.5-1.6,0
		c-0.5,0.5-0.5,1.1,0,1.6c0.8,0.8,1.9,1.4,3.2,1.4c1.3,0,2.4-0.5,3.2-1.4c0.5-0.5,0.5-1.1,0-1.6C18.7,28,18.1,28,17.6,28.5
		L17.6,28.5z M30.9,23.5c-1.3,0-2.3-1-2.3-2.3v-8c0-7-5.6-12.6-12.6-12.6C9,0.6,3.4,6.2,3.4,13.2v8c0,1.3-1,2.3-2.3,2.3
		c-0.7,0-1.1,0.5-1.1,1.1c0,0.7,0.5,1.1,1.1,1.1h29.7c0.7,0,1.1-0.5,1.1-1.1C32,23.9,31.5,23.5,30.9,23.5L30.9,23.5z M5.1,23.5
		c0.3-0.7,0.6-1.5,0.6-2.3v-8C5.7,7.5,10.3,2.9,16,2.9s10.3,4.6,10.3,10.3v8c0,0.8,0.2,1.6,0.6,2.3H5.1z M5.1,23.5"/>
</g>
</svg>
