<?xml version="1.0" encoding="UTF-8"?>
<svg width="214px" height="165px" viewBox="0 0 214 165" version="1.1" xmlns="http://www.w3.org/2000/svg" xmlns:xlink="http://www.w3.org/1999/xlink">
    <!-- Generator: Sketch 50 (54983) - http://www.bohemiancoding.com/sketch -->
    <title>tc_invalid</title>
    <desc>Created with Sketch.</desc>
    <defs></defs>
    <g id="0.弹窗提示" stroke="none" stroke-width="1" fill="none" fill-rule="evenodd">
        <g id="web-light-P2P交易-提示们" transform="translate(-1006.000000, -470.000000)">
            <g id="断开链接" transform="translate(812.000000, 430.000000)">
                <g id="tc_invalid" transform="translate(194.000000, 40.000000)">
                    <path d="M90.0781,110.0093 C89.9511,110.0093 89.8221,110.0033 89.6931,109.9903 C88.6401,109.8903 87.6891,109.3853 87.0161,108.5693 L82.9921,103.6933 C82.3181,102.8773 82.0031,101.8473 82.1041,100.7943 C82.2041,99.7403 82.7091,98.7903 83.5251,98.1163 L99.3831,85.0313 C100.1991,84.3583 101.2281,84.0393 102.2811,84.1433 C103.3341,84.2443 104.2851,84.7493 104.9581,85.5653 L105.5801,86.3183 L104.0371,87.5913 L103.4161,86.8383 C102.7281,86.0053 101.4901,85.8863 100.6561,86.5733 L84.7981,99.6593 C84.3941,99.9923 84.1441,100.4633 84.0951,100.9853 C84.0451,101.5063 84.2011,102.0153 84.5341,102.4193 L88.5591,107.2963 C88.8921,107.7003 89.3631,107.9503 89.8841,108.0003 C90.4001,108.0463 90.9141,107.8943 91.3191,107.5603 L107.1761,94.4753 C107.5801,94.1423 107.8301,93.6713 107.8801,93.1503 C107.9301,92.6283 107.7731,92.1193 107.4401,91.7153 L106.7051,90.8243 L108.2481,89.5513 L108.9831,90.4423 C109.6561,91.2583 109.9721,92.2873 109.8701,93.3403 C109.7701,94.3933 109.2651,95.3443 108.4491,96.0173 L92.5921,109.1033 C91.8761,109.6943 90.9951,110.0093 90.0781,110.0093" id="Fill-5" fill="#000000"></path>
                    <path d="M118.3999,89.0137 C117.6769,89.0137 116.9669,88.8147 116.3359,88.4267 C115.4339,87.8727 114.8019,87.0007 114.5559,85.9717 L114.2879,84.8487 L116.2329,84.3847 L116.5019,85.5077 C116.6239,86.0167 116.9359,86.4487 117.3819,86.7227 C117.8299,86.9967 118.3569,87.0807 118.8639,86.9587 L138.8589,82.1777 C139.3689,82.0557 139.7999,81.7427 140.0739,81.2967 C140.3479,80.8497 140.4319,80.3237 140.3099,79.8147 L138.8389,73.6647 C138.7169,73.1557 138.4049,72.7237 137.9589,72.4507 C137.5119,72.1767 136.9859,72.0937 136.4769,72.2147 L116.4819,76.9947 C115.4299,77.2467 114.7799,78.3067 115.0309,79.3587 L115.2569,80.3077 L113.3119,80.7717 L113.0859,79.8227 C112.5779,77.6987 113.8929,75.5577 116.0169,75.0497 L136.0119,70.2687 C137.0389,70.0247 138.1029,70.1927 139.0049,70.7457 C139.9069,71.2997 140.5389,72.1717 140.7849,73.2007 L142.2549,79.3497 C142.5019,80.3787 142.3319,81.4417 141.7779,82.3437 C141.2239,83.2447 140.3529,83.8767 139.3239,84.1227 L119.3289,88.9037 C119.0209,88.9777 118.7099,89.0137 118.3999,89.0137" id="Fill-7" fill="#000000"></path>
                    <polygon id="Fill-9" fill="#000000" points="99.6128 95.1816 98.2958 93.6766 104.8538 87.9356 106.1708 89.4406"></polygon>
                    <polygon id="Fill-11" fill="#000000" points="116.7983 83.2017 116.3293 81.2577 124.9033 79.1917 125.3723 81.1367"></polygon>
                    <polygon id="Fill-13" fill="#000000" points="109.9731 76.7842 108.0401 76.2692 110.5691 66.7812 112.5021 67.2952"></polygon>
                    <polygon id="Fill-15" fill="#000000" points="103.6807 80.5312 94.1417 77.9892 94.6567 76.0562 104.1957 78.5982"></polygon>
                    <polygon id="Fill-17" fill="#000000" points="105.7012 78.7944 100.4442 69.7174 102.1752 68.7154 107.4312 77.7924"></polygon>
                    <path d="M59.561,11.102 L61.415,11.52 C62.092,11.673 62.629,11.656 63.028,11.47 C63.425,11.282 63.673,10.974 63.77,10.544 C63.882,10.05 63.79,9.642 63.496,9.322 C63.201,9.001 62.666,8.753 61.893,8.579 L60.216,8.2 L59.561,11.102 Z M58.426,16.133 L60.296,16.555 C60.554,16.613 60.834,16.659 61.138,16.694 C61.44,16.729 61.728,16.714 62.003,16.652 C62.276,16.59 62.519,16.466 62.73,16.282 C62.941,16.098 63.089,15.818 63.174,15.442 C63.31,14.84 63.208,14.376 62.869,14.051 C62.53,13.727 61.947,13.471 61.119,13.284 L59.168,12.844 L58.426,16.133 Z M58.576,6 L63.027,7.004 C63.457,7.101 63.871,7.248 64.266,7.445 C64.662,7.642 64.998,7.893 65.274,8.198 C65.549,8.503 65.748,8.861 65.871,9.273 C65.991,9.684 65.995,10.148 65.878,10.664 C65.732,11.309 65.43,11.799 64.97,12.136 C64.509,12.473 63.964,12.666 63.332,12.716 L63.325,12.748 C63.669,12.871 63.977,13.045 64.248,13.27 C64.519,13.495 64.736,13.752 64.895,14.042 C65.056,14.333 65.162,14.651 65.215,14.996 C65.266,15.341 65.25,15.696 65.168,16.061 C65.028,16.685 64.788,17.176 64.447,17.534 C64.105,17.892 63.706,18.152 63.246,18.313 C62.786,18.475 62.283,18.551 61.737,18.54 C61.192,18.531 60.65,18.465 60.113,18.344 L56,17.416 L58.576,6 Z" id="Fill-19" fill="#000000"></path>
                    <polygon id="Fill-21" fill="#000000" points="4.037 87.639 1.014 89.57 0 87.982 7.801 83 8.815 84.588 5.792 86.518 11.077 94.792 9.322 95.913"></polygon>
                    <path d="M195.237317,56.7425426 C194.749317,56.3405426 194.297317,56.0905426 193.877317,55.9905426 C193.458317,55.8905426 193.047317,55.8675426 192.642317,55.9215426 C192.042317,56.0015426 191.512317,56.1805426 191.055317,56.4595426 C190.598317,56.7375426 190.218317,57.0875426 189.920317,57.5125426 C189.620317,57.9335426 189.409317,58.4095426 189.285317,58.9375426 C189.161317,59.4665426 189.137317,60.0195426 189.215317,60.5985426 C189.298317,61.2215426 189.470317,61.7815426 189.731317,62.2795426 C189.992317,62.7785426 190.323317,63.1965426 190.724317,63.5325426 C191.124317,63.8685426 191.583317,64.1125426 192.098317,64.2655426 C192.612317,64.4195426 193.171317,64.4555426 193.771317,64.3755426 C194.241317,64.3125426 194.682317,64.1405426 195.094317,63.8565426 C195.507317,63.5745426 195.871317,63.1605426 196.189317,62.6195426 L198.054317,63.6035426 C197.626317,64.3945426 197.057317,65.0035426 196.347317,65.4315426 C195.637317,65.8595426 194.857317,66.1325426 194.004317,66.2465426 C193.109317,66.3655426 192.267317,66.3295426 191.481317,66.1405426 C190.694317,65.9515426 189.995317,65.6275426 189.383317,65.1705426 C188.772317,64.7135426 188.263317,64.1335426 187.859317,63.4305426 C187.454317,62.7295426 187.191317,61.9255426 187.070317,61.0175426 C186.946317,60.0895426 186.986317,59.2255426 187.190317,58.4265426 C187.395317,57.6265426 187.732317,56.9225426 188.200317,56.3145426 C188.670317,55.7075426 189.259317,55.2095426 189.969317,54.8195426 C190.678317,54.4295426 191.481317,54.1765426 192.376317,54.0565426 C193.163317,53.9515426 193.911317,53.9925426 194.620317,54.1815426 C195.328317,54.3705426 196.017317,54.7595426 196.685317,55.3485426 L195.237317,56.7425426 Z" id="Fill-23" fill="#000000"></path>
                    <path d="M173.97874,138.08798 C173.62374,137.93198 173.24974,137.88698 172.85774,137.95598 C172.46474,138.02398 172.09574,138.16398 171.74974,138.37898 C171.54274,138.50598 171.35874,138.65298 171.19574,138.81898 C171.03274,138.98498 170.90574,139.16798 170.81474,139.36598 C170.72374,139.56498 170.68174,139.77498 170.68974,139.99698 C170.69774,140.21798 170.77174,140.44198 170.91074,140.66798 C171.11974,141.00498 171.39574,141.18998 171.74074,141.22298 C172.08374,141.25598 172.46974,141.23098 172.89874,141.14698 C173.32674,141.06398 173.78474,140.95698 174.27174,140.82198 C174.75874,140.68998 175.24374,140.62298 175.72374,140.62398 C176.20374,140.62498 176.67074,140.73098 177.12474,140.94198 C177.58074,141.15398 177.99074,141.55498 178.35474,142.14398 C178.68574,142.67898 178.87474,143.20598 178.92574,143.72598 C178.97474,144.24598 178.91474,144.73998 178.74474,145.20798 C178.57474,145.67598 178.30974,146.11198 177.95074,146.51598 C177.59074,146.91998 177.16674,147.27298 176.67974,147.57398 C176.06174,147.95698 175.40274,148.22098 174.70474,148.36898 C174.00474,148.51698 173.29774,148.47398 172.58374,148.24198 L173.12074,146.12298 C173.53874,146.31798 173.97974,146.39698 174.44374,146.36198 C174.90874,146.32798 175.33674,146.18898 175.73074,145.94498 C175.93674,145.81798 176.12574,145.66198 176.29674,145.47898 C176.46874,145.29498 176.60374,145.09298 176.70374,144.87698 C176.80174,144.66098 176.84974,144.43398 176.84574,144.19698 C176.84074,143.95998 176.76974,143.72798 176.62974,143.50298 C176.40474,143.13698 176.11374,142.92998 175.75674,142.87798 C175.40174,142.82598 175.00774,142.83898 174.57774,142.91798 C174.14674,142.99698 173.68674,143.10198 173.19874,143.23498 C172.71074,143.36898 172.22874,143.43798 171.75174,143.44198 C171.27574,143.44498 170.80974,143.34298 170.35874,143.13698 C169.90774,142.92998 169.49874,142.53198 169.13274,141.94198 C168.81474,141.42698 168.64474,140.91598 168.62374,140.41098 C168.60174,139.90498 168.68574,139.42298 168.87474,138.96298 C169.06274,138.50398 169.33874,138.07598 169.70474,137.68098 C170.06874,137.28698 170.48074,136.94798 170.94074,136.66398 C171.46474,136.33898 172.02374,136.10498 172.61374,135.95998 C173.20474,135.81398 173.80874,135.80198 174.42874,135.92398 L173.97874,138.08798 Z" id="Fill-25" fill="#000000" transform="translate(173.781282, 142.147891) rotate(68.000000) translate(-173.781282, -142.147891) "></path>
                    <polygon id="Fill-1" fill="#537DF1" points="211.939 0.5151 150.873 54.2341 152.193 55.7351 213.259 2.0161"></polygon>
                    <polygon id="Fill-2" fill="#537DF1" points="153.1951 134.2371 172.4791 165.0001 174.1741 163.9371 154.8901 133.1751"></polygon>
                    <polygon id="Fill-3" fill="#537DF1" points="85.3105 146.1113 11.3895 108.6913 12.2925 106.9063 86.2135 144.3263"></polygon>
                    <polygon id="Fill-4" fill="#537DF1" points="40.2529 56.1792 39.7259 54.2492 71.6359 45.5262 72.1629 47.4552"></polygon>
                </g>
            </g>
        </g>
    </g>
</svg>