<?xml version="1.0" encoding="UTF-8"?>
<svg width="121px" height="26px" viewBox="0 0 121 26" version="1.1" xmlns="http://www.w3.org/2000/svg" xmlns:xlink="http://www.w3.org/1999/xlink">
    <!-- Generator: Sketch 50 (54983) - http://www.bohemiancoding.com/sketch -->
    <title>stepicons_cur</title>
    <desc>Created with Sketch.</desc>
    <defs></defs>
    <g id="Page-1" stroke="none" stroke-width="1" fill="none" fill-rule="evenodd">
        <g id="Artboard" transform="translate(-8.000000, -53.000000)" fill="#3C6BF0">
            <g id="stepicons_cur" transform="translate(7.000000, 53.000000)">
                <g id="step4_no" transform="translate(95.838926, 0.000000)">
                    <path d="M24.5159489,13.1980976 C24.5159489,6.94776905 19.4488434,1.88097649 13.1977697,1.88097649 C6.94849927,1.88097649 1.88170672,6.94808208 1.88170672,13.1980976 C1.88170672,19.4490147 6.94834278,24.5162769 13.1977697,24.5162769 C19.4489999,24.5162769 24.5159489,19.4493278 24.5159489,13.1980976 Z M25.5440797,13.1980976 C25.5440797,20.0171488 20.0168208,25.5444077 13.1977697,25.5444077 C6.38049338,25.5444077 0.853575918,20.0168073 0.853575918,13.1980976 C0.853575918,6.38027534 6.38066409,0.852845687 13.1977697,0.852845687 C20.0166501,0.852845687 25.5440797,6.37993387 25.5440797,13.1980976 Z" id="Stroke-1" fill-rule="nonzero"></path>
                    <path d="M21.0867307,11.7826809 C21.1574454,12.1844009 20.7545653,12.5045151 20.379219,12.3448444 C16.7728714,10.8107199 13.9361736,9.80000621 12.9234452,9.80000621 C11.0459342,9.80000621 9.52502592,11.3209145 9.52502592,13.1984255 C9.52502592,15.0759365 11.0459342,16.5968448 12.9234452,16.5968448 C13.9352514,16.5968448 16.7615303,15.5895924 20.37937,14.0519424 C20.7547674,13.8923914 21.1575456,14.2126347 21.0867021,14.6143324 C21.0086101,15.0571303 20.9083642,15.4660669 20.780531,15.847242 L21.59692,16.3187651 C21.8426885,16.460714 21.9269186,16.7749785 21.7850851,17.0208136 L20.7933859,18.7396919 C20.6514875,18.9856394 20.3370603,19.0699624 20.0911379,18.9280206 L19.2711565,18.4547427 C19.0141066,18.7526344 18.7351082,19.0314697 18.436119,19.2894594 L18.9095143,20.1096443 C19.0514561,20.3555667 18.967133,20.6699939 18.7211855,20.8118922 L17.0023073,21.8035914 C16.7563622,21.9454884 16.4419531,21.8611129 16.3000962,21.6151447 L15.8307616,20.8013569 C15.4619626,20.929043 15.0796711,21.0297369 14.6866896,21.1030414 L14.6866896,22.0472791 C14.6866896,22.3311896 14.4565346,22.5613445 14.1726242,22.5613445 L12.18822,22.5613445 C11.9043095,22.5613445 11.6741546,22.3311896 11.6741546,22.0472791 L11.6741546,21.1031155 C11.2811314,21.0298527 10.8989966,20.9291743 10.5300638,20.8013895 L10.0607479,21.6151447 C9.91889105,21.8611129 9.60448193,21.9454884 9.35853684,21.8035914 L7.63965859,20.8118922 C7.39371108,20.6699939 7.30938805,20.3555667 7.45132985,20.1096443 L7.92475878,19.2894011 C7.62651505,19.0319278 7.34760257,18.7531567 7.08950904,18.4546322 L6.27103574,18.9278336 C6.02524273,19.0699391 5.71078866,18.9858793 5.56868964,18.7400825 L4.57497887,17.0212043 C4.43284153,16.7753412 4.5169973,16.4608021 4.76291834,16.3187651 L5.57781866,15.8481017 C5.4502964,15.4784768 5.34962413,15.0965961 5.27643159,14.7051959 L4.33106557,14.7051959 C4.04715509,14.7051959 3.81700017,14.475041 3.81700017,14.1911305 L3.81700017,12.2057205 C3.81700017,11.92181 4.04715509,11.6916551 4.33106557,11.6916551 L5.2764298,11.6916551 C5.34960381,11.3003254 5.45025666,10.9183724 5.57778639,10.5483628 L4.76348186,10.0794167 C4.51716108,9.93756422 4.43271436,9.62273559 4.57497887,9.37665253 L5.56868964,7.65777429 C5.71072536,7.41208701 6.02498233,7.32797379 6.27075529,7.46986121 L7.08955653,7.94256411 C7.34802618,7.64376689 7.62695447,7.36482785 7.92467905,7.10762963 L7.45142327,6.28837434 C7.30939968,6.04251664 7.3935911,5.72807608 7.63946319,5.58607739 L9.35834143,4.5933724 C9.60430053,4.45132347 9.91884702,4.53566176 10.0607479,4.7817063 L10.5303117,5.59589137 C10.8991492,5.46847297 11.2811988,5.36782129 11.6741546,5.29424348 L11.6741546,4.34957192 C11.6741546,4.06566144 11.9043095,3.83550652 12.18822,3.83550652 L14.1726242,3.83550652 C14.4565346,3.83550652 14.6866896,4.06566144 14.6866896,4.34957192 L14.6866896,5.29431781 C15.0796064,5.36793779 15.4618126,5.46860481 15.8305137,5.59592389 L16.3000962,4.7817063 C16.4419971,4.53566176 16.7565436,4.45132347 17.0025027,4.5933724 L18.7213809,5.58607739 C18.967253,5.72807608 19.0514444,6.04251664 18.9094208,6.28837434 L18.4361986,7.10757159 C18.7346708,7.36528908 19.0136946,7.64430201 19.2711086,7.94245367 L20.0914182,7.46967452 C20.3373205,7.32795066 20.6515507,7.4123269 20.7933859,7.65816495 L21.7850851,9.37704319 C21.9270455,9.62309836 21.8425245,9.93765216 21.5963565,10.0794167 L20.780458,10.5492807 C20.9086428,10.931754 21.0088879,11.3404678 21.0867307,11.7826809 Z M12.9234452,17.6249756 C10.4781132,17.6249756 8.49689512,15.6437575 8.49689512,13.1984255 C8.49689512,10.7530935 10.4781132,8.77187541 12.9234452,8.77187541 C14.0419355,8.77187541 16.5234558,9.62259671 19.8473975,11.0055469 C19.7946613,10.8357602 19.7363116,10.6732414 19.6718348,10.5171563 C19.5733312,10.2786996 19.6668379,10.0041674 19.890415,9.87541255 L20.6374396,9.44521207 L20.1596237,8.61703018 L19.4059202,9.05142141 C19.1828214,9.18000264 18.8990078,9.12368309 18.7419113,8.91965647 C18.3716712,8.43881296 17.9404692,8.00761094 17.4585738,7.63634527 C17.254481,7.47910647 17.198306,7.19507392 17.3271784,6.9719824 L17.761991,6.21927622 L16.9337437,5.74093793 L16.5027697,6.48821156 C16.3738959,6.71166815 16.0993725,6.80501322 15.8609971,6.70643086 C15.3138639,6.48015881 14.7241055,6.32447579 14.1048365,6.24209596 C13.8493772,6.20811285 13.6585588,5.99022929 13.6585588,5.7325196 L13.6585588,4.86363732 L12.7022854,4.86363732 L12.7022854,5.7325196 C12.7022854,5.99026833 12.5114107,6.20817221 12.2559059,6.24210948 C11.6364671,6.32438609 11.0476439,6.47988435 10.499847,6.70643086 C10.2614716,6.80501322 9.98694823,6.71166815 9.85807445,6.48821156 L9.42710045,5.74093793 L8.59885309,6.21927622 L9.03366573,6.9719824 C9.16253807,7.19507392 9.10636308,7.47910647 8.90227029,7.63634527 C8.42240091,8.00605009 7.99143217,8.43701882 7.61715965,8.92065057 C7.45977052,9.12402746 7.17630917,9.17981032 6.95359452,9.05123472 L6.20164884,8.61712827 L5.72279015,9.44543748 L6.46942329,9.87541255 C6.6927222,10.0040071 6.78631501,10.278055 6.68832511,10.5163761 C6.46114548,11.0688994 6.30549509,11.6582986 6.22469668,12.2727424 C6.19105918,12.5285438 5.97302267,12.7197859 5.71501903,12.7197859 L4.84513097,12.7197859 L4.84513097,13.6770651 L5.71501903,13.6770651 C5.97302267,13.6770651 6.19105918,13.8683072 6.22469668,14.1241087 C6.30551909,14.7387349 6.46119902,15.3280105 6.68820852,15.8791859 C6.78629057,16.1173275 6.69300944,16.3912962 6.46998681,16.5201077 L5.72246423,16.9518556 L6.20148679,17.7804482 L6.95331408,17.3457783 C7.1762138,17.2169086 7.46007062,17.2728153 7.61745595,17.4765837 C7.99029052,17.9592965 8.42078682,18.3895574 8.90227029,18.7605058 C9.10630678,18.9177012 9.16251488,19.2016301 9.03375915,19.4247068 L8.59880409,20.1782918 L9.42698768,20.6561086 L9.85807445,19.9086395 C9.98708962,19.6849377 10.26204,19.5916693 10.5005339,19.6907049 C11.047934,19.918015 11.6362666,20.0733838 12.2551412,20.1546406 C12.5109876,20.1882326 12.7022854,20.4062892 12.7022854,20.6643314 L12.7022854,21.5332137 L13.6585588,21.5332137 L13.6585588,20.6643314 C13.6585588,20.4063278 13.8498008,20.1882913 14.1056023,20.1546538 C14.7242975,20.0732963 15.3135665,19.9177425 15.8603102,19.6907049 C16.0988041,19.5916693 16.3737545,19.6849377 16.5027697,19.9086395 L16.9338564,20.6561086 L17.76204,20.1782918 L17.327085,19.4247068 C17.1983292,19.2016301 17.2545373,18.9177012 17.4585738,18.7605058 C17.9420854,18.3879949 18.3727679,17.9575479 18.7416163,17.477578 C18.8987079,17.2731601 19.1829167,17.2167161 19.4062005,17.3455913 L20.1597854,17.7805464 L20.6377647,16.9520812 L19.8898515,16.5201077 C19.6664065,16.3910522 19.573257,16.1163479 19.6721195,15.878001 C19.7364388,15.7229342 19.7947288,15.5608199 19.8474774,15.3909874 C16.5142131,16.7770419 14.041444,17.6249756 12.9234452,17.6249756 Z" id="Stroke-7" fill-rule="nonzero" opacity="0.4"></path>
                    <path d="M12.9228418,9.79990563 C11.0462015,9.79990563 9.52542823,11.320949 9.52542823,13.1983249 C9.52542823,15.0757009 11.0462015,16.5967443 12.9228418,16.5967443 C14.109204,16.5967443 17.6689378,15.2541973 21.8670898,13.4084014 C22.0512988,13.3276736 22.0513161,13.0693446 21.8664741,12.9879782 C17.6689084,11.1424415 14.1091991,9.79990563 12.9228418,9.79990563 Z M22.2803328,12.0468226 C23.2843748,12.4885331 23.2843748,13.9098161 22.2803328,14.3498273 C17.8648762,16.2911657 14.3285751,17.6248751 12.9228418,17.6248751 C10.4783396,17.6248751 8.49729743,15.643481 8.49729743,13.1983249 C8.49729743,10.7531689 10.4783396,8.77177483 12.9228418,8.77177483 C14.3285751,8.77177483 17.8648762,10.1054842 22.2803328,12.0468226 Z" id="Stroke-3" fill-rule="nonzero"></path>
                    <path d="M19.7504796,13.1981238 C19.7504796,13.5250023 19.4849537,13.7895225 19.1590809,13.7895225 C18.8322023,13.7895225 18.5676822,13.5250023 18.5676822,13.1981238 C18.5676822,12.872251 18.8322023,12.6067251 19.1590809,12.6067251 C19.4849537,12.6067251 19.7504796,12.872251 19.7504796,13.1981238" id="Fill-5"></path>
                </g>
                <g id="step3_no" transform="translate(67.651007, 0.000000)" fill-rule="nonzero">
                    <path d="M1.99600171,12.5986006 L1.99600171,19.3135799 C1.99600171,21.4907482 3.50120085,23.1369413 5.55044267,23.1369413 L13.2614237,23.1369413 C15.433644,23.1369413 17.3537056,21.3681064 17.3537056,19.3135799 L17.3537056,16.421962 C17.3537056,16.1380515 17.5838605,15.9078966 17.867771,15.9078966 C18.1516814,15.9078966 18.3818364,16.1380515 18.3818364,16.421962 L18.3818364,19.3135799 C18.3818364,21.9556189 15.9834859,24.1650721 13.2614237,24.1650721 L5.55044267,24.1650721 C2.91181119,24.1650721 0.967870912,22.0390404 0.967870912,19.3135799 L0.967870912,12.0845352 C0.967870912,11.8006247 1.19802583,11.5704698 1.48193631,11.5704698 L17.3858346,11.5704698 C17.6697451,11.5704698 17.8999,11.8006247 17.8999,12.0845352 C17.8999,12.3684457 17.6697451,12.5986006 17.3858346,12.5986006 L1.99600171,12.5986006 Z" id="Stroke-1"></path>
                    <path d="M17.4179637,11.6025989 C17.4179637,11.8865094 17.1878088,12.1166643 16.9038983,12.1166643 C16.6199878,12.1166643 16.3898329,11.8865094 16.3898329,11.6025989 L16.3898329,7.74710838 C16.3898329,4.46088752 13.5045539,1.99600171 9.88786948,1.99600171 L8.92399686,1.99600171 C5.43218522,1.99600171 2.95987434,4.35420991 2.95987434,7.74710838 L2.95987434,11.6025989 C2.95987434,11.8865094 2.72971942,12.1166643 2.44580894,12.1166643 C2.16189846,12.1166643 1.93174354,11.8865094 1.93174354,11.6025989 L1.93174354,7.74710838 C1.93174354,3.77523849 4.87494652,0.967870912 8.92399686,0.967870912 L9.88786948,0.967870912 C14.0396065,0.967870912 17.4179637,3.85399209 17.4179637,7.74710838 L17.4179637,11.6025989 Z" id="Stroke-3"></path>
                    <path d="M20.6650574,11.1312739 C20.8923584,10.961158 21.2145284,11.0075157 21.3846443,11.2348168 C21.5547602,11.4621178 21.5084024,11.7842878 21.2811014,11.9544037 L9.71462991,20.6109437 C9.51047976,20.7637331 9.22518171,20.7437773 9.04428984,20.5640552 L6.21243207,17.750511 C6.01102685,17.5504083 6.00997098,17.2249218 6.21007371,17.0235166 C6.41017644,16.8221114 6.73566293,16.8210555 6.93706815,17.0211582 L9.45400168,19.5218148 L20.6650574,11.1312739 Z" id="Stroke-5"></path>
                </g>
                <g id="step2_no" transform="translate(28.993289, 5.637584)" fill-rule="nonzero">
                    <path d="M1.51185251,6.54554075 C1.22794203,6.54554075 0.997787109,6.31538583 0.997787109,6.03147535 C0.997787109,5.74756487 1.22794203,5.51740995 1.51185251,5.51740995 L8.29046748,5.51740995 C8.57437796,5.51740995 8.80453288,5.74756487 8.80453288,6.03147535 C8.80453288,6.31538583 8.57437796,6.54554075 8.29046748,6.54554075 L1.51185251,6.54554075 Z" id="Stroke-1"></path>
                    <path d="M1.51185251,9.93495065 C1.22794203,9.93495065 0.997787109,9.70479573 0.997787109,9.42088525 C0.997787109,9.13697476 1.22794203,8.90681985 1.51185251,8.90681985 L7.160869,8.90681985 C7.44477948,8.90681985 7.6749344,9.13697476 7.6749344,9.42088525 C7.6749344,9.70479573 7.44477948,9.93495065 7.160869,9.93495065 L1.51185251,9.93495065 Z" id="Stroke-3"></path>
                    <path d="M1.51185251,13.3243605 C1.22794203,13.3243605 0.997787109,13.0942056 0.997787109,12.8102951 C0.997787109,12.5263847 1.22794203,12.2962297 1.51185251,12.2962297 L6.03127053,12.2962297 C6.31518101,12.2962297 6.54533593,12.5263847 6.54533593,12.8102951 C6.54533593,13.0942056 6.31518101,13.3243605 6.03127053,13.3243605 L1.51185251,13.3243605 Z" id="Stroke-5"></path>
                    <path d="M30.1607121,3.6134189 C30.3523115,2.7187854 29.7922911,2.02612273 28.8773229,2.02612273 L14.1894704,2.02612273 C13.18965,2.02612273 12.1691584,2.85116739 11.9597796,3.82881824 L9.51626163,15.2281468 C9.32471144,16.1225504 9.88444757,16.8144188 10.7996508,16.8144188 L25.4875033,16.8144188 C26.4875112,16.8144188 27.507963,15.9901929 27.7182496,15.0126013 L30.1607121,3.6134189 Z M28.7235218,15.2281954 C28.4113823,16.6799506 26.9720803,17.8425496 25.4875033,17.8425496 L10.7996508,17.8425496 C9.23009635,17.8425496 8.18228148,16.5473858 8.51094772,15.0127474 L10.9544656,3.6134189 C11.2653616,2.16175522 12.7048118,0.997991932 14.1894704,0.997991932 L28.8773229,0.997991932 C30.4467983,0.997991932 31.4947088,2.29410264 31.1660352,3.82877507 L28.7235218,15.2281954 Z" id="Stroke-7"></path>
                    <path d="M13.8501617,5.15223226 C13.6873471,4.9196456 13.7439085,4.59910952 13.9764952,4.43629488 C14.2090818,4.27348025 14.5296179,4.33004166 14.6924325,4.56262833 L18.8985695,10.5712492 C19.4635751,11.3789521 20.4554441,11.4658732 21.1523553,10.7697357 L27.3830689,4.53799797 C27.5838074,4.33722645 27.9092956,4.3371997 28.1100671,4.53793823 C28.3108387,4.73867676 28.3108654,5.06416496 28.1101269,5.26493649 L21.8791815,11.4969059 C20.7299358,12.6448761 18.9875964,12.4921885 18.0562006,11.160713 L13.8501617,5.15223226 Z" id="Stroke-9"></path>
                    <path d="M21.5573185,11.0345512 C21.3703475,10.8208996 21.3919765,10.4961308 21.6056282,10.3091599 C21.8192799,10.1221889 22.1440486,10.1438179 22.3310196,10.3574696 L25.1227562,13.5475868 C25.3097271,13.7612385 25.2880981,14.0860072 25.0744464,14.2729782 C24.8607947,14.4599491 24.536026,14.4383201 24.349055,14.2246684 L21.5573185,11.0345512 Z" id="Stroke-11"></path>
                    <path d="M13.0251696,14.3998354 C12.8034467,14.5771603 12.4799545,14.5411686 12.3026296,14.3194457 C12.1253047,14.0977228 12.1612964,13.7742306 12.3830193,13.5969057 L17.4820863,9.51888114 C17.7038092,9.34155625 18.0273013,9.37754796 18.2046262,9.59927086 C18.3819511,9.82099376 18.3459594,10.1444859 18.1242365,10.3218108 L13.0251696,14.3998354 Z" id="Stroke-13"></path>
                </g>
                <g id="step1_no" transform="translate(0.000000, 0.514065)" fill-rule="nonzero">
                    <path d="M20.878308,18.2271763 C21.079063,18.0264213 21.4045512,18.0264213 21.6053062,18.2271763 C21.8060612,18.4279313 21.8060612,18.7534195 21.6053062,18.9541746 L17.7498157,22.8096651 C17.5490607,23.0104201 17.2235725,23.0104201 17.0228174,22.8096651 L15.0950722,20.8819198 C14.8943172,20.6811648 14.8943172,20.3556766 15.0950722,20.1549215 C15.2958272,19.9541665 15.6213154,19.9541665 15.8220705,20.1549215 L17.3863166,21.7191677 L20.878308,18.2271763 Z" id="Stroke-3"></path>
                    <path d="M8.74605563,15.6944194 C8.90405817,15.4585374 9.22336475,15.3954035 9.45924684,15.5534061 C9.69512892,15.7114086 9.75826277,16.0307152 9.60026023,16.2665973 L8.17469262,18.394828 C8.07925999,18.5372994 7.91907062,18.6228045 7.74759032,18.6228045 L6.30178138,18.6228045 C3.79856657,18.6228045 1.99648365,20.176058 1.99648365,22.4461659 C1.99648365,22.7300764 1.76632873,22.9602313 1.48241825,22.9602313 C1.19850777,22.9602313 0.968352849,22.7300764 0.968352849,22.4461659 C0.968352849,19.5715015 3.26186611,17.5946737 6.30178138,17.5946737 L7.4731951,17.5946737 L8.74605563,15.6944194 Z" id="Stroke-5"></path>
                    <path d="M17.6866914,7.98807654 L17.6866914,9.91582179 C17.6866914,10.5570447 17.3322059,11.0979974 16.7880857,11.3043095 C16.58225,14.28694 14.247802,17.1769956 11.5493931,17.1769956 C8.84068576,17.1769956 6.39985774,14.2676179 6.17833627,11.3127897 C5.57078596,11.1124949 5.0920891,10.5628977 5.0920891,9.91582179 L5.0920891,7.98807654 C5.0920891,7.54252482 5.36363007,7.19590278 5.78676074,6.88976774 C5.87885216,6.8231396 5.97002449,6.76430351 6.05596173,6.71354781 L6.05596173,5.09645866 C6.05596173,3.24963714 7.52318729,1.74787978 9.35645914,1.69236585 C9.41419277,1.66938841 9.48724962,1.64132741 9.5743011,1.60934931 C9.81630183,1.52045108 10.0851829,1.43180898 10.3746561,1.34910235 C11.2075899,1.11112127 12.0432169,0.967870912 12.8351992,0.967870912 C15.2115037,0.967870912 16.7228188,2.26328383 16.7228188,5.09645866 L16.7228188,6.55122012 C17.4588119,6.68633787 17.6866914,7.1565352 17.6866914,7.98807654 Z M15.694688,7.02420391 L15.694688,5.09645866 C15.694688,2.86930221 14.6758374,1.99600171 12.8351992,1.99600171 C12.1512515,1.99600171 11.4055251,2.12384053 10.6571053,2.33767474 C10.3931048,2.41310347 10.1480459,2.4938921 9.92881855,2.57442461 C9.79930236,2.62200198 9.70882741,2.65819196 9.66414529,2.67734144 C9.60015605,2.7047654 9.53126323,2.71890618 9.46164501,2.71890618 C8.14745468,2.71890618 7.08409253,3.78226833 7.08409253,5.09645866 L7.08409253,7.02420391 C7.08409253,7.2269594 6.96491423,7.41077499 6.77980991,7.49351662 C6.6887945,7.53420051 6.53662031,7.61624776 6.3894209,7.72274654 C6.21013117,7.85246266 6.12021991,7.96723439 6.12021991,7.98807654 L6.12021991,9.91582179 C6.12021991,10.1295461 6.39235968,10.365629 6.67605312,10.365629 C6.9599636,10.365629 7.19011852,10.5957839 7.19011852,10.8796944 C7.19011852,13.4535619 9.33445429,16.1488648 11.5493931,16.1488648 C13.738926,16.1488648 15.7746894,13.4894148 15.7746894,10.8796944 C15.7746894,10.5957839 16.0048443,10.365629 16.2887548,10.365629 C16.507687,10.365629 16.6585606,10.1952043 16.6585606,9.91582179 L16.6585606,7.98807654 C16.6585606,7.49172553 16.6907263,7.53826931 16.2087534,7.53826931 C15.9248429,7.53826931 15.694688,7.30811439 15.694688,7.02420391 Z" id="Stroke-1"></path>
                </g>
            </g>
        </g>
    </g>
</svg>