<?xml version="1.0" encoding="UTF-8"?>
<svg width="121px" height="26px" viewBox="0 0 121 26" version="1.1" xmlns="http://www.w3.org/2000/svg" xmlns:xlink="http://www.w3.org/1999/xlink">
    <!-- Generator: Sketch 50 (54983) - http://www.bohemiancoding.com/sketch -->
    <title>stepicons_no</title>
    <desc>Created with Sketch.</desc>
    <defs></defs>
    <g id="Page-1" stroke="none" stroke-width="1" fill="none" fill-rule="evenodd">
        <g id="Artboard" transform="translate(-8.000000, -6.000000)" fill="#BEBEBE">
            <g id="stepicons_no" transform="translate(8.000000, 6.000000)">
                <g id="step4_no" transform="translate(94.838926, 0.000000)">
                    <path d="M24.5159489,13.1980976 C24.5159489,6.94776905 19.4488434,1.88097649 13.1977697,1.88097649 C6.94849927,1.88097649 1.88170672,6.94808208 1.88170672,13.1980976 C1.88170672,19.4490147 6.94834278,24.5162769 13.1977697,24.5162769 C19.4489999,24.5162769 24.5159489,19.4493278 24.5159489,13.1980976 Z M25.5440797,13.1980976 C25.5440797,20.0171488 20.0168208,25.5444077 13.1977697,25.5444077 C6.38049338,25.5444077 0.853575918,20.0168073 0.853575918,13.1980976 C0.853575918,6.38027534 6.38066409,0.852845687 13.1977697,0.852845687 C20.0166501,0.852845687 25.5440797,6.37993387 25.5440797,13.1980976 Z" id="Stroke-1" fill-rule="nonzero"></path>
                    <path d="M21.0867307,11.7826809 C21.1574454,12.1844009 20.7545653,12.5045151 20.379219,12.3448444 C16.7728714,10.8107199 13.9361736,9.80000621 12.9234452,9.80000621 C11.0459342,9.80000621 9.52502592,11.3209145 9.52502592,13.1984255 C9.52502592,15.0759365 11.0459342,16.5968448 12.9234452,16.5968448 C13.9352514,16.5968448 16.7615303,15.5895924 20.37937,14.0519424 C20.7547674,13.8923914 21.1575456,14.2126347 21.0867021,14.6143324 C21.0086101,15.0571303 20.9083642,15.4660669 20.780531,15.847242 L21.59692,16.3187651 C21.8426885,16.460714 21.9269186,16.7749785 21.7850851,17.0208136 L20.7933859,18.7396919 C20.6514875,18.9856394 20.3370603,19.0699624 20.0911379,18.9280206 L19.2711565,18.4547427 C19.0141066,18.7526344 18.7351082,19.0314697 18.436119,19.2894594 L18.9095143,20.1096443 C19.0514561,20.3555667 18.967133,20.6699939 18.7211855,20.8118922 L17.0023073,21.8035914 C16.7563622,21.9454884 16.4419531,21.8611129 16.3000962,21.6151447 L15.8307616,20.8013569 C15.4619626,20.929043 15.0796711,21.0297369 14.6866896,21.1030414 L14.6866896,22.0472791 C14.6866896,22.3311896 14.4565346,22.5613445 14.1726242,22.5613445 L12.18822,22.5613445 C11.9043095,22.5613445 11.6741546,22.3311896 11.6741546,22.0472791 L11.6741546,21.1031155 C11.2811314,21.0298527 10.8989966,20.9291743 10.5300638,20.8013895 L10.0607479,21.6151447 C9.91889105,21.8611129 9.60448193,21.9454884 9.35853684,21.8035914 L7.63965859,20.8118922 C7.39371108,20.6699939 7.30938805,20.3555667 7.45132985,20.1096443 L7.92475878,19.2894011 C7.62651505,19.0319278 7.34760257,18.7531567 7.08950904,18.4546322 L6.27103574,18.9278336 C6.02524273,19.0699391 5.71078866,18.9858793 5.56868964,18.7400825 L4.57497887,17.0212043 C4.43284153,16.7753412 4.5169973,16.4608021 4.76291834,16.3187651 L5.57781866,15.8481017 C5.4502964,15.4784768 5.34962413,15.0965961 5.27643159,14.7051959 L4.33106557,14.7051959 C4.04715509,14.7051959 3.81700017,14.475041 3.81700017,14.1911305 L3.81700017,12.2057205 C3.81700017,11.92181 4.04715509,11.6916551 4.33106557,11.6916551 L5.2764298,11.6916551 C5.34960381,11.3003254 5.45025666,10.9183724 5.57778639,10.5483628 L4.76348186,10.0794167 C4.51716108,9.93756422 4.43271436,9.62273559 4.57497887,9.37665253 L5.56868964,7.65777429 C5.71072536,7.41208701 6.02498233,7.32797379 6.27075529,7.46986121 L7.08955653,7.94256411 C7.34802618,7.64376689 7.62695447,7.36482785 7.92467905,7.10762963 L7.45142327,6.28837434 C7.30939968,6.04251664 7.3935911,5.72807608 7.63946319,5.58607739 L9.35834143,4.5933724 C9.60430053,4.45132347 9.91884702,4.53566176 10.0607479,4.7817063 L10.5303117,5.59589137 C10.8991492,5.46847297 11.2811988,5.36782129 11.6741546,5.29424348 L11.6741546,4.34957192 C11.6741546,4.06566144 11.9043095,3.83550652 12.18822,3.83550652 L14.1726242,3.83550652 C14.4565346,3.83550652 14.6866896,4.06566144 14.6866896,4.34957192 L14.6866896,5.29431781 C15.0796064,5.36793779 15.4618126,5.46860481 15.8305137,5.59592389 L16.3000962,4.7817063 C16.4419971,4.53566176 16.7565436,4.45132347 17.0025027,4.5933724 L18.7213809,5.58607739 C18.967253,5.72807608 19.0514444,6.04251664 18.9094208,6.28837434 L18.4361986,7.10757159 C18.7346708,7.36528908 19.0136946,7.64430201 19.2711086,7.94245367 L20.0914182,7.46967452 C20.3373205,7.32795066 20.6515507,7.4123269 20.7933859,7.65816495 L21.7850851,9.37704319 C21.9270455,9.62309836 21.8425245,9.93765216 21.5963565,10.0794167 L20.780458,10.5492807 C20.9086428,10.931754 21.0088879,11.3404678 21.0867307,11.7826809 Z M12.9234452,17.6249756 C10.4781132,17.6249756 8.49689512,15.6437575 8.49689512,13.1984255 C8.49689512,10.7530935 10.4781132,8.77187541 12.9234452,8.77187541 C14.0419355,8.77187541 16.5234558,9.62259671 19.8473975,11.0055469 C19.7946613,10.8357602 19.7363116,10.6732414 19.6718348,10.5171563 C19.5733312,10.2786996 19.6668379,10.0041674 19.890415,9.87541255 L20.6374396,9.44521207 L20.1596237,8.61703018 L19.4059202,9.05142141 C19.1828214,9.18000264 18.8990078,9.12368309 18.7419113,8.91965647 C18.3716712,8.43881296 17.9404692,8.00761094 17.4585738,7.63634527 C17.254481,7.47910647 17.198306,7.19507392 17.3271784,6.9719824 L17.761991,6.21927622 L16.9337437,5.74093793 L16.5027697,6.48821156 C16.3738959,6.71166815 16.0993725,6.80501322 15.8609971,6.70643086 C15.3138639,6.48015881 14.7241055,6.32447579 14.1048365,6.24209596 C13.8493772,6.20811285 13.6585588,5.99022929 13.6585588,5.7325196 L13.6585588,4.86363732 L12.7022854,4.86363732 L12.7022854,5.7325196 C12.7022854,5.99026833 12.5114107,6.20817221 12.2559059,6.24210948 C11.6364671,6.32438609 11.0476439,6.47988435 10.499847,6.70643086 C10.2614716,6.80501322 9.98694823,6.71166815 9.85807445,6.48821156 L9.42710045,5.74093793 L8.59885309,6.21927622 L9.03366573,6.9719824 C9.16253807,7.19507392 9.10636308,7.47910647 8.90227029,7.63634527 C8.42240091,8.00605009 7.99143217,8.43701882 7.61715965,8.92065057 C7.45977052,9.12402746 7.17630917,9.17981032 6.95359452,9.05123472 L6.20164884,8.61712827 L5.72279015,9.44543748 L6.46942329,9.87541255 C6.6927222,10.0040071 6.78631501,10.278055 6.68832511,10.5163761 C6.46114548,11.0688994 6.30549509,11.6582986 6.22469668,12.2727424 C6.19105918,12.5285438 5.97302267,12.7197859 5.71501903,12.7197859 L4.84513097,12.7197859 L4.84513097,13.6770651 L5.71501903,13.6770651 C5.97302267,13.6770651 6.19105918,13.8683072 6.22469668,14.1241087 C6.30551909,14.7387349 6.46119902,15.3280105 6.68820852,15.8791859 C6.78629057,16.1173275 6.69300944,16.3912962 6.46998681,16.5201077 L5.72246423,16.9518556 L6.20148679,17.7804482 L6.95331408,17.3457783 C7.1762138,17.2169086 7.46007062,17.2728153 7.61745595,17.4765837 C7.99029052,17.9592965 8.42078682,18.3895574 8.90227029,18.7605058 C9.10630678,18.9177012 9.16251488,19.2016301 9.03375915,19.4247068 L8.59880409,20.1782918 L9.42698768,20.6561086 L9.85807445,19.9086395 C9.98708962,19.6849377 10.26204,19.5916693 10.5005339,19.6907049 C11.047934,19.918015 11.6362666,20.0733838 12.2551412,20.1546406 C12.5109876,20.1882326 12.7022854,20.4062892 12.7022854,20.6643314 L12.7022854,21.5332137 L13.6585588,21.5332137 L13.6585588,20.6643314 C13.6585588,20.4063278 13.8498008,20.1882913 14.1056023,20.1546538 C14.7242975,20.0732963 15.3135665,19.9177425 15.8603102,19.6907049 C16.0988041,19.5916693 16.3737545,19.6849377 16.5027697,19.9086395 L16.9338564,20.6561086 L17.76204,20.1782918 L17.327085,19.4247068 C17.1983292,19.2016301 17.2545373,18.9177012 17.4585738,18.7605058 C17.9420854,18.3879949 18.3727679,17.9575479 18.7416163,17.477578 C18.8987079,17.2731601 19.1829167,17.2167161 19.4062005,17.3455913 L20.1597854,17.7805464 L20.6377647,16.9520812 L19.8898515,16.5201077 C19.6664065,16.3910522 19.573257,16.1163479 19.6721195,15.878001 C19.7364388,15.7229342 19.7947288,15.5608199 19.8474774,15.3909874 C16.5142131,16.7770419 14.041444,17.6249756 12.9234452,17.6249756 Z" id="Stroke-7" fill-rule="nonzero" opacity="0.4"></path>
                    <path d="M12.9228418,9.79990563 C11.0462015,9.79990563 9.52542823,11.320949 9.52542823,13.1983249 C9.52542823,15.0757009 11.0462015,16.5967443 12.9228418,16.5967443 C14.109204,16.5967443 17.6689378,15.2541973 21.8670898,13.4084014 C22.0512988,13.3276736 22.0513161,13.0693446 21.8664741,12.9879782 C17.6689084,11.1424415 14.1091991,9.79990563 12.9228418,9.79990563 Z M22.2803328,12.0468226 C23.2843748,12.4885331 23.2843748,13.9098161 22.2803328,14.3498273 C17.8648762,16.2911657 14.3285751,17.6248751 12.9228418,17.6248751 C10.4783396,17.6248751 8.49729743,15.643481 8.49729743,13.1983249 C8.49729743,10.7531689 10.4783396,8.77177483 12.9228418,8.77177483 C14.3285751,8.77177483 17.8648762,10.1054842 22.2803328,12.0468226 Z" id="Stroke-3" fill-rule="nonzero"></path>
                    <path d="M19.7504796,13.1981238 C19.7504796,13.5250023 19.4849537,13.7895225 19.1590809,13.7895225 C18.8322023,13.7895225 18.5676822,13.5250023 18.5676822,13.1981238 C18.5676822,12.872251 18.8322023,12.6067251 19.1590809,12.6067251 C19.4849537,12.6067251 19.7504796,12.872251 19.7504796,13.1981238" id="Fill-5"></path>
                </g>
                <g id="step3_no" transform="translate(67.651007, 1.000000)" fill-rule="nonzero">
                    <path d="M0.996001714,11.5986006 L0.996001714,18.3135799 C0.996001714,20.4907482 2.50120085,22.1369413 4.55044267,22.1369413 L12.2614237,22.1369413 C14.433644,22.1369413 16.3537056,20.3681064 16.3537056,18.3135799 L16.3537056,15.421962 C16.3537056,15.1380515 16.5838605,14.9078966 16.867771,14.9078966 C17.1516814,14.9078966 17.3818364,15.1380515 17.3818364,15.421962 L17.3818364,18.3135799 C17.3818364,20.9556189 14.9834859,23.1650721 12.2614237,23.1650721 L4.55044267,23.1650721 C1.91181119,23.1650721 -0.0321290875,21.0390404 -0.0321290875,18.3135799 L-0.0321290875,11.0845352 C-0.0321290875,10.8006247 0.198025832,10.5704698 0.481936313,10.5704698 L16.3858346,10.5704698 C16.6697451,10.5704698 16.8999,10.8006247 16.8999,11.0845352 C16.8999,11.3684457 16.6697451,11.5986006 16.3858346,11.5986006 L0.996001714,11.5986006 Z" id="Stroke-1"></path>
                    <path d="M16.4179637,10.6025989 C16.4179637,10.8865094 16.1878088,11.1166643 15.9038983,11.1166643 C15.6199878,11.1166643 15.3898329,10.8865094 15.3898329,10.6025989 L15.3898329,6.74710838 C15.3898329,3.46088752 12.5045539,0.996001714 8.88786948,0.996001714 L7.92399686,0.996001714 C4.43218522,0.996001714 1.95987434,3.35420991 1.95987434,6.74710838 L1.95987434,10.6025989 C1.95987434,10.8865094 1.72971942,11.1166643 1.44580894,11.1166643 C1.16189846,11.1166643 0.931743538,10.8865094 0.931743538,10.6025989 L0.931743538,6.74710838 C0.931743538,2.77523849 3.87494652,-0.0321290875 7.92399686,-0.0321290875 L8.88786948,-0.0321290875 C13.0396065,-0.0321290875 16.4179637,2.85399209 16.4179637,6.74710838 L16.4179637,10.6025989 Z" id="Stroke-3"></path>
                    <path d="M19.6650574,10.1312739 C19.8923584,9.96115802 20.2145284,10.0075157 20.3846443,10.2348168 C20.5547602,10.4621178 20.5084024,10.7842878 20.2811014,10.9544037 L8.71462991,19.6109437 C8.51047976,19.7637331 8.22518171,19.7437773 8.04428984,19.5640552 L5.21243207,16.750511 C5.01102685,16.5504083 5.00997098,16.2249218 5.21007371,16.0235166 C5.41017644,15.8221114 5.73566293,15.8210555 5.93706815,16.0211582 L8.45400168,18.5218148 L19.6650574,10.1312739 Z" id="Stroke-5"></path>
                </g>
                <g id="step2_no" transform="translate(28.993289, 6.637584)" fill-rule="nonzero">
                    <path d="M0.51185251,5.54554075 C0.227942029,5.54554075 -0.0022128909,5.31538583 -0.0022128909,5.03147535 C-0.0022128909,4.74756487 0.227942029,4.51740995 0.51185251,4.51740995 L7.29046748,4.51740995 C7.57437796,4.51740995 7.80453288,4.74756487 7.80453288,5.03147535 C7.80453288,5.31538583 7.57437796,5.54554075 7.29046748,5.54554075 L0.51185251,5.54554075 Z" id="Stroke-1"></path>
                    <path d="M0.51185251,8.93495065 C0.227942029,8.93495065 -0.0022128909,8.70479573 -0.0022128909,8.42088525 C-0.0022128909,8.13697476 0.227942029,7.90681985 0.51185251,7.90681985 L6.160869,7.90681985 C6.44477948,7.90681985 6.6749344,8.13697476 6.6749344,8.42088525 C6.6749344,8.70479573 6.44477948,8.93495065 6.160869,8.93495065 L0.51185251,8.93495065 Z" id="Stroke-3"></path>
                    <path d="M0.51185251,12.3243605 C0.227942029,12.3243605 -0.0022128909,12.0942056 -0.0022128909,11.8102951 C-0.0022128909,11.5263847 0.227942029,11.2962297 0.51185251,11.2962297 L5.03127053,11.2962297 C5.31518101,11.2962297 5.54533593,11.5263847 5.54533593,11.8102951 C5.54533593,12.0942056 5.31518101,12.3243605 5.03127053,12.3243605 L0.51185251,12.3243605 Z" id="Stroke-5"></path>
                    <path d="M29.1607121,2.6134189 C29.3523115,1.7187854 28.7922911,1.02612273 27.8773229,1.02612273 L13.1894704,1.02612273 C12.18965,1.02612273 11.1691584,1.85116739 10.9597796,2.82881824 L8.51626163,14.2281468 C8.32471144,15.1225504 8.88444757,15.8144188 9.79965082,15.8144188 L24.4875033,15.8144188 C25.4875112,15.8144188 26.507963,14.9901929 26.7182496,14.0126013 L29.1607121,2.6134189 Z M27.7235218,14.2281954 C27.4113823,15.6799506 25.9720803,16.8425496 24.4875033,16.8425496 L9.79965082,16.8425496 C8.23009635,16.8425496 7.18228148,15.5473858 7.51094772,14.0127474 L9.95446564,2.6134189 C10.2653616,1.16175522 11.7048118,-0.00200806797 13.1894704,-0.00200806797 L27.8773229,-0.00200806797 C29.4467983,-0.00200806797 30.4947088,1.29410264 30.1660352,2.82877507 L27.7235218,14.2281954 Z" id="Stroke-7"></path>
                    <path d="M12.8501617,4.15223226 C12.6873471,3.9196456 12.7439085,3.59910952 12.9764952,3.43629488 C13.2090818,3.27348025 13.5296179,3.33004166 13.6924325,3.56262833 L17.8985695,9.57124917 C18.4635751,10.3789521 19.4554441,10.4658732 20.1523553,9.76973571 L26.3830689,3.53799797 C26.5838074,3.33722645 26.9092956,3.3371997 27.1100671,3.53793823 C27.3108387,3.73867676 27.3108654,4.06416496 27.1101269,4.26493649 L20.8791815,10.4969059 C19.7299358,11.6448761 17.9875964,11.4921885 17.0562006,10.160713 L12.8501617,4.15223226 Z" id="Stroke-9"></path>
                    <path d="M20.5573185,10.0345512 C20.3703475,9.82089956 20.3919765,9.49613078 20.6056282,9.30915986 C20.8192799,9.12218893 21.1440486,9.14381794 21.3310196,9.3574696 L24.1227562,12.5475868 C24.3097271,12.7612385 24.2880981,13.0860072 24.0744464,13.2729782 C23.8607947,13.4599491 23.536026,13.4383201 23.349055,13.2246684 L20.5573185,10.0345512 Z" id="Stroke-11"></path>
                    <path d="M12.0251696,13.3998354 C11.8034467,13.5771603 11.4799545,13.5411686 11.3026296,13.3194457 C11.1253047,13.0977228 11.1612964,12.7742306 11.3830193,12.5969057 L16.4820863,8.51888114 C16.7038092,8.34155625 17.0273013,8.37754796 17.2046262,8.59927086 C17.3819511,8.82099376 17.3459594,9.14448591 17.1242365,9.3218108 L12.0251696,13.3998354 Z" id="Stroke-13"></path>
                </g>
                <g id="step1_no" transform="translate(0.000000, 1.514065)" fill-rule="nonzero">
                    <path d="M19.878308,17.2271763 C20.079063,17.0264213 20.4045512,17.0264213 20.6053062,17.2271763 C20.8060612,17.4279313 20.8060612,17.7534195 20.6053062,17.9541746 L16.7498157,21.8096651 C16.5490607,22.0104201 16.2235725,22.0104201 16.0228174,21.8096651 L14.0950722,19.8819198 C13.8943172,19.6811648 13.8943172,19.3556766 14.0950722,19.1549215 C14.2958272,18.9541665 14.6213154,18.9541665 14.8220705,19.1549215 L16.3863166,20.7191677 L19.878308,17.2271763 Z" id="Stroke-3"></path>
                    <path d="M7.74605563,14.6944194 C7.90405817,14.4585374 8.22336475,14.3954035 8.45924684,14.5534061 C8.69512892,14.7114086 8.75826277,15.0307152 8.60026023,15.2665973 L7.17469262,17.394828 C7.07925999,17.5372994 6.91907062,17.6228045 6.74759032,17.6228045 L5.30178138,17.6228045 C2.79856657,17.6228045 0.99648365,19.176058 0.99648365,21.4461659 C0.99648365,21.7300764 0.76632873,21.9602313 0.482418249,21.9602313 C0.198507768,21.9602313 -0.0316471512,21.7300764 -0.0316471512,21.4461659 C-0.0316471512,18.5715015 2.26186611,16.5946737 5.30178138,16.5946737 L6.4731951,16.5946737 L7.74605563,14.6944194 Z" id="Stroke-5"></path>
                    <path d="M16.6866914,6.98807654 L16.6866914,8.91582179 C16.6866914,9.55704471 16.3322059,10.0979974 15.7880857,10.3043095 C15.58225,13.28694 13.247802,16.1769956 10.5493931,16.1769956 C7.84068576,16.1769956 5.39985774,13.2676179 5.17833627,10.3127897 C4.57078596,10.1124949 4.0920891,9.5628977 4.0920891,8.91582179 L4.0920891,6.98807654 C4.0920891,6.54252482 4.36363007,6.19590278 4.78676074,5.88976774 C4.87885216,5.8231396 4.97002449,5.76430351 5.05596173,5.71354781 L5.05596173,4.09645866 C5.05596173,2.24963714 6.52318729,0.747879782 8.35645914,0.692365854 C8.41419277,0.669388414 8.48724962,0.641327408 8.5743011,0.609349313 C8.81630183,0.520451084 9.08518289,0.431808977 9.37465607,0.349102354 C10.2075899,0.11112127 11.0432169,-0.0321290875 11.8351992,-0.0321290875 C14.2115037,-0.0321290875 15.7228188,1.26328383 15.7228188,4.09645866 L15.7228188,5.55122012 C16.4588119,5.68633787 16.6866914,6.1565352 16.6866914,6.98807654 Z M14.694688,6.02420391 L14.694688,4.09645866 C14.694688,1.86930221 13.6758374,0.996001714 11.8351992,0.996001714 C11.1512515,0.996001714 10.4055251,1.12384053 9.65710532,1.33767474 C9.39310477,1.41310347 9.14804593,1.4938921 8.92881855,1.57442461 C8.79930236,1.62200198 8.70882741,1.65819196 8.66414529,1.67734144 C8.60015605,1.7047654 8.53126323,1.71890618 8.46164501,1.71890618 C7.14745468,1.71890618 6.08409253,2.78226833 6.08409253,4.09645866 L6.08409253,6.02420391 C6.08409253,6.2269594 5.96491423,6.41077499 5.77980991,6.49351662 C5.6887945,6.53420051 5.53662031,6.61624776 5.3894209,6.72274654 C5.21013117,6.85246266 5.12021991,6.96723439 5.12021991,6.98807654 L5.12021991,8.91582179 C5.12021991,9.12954613 5.39235968,9.36562902 5.67605312,9.36562902 C5.9599636,9.36562902 6.19011852,9.59578394 6.19011852,9.87969442 C6.19011852,12.4535619 8.33445429,15.1488648 10.5493931,15.1488648 C12.738926,15.1488648 14.7746894,12.4894148 14.7746894,9.87969442 C14.7746894,9.59578394 15.0048443,9.36562902 15.2887548,9.36562902 C15.507687,9.36562902 15.6585606,9.19520428 15.6585606,8.91582179 L15.6585606,6.98807654 C15.6585606,6.49172553 15.6907263,6.53826931 15.2087534,6.53826931 C14.9248429,6.53826931 14.694688,6.30811439 14.694688,6.02420391 Z" id="Stroke-1"></path>
                </g>
            </g>
        </g>
    </g>
</svg>