<?xml version="1.0" encoding="UTF-8"?>
<svg width="50px" height="50px" viewBox="0 0 50 50" version="1.1" xmlns="http://www.w3.org/2000/svg" xmlns:xlink="http://www.w3.org/1999/xlink">
    <!-- Generator: Sketch 50 (54983) - http://www.bohemiancoding.com/sketch -->
    <title>userpic</title>
    <desc>Created with Sketch.</desc>
    <defs></defs>
    <g id="6.账户" stroke="none" stroke-width="1" fill="none" fill-rule="evenodd">
        <g id="light-账户-问题列表-已解决-查看" transform="translate(-405.000000, -315.000000)">
            <g id="用户" transform="translate(400.000000, 314.000000)">
                <g transform="translate(0.000000, 2.000000)" id="userpic">
                    <g transform="translate(6.000000, 0.000000)">
                        <path d="M47.9583333,24 C47.9583333,37.23125 37.2333333,47.9583333 24,47.9583333 C10.7666667,47.9583333 0.0416666667,37.23125 0.0416666667,24 C0.0416666667,10.7708333 10.7666667,0.0416666667 24,0.0416666667 C37.2333333,0.0416666667 47.9583333,10.7708333 47.9583333,24 Z" id="Stroke-7" stroke="#3C6BF0" stroke-width="1.5" fill="#3C6BF0" stroke-linecap="round" stroke-linejoin="round"></path>
                        <path d="M38.9900412,42.6910102 C34.8861149,45.9865505 29.6735902,47.9583333 24,47.9583333 C18.3883396,47.9583333 13.2277342,46.0293614 9.14474294,42.7984532 L8.65899121,43.2426702 C8.35332136,43.5222034 7.87892054,43.5010155 7.59938733,43.1953456 C7.31985412,42.8896757 7.34104205,42.4152749 7.64671191,42.1357417 L9.5188965,40.4246397 C10.8798079,39.2866758 12.7983709,38.7466549 15.1600564,38.7466549 L19.2795751,38.7466549 L19.7924482,34.1494405 C19.8836063,33.7698718 20.2484809,33.5276751 20.6273136,33.5820023 C21.0975051,32.465107 22.3192484,34.0285186 23.5020541,34.0285186 C23.9502364,34.0285186 25.4610687,33.0646465 25.8347201,33.6517199 C25.8767556,33.7177652 25.9163665,33.7875273 25.9537691,33.8606043 C26.0406294,33.7829784 26.1469182,33.7245016 26.2675887,33.6936832 C26.6689204,33.5911859 27.0773546,33.833439 27.1798519,34.2347707 L27.7250207,38.6503062 L32.3070367,38.6503062 C34.9489605,38.6503062 37.0448244,39.2200366 38.4529318,40.4022101 L40.0169132,41.5872033 C40.3470635,41.8373506 40.4119186,42.3077747 40.1617713,42.637925 C39.9116239,42.9680752 39.4411998,43.0329304 39.1110496,42.7827831 L38.9900412,42.6910102 Z" id="Combined-Shape" fill="#FFFFFF"></path>
                        <g id="Group-7" transform="translate(8.000000, 34.000000)"></g>
                        <path d="M23.631752,36.7240737 C27.5809743,36.7240737 31.1849513,31.50128 31.1849513,27.04378 C33.6898975,24.9684723 31.491836,17.3654043 31.491836,17.3654043 C32.9898168,13.4085099 28.7797426,8.44656823 22.2009022,12.5242984 C16.483257,12.5242984 15.767832,14.6897535 15.767832,17.3654043 C15.767832,17.3654043 13.8498028,21.9744286 16.0766348,27.04378 C16.0766348,31.50128 19.6786937,36.7240737 23.631752,36.7240737 Z" id="Stroke-5" fill="#FFFFFF"></path>
                        <path d="M47.9583333,24 C47.9583333,37.23125 37.2333333,47.9583333 24,47.9583333 C10.7666667,47.9583333 0.0416666667,37.23125 0.0416666667,24 C0.0416666667,10.7708333 10.7666667,0.0416666667 24,0.0416666667 C37.2333333,0.0416666667 47.9583333,10.7708333 47.9583333,24 Z" id="Stroke-7" stroke="#3C6BF0" stroke-width="1.5" stroke-linecap="round" stroke-linejoin="round"></path>
                    </g>
                </g>
            </g>
        </g>
    </g>
</svg>