<?xml version="1.0" encoding="UTF-8"?>
<svg width="50px" height="20px" viewBox="0 0 50 20" version="1.1" xmlns="http://www.w3.org/2000/svg" xmlns:xlink="http://www.w3.org/1999/xlink">
    <!-- Generator: Sketch 50 (54983) - http://www.bohemiancoding.com/sketch -->
    <title>vip_4</title>
    <desc>Created with Sketch.</desc>
    <defs>
        <linearGradient x1="78.5720927%" y1="106.056559%" x2="5.30583658%" y2="26.5245521%" id="linearGradient-1">
            <stop stop-color="#509AEF" offset="0%"></stop>
            <stop stop-color="#3C6AF0" offset="100%"></stop>
        </linearGradient>
    </defs>
    <g id="Symbols" stroke="none" stroke-width="1" fill="none" fill-rule="evenodd">
        <g id="vip_4">
            <rect id="Rectangle-2" fill="url(#linearGradient-1)" x="0" y="0" width="50" height="20" rx="10"></rect>
            <path d="M13.0319063,5.504 L14.7719063,5.504 L15.3746183,11.924 L19.4759063,5.504 L21.1079063,5.504 L15.4086018,14 L14.1006018,14 L13.0319063,5.504 Z M21.1817574,8.24 L22.6217574,8.24 L21.0846018,14 L19.6446018,14 L21.1817574,8.24 Z M21.4997498,6.284 C21.5616633,6.05199884 21.7015691,5.85000086 21.9194713,5.678 C22.1373736,5.50599914 22.3783218,5.42 22.6423231,5.42 C22.9063244,5.42 23.1064393,5.50199918 23.2426738,5.666 C23.3789082,5.83000082 23.4139332,6.03599876 23.3477498,6.284 C23.2815664,6.53200124 23.1365931,6.73799918 22.9128258,6.902 C22.6890584,7.06600082 22.4451778,7.148 22.1811764,7.148 C21.9171751,7.148 21.7221277,7.06200086 21.5960282,6.89 C21.4699287,6.71799914 21.4378363,6.51600116 21.4997498,6.284 Z M24.2777574,8.24 L25.6457574,8.24 L25.415184,9.104 L25.439184,9.104 C25.7411228,8.75199824 26.0894374,8.4960008 26.4841381,8.336 C26.8788389,8.1759992 27.2801842,8.096 27.6881863,8.096 C28.1281885,8.096 28.5033691,8.17399922 28.8137393,8.33 C29.1241096,8.48600078 29.3669975,8.69999864 29.5424105,8.972 C29.7178235,9.24400136 29.8204249,9.56399816 29.8502179,9.932 C29.8800109,10.3000018 29.8383319,10.6959979 29.7251796,11.12 C29.6120273,11.5440021 29.4383496,11.9399982 29.2041413,12.308 C28.9699329,12.6760018 28.6945382,12.9959986 28.3779487,13.268 C28.0613592,13.5400014 27.7102531,13.7539992 27.3246199,13.91 C26.9389867,14.0660008 26.542175,14.144 26.134173,14.144 C25.8621716,14.144 25.6296462,14.1160003 25.4365898,14.06 C25.2435334,14.0039997 25.0787495,13.9320004 24.9422331,13.844 C24.8057168,13.7559996 24.6948034,13.6620005 24.6094897,13.562 C24.524176,13.4619995 24.4583297,13.3640005 24.4119487,13.268 L24.3759487,13.268 L23.450453,16.736 L22.010453,16.736 L24.2777574,8.24 Z M28.2851796,11.12 C28.3449582,10.8959989 28.3646013,10.680001 28.3441096,10.472 C28.3236179,10.263999 28.2607221,10.0800008 28.1554203,9.92 C28.0501186,9.7599992 27.906279,9.63200048 27.7238974,9.536 C27.5415157,9.43999952 27.3183276,9.392 27.0543263,9.392 C26.7903249,9.392 26.5415178,9.43999952 26.3078974,9.536 C26.074277,9.63200048 25.8621201,9.7599992 25.6714203,9.92 C25.4807206,10.0800008 25.3196187,10.263999 25.1881096,10.472 C25.0566006,10.680001 24.9609582,10.8959989 24.9011796,11.12 C24.841401,11.3440011 24.8217579,11.559999 24.8422496,11.768 C24.8627413,11.976001 24.9256371,12.1599992 25.0309389,12.32 C25.1362406,12.4800008 25.2800802,12.6079995 25.4624618,12.704 C25.6448435,12.8000005 25.8680316,12.848 26.1320329,12.848 C26.3960343,12.848 26.6448414,12.8000005 26.8784618,12.704 C27.1120823,12.6079995 27.3242392,12.4800008 27.5149389,12.32 C27.7056386,12.1599992 27.8667406,11.976001 27.9982496,11.768 C28.1297587,11.559999 28.225401,11.3440011 28.2851796,11.12 Z M33.9657485,12.272 L30.3537485,12.272 L30.734835,10.844 L35.5799063,5.504 L37.2119063,5.504 L35.7516085,10.976 L36.9876085,10.976 L36.6417485,12.272 L35.4057485,12.272 L34.9446018,14 L33.5046018,14 L33.9657485,12.272 Z M35.227497,7.544 L35.203497,7.544 L32.1636085,10.976 L34.3116085,10.976 L35.227497,7.544 Z" id="Vip4" fill="#FFFFFF"></path>
        </g>
    </g>
</svg>