<?xml version="1.0" encoding="UTF-8"?>
<svg width="50px" height="20px" viewBox="0 0 50 20" version="1.1" xmlns="http://www.w3.org/2000/svg" xmlns:xlink="http://www.w3.org/1999/xlink">
    <!-- Generator: Sketch 50 (54983) - http://www.bohemiancoding.com/sketch -->
    <title>vip_0</title>
    <desc>Created with Sketch.</desc>
    <defs>
        <linearGradient x1="87.1315054%" y1="76.2962088%" x2="6.85514315%" y2="14.6298993%" id="linearGradient-1">
            <stop stop-color="#89BBFF" offset="0%"></stop>
            <stop stop-color="#4492FD" offset="100%"></stop>
        </linearGradient>
    </defs>
    <g id="Symbols" stroke="none" stroke-width="1" fill="none" fill-rule="evenodd">
        <g id="vip_0">
            <rect id="Rectangle-2" fill="url(#linearGradient-1)" x="0" y="0" width="50" height="20" rx="10"></rect>
            <path d="M13.0319063,5.504 L14.7719063,5.504 L15.3746183,11.924 L19.4759063,5.504 L21.1079063,5.504 L15.4086018,14 L14.1006018,14 L13.0319063,5.504 Z M21.1817574,8.24 L22.6217574,8.24 L21.0846018,14 L19.6446018,14 L21.1817574,8.24 Z M21.4997498,6.284 C21.5616633,6.05199884 21.7015691,5.85000086 21.9194713,5.678 C22.1373736,5.50599914 22.3783218,5.42 22.6423231,5.42 C22.9063244,5.42 23.1064393,5.50199918 23.2426738,5.666 C23.3789082,5.83000082 23.4139332,6.03599876 23.3477498,6.284 C23.2815664,6.53200124 23.1365931,6.73799918 22.9128258,6.902 C22.6890584,7.06600082 22.4451778,7.148 22.1811764,7.148 C21.9171751,7.148 21.7221277,7.06200086 21.5960282,6.89 C21.4699287,6.71799914 21.4378363,6.51600116 21.4997498,6.284 Z M24.2777574,8.24 L25.6457574,8.24 L25.415184,9.104 L25.439184,9.104 C25.7411228,8.75199824 26.0894374,8.4960008 26.4841381,8.336 C26.8788389,8.1759992 27.2801842,8.096 27.6881863,8.096 C28.1281885,8.096 28.5033691,8.17399922 28.8137393,8.33 C29.1241096,8.48600078 29.3669975,8.69999864 29.5424105,8.972 C29.7178235,9.24400136 29.8204249,9.56399816 29.8502179,9.932 C29.8800109,10.3000018 29.8383319,10.6959979 29.7251796,11.12 C29.6120273,11.5440021 29.4383496,11.9399982 29.2041413,12.308 C28.9699329,12.6760018 28.6945382,12.9959986 28.3779487,13.268 C28.0613592,13.5400014 27.7102531,13.7539992 27.3246199,13.91 C26.9389867,14.0660008 26.542175,14.144 26.134173,14.144 C25.8621716,14.144 25.6296462,14.1160003 25.4365898,14.06 C25.2435334,14.0039997 25.0787495,13.9320004 24.9422331,13.844 C24.8057168,13.7559996 24.6948034,13.6620005 24.6094897,13.562 C24.524176,13.4619995 24.4583297,13.3640005 24.4119487,13.268 L24.3759487,13.268 L23.450453,16.736 L22.010453,16.736 L24.2777574,8.24 Z M28.2851796,11.12 C28.3449582,10.8959989 28.3646013,10.680001 28.3441096,10.472 C28.3236179,10.263999 28.2607221,10.0800008 28.1554203,9.92 C28.0501186,9.7599992 27.906279,9.63200048 27.7238974,9.536 C27.5415157,9.43999952 27.3183276,9.392 27.0543263,9.392 C26.7903249,9.392 26.5415178,9.43999952 26.3078974,9.536 C26.074277,9.63200048 25.8621201,9.7599992 25.6714203,9.92 C25.4807206,10.0800008 25.3196187,10.263999 25.1881096,10.472 C25.0566006,10.680001 24.9609582,10.8959989 24.9011796,11.12 C24.841401,11.3440011 24.8217579,11.559999 24.8422496,11.768 C24.8627413,11.976001 24.9256371,12.1599992 25.0309389,12.32 C25.1362406,12.4800008 25.2800802,12.6079995 25.4624618,12.704 C25.6448435,12.8000005 25.8680316,12.848 26.1320329,12.848 C26.3960343,12.848 26.6448414,12.8000005 26.8784618,12.704 C27.1120823,12.6079995 27.3242392,12.4800008 27.5149389,12.32 C27.7056386,12.1599992 27.8667406,11.976001 27.9982496,11.768 C28.1297587,11.559999 28.225401,11.3440011 28.2851796,11.12 Z M31.098254,9.752 C31.2775898,9.07999664 31.4847695,8.50600238 31.7197995,8.03 C31.9548295,7.55399762 32.2035739,7.15400162 32.4660402,6.83 C32.7285065,6.50599838 32.9958894,6.24600098 33.2681967,6.05 C33.5405041,5.85399902 33.8039978,5.7060005 34.0586858,5.606 C34.3133738,5.5059995 34.5509847,5.44000016 34.7715255,5.408 C34.9920664,5.37599984 35.1823343,5.36 35.3423351,5.36 C35.5023359,5.36 35.6840642,5.37599984 35.8875255,5.408 C36.0909868,5.44000016 36.2933715,5.5059995 36.4946858,5.606 C36.6960001,5.7060005 36.8805019,5.85399902 37.0481967,6.05 C37.2158916,6.24600098 37.3445048,6.50599838 37.4340402,6.83 C37.5235757,7.15400162 37.5588284,7.55399762 37.5397995,8.03 C37.5207706,8.50600238 37.4215898,9.07999664 37.242254,9.752 C37.0629183,10.4240034 36.8557386,10.9979976 36.6207086,11.474 C36.3856786,11.9500024 36.1369342,12.3499984 35.8744679,12.674 C35.6120015,12.9980016 35.3446187,13.257999 35.0723114,13.454 C34.800004,13.650001 34.5365103,13.7979995 34.2818223,13.898 C34.0271343,13.9980005 33.7895234,14.0639998 33.5689826,14.096 C33.3484417,14.1280002 33.1581738,14.144 32.998173,14.144 C32.8381722,14.144 32.6564438,14.1280002 32.4529826,14.096 C32.2495213,14.0639998 32.0471366,13.9980005 31.8458223,13.898 C31.644508,13.7979995 31.4600062,13.650001 31.2923114,13.454 C31.1246165,13.257999 30.9960033,12.9980016 30.9064679,12.674 C30.8169324,12.3499984 30.7816797,11.9500024 30.8007086,11.474 C30.8197375,10.9979976 30.9189183,10.4240034 31.098254,9.752 Z M32.538254,9.752 C32.4678007,10.0160013 32.40414,10.3219983 32.3472699,10.67 C32.2903998,11.0180017 32.2763337,11.3479984 32.3050713,11.66 C32.3338088,11.9720016 32.4273549,12.2359989 32.5857124,12.452 C32.7440698,12.6680011 33.0032456,12.776 33.3632474,12.776 C33.7232492,12.776 34.0400677,12.6680011 34.3137124,12.452 C34.5873571,12.2359989 34.8218077,11.9720016 35.0170713,11.66 C35.2123348,11.3479984 35.3743994,11.0180017 35.5032699,10.67 C35.6321403,10.3219983 35.7318007,10.0160013 35.802254,9.752 C35.8727074,9.48799868 35.9363681,9.18200174 35.9932382,8.834 C36.0501083,8.48599826 36.0641744,8.15600156 36.0354368,7.844 C36.0066993,7.53199844 35.9131532,7.26800108 35.7547957,7.052 C35.5964382,6.83599892 35.3372625,6.728 34.9772607,6.728 C34.6172589,6.728 34.3004404,6.83599892 34.0267957,7.052 C33.753151,7.26800108 33.5187004,7.53199844 33.3234368,7.844 C33.1281732,8.15600156 32.9661087,8.48599826 32.8372382,8.834 C32.7083678,9.18200174 32.6087074,9.48799868 32.538254,9.752 Z" id="Vip0" fill="#FFFFFF"></path>
        </g>
    </g>
</svg>