<?xml version="1.0" encoding="UTF-8"?>
<svg width="50px" height="20px" viewBox="0 0 50 20" version="1.1" xmlns="http://www.w3.org/2000/svg" xmlns:xlink="http://www.w3.org/1999/xlink">
    <!-- Generator: Sketch 50 (54983) - http://www.bohemiancoding.com/sketch -->
    <title>vip_3</title>
    <desc>Created with Sketch.</desc>
    <defs>
        <linearGradient x1="78.5720927%" y1="106.056559%" x2="5.30583658%" y2="26.5245521%" id="linearGradient-1">
            <stop stop-color="#509AEF" offset="0%"></stop>
            <stop stop-color="#3C6AF0" offset="100%"></stop>
        </linearGradient>
    </defs>
    <g id="Symbols" stroke="none" stroke-width="1" fill="none" fill-rule="evenodd">
        <g id="vip_3">
            <rect id="Rectangle-2" fill="url(#linearGradient-1)" x="0" y="0" width="50" height="20" rx="10"></rect>
            <path d="M13.0319063,5.504 L14.7719063,5.504 L15.3746183,11.924 L19.4759063,5.504 L21.1079063,5.504 L15.4086018,14 L14.1006018,14 L13.0319063,5.504 Z M21.1817574,8.24 L22.6217574,8.24 L21.0846018,14 L19.6446018,14 L21.1817574,8.24 Z M21.4997498,6.284 C21.5616633,6.05199884 21.7015691,5.85000086 21.9194713,5.678 C22.1373736,5.50599914 22.3783218,5.42 22.6423231,5.42 C22.9063244,5.42 23.1064393,5.50199918 23.2426738,5.666 C23.3789082,5.83000082 23.4139332,6.03599876 23.3477498,6.284 C23.2815664,6.53200124 23.1365931,6.73799918 22.9128258,6.902 C22.6890584,7.06600082 22.4451778,7.148 22.1811764,7.148 C21.9171751,7.148 21.7221277,7.06200086 21.5960282,6.89 C21.4699287,6.71799914 21.4378363,6.51600116 21.4997498,6.284 Z M24.2777574,8.24 L25.6457574,8.24 L25.415184,9.104 L25.439184,9.104 C25.7411228,8.75199824 26.0894374,8.4960008 26.4841381,8.336 C26.8788389,8.1759992 27.2801842,8.096 27.6881863,8.096 C28.1281885,8.096 28.5033691,8.17399922 28.8137393,8.33 C29.1241096,8.48600078 29.3669975,8.69999864 29.5424105,8.972 C29.7178235,9.24400136 29.8204249,9.56399816 29.8502179,9.932 C29.8800109,10.3000018 29.8383319,10.6959979 29.7251796,11.12 C29.6120273,11.5440021 29.4383496,11.9399982 29.2041413,12.308 C28.9699329,12.6760018 28.6945382,12.9959986 28.3779487,13.268 C28.0613592,13.5400014 27.7102531,13.7539992 27.3246199,13.91 C26.9389867,14.0660008 26.542175,14.144 26.134173,14.144 C25.8621716,14.144 25.6296462,14.1160003 25.4365898,14.06 C25.2435334,14.0039997 25.0787495,13.9320004 24.9422331,13.844 C24.8057168,13.7559996 24.6948034,13.6620005 24.6094897,13.562 C24.524176,13.4619995 24.4583297,13.3640005 24.4119487,13.268 L24.3759487,13.268 L23.450453,16.736 L22.010453,16.736 L24.2777574,8.24 Z M28.2851796,11.12 C28.3449582,10.8959989 28.3646013,10.680001 28.3441096,10.472 C28.3236179,10.263999 28.2607221,10.0800008 28.1554203,9.92 C28.0501186,9.7599992 27.906279,9.63200048 27.7238974,9.536 C27.5415157,9.43999952 27.3183276,9.392 27.0543263,9.392 C26.7903249,9.392 26.5415178,9.43999952 26.3078974,9.536 C26.074277,9.63200048 25.8621201,9.7599992 25.6714203,9.92 C25.4807206,10.0800008 25.3196187,10.263999 25.1881096,10.472 C25.0566006,10.680001 24.9609582,10.8959989 24.9011796,11.12 C24.841401,11.3440011 24.8217579,11.559999 24.8422496,11.768 C24.8627413,11.976001 24.9256371,12.1599992 25.0309389,12.32 C25.1362406,12.4800008 25.2800802,12.6079995 25.4624618,12.704 C25.6448435,12.8000005 25.8680316,12.848 26.1320329,12.848 C26.3960343,12.848 26.6448414,12.8000005 26.8784618,12.704 C27.1120823,12.6079995 27.3242392,12.4800008 27.5149389,12.32 C27.7056386,12.1599992 27.8667406,11.976001 27.9982496,11.768 C28.1297587,11.559999 28.225401,11.3440011 28.2851796,11.12 Z M33.5032202,8.924 L33.8752202,8.924 C34.0832212,8.924 34.2884215,8.91200012 34.4908274,8.888 C34.6932332,8.86399988 34.8831084,8.8120004 35.0604587,8.732 C35.2378089,8.6519996 35.394764,8.53600076 35.5313285,8.384 C35.667893,8.23199924 35.7703329,8.02800128 35.8386513,7.772 C35.9261842,7.44399836 35.885705,7.17600104 35.7172126,6.968 C35.5487201,6.75999896 35.2844769,6.656 34.9244751,6.656 C34.6364737,6.656 34.3565934,6.73799918 34.0848258,6.902 C33.8130582,7.06600082 33.585681,7.29599852 33.4026874,7.592 L31.9875692,7.184 C32.1668327,6.87199844 32.3754185,6.60000116 32.6133329,6.368 C32.8512473,6.13599884 33.1099495,5.94600074 33.3894473,5.798 C33.668945,5.64999926 33.9622975,5.54000036 34.2695135,5.468 C34.5767295,5.39599964 34.8863336,5.36 35.1983351,5.36 C35.566337,5.36 35.901524,5.40799952 36.2039063,5.504 C36.5062885,5.60000048 36.7563908,5.74199906 36.9542208,5.93 C37.1520507,6.11800094 37.2870687,6.35399858 37.3592788,6.638 C37.4314888,6.92200142 37.4174227,7.25199812 37.3170801,7.628 C37.1953881,8.08400228 36.9590423,8.48999822 36.6080358,8.846 C36.2570293,9.20200178 35.8385865,9.43599944 35.352695,9.548 C35.8689434,9.6520004 36.2190267,9.88399808 36.3965505,10.268 C36.5740744,10.6520019 36.5923827,11.1079974 36.4514761,11.636 C36.3425937,12.044002 36.1685232,12.4039984 35.9292594,12.716 C35.6899956,13.0280016 35.4100792,13.2899989 35.0895017,13.502 C34.7689243,13.7140011 34.420229,13.8739995 34.0434055,13.982 C33.6665819,14.0900005 33.2901748,14.144 32.914173,14.144 C32.5621712,14.144 32.2403154,14.1060004 31.9485958,14.03 C31.6568763,13.9539996 31.4063691,13.8360008 31.1970668,13.676 C30.9877646,13.5159992 30.8247408,13.3100013 30.7079908,13.058 C30.5912408,12.8059987 30.5318353,12.5040018 30.5297726,12.152 L32.1746544,11.744 C32.1687171,12.0960018 32.2521284,12.367999 32.4248907,12.56 C32.5976531,12.752001 32.876031,12.848 33.2600329,12.848 C33.4520339,12.848 33.6425718,12.8160003 33.8316522,12.752 C34.0207327,12.6879997 34.196749,12.5980006 34.3597064,12.482 C34.5226638,12.3659994 34.6640238,12.2260008 34.7837906,12.062 C34.9035575,11.8979992 34.9901264,11.716001 35.0435002,11.516 C35.1160884,11.2439986 35.117333,11.0220009 35.0472338,10.85 C34.9771346,10.6779991 34.8643622,10.5460005 34.7089132,10.454 C34.5534642,10.3619995 34.3680119,10.3000002 34.1525505,10.268 C33.9370892,10.2359998 33.7213612,10.22 33.5053602,10.22 L33.1573602,10.22 L33.5032202,8.924 Z" id="Vip3" fill="#FFFFFF"></path>
        </g>
    </g>
</svg>