<?xml version="1.0" encoding="UTF-8"?>
<svg width="50px" height="20px" viewBox="0 0 50 20" version="1.1" xmlns="http://www.w3.org/2000/svg" xmlns:xlink="http://www.w3.org/1999/xlink">
    <!-- Generator: Sketch 50 (54983) - http://www.bohemiancoding.com/sketch -->
    <title>vip_super</title>
    <desc>Created with Sketch.</desc>
    <defs>
        <linearGradient x1="100%" y1="100%" x2="26.3653838%" y2="15.3690232%" id="linearGradient-1">
            <stop stop-color="#FF727F" offset="0%"></stop>
            <stop stop-color="#F65165" offset="52.6508309%"></stop>
            <stop stop-color="#EE314E" offset="100%"></stop>
        </linearGradient>
    </defs>
    <g id="Symbols" stroke="none" stroke-width="1" fill="none" fill-rule="evenodd">
        <g id="vip_super">
            <rect id="Rectangle-2" fill="url(#linearGradient-1)" x="0" y="0" width="50" height="20" rx="10"></rect>
            <path d="M14.9600076,6.328 C14.8619203,6.09599884 14.6932895,5.92600054 14.4541099,5.818 C14.2149304,5.70999946 13.9473439,5.656 13.6513424,5.656 C13.4753415,5.656 13.300006,5.6759998 13.1253304,5.716 C12.9506548,5.7560002 12.785577,5.81999956 12.6300919,5.908 C12.4746068,5.99600044 12.3381853,6.1099993 12.2208233,6.25 C12.1034613,6.3900007 12.0191621,6.55599904 11.9679234,6.748 C11.8910652,7.03600144 11.932354,7.25599924 12.0917909,7.408 C12.2512279,7.56000076 12.4639993,7.69199944 12.7301115,7.804 C12.9962237,7.91600056 13.2913991,8.02399948 13.6156465,8.128 C13.9398939,8.23200052 14.2254622,8.37599908 14.4723598,8.56 C14.7192575,8.74400092 14.9021401,8.98799848 15.021013,9.292 C15.1398859,9.59600152 15.1320716,9.99999748 14.9975699,10.504 C14.8758778,10.9600023 14.6856665,11.3579983 14.4269303,11.698 C14.1681941,12.0380017 13.8669406,12.3199989 13.5231606,12.544 C13.1793806,12.7680011 12.8045507,12.9359994 12.3986595,13.048 C11.9927683,13.1600006 11.5818279,13.216 11.1658258,13.216 C10.6378231,13.216 10.1533123,13.1280009 9.71227875,12.952 C9.27124519,12.7759991 8.93024131,12.4800021 8.68925689,12.064 L10.1238784,10.96 C10.2331561,11.2400014 10.4169772,11.4579992 10.6753472,11.614 C10.9337172,11.7700008 11.2308985,11.848 11.5669002,11.848 C11.7429011,11.848 11.9253041,11.8240002 12.1141147,11.776 C12.3029252,11.7279998 12.4821379,11.6560005 12.651758,11.56 C12.8213781,11.4639995 12.9699344,11.3420007 13.0974314,11.194 C13.2249284,11.0459993 13.314295,10.876001 13.3655337,10.684 C13.4487967,10.3719984 13.4128453,10.1320008 13.2576782,9.964 C13.1025111,9.79599916 12.8924084,9.65400058 12.6273636,9.538 C12.3623189,9.42199942 12.0676773,9.31200052 11.7434298,9.208 C11.4191824,9.10399948 11.1330804,8.9620009 10.8851153,8.782 C10.6371502,8.6019991 10.4532002,8.3620015 10.3332597,8.062 C10.2133193,7.7619985 10.2205999,7.36000252 10.3551017,6.856 C10.4725239,6.4159978 10.6639315,6.0360016 10.9293304,5.716 C11.1947292,5.3959984 11.5017129,5.13000106 11.8502905,4.918 C12.1988681,4.70599894 12.5750294,4.54800052 12.9787856,4.444 C13.3825418,4.33999948 13.7804149,4.288 14.1724169,4.288 C14.6204191,4.288 15.036268,4.35599932 15.4199759,4.492 C15.8036839,4.62800068 16.1219025,4.85199844 16.3746411,5.164 L14.9600076,6.328 Z M21.0274691,13 L19.6594691,13 L19.9060545,12.076 L19.8820545,12.076 C19.6691956,12.3640014 19.3944816,12.6139989 19.057904,12.826 C18.7213265,13.0380011 18.3130426,13.144 17.8330402,13.144 C17.4490383,13.144 17.1395872,13.0820006 16.9046775,12.958 C16.6697679,12.8339994 16.4966033,12.6660011 16.3851787,12.454 C16.273754,12.2419989 16.2183364,12.0000014 16.2189243,11.728 C16.2195122,11.4559986 16.2593021,11.1720015 16.3382952,10.876 L17.3086247,7.24 L18.7486247,7.24 L17.9704397,10.156 C17.9277407,10.3160008 17.8882387,10.493999 17.8519325,10.69 C17.8156264,10.886001 17.8085229,11.0699991 17.8306218,11.242 C17.8527207,11.4140009 17.9182912,11.5579994 18.0273351,11.674 C18.1363791,11.7900006 18.3188989,11.848 18.5749002,11.848 C18.8149014,11.848 19.027574,11.8080004 19.2129243,11.728 C19.3982746,11.6479996 19.5630946,11.5400007 19.7073893,11.404 C19.851684,11.2679993 19.9713141,11.1120009 20.0662832,10.936 C20.1612523,10.7599991 20.2343552,10.576001 20.2855939,10.384 L21.1246247,7.24 L22.5646247,7.24 L21.0274691,13 Z M24.1966247,7.24 L25.5646247,7.24 L25.3340513,8.104 L25.3580513,8.104 C25.6599901,7.75199824 26.0083047,7.4960008 26.4030054,7.336 C26.7977061,7.1759992 27.1990515,7.096 27.6070535,7.096 C28.0470557,7.096 28.4222363,7.17399922 28.7326066,7.33 C29.0429769,7.48600078 29.2858648,7.69999864 29.4612778,7.972 C29.6366908,8.24400136 29.7392922,8.56399816 29.7690852,8.932 C29.7988782,9.30000184 29.7571992,9.69599788 29.6440469,10.12 C29.5308946,10.5440021 29.3572169,10.9399982 29.1230086,11.308 C28.8888002,11.6760018 28.6134055,11.9959986 28.296816,12.268 C27.9802265,12.5400014 27.6291204,12.7539992 27.2434872,12.91 C26.857854,13.0660008 26.4610423,13.144 26.0530402,13.144 C25.7810389,13.144 25.5485135,13.1160003 25.3554571,13.06 C25.1624007,13.0039997 24.9976168,12.9320004 24.8611004,12.844 C24.7245841,12.7559996 24.6136707,12.6620005 24.528357,12.562 C24.4430433,12.4619995 24.3771969,12.3640005 24.330816,12.268 L24.294816,12.268 L23.3693202,15.736 L21.9293202,15.736 L24.1966247,7.24 Z M28.2040469,10.12 C28.2638255,9.89599888 28.2834686,9.68000104 28.2629769,9.472 C28.2424852,9.26399896 28.1795894,9.0800008 28.0742876,8.92 C27.9689859,8.7599992 27.8251463,8.63200048 27.6427647,8.536 C27.460383,8.43999952 27.2371949,8.392 26.9731935,8.392 C26.7091922,8.392 26.4603851,8.43999952 26.2267647,8.536 C25.9931442,8.63200048 25.7809873,8.7599992 25.5902876,8.92 C25.3995879,9.0800008 25.2384859,9.26399896 25.1069769,9.472 C24.9754678,9.68000104 24.8798255,9.89599888 24.8200469,10.12 C24.7602683,10.3440011 24.7406252,10.559999 24.7611169,10.768 C24.7816086,10.976001 24.8445044,11.1599992 24.9498062,11.32 C25.0551079,11.4800008 25.1989475,11.6079995 25.3813291,11.704 C25.5637108,11.8000005 25.7868989,11.848 26.0509002,11.848 C26.3149015,11.848 26.5637087,11.8000005 26.7973291,11.704 C27.0309495,11.6079995 27.2431064,11.4800008 27.4338062,11.32 C27.6245059,11.1599992 27.7856078,10.976001 27.9171169,10.768 C28.0486259,10.559999 28.1442683,10.3440011 28.2040469,10.12 Z M32.0055458,10.624 C31.9382588,11.0560022 32.0165906,11.3919988 32.2405436,11.632 C32.4644965,11.8720012 32.7804693,11.992 33.1884713,11.992 C33.5484731,11.992 33.8702181,11.9180007 34.1537159,11.77 C34.4372136,11.6219993 34.7008483,11.4360011 34.9446278,11.212 L35.7684713,11.992 C35.3214523,12.4080021 34.8664641,12.7039991 34.4034932,12.88 C33.9405222,13.0560009 33.4810425,13.144 33.0250402,13.144 C32.5930381,13.144 32.2042564,13.0720007 31.8586836,12.928 C31.5131107,12.7839993 31.2355544,12.5800013 31.0260063,12.316 C30.8164583,12.0519987 30.6793234,11.7340019 30.6145977,11.362 C30.549872,10.9899981 30.5783548,10.5760023 30.7000469,10.12 C30.821739,9.66399772 31.0142201,9.25000186 31.277496,8.878 C31.540772,8.50599814 31.8476327,8.18800132 32.1980874,7.924 C32.5485421,7.65999868 32.9349792,7.45600072 33.3574102,7.312 C33.7798412,7.16799928 34.2070514,7.096 34.6390535,7.096 C35.0390555,7.096 35.3863714,7.1659993 35.6810114,7.306 C35.9756515,7.4460007 36.205742,7.64799868 36.3712898,7.912 C36.5368377,8.17600132 36.633838,8.50199806 36.6622936,8.89 C36.6907493,9.27800194 36.637727,9.72399748 36.5032252,10.228 L36.3975458,10.624 L32.0055458,10.624 Z M35.2457624,9.544 C35.3509147,9.11999788 35.3080488,8.78600122 35.1171635,8.542 C34.9262781,8.29799878 34.6028392,8.176 34.1468369,8.176 C33.7148347,8.176 33.3397469,8.29999876 33.0215623,8.548 C32.7033776,8.79600124 32.4607801,9.12799792 32.2937624,9.544 L35.2457624,9.544 Z M38.6446247,7.24 L40.0846247,7.24 L39.8412417,8.152 L39.8652417,8.152 C40.1149103,7.81599832 40.4122929,7.55600092 40.7573982,7.372 C41.1025035,7.18799908 41.4670516,7.096 41.8510535,7.096 C41.939054,7.096 42.0229182,7.10399992 42.1026487,7.12 C42.1823792,7.13600008 42.2630411,7.15599988 42.3446367,7.18 L41.9731574,8.572 C41.8616966,8.53999984 41.7506363,8.5140001 41.6399731,8.494 C41.5293099,8.4739999 41.4179797,8.464 41.3059791,8.464 C40.9699774,8.464 40.6834345,8.52599938 40.4463418,8.65 C40.2092491,8.77400062 40.0153558,8.9159992 39.8646563,9.076 C39.7139568,9.2360008 39.5992592,9.3959992 39.52056,9.556 C39.4418609,9.7160008 39.3918373,9.8359996 39.3704878,9.916 L38.5474691,13 L37.1074691,13 L38.6446247,7.24 Z" id="Super" fill="#FFFFFF"></path>
        </g>
    </g>
</svg>