<?xml version="1.0" standalone="no"?><!DOCTYPE svg PUBLIC "-//W3C//DTD SVG 1.1//EN" "http://www.w3.org/Graphics/SVG/1.1/DTD/svg11.dtd"><svg t="1544680923406" class="icon" style="" viewBox="0 0 1102 1024" version="1.1" xmlns="http://www.w3.org/2000/svg" p-id="8541" xmlns:xlink="http://www.w3.org/1999/xlink" width="215.234375" height="200"><defs><style type="text/css"></style></defs><path d="M1039.517538 980.913231h-102.242461V549.651692H694.980923v431.261539h-104.763077V83.259077h104.763077v360.763077h242.294154v-360.763077h102.242461v897.654154z m-526.572307-170.692923c-44.819692 40.723692-92.711385 47.970462-113.900308 51.515077-10.476308 1.811692-28.356923 3.702154-47.576615 5.198769V1024h-74.358154v-154.545231H220.553846V1024h-74.358154v-154.545231H0l15.281231-116.184615h44.425846c14.966154 0 21.267692-1.811692 27.490461-9.452308 6.222769-7.719385 7.640615-19.456 7.640616-28.908308v-400.147692c0-25.127385-1.575385-31.901538-10.476308-44.740923-8.822154-12.918154-29.696-14.572308-41.432615-14.572308H0V155.017846h146.195692V0H220.553846v155.017846h56.556308V0h74.358154v156.829538c55.374769 4.489846 96.649846 18.195692 132.647384 52.775385 46.473846 44.819692 44.110769 122.564923 43.08677 140.996923-1.024 18.589538-7.325538 54.350769-19.849847 77.351385-12.445538 23.000615-43.008 46.08-43.008 46.08s36.076308 9.924923 61.44 34.816c25.363692 24.812308 44.110769 68.686769 43.08677 132.804923-1.024 64.196923-11.106462 127.921231-55.926154 168.566154z m-126.818462-238.592c-13.784615-9.058462-44.740923-21.267692-81.526154-24.418462-36.864-3.150769-84.046769 0-84.046769 0v207.478154s49.309538 1.339077 82.313846-1.811692c32.925538-3.150769 66.953846-14.020923 84.04677-26.230154 17.014154-12.209231 37.494154-31.192615 37.494153-78.611692 0-47.497846-24.339692-67.347692-38.203077-76.406154zM282.466462 450.953846c27.096615-1.339077 55.926154-9.452308 76.72123-24.418461 20.795077-14.887385 32.610462-38.360615 31.980308-73.570462-0.787692-35.288615-18.747077-65.142154-49.309538-77.351385-30.641231-12.130462-51.042462-13.075692-74.358154-13.548307-23.236923-0.393846-46.867692 2.363077-46.867693 2.363077v186.525538s34.658462 1.417846 61.833847 0z" p-id="8542"></path></svg>