<?xml version="1.0" standalone="no"?><!DOCTYPE svg PUBLIC "-//W3C//DTD SVG 1.1//EN" "http://www.w3.org/Graphics/SVG/1.1/DTD/svg11.dtd"><svg t="1544680917273" class="icon" style="" viewBox="0 0 1024 1024" version="1.1" xmlns="http://www.w3.org/2000/svg" p-id="8431" xmlns:xlink="http://www.w3.org/1999/xlink" width="200" height="200"><defs><style type="text/css"></style></defs><path d="M778.020571 810.276571c-55.149714 40.667429-114.176 47.908571-140.288 51.492572-12.873143 1.755429-34.962286 3.657143-58.587428 5.12V1024H487.570286v-154.550857h-69.705143V1024H326.363429v-154.550857H146.285714l18.797715-116.150857h54.784c18.358857 0 26.038857-1.828571 33.792-9.508572 7.68-7.68 9.362286-19.382857 9.362285-28.891428V314.733714c0-25.088-1.901714-31.890286-12.8-44.763428-10.971429-12.873143-36.571429-14.628571-51.053714-14.628572H146.285714V155.062857h180.077715V0h91.501714v155.062857h69.705143V0h91.574857v156.891429c68.242286 4.388571 119.003429 18.139429 163.401143 52.809142 57.270857 44.690286 54.272 122.441143 53.028571 140.946286-1.316571 18.578286-8.996571 54.272-24.429714 77.312-15.36 23.04-53.028571 46.08-53.028572 46.08s44.470857 9.947429 75.702858 34.816c31.232 24.868571 54.345143 68.681143 53.028571 132.827429-1.243429 64.146286-13.604571 127.926857-68.754286 168.594285zM621.933714 571.684571c-17.115429-9.069714-55.222857-21.211429-100.498285-24.429714-45.348571-3.145143-103.570286 0-103.570286 0v207.433143s60.708571 1.316571 101.376-1.828571c40.667429-3.145143 82.578286-13.970286 103.497143-26.185143 20.992-12.214857 46.226286-31.232 46.226285-78.628572 0-47.542857-29.988571-67.291429-47.030857-76.361143z m-127.926857-120.685714c33.426286-1.389714 68.900571-9.508571 94.500572-24.429714 25.673143-14.921143 40.228571-38.4 39.424-73.654857-0.877714-35.254857-23.113143-65.097143-60.708572-77.238857-37.668571-12.214857-62.902857-13.165714-91.574857-13.604572-28.672-0.438857-57.782857 2.267429-57.782857 2.267429v186.660571s42.788571 1.316571 76.141714 0z" p-id="8432"></path></svg>