<?xml version="1.0" standalone="no"?><!DOCTYPE svg PUBLIC "-//W3C//DTD SVG 1.1//EN" "http://www.w3.org/Graphics/SVG/1.1/DTD/svg11.dtd"><svg t="1544680474925" class="icon" style="" viewBox="0 0 1024 1024" version="1.1" xmlns="http://www.w3.org/2000/svg" p-id="8116" xmlns:xlink="http://www.w3.org/1999/xlink" width="200" height="200"><defs><style type="text/css"></style></defs><path d="M679.045421 504.109176l24.877177-79.088941 45.296941 201.005177L679.045421 504.169412z m-100.773647 320.090353h141.071059l-174.742588 106.977883 33.671529-106.977883z m-161.370353 0l33.430588 107.459765-176.609882-107.459765h143.179294z m53.308235-589.101176L353.17248 438.151529 318.416715 326.475294l151.792941-216.244706v124.80753z m53.910589 0V112.338824L678.443068 326.354824l-35.96047 114.266352-118.362353-205.583058zM400.156009 770.228706H224.208715l114.206118-198.354824 61.741176 198.354824z m121.615059 53.910588l-24.335059 77.342118-24.094117-77.342118h48.429176z m135.288471-250.277647l113.061647 196.367059H595.258127l61.801412-196.367059z m-118.302118 196.367059H456.59648L375.037892 508.385882 497.134833 296.357647l123.361882 214.196706-81.739294 259.794823zM292.334833 424.357647l24.154353 77.522824-71.077647 123.482353 46.983529-201.005177z m547.659294 359.424l-0.060235-0.120471L734.461892 315.632941l-0.240941-0.783059a25.298824 25.298824 0 0 0-0.963765-2.831058 27.105882 27.105882 0 0 0-2.409412-4.818824c-0.240941-0.421647-0.481882-0.963765-0.843294-1.445647L522.433656 18.070588A26.925176 26.925176 0 0 0 497.134833 0l-0.843294 0.060235L495.50848 0a26.925176 26.925176 0 0 0-21.865412 11.444706L266.674598 306.296471l-0.843294 1.566117c-0.421647 0.722824-0.903529 1.445647-1.264942 2.228706l-0.963764 2.349177-0.843294 2.469647-0.240942 0.783058-111.194353 475.437177c-0.120471 0.481882 0 0.963765-0.060235 1.445647a26.503529 26.503529 0 0 0-0.421647 6.023529c0 0.963765 0.180706 1.807059 0.361412 2.770824a27.527529 27.527529 0 0 0 2.288941 7.589647c0.301176 0.602353 0.421647 1.204706 0.783059 1.807059 0.481882 0.843294 1.204706 1.505882 1.807059 2.349176 0.602353 0.783059 1.084235 1.566118 1.746823 2.288941 1.385412 1.505882 3.011765 2.770824 4.638118 3.915295l1.14447 0.963764 319.668706 194.43953c1.084235 0.722824 2.349176 1.024 3.493647 1.566117 0.843294 0.361412 1.686588 0.783059 2.590118 1.084236a27.105882 27.105882 0 0 0 7.710118 1.264941h0.180706a27.346824 27.346824 0 0 0 7.951058-1.204706c0.903529-0.301176 1.686588-0.783059 2.529883-1.204706 1.204706-0.481882 2.469647-0.843294 3.614117-1.505882l313.524706-191.909647a26.804706 26.804706 0 0 0 15.179294-39.032471z" p-id="8117" fill="#CCCCCC"></path></svg>