<?xml version="1.0" encoding="utf-8"?>
<!-- Generator: Adobe Illustrator 19.2.1, SVG Export Plug-In . SVG Version: 6.00 Build 0)  -->
<svg version="1.1" id="图层_1" xmlns="http://www.w3.org/2000/svg" xmlns:xlink="http://www.w3.org/1999/xlink" x="0px" y="0px"
	 viewBox="0 0 31.6 31.6" style="enable-background:new 0 0 31.6 31.6;" xml:space="preserve">
<style type="text/css">
	.st0{fill:#CCCCCC;}
</style>
<path class="st0" d="M30.9,13.5c-0.9-4.7-4.5-8.1-8.7-8.3H7.4C8.2,7,9,8.7,9.7,10.4h2.9c-0.6,1.6-2.3,5.1-2.3,5.1S7.3,8.7,5.8,5.3H4
	l5.5,12.1l-0.8,1.9l-6.4-14H0.6c0,0,9.3,20.7,9.8,21.9c0.6-1.2,1.1-2.5,1.7-3.7l5.7-13H22c2.2,0.1,4,2,4.3,4.4
	c0.2,1.4-0.1,2.7-0.9,3.8c-0.8,1.3-2.1,2.1-3.5,2.1H15l-3.9,8.6h1.7l3.1-7l0.9,1.7l-2.4,5.3h1.8c0,0,1.5-3.2,1.5-3.6h4.6
	c2.1-0.1,4-1,5.5-2.5c1.1-1.1,2-2.4,2.5-3.9C31.1,17.6,31.2,15.5,30.9,13.5z"/>
</svg>
