<?xml version="1.0" encoding="UTF-8"?>
<svg width="30px" height="30px" viewBox="0 0 30 30" version="1.1" xmlns="http://www.w3.org/2000/svg" xmlns:xlink="http://www.w3.org/1999/xlink">
    <!-- Generator: Sketch 52.1 (67048) - http://www.bohemiancoding.com/sketch -->
    <title>faq_icon2</title>
    <desc>Created with Sketch.</desc>
    <defs>
        <linearGradient x1="100%" y1="100%" x2="0%" y2="0%" id="linearGradient-1">
            <stop stop-color="#509AEF" stop-opacity="0" offset="0%"></stop>
            <stop stop-color="#3C6AF0" offset="100%"></stop>
        </linearGradient>
        <linearGradient x1="78.6010045%" y1="16.2521741%" x2="9.16588114%" y2="91.7868111%" id="linearGradient-2">
            <stop stop-color="#2D7DFF" stop-opacity="0.33" offset="0%"></stop>
            <stop stop-color="#6CA6FF" stop-opacity="0" offset="100%"></stop>
        </linearGradient>
    </defs>
    <g id="FAQ" stroke="none" stroke-width="1" fill="none" fill-rule="evenodd">
        <g id="B.0.FAQ主页-新" transform="translate(-740.000000, -439.000000)" fill-rule="nonzero">
            <g id="安全问题" transform="translate(710.000000, 420.000000)">
                <g id="faq_icon2" transform="translate(30.000000, 19.000000)">
                    <path d="M0,0 L14.8591549,-8.8817842e-16 C17.6205787,-1.39544373e-15 19.8591549,2.23857625 19.8591549,5 L19.8591549,19.8591549 L5,19.8591549 C2.23857625,19.8591549 -1.43817996e-15,17.6205787 -1.77635684e-15,14.8591549 L0,0 Z" id="矩形" fill="url(#linearGradient-1)"></path>
                    <path d="M10.1408451,10.1408451 L25,10.1408451 C27.7614237,10.1408451 30,12.3794213 30,15.1408451 L30,30 L15.1408451,30 C12.3794213,30 10.1408451,27.7614237 10.1408451,25 L10.1408451,10.1408451 Z" id="矩形-copy-3" fill="url(#linearGradient-2)"></path>
                </g>
            </g>
        </g>
    </g>
</svg>